
<svg xmlns="http://www.w3.org/2000/svg" viewBox="0 0 55 55">
	<style type="text/css">
		.st0{fill:url(#Background_1_);}
		.st1{fill:#2E2E30;}
		.st2{fill:#7F7F7F;}
		.st3{fill:#777777;}
		.st4{fill:none;}
		.st5{fill:url(#SVGID_1_);}
	</style>
	<linearGradient id="Background_1_" gradientUnits="userSpaceOnUse" x1="-172.6083" y1="-583.5327" x2="-172.6083" y2="-582.684" gradientTransform="matrix(60 0 0 60 10384 35014)">
		<stop  offset="0" style="stop-color:#D3D7DD"/>
		<stop  offset="1" style="stop-color:#888C90"/>
	</linearGradient>
	<linearGradient id="SVGID_1_" gradientUnits="userSpaceOnUse" x1="-171.8988" y1="-584.9121" x2="-171.8988" y2="-584.0632" gradientTransform="matrix(48.1623 0 0 48.1543 8306.4824 28173.1348)">
		<stop  offset="0" style="stop-color:#D9DADB"/>
		<stop  offset="1" style="stop-color:#7D8082"/>
	</linearGradient>
	<path id="Background_9_" class="st0" d="M35.2,2c5.1,0,7.6,0,10.4,0.8c3,1.1,5.4,3.5,6.5,6.5C53,12.1,53,14.7,53,19.8v15.4 c0,5.1,0,7.6-0.8,10.4c-1.1,3-3.5,5.4-6.5,6.5C42.8,53,40.3,53,35.2,53H19.8c-5.1,0-7.6,0-10.4-0.8C6.3,51,4,48.7,2.9,45.6 C2,42.9,2,40.3,2,35.2V19.8c0-5.1,0-7.6,0.8-10.4C4,6.4,6.3,4,9.4,2.9C12.1,2,14.7,2,19.8,2H35.2z"/>
	<circle id="Oval_3_" class="st1" cx="27.5" cy="27.5" r="22.1"/>
	<path id="path-3_14_" d="M29,15.8c0.1,0,0.1,0,0.2,0c0.1,0,0.3,0,0.4,0.1l0.6-1.5c0.2-0.5,0.3-0.4,0.3,0L30.4,16l0,0 c0.2,0,0.4,0.1,0.6,0.1l0,0l0.8-1.4c0.2-0.4,0.3-0.4,0.3,0.1l-0.3,1.6c0.2,0.1,0.4,0.2,0.5,0.2l0.9-1.3c0.3-0.4,0.4-0.3,0.3,0.2 L33,16.9l0,0c0.2,0.1,0.4,0.2,0.5,0.3l0,0l1-1.2c0.3-0.4,0.4-0.3,0.3,0.2l-0.6,1.5c0.2,0.1,0.3,0.2,0.5,0.4l1.2-1.1 c0.4-0.3,0.5-0.3,0.3,0.2l-0.8,1.4l0,0c0.2,0.1,0.3,0.3,0.4,0.4l0,0l1.3-0.9c0.4-0.3,0.5-0.2,0.2,0.2l-1,1.4 c0.2,0.1,0.2,0.3,0.4,0.5l1.4-0.7c0.4-0.2,0.5-0.2,0.2,0.3l-1.1,1.2l0,0c0.1,0.1,0.2,0.3,0.3,0.5l0,0l1.5-0.6c0.5-0.2,0.5,0,0.1,0.2 l-1.2,1c0.1,0.2,0.2,0.4,0.3,0.6l1.5-0.4c0.5-0.1,0.5,0,0.1,0.2l-1.3,0.9l0,0c0.1,0.2,0.1,0.4,0.2,0.5l1.6-0.2 c0.5,0,0.6,0.1,0.1,0.3L39,24.5c0,0.2,0.1,0.4,0.1,0.6l1.5,0c0.5,0,0.5,0.1,0.1,0.3l-1.4,0.5l0,0c0,0.2,0.1,0.4,0.1,0.6l0,0l1.6,0.2 c0.5,0.1,0.5,0.2,0,0.3l-1.5,0.4c0,0.2,0,0.4,0,0.6l1.5,0.4c0.5,0.1,0.5,0.2,0,0.3l-1.6,0.2l0,0c0,0.2-0.1,0.4-0.1,0.6 c0,0,0,0,0,0.1l0,0l1.5,0.5c0.5,0.2,0.5,0.3,0,0.3l-1.5,0c0,0.2-0.1,0.4-0.1,0.6l1.4,0.7c0.4,0.2,0.4,0.3-0.1,0.3l-1.5-0.2 c-0.1,0.2-0.1,0.4-0.2,0.5l0,0l1.3,0.9c0.4,0.3,0.3,0.4-0.1,0.3l-1.5-0.4c-0.1,0.2-0.2,0.4-0.2,0.5l1.2,1c0.4,0.3,0.3,0.4-0.2,0.3 l-1.4-0.5l0,0c-0.1,0.2-0.2,0.4-0.4,0.5l0,0l1,1.1c0.4,0.3,0.3,0.5-0.2,0.3l-1.4-0.9c-0.1,0.2-0.3,0.3-0.4,0.5l0.9,1.2 c0.3,0.4,0.2,0.5-0.2,0.2l-1.3-0.9l0,0c-0.1,0.2-0.3,0.3-0.5,0.4l0.8,1.3c0.2,0.4,0.2,0.5-0.3,0.2l-1.2-1c-0.2,0.1-0.3,0.2-0.5,0.3 l0.6,1.4c0.2,0.5,0.1,0.5-0.2,0.1l-1-1.1l0,0c-0.2,0.1-0.4,0.2-0.6,0.3l0.4,1.5c0.2,0.5,0,0.5-0.2,0.1l-0.9-1.3 c-0.2,0.1-0.4,0.2-0.6,0.3l0.2,1.5c0.1,0.5,0,0.5-0.3,0.1l-0.7-1.4l0,0c-0.2,0-0.4,0.1-0.6,0.1l0,0l0.1,1.5c0,0.5-0.1,0.5-0.3,0.1 l-0.6-1.3c-0.2,0-0.4,0.1-0.6,0.1l-0.1,1.5c0,0.5-0.2,0.5-0.3,0l-0.4-1.5l0,0c-0.2,0-0.4,0-0.6,0l0,0l-0.3,1.5 c-0.1,0.5-0.2,0.5-0.3,0l-0.1-1.6c-0.2,0-0.4-0.1-0.6,0l-0.5,1.5c-0.2,0.5-0.3,0.5-0.3,0l0-1.5l0,0c-0.2,0-0.4-0.1-0.6-0.1l0,0 l-0.7,1.4c-0.2,0.4-0.3,0.4-0.3-0.1l0.2-1.5c-0.2-0.1-0.4-0.1-0.5-0.2L22.6,40c-0.2,0.4-0.4,0.4-0.3-0.1l0.3-1.5 c-0.2-0.1-0.4-0.2-0.5-0.2l0,0l-1,1.2c-0.3,0.4-0.4,0.3-0.3-0.2l0.5-1.5c-0.2-0.1-0.3-0.2-0.5-0.3l-1.1,1.1 c-0.3,0.4-0.4,0.3-0.3-0.2l0.7-1.4l0,0c-0.2-0.1-0.3-0.3-0.5-0.4l0,0l-1.2,1c-0.4,0.3-0.5,0.2-0.2-0.2l0.9-1.3 c-0.2-0.1-0.3-0.3-0.4-0.5l-1.3,0.7c-0.4,0.3-0.5,0.2-0.2-0.2l1-1.2l0,0c-0.2-0.1-0.2-0.3-0.3-0.4l0,0l-1.4,0.7 c-0.4,0.2-0.5,0.1-0.2-0.3l1.1-1.1c-0.1-0.2-0.2-0.3-0.3-0.5l-1.5,0.5c-0.5,0.2-0.5,0-0.1-0.2l1.3-1l0,0c-0.1-0.2-0.2-0.4-0.2-0.5 L15,32.3c-0.5,0.1-0.5,0-0.1-0.3l1.4-0.8c-0.1-0.2-0.1-0.4-0.2-0.5l-1.7,0.1c-0.5,0-0.6-0.1-0.1-0.3l1.5-0.6l0,0 c0-0.2-0.1-0.4-0.1-0.6l0,0l-1.6-0.1c-0.5,0-0.5-0.1,0-0.3l1.5-0.5c0-0.2,0-0.4,0-0.6l-1.6-0.3c-0.5-0.1-0.5-0.2,0-0.3l1.6-0.3l0,0 c0-0.2,0-0.4,0-0.6l0,0l-1.5-0.4c-0.5-0.1-0.5-0.3,0-0.3l1.6-0.1c0-0.2,0.1-0.4,0.1-0.6l-1.5-0.6c-0.4-0.2-0.4-0.3,0.1-0.3l1.6,0.1 l0,0c0-0.2,0.1-0.4,0.2-0.5l0,0l-1.4-0.8c-0.4-0.2-0.4-0.3,0.1-0.3l1.6,0.3c0.1-0.2,0.2-0.4,0.2-0.5l-1.3-0.9 c-0.4-0.3-0.3-0.4,0.2-0.3l1.5,0.5l0,0c0.1-0.2,0.2-0.3,0.3-0.5l0,0l-1.2-1.1C15.9,20,16,19.9,16.4,20l1.4,0.7 c0.1-0.2,0.2-0.3,0.4-0.5l-1-1.2c-0.3-0.4-0.2-0.5,0.2-0.2l1.4,0.8l0,0c0.1-0.2,0.3-0.2,0.4-0.4l0,0l-0.9-1.4 c-0.3-0.4-0.2-0.5,0.2-0.2l1.3,1c0.1-0.2,0.3-0.2,0.5-0.4l-0.7-1.6c-0.2-0.4-0.1-0.5,0.3-0.2l1.2,1.1l0,0c0.1-0.1,0.3-0.2,0.5-0.3 l-0.5-1.5c-0.2-0.5,0-0.5,0.2-0.1l1,1.3c0.2-0.1,0.4-0.2,0.5-0.3l-0.3-1.6c-0.1-0.5,0-0.5,0.3-0.1l0.8,1.4l0,0 c0.2-0.1,0.4-0.1,0.5-0.2l0,0l-0.2-1.6c0-0.5,0.1-0.6,0.3-0.1l0.7,1.5c0.2,0,0.4-0.1,0.5-0.1l0.1-1.6c0-0.5,0.1-0.5,0.3,0l0.5,1.6 l0,0c0.2,0,0.4-0.1,0.6,0l0,0l0.2-1.6c0.1-0.5,0.2-0.5,0.3,0l0.3,1.6c0.2,0,0.4,0,0.6,0l0.4-1.5c0.1-0.5,0.2-0.5,0.3,0L29,15.8 L29,15.8z M26.1,37.2c5.3,0.7,10.2-3,11-8.3s-3-10.2-8.3-11s-10.3,2.9-11,8.2S20.8,36.4,26.1,37.2z"/>
	<path id="path-3_4_" class="st2" d="M29,15.8c0.1,0,0.1,0,0.2,0c0.1,0,0.3,0,0.4,0.1l0.6-1.5c0.2-0.5,0.3-0.4,0.3,0L30.4,16l0,0 c0.2,0,0.4,0.1,0.6,0.1l0,0l0.8-1.4c0.2-0.4,0.3-0.4,0.3,0.1l-0.3,1.6c0.2,0.1,0.4,0.2,0.5,0.2l0.9-1.3c0.3-0.4,0.4-0.3,0.3,0.2 L33,16.9l0,0c0.2,0.1,0.4,0.2,0.5,0.3l0,0l1-1.2c0.3-0.4,0.4-0.3,0.3,0.2l-0.6,1.5c0.2,0.1,0.3,0.2,0.5,0.4l1.2-1.1 c0.4-0.3,0.5-0.3,0.3,0.2l-0.8,1.4l0,0c0.2,0.1,0.3,0.3,0.4,0.4l0,0l1.3-0.9c0.4-0.3,0.5-0.2,0.2,0.2l-1,1.4 c0.2,0.1,0.2,0.3,0.4,0.5l1.4-0.7c0.4-0.2,0.5-0.2,0.2,0.3l-1.1,1.2l0,0c0.1,0.1,0.2,0.3,0.3,0.5l0,0l1.5-0.6c0.5-0.2,0.5,0,0.1,0.2 l-1.2,1c0.1,0.2,0.2,0.4,0.3,0.6l1.5-0.4c0.5-0.1,0.5,0,0.1,0.2l-1.3,0.9l0,0c0.1,0.2,0.1,0.4,0.2,0.5l1.6-0.2 c0.5,0,0.6,0.1,0.1,0.3L39,24.5c0,0.2,0.1,0.4,0.1,0.6l1.5,0c0.5,0,0.5,0.1,0.1,0.3l-1.4,0.5l0,0c0,0.2,0.1,0.4,0.1,0.6l0,0l1.6,0.2 c0.5,0.1,0.5,0.2,0,0.3l-1.5,0.4c0,0.2,0,0.4,0,0.6l1.5,0.4c0.5,0.1,0.5,0.2,0,0.3l-1.6,0.2l0,0c0,0.2-0.1,0.4-0.1,0.6 c0,0,0,0,0,0.1l0,0l1.5,0.5c0.5,0.2,0.5,0.3,0,0.3l-1.5,0c0,0.2-0.1,0.4-0.1,0.6l1.4,0.7c0.4,0.2,0.4,0.3-0.1,0.3l-1.5-0.2 c-0.1,0.2-0.1,0.4-0.2,0.5l0,0l1.3,0.9c0.4,0.3,0.3,0.4-0.1,0.3l-1.5-0.4c-0.1,0.2-0.2,0.4-0.2,0.5l1.2,1c0.4,0.3,0.3,0.4-0.2,0.3 l-1.4-0.5l0,0c-0.1,0.2-0.2,0.4-0.4,0.5l0,0l1,1.1c0.4,0.3,0.3,0.5-0.2,0.3l-1.4-0.9c-0.1,0.2-0.3,0.3-0.4,0.5l0.9,1.2 c0.3,0.4,0.2,0.5-0.2,0.2l-1.3-0.9l0,0c-0.1,0.2-0.3,0.3-0.5,0.4l0.8,1.3c0.2,0.4,0.2,0.5-0.3,0.2l-1.2-1c-0.2,0.1-0.3,0.2-0.5,0.3 l0.6,1.4c0.2,0.5,0.1,0.5-0.2,0.1l-1-1.1l0,0c-0.2,0.1-0.4,0.2-0.6,0.3l0.4,1.5c0.2,0.5,0,0.5-0.2,0.1l-0.9-1.3 c-0.2,0.1-0.4,0.2-0.6,0.3l0.2,1.5c0.1,0.5,0,0.5-0.3,0.1l-0.7-1.4l0,0c-0.2,0-0.4,0.1-0.6,0.1l0,0l0.1,1.5c0,0.5-0.1,0.5-0.3,0.1 l-0.6-1.3c-0.2,0-0.4,0.1-0.6,0.1l-0.1,1.5c0,0.5-0.2,0.5-0.3,0l-0.4-1.5l0,0c-0.2,0-0.4,0-0.6,0l0,0l-0.3,1.5 c-0.1,0.5-0.2,0.5-0.3,0l-0.1-1.6c-0.2,0-0.4-0.1-0.6,0l-0.5,1.5c-0.2,0.5-0.3,0.5-0.3,0l0-1.5l0,0c-0.2,0-0.4-0.1-0.6-0.1l0,0 l-0.7,1.4c-0.2,0.4-0.3,0.4-0.3-0.1l0.2-1.5c-0.2-0.1-0.4-0.1-0.5-0.2L22.6,40c-0.2,0.4-0.4,0.4-0.3-0.1l0.3-1.5 c-0.2-0.1-0.4-0.2-0.5-0.2l0,0l-1,1.2c-0.3,0.4-0.4,0.3-0.3-0.2l0.5-1.5c-0.2-0.1-0.3-0.2-0.5-0.3l-1.1,1.1 c-0.3,0.4-0.4,0.3-0.3-0.2l0.7-1.4l0,0c-0.2-0.1-0.3-0.3-0.5-0.4l0,0l-1.2,1c-0.4,0.3-0.5,0.2-0.2-0.2l0.9-1.3 c-0.2-0.1-0.3-0.3-0.4-0.5l-1.3,0.7c-0.4,0.3-0.5,0.2-0.2-0.2l1-1.2l0,0c-0.2-0.1-0.2-0.3-0.3-0.4l0,0l-1.4,0.7 c-0.4,0.2-0.5,0.1-0.2-0.3l1.1-1.1c-0.1-0.2-0.2-0.3-0.3-0.5l-1.5,0.5c-0.5,0.2-0.5,0-0.1-0.2l1.3-1l0,0c-0.1-0.2-0.2-0.4-0.2-0.5 L15,32.3c-0.5,0.1-0.5,0-0.1-0.3l1.4-0.8c-0.1-0.2-0.1-0.4-0.2-0.5l-1.7,0.1c-0.5,0-0.6-0.1-0.1-0.3l1.5-0.6l0,0 c0-0.2-0.1-0.4-0.1-0.6l0,0l-1.6-0.1c-0.5,0-0.5-0.1,0-0.3l1.5-0.5c0-0.2,0-0.4,0-0.6l-1.6-0.3c-0.5-0.1-0.5-0.2,0-0.3l1.6-0.3l0,0 c0-0.2,0-0.4,0-0.6l0,0l-1.5-0.4c-0.5-0.1-0.5-0.3,0-0.3l1.6-0.1c0-0.2,0.1-0.4,0.1-0.6l-1.5-0.6c-0.4-0.2-0.4-0.3,0.1-0.3l1.6,0.1 l0,0c0-0.2,0.1-0.4,0.2-0.5l0,0l-1.4-0.8c-0.4-0.2-0.4-0.3,0.1-0.3l1.6,0.3c0.1-0.2,0.2-0.4,0.2-0.5l-1.3-0.9 c-0.4-0.3-0.3-0.4,0.2-0.3l1.5,0.5l0,0c0.1-0.2,0.2-0.3,0.3-0.5l0,0l-1.2-1.1C15.9,20,16,19.9,16.4,20l1.4,0.7 c0.1-0.2,0.2-0.3,0.4-0.5l-1-1.2c-0.3-0.4-0.2-0.5,0.2-0.2l1.4,0.8l0,0c0.1-0.2,0.3-0.2,0.4-0.4l0,0l-0.9-1.4 c-0.3-0.4-0.2-0.5,0.2-0.2l1.3,1c0.1-0.2,0.3-0.2,0.5-0.4l-0.7-1.6c-0.2-0.4-0.1-0.5,0.3-0.2l1.2,1.1l0,0c0.1-0.1,0.3-0.2,0.5-0.3 l-0.5-1.5c-0.2-0.5,0-0.5,0.2-0.1l1,1.3c0.2-0.1,0.4-0.2,0.5-0.3l-0.3-1.6c-0.1-0.5,0-0.5,0.3-0.1l0.8,1.4l0,0 c0.2-0.1,0.4-0.1,0.5-0.2l0,0l-0.2-1.6c0-0.5,0.1-0.6,0.3-0.1l0.7,1.5c0.2,0,0.4-0.1,0.5-0.1l0.1-1.6c0-0.5,0.1-0.5,0.3,0l0.5,1.6 l0,0c0.2,0,0.4-0.1,0.6,0l0,0l0.2-1.6c0.1-0.5,0.2-0.5,0.3,0l0.3,1.6c0.2,0,0.4,0,0.6,0l0.4-1.5c0.1-0.5,0.2-0.5,0.3,0L29,15.8 L29,15.8z M26.1,37.2c5.3,0.7,10.2-3,11-8.3s-3-10.2-8.3-11s-10.3,2.9-11,8.2S20.8,36.4,26.1,37.2z"/>
	<path id="path-3_15_" class="st3" d="M29,15.8c0.1,0,0.1,0,0.2,0c0.1,0,0.3,0,0.4,0.1l0.6-1.5c0.2-0.5,0.3-0.4,0.3,0L30.4,16l0,0 c0.2,0,0.4,0.1,0.6,0.1l0,0l0.8-1.4c0.2-0.4,0.3-0.4,0.3,0.1l-0.3,1.6c0.2,0.1,0.4,0.2,0.5,0.2l0.9-1.3c0.3-0.4,0.4-0.3,0.3,0.2 L33,16.9l0,0c0.2,0.1,0.4,0.2,0.5,0.3l0,0l1-1.2c0.3-0.4,0.4-0.3,0.3,0.2l-0.6,1.5c0.2,0.1,0.3,0.2,0.5,0.4l1.2-1.1 c0.4-0.3,0.5-0.3,0.3,0.2l-0.8,1.4l0,0c0.2,0.1,0.3,0.3,0.4,0.4l0,0l1.3-0.9c0.4-0.3,0.5-0.2,0.2,0.2l-1,1.4 c0.2,0.1,0.2,0.3,0.4,0.5l1.4-0.7c0.4-0.2,0.5-0.2,0.2,0.3l-1.1,1.2l0,0c0.1,0.1,0.2,0.3,0.3,0.5l0,0l1.5-0.6c0.5-0.2,0.5,0,0.1,0.2 l-1.2,1c0.1,0.2,0.2,0.4,0.3,0.6l1.5-0.4c0.5-0.1,0.5,0,0.1,0.2l-1.3,0.9l0,0c0.1,0.2,0.1,0.4,0.2,0.5l1.6-0.2 c0.5,0,0.6,0.1,0.1,0.3L39,24.5c0,0.2,0.1,0.4,0.1,0.6l1.5,0c0.5,0,0.5,0.1,0.1,0.3l-1.4,0.5l0,0c0,0.2,0.1,0.4,0.1,0.6l0,0l1.6,0.2 c0.5,0.1,0.5,0.2,0,0.3l-1.5,0.4c0,0.2,0,0.4,0,0.6l1.5,0.4c0.5,0.1,0.5,0.2,0,0.3l-1.6,0.2l0,0c0,0.2-0.1,0.4-0.1,0.6 c0,0,0,0,0,0.1l0,0l1.5,0.5c0.5,0.2,0.5,0.3,0,0.3l-1.5,0c0,0.2-0.1,0.4-0.1,0.6l1.4,0.7c0.4,0.2,0.4,0.3-0.1,0.3l-1.5-0.2 c-0.1,0.2-0.1,0.4-0.2,0.5l0,0l1.3,0.9c0.4,0.3,0.3,0.4-0.1,0.3l-1.5-0.4c-0.1,0.2-0.2,0.4-0.2,0.5l1.2,1c0.4,0.3,0.3,0.4-0.2,0.3 l-1.4-0.5l0,0c-0.1,0.2-0.2,0.4-0.4,0.5l0,0l1,1.1c0.4,0.3,0.3,0.5-0.2,0.3l-1.4-0.9c-0.1,0.2-0.3,0.3-0.4,0.5l0.9,1.2 c0.3,0.4,0.2,0.5-0.2,0.2l-1.3-0.9l0,0c-0.1,0.2-0.3,0.3-0.5,0.4l0.8,1.3c0.2,0.4,0.2,0.5-0.3,0.2l-1.2-1c-0.2,0.1-0.3,0.2-0.5,0.3 l0.6,1.4c0.2,0.5,0.1,0.5-0.2,0.1l-1-1.1l0,0c-0.2,0.1-0.4,0.2-0.6,0.3l0.4,1.5c0.2,0.5,0,0.5-0.2,0.1l-0.9-1.3 c-0.2,0.1-0.4,0.2-0.6,0.3l0.2,1.5c0.1,0.5,0,0.5-0.3,0.1l-0.7-1.4l0,0c-0.2,0-0.4,0.1-0.6,0.1l0,0l0.1,1.5c0,0.5-0.1,0.5-0.3,0.1 l-0.6-1.3c-0.2,0-0.4,0.1-0.6,0.1l-0.1,1.5c0,0.5-0.2,0.5-0.3,0l-0.4-1.5l0,0c-0.2,0-0.4,0-0.6,0l0,0l-0.3,1.5 c-0.1,0.5-0.2,0.5-0.3,0l-0.1-1.6c-0.2,0-0.4-0.1-0.6,0l-0.5,1.5c-0.2,0.5-0.3,0.5-0.3,0l0-1.5l0,0c-0.2,0-0.4-0.1-0.6-0.1l0,0 l-0.7,1.4c-0.2,0.4-0.3,0.4-0.3-0.1l0.2-1.5c-0.2-0.1-0.4-0.1-0.5-0.2L22.6,40c-0.2,0.4-0.4,0.4-0.3-0.1l0.3-1.5 c-0.2-0.1-0.4-0.2-0.5-0.2l0,0l-1,1.2c-0.3,0.4-0.4,0.3-0.3-0.2l0.5-1.5c-0.2-0.1-0.3-0.2-0.5-0.3l-1.1,1.1 c-0.3,0.4-0.4,0.3-0.3-0.2l0.7-1.4l0,0c-0.2-0.1-0.3-0.3-0.5-0.4l0,0l-1.2,1c-0.4,0.3-0.5,0.2-0.2-0.2l0.9-1.3 c-0.2-0.1-0.3-0.3-0.4-0.5l-1.3,0.7c-0.4,0.3-0.5,0.2-0.2-0.2l1-1.2l0,0c-0.2-0.1-0.2-0.3-0.3-0.4l0,0l-1.4,0.7 c-0.4,0.2-0.5,0.1-0.2-0.3l1.1-1.1c-0.1-0.2-0.2-0.3-0.3-0.5l-1.5,0.5c-0.5,0.2-0.5,0-0.1-0.2l1.3-1l0,0c-0.1-0.2-0.2-0.4-0.2-0.5 L15,32.3c-0.5,0.1-0.5,0-0.1-0.3l1.4-0.8c-0.1-0.2-0.1-0.4-0.2-0.5l-1.7,0.1c-0.5,0-0.6-0.1-0.1-0.3l1.5-0.6l0,0 c0-0.2-0.1-0.4-0.1-0.6l0,0l-1.6-0.1c-0.5,0-0.5-0.1,0-0.3l1.5-0.5c0-0.2,0-0.4,0-0.6l-1.6-0.3c-0.5-0.1-0.5-0.2,0-0.3l1.6-0.3l0,0 c0-0.2,0-0.4,0-0.6l0,0l-1.5-0.4c-0.5-0.1-0.5-0.3,0-0.3l1.6-0.1c0-0.2,0.1-0.4,0.1-0.6l-1.5-0.6c-0.4-0.2-0.4-0.3,0.1-0.3l1.6,0.1 l0,0c0-0.2,0.1-0.4,0.2-0.5l0,0l-1.4-0.8c-0.4-0.2-0.4-0.3,0.1-0.3l1.6,0.3c0.1-0.2,0.2-0.4,0.2-0.5l-1.3-0.9 c-0.4-0.3-0.3-0.4,0.2-0.3l1.5,0.5l0,0c0.1-0.2,0.2-0.3,0.3-0.5l0,0l-1.2-1.1C15.9,20,16,19.9,16.4,20l1.4,0.7 c0.1-0.2,0.2-0.3,0.4-0.5l-1-1.2c-0.3-0.4-0.2-0.5,0.2-0.2l1.4,0.8l0,0c0.1-0.2,0.3-0.2,0.4-0.4l0,0l-0.9-1.4 c-0.3-0.4-0.2-0.5,0.2-0.2l1.3,1c0.1-0.2,0.3-0.2,0.5-0.4l-0.7-1.6c-0.2-0.4-0.1-0.5,0.3-0.2l1.2,1.1l0,0c0.1-0.1,0.3-0.2,0.5-0.3 l-0.5-1.5c-0.2-0.5,0-0.5,0.2-0.1l1,1.3c0.2-0.1,0.4-0.2,0.5-0.3l-0.3-1.6c-0.1-0.5,0-0.5,0.3-0.1l0.8,1.4l0,0 c0.2-0.1,0.4-0.1,0.5-0.2l0,0l-0.2-1.6c0-0.5,0.1-0.6,0.3-0.1l0.7,1.5c0.2,0,0.4-0.1,0.5-0.1l0.1-1.6c0-0.5,0.1-0.5,0.3,0l0.5,1.6 l0,0c0.2,0,0.4-0.1,0.6,0l0,0l0.2-1.6c0.1-0.5,0.2-0.5,0.3,0l0.3,1.6c0.2,0,0.4,0,0.6,0l0.4-1.5c0.1-0.5,0.2-0.5,0.3,0L29,15.8 L29,15.8z M26.1,37.2c5.3,0.7,10.2-3,11-8.3s-3-10.2-8.3-11s-10.3,2.9-11,8.2S20.8,36.4,26.1,37.2z"/>
	<path class="st4" d="M40.7,28.5H29.9c-0.9,0-2.1,0.6-2.5,1.5l-5.5,9.6c-0.6,1-0.1,2.3,1.1,2.8c1.8,1,6.3,0.9,9.8-0.1 c2.7-1,5-2.7,6.8-4.8c2.4-3,3.1-6.1,3.1-7C42.7,29.5,41.9,28.5,40.7,28.5z"/>
	<circle class="st4" cx="27.5" cy="27.5" r="0.8"/>
	<path class="st5" d="M47.4,28.5c0.7-0.1,0.7-0.3,0-0.5l-2.1-0.4c0-0.1,0-0.1,0-0.2c0-0.3,0-0.6,0-0.8l2-0.5c0.7-0.2,0.7-0.4-0.1-0.5 l-2.1-0.2c-0.1-0.3-0.1-0.6-0.1-1l2-0.7c0.7-0.3,0.7-0.5-0.1-0.5l-2.1,0.1c-0.1-0.3-0.2-0.6-0.2-1l1.9-1c0.7-0.3,0.6-0.5-0.1-0.4 l-2.1,0.3c-0.1-0.3-0.2-0.6-0.3-0.9l1.8-1.2c0.6-0.5,0.5-0.6-0.2-0.4l-2,0.6c-0.2-0.3-0.3-0.6-0.5-0.8l1.6-1.4 c0.6-0.5,0.5-0.7-0.2-0.4l-1.9,0.8c-0.2-0.3-0.4-0.6-0.6-0.8l1.4-1.6c0.5-0.6,0.4-0.7-0.3-0.3l-2,1c-0.2-0.2-0.4-0.5-0.6-0.7 l1.2-1.8c0.5-0.6,0.3-0.7-0.3-0.3l-1.7,1.2c-0.2-0.2-0.5-0.5-0.7-0.6l1-1.9c0.3-0.7,0.2-0.8-0.3-0.3L38.1,13 c-0.3-0.2-0.5-0.4-0.8-0.6l0.8-2c0.3-0.7,0.1-0.8-0.4-0.2l-1.4,1.6c-0.3-0.2-0.6-0.3-0.8-0.5l0.5-2c0.2-0.7,0-0.8-0.4-0.2l-1.1,1.8 c-0.3-0.1-0.6-0.2-0.9-0.3l0.3-2.1c0.1-0.7-0.1-0.8-0.4-0.1l-1,1.9c-0.3-0.1-0.6-0.2-1-0.2l0.1-2.1c0-0.7-0.2-0.8-0.5-0.1l-0.7,2 c-0.3-0.1-0.6-0.1-1-0.1l-0.3-2C29,7,28.8,7,28.6,7.6l-0.5,2c-0.2,0-0.5,0-0.7,0c-0.1,0-0.2,0-0.3,0l-0.5-2.1 c-0.2-0.7-0.3-0.7-0.5,0L26,9.7c-0.3,0-0.6,0.1-1,0.1l-0.7-2c-0.2-0.7-0.5-0.7-0.5,0.1l0.1,2.1c-0.3,0.1-0.6,0.1-1,0.2l-0.9-1.9 c-0.3-0.7-0.5-0.6-0.5,0.1l0.2,2.1c-0.3,0.1-0.6,0.2-0.9,0.3l-1.1-1.8c-0.4-0.6-0.6-0.6-0.4,0.2l0.5,2c-0.3,0.1-0.6,0.3-0.8,0.5 l-1.4-1.6c-0.5-0.6-0.6-0.5-0.4,0.2l0.7,2c-0.3,0.2-0.6,0.3-0.8,0.5l-1.5-1.5c-0.6-0.5-0.7-0.4-0.3,0.3l1,1.9 c-0.2,0.2-0.5,0.4-0.7,0.6l-1.7-1.2c-0.6-0.5-0.7-0.3-0.3,0.3l1.2,1.8c-0.2,0.2-0.5,0.5-0.7,0.7l-1.8-1.1c-0.6-0.4-0.8-0.2-0.3,0.3 l1.4,1.6l0,0c-0.2,0.2-0.4,0.5-0.6,0.8l-1.9-0.8c-0.7-0.3-0.8-0.1-0.2,0.4l1.6,1.4c-0.2,0.3-0.3,0.6-0.5,0.8l-2-0.6 c-0.7-0.2-0.8,0-0.2,0.4l1.7,1.2c-0.1,0.3-0.3,0.6-0.4,0.9l-2.1-0.3C8,20.5,8,20.7,8.6,21l1.9,1c-0.1,0.3-0.2,0.6-0.3,0.9l-2.1-0.1 c-0.7,0-0.8,0.2-0.1,0.5l2,0.7c-0.1,0.3-0.1,0.6-0.2,1l-2.1,0.3C7,25.4,7,25.6,7.6,25.8l2,0.6c0,0.3-0.1,0.6-0.1,1l-2.1,0.4 c-0.7,0.1-0.7,0.3,0,0.5l2.1,0.3c0,0.3,0.1,0.6,0.1,1l-2,0.6c-0.7,0.2-0.7,0.4,0.1,0.5l2.1,0.1c0.1,0.3,0.1,0.6,0.2,1L8,32.4 c-0.7,0.3-0.6,0.5,0.1,0.5l2.1-0.2c0.1,0.3,0.2,0.6,0.3,1l-1.8,1.1c-0.6,0.4-0.6,0.6,0.2,0.4l2.1-0.5c0.1,0.3,0.3,0.6,0.4,0.9 l-1.6,1.3c-0.6,0.5-0.5,0.6,0.2,0.4l2-0.7c0.2,0.3,0.3,0.6,0.5,0.8l-1.4,1.4c-0.5,0.5-0.4,0.7,0.2,0.3l1.9-0.9 c0.2,0.3,0.4,0.5,0.6,0.7l-1.3,1.6c-0.5,0.6-0.3,0.7,0.3,0.3l1.8-1.1c0.2,0.2,0.5,0.5,0.7,0.7l-1.1,1.8c-0.4,0.6-0.2,0.7,0.3,0.3 l1.6-1.4c0.2,0.2,0.5,0.4,0.8,0.6l-0.9,1.9c-0.3,0.7-0.2,0.8,0.3,0.2l1.5-1.5c0.3,0.2,0.6,0.3,0.8,0.5l-0.7,2 c-0.2,0.7-0.1,0.8,0.4,0.2l1.3-1.7c0.3,0.1,0.6,0.3,0.9,0.4l-0.4,2.1c-0.2,0.7,0.1,0.8,0.4,0.2l1.1-1.8c0.3,0.1,0.6,0.2,0.9,0.3 l-0.2,2.2c-0.1,0.7,0.1,0.8,0.5,0.1l0.8-1.9c0.3,0.1,0.6,0.1,1,0.2l0.1,2.1c0.1,0.7,0.2,0.7,0.5,0.1l0.6-2c0.3,0.1,0.7,0.1,1,0.1 l0.3,2.1c0.1,0.7,0.3,0.7,0.5,0l0.4-2.1c0.3,0,0.6,0,1-0.1l0.6,2c0.2,0.7,0.4,0.7,0.5-0.1l0.1-2.1c0.3-0.1,0.6-0.1,1-0.2l0.8,1.9 c0.3,0.7,0.5,0.6,0.5-0.1l-0.2-2c0.3-0.1,0.6-0.2,0.9-0.3l1.1,1.8c0.4,0.6,0.6,0.6,0.4-0.2L34,44c0.3-0.1,0.6-0.2,0.9-0.4l1.2,1.7 c0.5,0.6,0.6,0.5,0.4-0.2L36,43.2c0.3-0.2,0.6-0.3,0.8-0.5l1.4,1.5c0.5,0.6,0.7,0.5,0.4-0.2L37.8,42c0.3-0.2,0.5-0.4,0.8-0.6 l1.6,1.4c0.6,0.5,0.7,0.3,0.3-0.3l-1.1-1.8c0.2-0.2,0.5-0.5,0.7-0.7l1.8,1.1c0.6,0.4,0.7,0.3,0.3-0.3l-1.3-1.6 c0.2-0.2,0.4-0.5,0.6-0.7l1.9,1c0.7,0.3,0.8,0.2,0.3-0.3l-1.5-1.5c0.2-0.3,0.3-0.5,0.5-0.8l2,0.7c0.7,0.2,0.8,0.1,0.2-0.4l-1.6-1.3 c0.2-0.3,0.3-0.6,0.5-0.9l2,0.5c0.7,0.2,0.8,0,0.2-0.4l-1.8-1.1c0.1-0.3,0.2-0.6,0.3-0.9l2.1,0.2c0.7,0.1,0.8-0.1,0.1-0.5l-1.9-0.9 c0.1-0.3,0.2-0.6,0.2-1l2.1-0.1c0.7,0,0.8-0.2,0.1-0.5l-2-0.5c0.1-0.3,0.1-0.6,0.1-1L47.4,28.5z M20.1,38.5c-0.6,1-2,1.1-2.9,0.6 c-0.6-0.3-2.1-1.8-3.5-4c-1.2-2.3-1.9-4.8-1.9-7.6c0-4.6,2-8.8,5.2-11.7c1-0.6,2.4-0.5,3,0.5l5.6,9.6c0.5,0.8,0.5,2.3-0.1,3.1 L20.1,38.5z M39.6,37.5c-1.8,2.2-4.1,3.8-6.8,4.8c-3.5,1-8.1,1.1-9.8,0.1c-1.2-0.6-1.6-1.8-1.1-2.8l5.5-9.6c0.5-0.8,1.6-1.5,2.5-1.5 h10.8c1.2,0,2,1,2,2C42.7,31.4,42,34.5,39.6,37.5z M26.7,27.5c0-0.5,0.4-0.8,0.8-0.8s0.8,0.4,0.8,0.8s-0.4,0.8-0.8,0.8 S26.7,28,26.7,27.5z M41,26.5H29.7c-1-0.1-2.1-0.8-2.5-1.7l-5.4-9.3c-0.6-1,0.1-2.2,1-2.7c0.6-0.3,2.6-1,5.2-1 c7.4,0.2,13.5,5.5,14.9,12.6C43,25.6,42,26.5,41,26.5z"/>
</svg>
