
<svg id="icon-notifications" xmlns="http://www.w3.org/2000/svg" viewBox="0 0 44 44">
	<style type="text/css">
		.st0{fill:url(#SVGID_1_);}
		.st1{fill:#FFFFFF;}
	</style>
	<linearGradient id="SVGID_1_" gradientUnits="userSpaceOnUse" x1="22" y1="-454.9651" x2="22" y2="-417.0349" gradientTransform="matrix(1 0 0 1 0 458)">
		<stop  offset="0" style="stop-color:#BB77BB"/>
		<stop  offset="1" style="stop-color:#663366"/>
	</linearGradient>
	<path class="st0" d="M33.9,41H10.1c-3.9,0-7-3.2-7-7V10.1c0-3.9,3.2-7,7-7h23.9c3.9,0,7,3.2,7,7v23.9C41,37.8,37.8,41,33.9,41z"/>
	<path class="st1" d="M22,33.3c1.4,0,2.6-1.2,2.6-2.6h-5.2C19.4,32.1,20.6,33.3,22,33.3z"/>
	<path class="st1" d="M30.7,27.2c-1.7-1.7-2.6-3.9-2.6-6.3v-2.4c0-2.7-1.8-5.1-4.3-5.8v-0.2c0-1-0.8-1.7-1.7-1.7
		c-1,0-1.7,0.8-1.7,1.7v0.2c-2.5,0.7-4.3,3.1-4.3,5.8v2.4c0,2.4-0.9,4.6-2.6,6.3c-0.5,0-0.9,0.4-0.9,0.9c0,0.5,0.4,0.9,0.9,0.9h17.4
		c0.5,0,0.9-0.4,0.9-0.9C31.5,27.6,31.2,27.2,30.7,27.2z"/>
	<path class="st1" d="M34.1,38.9H9.9c-2.7,0-4.8-2.2-4.8-4.8V9.9c0-2.7,2.2-4.8,4.8-4.8h24.2c2.7,0,4.8,2.2,4.8,4.8v24.2
		c0,1.3-0.5,2.5-1.4,3.4C36.6,38.4,35.4,38.9,34.1,38.9z M9.9,6.4C8,6.4,6.4,8,6.4,9.9v24.2c0,1.9,1.6,3.5,3.5,3.5h24.2
		c0.9,0,1.8-0.4,2.5-1c0.7-0.7,1-1.5,1-2.5V9.9c0-1.9-1.6-3.5-3.5-3.5H9.9z"/>
</svg>
