<svg xmlns="http://www.w3.org/2000/svg" width="0" height="0">
	<svg id="icon-chevron-left" viewBox="0 0 240 240">
		<polyline fill="none" stroke="#333" stroke-width="32" stroke-linecap="round" stroke-linejoin="round" points="165,28.75 74,119.75 165.75,211"/>
	</svg>

	<svg id="icon-chevron-right" viewBox="0 0 240 240">
		<polyline fill="none" stroke="#333" stroke-width="32" stroke-linecap="round" stroke-linejoin="round" points="74,211.25 165,120.25 74.25,28"/>
	</svg>

	<svg id="icon-show-all" viewBox="0 0 240 240">
		<rect fill="#333" y="40" width="40" height="40"/>
		<rect fill="#333" x="60" y="40" width="40" height="40"/>
		<rect fill="#333" x="120" y="40" width="40" height="40"/>
		<rect fill="#333" x="180" y="40" width="40" height="40"/>
		<rect fill="#333" y="100" width="40" height="40"/>
		<rect fill="#333" x="60" y="100" width="40" height="40"/>
		<rect fill="#333" x="120" y="100" width="40" height="40"/>
		<rect fill="#333" x="180" y="100" width="40" height="40"/>
		<rect fill="#333" y="160" width="40" height="40"/>
		<rect fill="#333" x="60" y="160" width="40" height="40"/>
		<rect fill="#333" x="120" y="160" width="40" height="40"/>
		<rect fill="#333" x="180" y="160" width="40" height="40"/>
	</svg>

	<svg id="icon-add" viewBox="0 0 500 500">
		<path d="M446.5,226.5h-173v-173c0-13-10.5-23.5-23.5-23.5c-13,0-23.5,10.5-23.5,23.5v173h-173C40.5,226.5,30,237,30,250 c0,13,10.5,23.5,23.5,23.5h173v173c0,13,10.5,23.5,23.5,23.5c13,0,23.5-10.5,23.5-23.5v-173h173c13,0,23.5-10.5,23.5-23.5 C470,237,459.5,226.5,446.5,226.5z"/>
	</svg>

	<svg id="icon-times" viewBox="0 0 500 500">
		<path d="M303,250l149.5-149.5c14.6-14.6,14.6-38.4,0-53s-38.4-14.6-53,0L250,197L100.5,47.5c-14.6-14.6-38.4-14.6-53,0 s-14.6,38.4,0,53L197,250L47.5,399.5c-14.6,14.6-14.6,38.4,0,53c7.3,7.3,16.9,11,26.5,11s19.2-3.7,26.5-11L250,303l149.5,149.5 c7.3,7.3,16.9,11,26.5,11s19.2-3.7,26.5-11c14.6-14.6,14.6-38.4,0-53L303,250z"/>
	</svg>

	<svg id="icon-plus" viewBox="0 0 500 500">
		<path d="M427.6,216H284V72.4c0-10.4-8.5-18.9-18.9-18.9h-30.2c-10.4,0-18.9,8.5-18.9,18.9V216H72.4c-10.4,0-18.9,8.5-18.9,18.9v30.2 c0,10.4,8.5,18.9,18.9,18.9H216v143.6c0,10.4,8.5,18.9,18.9,18.9h30.2c10.4,0,18.9-8.5,18.9-18.9V284h143.6 c10.4,0,18.9-8.5,18.9-18.9v-30.2C446.5,224.5,438,216,427.6,216z"/>
	</svg>

	<svg id="icon-minus" viewBox="0 0 500 500">
		<path d="M53.5,265.1v-30.2c0-10.4,8.5-18.9,18.9-18.9h355.2c10.4,0,18.9,8.5,18.9,18.9v30.2c0,10.4-8.5,18.9-18.9,18.9H72.4 C62,284,53.5,275.5,53.5,265.1z"/>
	</svg>

	<svg id="icon-camera" viewBox="0 0 500 500">
		<path fill="#999" d="M163.8,276.5c0,47.6,38.6,86.2,86.2,86.2s86.2-38.6,86.2-86.2s-38.6-86.2-86.2-86.2S163.8,228.9,163.8,276.5z M435.8,130.6 h-92.9c-6.6-26.5-13.3-53.1-39.8-53.1H196.9c-26.5,0-33.2,26.5-39.8,53.1H64.2c-14.6,0-26.5,11.9-26.5,26.5V396 c0,14.6,11.9,26.5,26.5,26.5h371.5c14.6,0,26.5-11.9,26.5-26.5V157.1C462.3,142.5,450.4,130.6,435.8,130.6z M250,394.3 c-65,0-117.8-52.7-117.8-117.8S185,158.8,250,158.8c65,0,117.8,52.7,117.8,117.8S315,394.3,250,394.3z M435.8,210.2h-53.1v-26.5 h53.1V210.2z"/>
	</svg>

	<svg id="icon-image" viewBox="0 0 500 500">
		<path fill="#999" d="M426.7,98.5C426.7,98.5,426.7,98.5,426.7,98.5l0,303c0,0,0,0,0,0H73.3c0,0,0,0,0,0V98.5c0,0,0,0,0,0 C73.3,98.5,426.7,98.5,426.7,98.5z M426.8,73.2H73.2C59.4,73.2,48,84.6,48,98.5v303c0,13.9,11.4,25.2,25.2,25.2h353.5 c13.9,0,25.2-11.4,25.2-25.2v-303C452,84.6,440.6,73.2,426.8,73.2L426.8,73.2z"/>
		<path fill="#999" d="M376.2,161.6c0,20.9-17,37.9-37.9,37.9s-37.9-17-37.9-37.9s17-37.9,37.9-37.9S376.2,140.7,376.2,161.6z"/>
		<path fill="#999" d="M401.5,376.2h-303v-50.5l88.4-151.5l101,126.2h25.2l88.4-75.8V376.2z"/>
	</svg>

	<svg id="icon-info" viewBox="0 0 500 500">
		<path fill="#888" d="M327.333,396v-48.333c0-5.438-4.229-9.667-9.666-9.667h-29V183.333c0-5.438-4.229-9.667-9.667-9.667h-96.667 c-5.438,0-9.667,4.229-9.667,9.667v48.333c0,5.438,4.229,9.667,9.667,9.667h29V338h-29c-5.438,0-9.667,4.229-9.667,9.667V396 c0,5.438,4.229,9.667,9.667,9.667h135.333C323.104,405.667,327.333,401.438,327.333,396z M288.667,125.333V77 c0-5.438-4.229-9.667-9.667-9.667h-58c-5.438,0-9.667,4.229-9.667,9.667v48.333c0,5.438,4.229,9.667,9.667,9.667h58 C284.438,135,288.667,130.771,288.667,125.333z M482,251c0,128.083-103.917,232-232,232C121.917,483,18,379.083,18,251 C18,122.917,121.917,19,250,19C378.083,19,482,122.917,482,251z"/>
	</svg>

	<svg id="icon-warning" viewBox="0 0 500 500">
		<path fill="#888" d="M460.5,378.7L288.9,81.6c-10.7-18.6-24.8-27.9-39-27.9s-28.2,9.3-39,27.9L39.6,378.7c-21.7,37.2-4.1,67.6,39,67.6 h342.7C464.4,446.3,481.9,415.9,460.5,378.7z M227.6,203.5h44.7v103.9h-44.7L227.6,203.5L227.6,203.5z M250,374.9 c-13.5,0-24.5-11-24.5-24.5c0-13.5,11-24.5,24.5-24.5s24.5,11,24.5,24.5l0,0C274.5,363.9,263.6,374.9,250,374.9 C250,374.9,250,374.9,250,374.9L250,374.9z"/>
	</svg>

	<svg id="icon-chevron-down" viewBox="0 0 1024 1024">
		<path fill="#333" d="M978.511 367.46l-439.767 439.174c-14.817 14.817-38.524 14.817-53.341 0l-439.767-439.174c-14.817-14.817-14.817-39.117 0-53.934l98.384-97.792c14.817-14.817 38.524-14.817 53.341 0l314.712 314.712 314.712-314.712c14.817-14.817 38.524-14.817 53.341 0l98.384 97.792c14.817 14.817 14.817 39.117 0 53.934z"/>
	</svg>

	<svg id="icon-chevron-left" viewBox="0 0 240 240">
		<polyline fill="none" stroke="#333" stroke-width="32" stroke-linecap="round" stroke-linejoin="round" points="165,28.75 74,119.75 165.75,211"/>
	</svg>

	<svg id="icon-chevron-right" viewBox="0 0 240 240">
		<polyline fill="none" stroke="#333" stroke-width="32" stroke-linecap="round" stroke-linejoin="round" points="74,211.25 165,120.25 74.25,28"/>
	</svg>

	<svg id="icon-color-preset" viewBox="0 0 390 390">
		<circle fill="#fff" stroke="rgba(0,0,0,0.5)" stroke-width="20" cx="195" cy="195" r="177"/>
		<circle fill="url(#CLRPRS_1)" cx="195" cy="195" r="177"/>
		<circle fill="url(#CLRPRS_2)" cx="195" cy="195" r="177"/>
		<circle fill="url(#CLRPRS_3)" cx="195" cy="195" r="177"/>
		<circle fill="url(#CLRPRS_4)" cx="195" cy="195" r="177"/>
		<circle fill="url(#CLRPRS_5)" cx="195" cy="195" r="177"/>
		<circle fill="url(#CLRPRS_6)" cx="195" cy="195" r="177"/>
		<defs>
			<linearGradient id="CLRPRS_1" gradientUnits="userSpaceOnUse" x1="195.5005" y1="194.1343" x2="283.8001" y2="41.1949">
				<stop offset="0" style="stop-color:#fff;stop-opacity:0"/>
				<stop offset="1" style="stop-color:#f00;stop-opacity:0.7"/>
			</linearGradient>
			<linearGradient id="CLRPRS_2" gradientUnits="userSpaceOnUse" x1="196" y1="195" x2="372.5701" y2="195">
				<stop offset="0" style="stop-color:#fff;stop-opacity:0"/>
				<stop offset="1" style="stop-color:#00f;stop-opacity:0.7"/>
			</linearGradient>
			<linearGradient id="CLRPRS_3" gradientUnits="userSpaceOnUse" x1="195.5" y1="195.8667" x2="283.7997" y2="348.8062">
				<stop offset="0" style="stop-color:#fff;stop-opacity:0"/>
				<stop offset="1" style="stop-color:#00AEEF;stop-opacity:0.7"/>
			</linearGradient>
			<linearGradient id="CLRPRS_4" gradientUnits="userSpaceOnUse" x1="194.4995" y1="195.8662" x2="106.1998" y2="348.8057">
				<stop offset="0" style="stop-color:#fff;stop-opacity:0"/>
				<stop offset="1" style="stop-color:#0f0;stop-opacity:0.7"/>
			</linearGradient>
			<linearGradient id="CLRPRS_5" gradientUnits="userSpaceOnUse" x1="194.0005" y1="194.9995" x2="17.4301" y2="194.9995">
				<stop offset="0" style="stop-color:#fff;stop-opacity:0"/>
				<stop offset="1" style="stop-color:#ff0;stop-opacity:0.7"/>
			</linearGradient>
			<linearGradient id="CLRPRS_6" gradientUnits="userSpaceOnUse" x1="194.5" y1="194.1348" x2="106.2003" y2="41.1953">
				<stop offset="0" style="stop-color:#fff;stop-opacity:0"/>
				<stop offset="1" style="stop-color:#f0f;stop-opacity:0.7"/>
			</linearGradient>
		</defs>
	</svg>

	<svg id="tiny-generic-folder" viewBox="0 0 1024 1024">
		<path fill="#97DAF8" stroke="#3829CC" stroke-width="6" d="M73.651,207.246 c0-22.44,18.189-40.634,40.635-40.634c0,0,141.598,0,199.47,0c73.882,0,54.18,66.492,116.979,66.492c93.58,0,478.982,0,478.982,0 c22.443,0,40.633,18.189,40.633,40.633v475.296c0,22.44-18.189,40.633-40.633,40.633H114.286c-22.445,0-40.635-18.192-40.635-40.633 V207.246z"/>
		<path fill="#6FC7F1" stroke="#3829CC" stroke-width="6" d="M73.648,315.604 c0-22.443,18.192-40.633,40.634-40.633h795.437c22.445,0,40.633,18.189,40.633,40.633v501.15c0,22.441-18.188,40.633-40.633,40.633 H114.282c-22.441,0-40.634-18.191-40.634-40.633V315.604z"/>
	</svg>

	<svg id="user" viewBox="0 0 500 500">
		<style type="text/css">
			.st0{fill:#fff;}
			.st1{fill:url(#SVGID_1_);}
		</style>
		<radialGradient id="SVGID_1_" cx="250" cy="205.8853" r="229.0074" gradientUnits="userSpaceOnUse">
			<stop offset="0" style="stop-color:#CFD4EF"/>
			<stop offset="1" style="stop-color:#7F849F"/>
		</radialGradient>
		<circle class="st0" cx="250" cy="250" r="250"/>
		<path class="st1" d="M250,0C111.9,0,0,111.9,0,250c0,61.7,22.4,118.2,59.4,161.8c7.7-8,17.8-14.8,30.8-19.5 c37.6-17.4,53.4-20.2,74.2-23.4c20.8-3.3,26-11.1,28.6-29.9c2.6-18.9,4.6-21.5,4.6-30.6c-12.4-8.5-16.3-24.1-16.9-32.6 c-0.7-8.5-3.9-17.6-3.3-25.7c-11.7,2.6-10.3-11.9-13.7-19.9c-1.3-3-7.8-21.5-9.1-31.9c-1.3-10.4,2-15,9.1-10.4 c-6.5-20.2-4.6-38.4-5.9-51.4c-1.3-13-7.8-45.6,16.3-52.1c8.5-2.8,13.8-15,28.5-19.9s29.8-14.2,47.4-14.2c17.6,0,32.7,9.3,47.4,14.2 c14.7,4.9,20,17.1,28.5,19.9c24.1,6.5,17.6,39.1,16.3,52.1c-1.3,13,0.7,31.2-5.9,51.4c7.2-4.6,10.4,0,9.1,10.4 c-1.3,10.4-7.8,28.9-9.1,31.9c-3.4,8-2,22.5-13.7,19.9c0.7,8.1-2.6,17.3-3.3,25.7c-0.7,8.5-4.6,24.1-16.9,32.6 c0,9.1,2,11.7,4.6,30.6c2.6,18.9,7.8,26.7,28.6,29.9c20.8,3.3,43.6,8.5,74.2,23.4c13,4.7,23.1,11.5,30.8,19.5 c37-43.6,59.4-100.1,59.4-161.8C500,111.9,388.1,0,250,0z"/>
	</svg>

	<svg id="home" viewBox="0 0 500 500">
		<style type="text/css">
			.st0{fill:#DDDDEE;}
			.st1{fill:#666;}
			.st2{fill:#AAAABB;}
			.st3{fill:#fff;}
			.st4{fill:#433F50;}
			.st5{fill:#433F50;enable-background:new;}
		</style>
		<polygon class="st0" points="418.1,242.9 250,88.8 82.6,241.4 82.6,454.2 418.1,454.2 "/>
		<path class="st1" d="M205.8,321v133.2h89.6V321H205.8z M283.2,402.8h-13.9v-29.4h13.9V402.8z"/>
		<rect x="220.7" y="231.5" class="st2" width="60" height="22.8"/>
		<rect x="220.7" y="194.5" class="st3" width="60" height="37"/>
		<path class="st4" d="M294.6,268.3h-87.8v-87.8h87.8V268.3z M220.8,254.4h60v-60h-60V254.4z"/>
		<path class="st5" d="M439.1,274.8l33.4-36.8l-73.7-67V73h-59v44.5l-89.1-80.9L27.5,238l33.3,36.9l13.9-12.6v182.7h-9.4v18.5h369.8 v-18.5H426v-182L439.1,274.8z M353.7,86.9h31.2v71.5l-31.2-28.3V86.9z M288.5,444.9h-75.7V328h75.7V444.9z M410.2,444.9H302.4V314.1 H198.8v130.9H90.5V248l160-144.5l159.7,145V444.9z"/>
	</svg>

	<svg id="clock" viewBox="0 0 500 500" cache="false">
		<style type="text/css">
			.st0{fill:none;stroke:var(--color-3);stroke-width:7;}
			.st1{fill:none;stroke:var(--color-3);stroke-width:9;}
			.st2 {
				stroke: var(--color-1);
				stroke-width: var(--stroke-hour);
				stroke-linecap: round;
				transform-origin: 50% 50%;
				transform: rotate(var(--rotation-hours));
			}
			.st3 {
				stroke: var(--color-1);
				stroke-width: var(--stroke-minute);
				stroke-linecap: round;
				transform-origin: 50% 50%;
				transform: rotate(var(--rotation-minutes));
			}
			.st4 {
				stroke: var(--color-2);
				stroke-width: var(--stroke-second);
				stroke-linecap: round;
				transform-origin: 50% 50%;
				transform: rotate(var(--rotation-seconds));
			}
			.st5 { fill: var(--color-1); }
		</style>
		<line class="st0" x1="149.2" y1="75.4" x2="141.2" y2="61.6"/>
		<line class="st0" x1="350.8" y1="424.6" x2="358.8" y2="438.4"/>
		<line class="st0" x1="438.4" y1="141.2" x2="424.6" y2="149.2"/>
		<line class="st0" x1="75.4" y1="350.8" x2="61.6" y2="358.8"/>
		<line class="st0" x1="424.6" y1="350.8" x2="438.4" y2="358.8"/>
		<line class="st0" x1="61.6" y1="141.2" x2="75.4" y2="149.2"/>
		<line class="st0" x1="358.8" y1="61.6" x2="350.8" y2="75.4"/>
		<line class="st0" x1="149.2" y1="424.6" x2="141.2" y2="438.4"/>
		<line class="st1" x1="250" y1="470.1" x2="250" y2="438.2"/>
		<line class="st1" x1="250" y1="29.9" x2="250" y2="65.8"/>
		<line class="st1" x1="470.1" y1="250" x2="438.2" y2="250"/>
		<line class="st1" x1="61.8" y1="250" x2="29.9" y2="250"/>

		<line class="st2" x1="250" y1="113" x2="250" y2="250"/>
		<line class="st3" x1="250" y1="67" x2="250" y2="250"/>
		<line class="st4" x1="250" y1="43" x2="250" y2="250"/>
		<circle class="st5" cx="250" cy="250" r="13"/>
	</svg>

	<svg id="icon-dropbox" viewBox="0 0 500 500">
		<style type="text/css">
			.st0{fill:#007ee5;}
		</style>
		<path class="st0" d="M124.3,198.1L250,275.7l-87,72.5L38.3,267.1L124.3,198.1z M375.2,339.4v27.5l-124.7,74.6v0.3l-0.3-0.3l-0.3,0.3 v-0.3l-124.4-74.6v-27.5l37.4,24.4l87-72.3V291l0.3,0.3l0.3-0.3v0.5l87.3,72.3L375.2,339.4z M163,48.3l87,72.5l-125.7,77.4l-86-68.7 L163,48.3z M375.7,198.1l86,69l-124.4,81.2L250,275.7L375.7,198.1z M337.3,48.3l124.4,81.2l-86,68.7L250,120.8L337.3,48.3z"/>
	</svg>

	<svg id="icon-one-drive" viewBox="0 0 500 500">
		<style type="text/css">
			.st0{fill:#1665c0;}
		</style>
		<path id="path4256" class="st0" d="M170.9,403.7c-27.2-8-42.4-33.2-42.4-70.8c0-12,0.7-17.7,3.3-25.5c6.3-18.9,22.9-33.2,44.8-38.4 c10.9-2.6,14.2-5.4,14.2-11.9c0-2,1.3-8.1,2.9-13.5c7.2-24.4,20.5-44.8,34.8-53.2c14.9-8.7,22.4-10.7,40.5-10.6 c25.6,0.2,38.4,6.7,56.2,28.6l9.8,12.1l8.8-3.6c42.6-17.2,85.1,12.1,88.5,61.1l0.9,13.4l8.4,3.5c24,10,35.2,31.1,33.2,62.1 c-1.3,20.3-9.4,36.4-22.3,44.4l-6,3.8l-134.1,0.3C209.3,405.7,176.6,405.3,170.9,403.7L170.9,403.7z"/>
		<path id="path4248" class="st0" d="M70.4,382c-15.9-4.4-32.7-20.8-40.6-39.6c-4.5-10.6-4.7-12.2-4.7-31c0-17.9,0.4-20.8,3.9-29.7 c7.5-18.7,21.9-32.3,40-37.6c3.8-1.1,7.4-2.9,8-4c0.6-1.1,1.2-6.9,1.4-12.9c1.3-37.5,22.3-70.6,51.7-81.2 c15.9-5.7,35.8-4.3,53.1,3.8c5.5,2.6,4.9,3.1,16.5-14.6c6.9-10.5,20.7-23.6,32-30.2c12.2-7.2,25-10.5,40.2-10.4 c42.5,0.1,79.2,31.2,92.7,78.6c4.3,15.2,4.1,19.4-1,19.5c-2.2,0.1-8.6,1.5-14.2,3.2l-10.1,3.1l-9.3-10.8 c-26.1-30.5-68.7-37.1-104.8-16.2c-14.5,8.3-26.1,20.3-34.9,35.9c-6.3,11.1-14.2,31.8-14.2,37c0,3.7-2.5,5.5-13.3,9.6 c-33.4,12.8-53,42.4-52.9,80.3c0,13.8,3,30.7,7.3,40.3c1.6,3.6,2.5,7.1,2,7.7C117.7,384.1,76.1,383.6,70.4,382L70.4,382z"/>
	</svg>

	<svg id="icon-google-drive" viewBox="0 0 500 500">
		<style type="text/css">
			.st0{fill:#fcc83d;}
			.st1{fill:#19994e;}
			.st2{fill:#336cf6;}
		</style>
		<path class="st0" d="M448.7,276.3L327.1,65.7h-152l121.6,210.6H448.7z"/>
		<path class="st1" d="M159.9,92.1L40.5,298.9l76,131.6l119.4-206.8L159.9,92.1z"/>
		<path class="st2" d="M220.7,302.6l-75.9,131.6h238.8l75.9-131.6H220.7z"/>
	</svg>

	<svg id="icon-new-storage" viewBox="0 0 500 500">
		<style type="text/css">
			.st0{fill:none;stroke:#888;stroke-width:40;}
		</style>
		<path class="st0" d="M459.7,319.9c0,46.3-37.6,83.9-83.9,83.9H138.1c-54,0-97.9-43.9-97.9-97.9c0-39.1,23.2-73,56.4-88.5
	c-0.2-3.1-0.4-6.3-0.4-9.4c0-61.8,50-111.9,111.9-111.9c46.8,0,86.7,28.6,103.6,69.5c9.6-8.5,22.3-13.5,36.3-13.5
	c30.8,0,55.9,25.1,55.9,55.9c0,11.1-3.3,21.4-9,30.1C432,246.9,459.7,280.1,459.7,319.9z"/>
	</svg>

	@import "icon-padlock.svg"
	@import "icon-padlock-open.svg"

	@import "icon-dock.svg"
	@import "icon-update.svg"
	@import "icon-security.svg"
	@import "icon-sharing.svg"
	@import "icon-spotlight.svg"
	@import "icon-general.svg"
	@import "icon-desktop.svg"
	@import "icon-users-groups.svg"
	@import "icon-cloud-storage.svg"
	@import "icon-apis.svg"
	@import "icon-date-time.svg"
	@import "icon-keyboard.svg"
	@import "icon-display.svg"
	@import "icon-accessibility.svg"
	@import "icon-flag.svg"
	@import "icon-speaker.svg"
	@import "icon-mouse.svg"
	@import "icon-notifications.svg"
	@import "icon-screensaver.svg"
</svg>
