<?xml version="1.0" encoding="utf-8"?>
<!-- Generator: Adobe Illustrator 24.0.2, SVG Export Plug-In . SVG Version: 6.00 Build 0)  -->
<svg version="1.1" id="icon-speaker" xmlns="http://www.w3.org/2000/svg" xmlns:xlink="http://www.w3.org/1999/xlink" x="0px"
	 y="0px" viewBox="0 0 500 500" style="enable-background:new 0 0 500 500;" xml:space="preserve">
<style type="text/css">
	.st0{fill:url(#SVGID_1_);}
	.st1{fill:url(#SVGID_2_);}
	.st2{fill:url(#SVGID_3_);}
	.st3{fill:url(#SVGID_4_);}
	.st4{fill:url(#SVGID_5_);}
	.st5{fill:url(#SVGID_6_);}
	.st6{fill:url(#SVGID_7_);}
	.st7{fill:url(#SVGID_8_);}
	.st8{opacity:0.5;fill:url(#SVGID_9_);enable-background:new    ;}
	.st9{fill:url(#SVGID_10_);}
	.st10{fill:url(#SVGID_11_);}
	.st11{opacity:0.8;fill:url(#SVGID_12_);enable-background:new    ;}
	.st12{opacity:0.8;fill:url(#SVGID_13_);enable-background:new    ;}
	.st13{fill:url(#SVGID_14_);}
	.st14{opacity:0.8;fill:url(#SVGID_15_);enable-background:new    ;}
	.st15{fill:url(#SVGID_16_);}
	.st16{opacity:0.8;fill:url(#SVGID_17_);enable-background:new    ;}
	.st17{fill:url(#SVGID_18_);}
	.st18{opacity:0.8;fill:url(#SVGID_19_);enable-background:new    ;}
	.st19{fill:url(#SVGID_20_);}
	.st20{fill:#808080;}
	.st21{opacity:0.6;fill:url(#SVGID_21_);enable-background:new    ;}
	.st22{fill:url(#SVGID_22_);}
	.st23{opacity:0.5;fill:url(#SVGID_23_);enable-background:new    ;}
	.st24{opacity:0.4;fill:url(#SVGID_24_);enable-background:new    ;}
	.st25{fill:url(#SVGID_25_);}
	.st26{fill:url(#SVGID_26_);}
	.st27{fill:url(#SVGID_27_);}
	.st28{opacity:0.3;fill:url(#SVGID_28_);enable-background:new    ;}
	.st29{opacity:0.25;fill:url(#SVGID_29_);enable-background:new    ;}
	.st30{opacity:0.8;fill:url(#SVGID_30_);enable-background:new    ;}
	.st31{fill:url(#SVGID_31_);}
	.st32{opacity:0.7;fill:url(#SVGID_32_);enable-background:new    ;}
	.st33{fill:url(#SVGID_33_);}
	.st34{opacity:0.5;fill:url(#SVGID_34_);enable-background:new    ;}
</style>
<linearGradient id="SVGID_1_" gradientUnits="userSpaceOnUse" x1="30.8955" y1="362.8173" x2="469.7563" y2="362.8173" gradientTransform="matrix(1 0 0 -1 0.1758 501.7847)">
	<stop  offset="0" style="stop-color:#262626"/>
	<stop  offset="0.2545" style="stop-color:#4D4D4D"/>
	<stop  offset="0.5152" style="stop-color:#808080"/>
	<stop  offset="0.7455" style="stop-color:#4D4D4D"/>
	<stop  offset="1" style="stop-color:#262626"/>
</linearGradient>
<path class="st0" d="M250.5,34.7c120,0,217.4,96.3,219.3,215.8c0-1.2,0.1-2.4,0.1-3.6c0-121.2-98.3-219.4-219.4-219.4
	c-121.2,0-219.4,98.2-219.4,219.4c0,1.2,0.1,2.4,0.1,3.6C33.1,131,130.5,34.7,250.5,34.7z"/>
<linearGradient id="SVGID_2_" gradientUnits="userSpaceOnUse" x1="413.5997" y1="405.977" x2="413.5997" y2="439.6788" gradientTransform="matrix(1 0 0 -1 0.1758 501.7847)">
	<stop  offset="0" style="stop-color:#231F20"/>
	<stop  offset="1" style="stop-color:#808080"/>
</linearGradient>
<path class="st1" d="M436.5,69.1c-11.2-11.2-29.5-11.2-40.7,0l-8.2,8.2l-4.8,10.2l0,0l13-11.1c11.2-11.2,29.5-11.2,40.7,0
	c4.7,4.7,7.3,10.6,8.1,16.7C445.6,84.6,443,75.6,436.5,69.1z"/>
<linearGradient id="SVGID_3_" gradientUnits="userSpaceOnUse" x1="88.8972" y1="405.9848" x2="88.8972" y2="439.6794" gradientTransform="matrix(1 0 0 -1 0.1758 501.7847)">
	<stop  offset="0" style="stop-color:#231F20"/>
	<stop  offset="1" style="stop-color:#808080"/>
</linearGradient>
<path class="st2" d="M113.8,75.2L113.8,75.2l-6.1-6.1c-11.2-11.2-29.5-11.2-40.7,0c-6.6,6.6-9.2,15.5-8.1,24
	c0.8-6.1,3.4-12,8.1-16.7c11.2-11.2,29.5-11.2,40.7,0l10.9,10.9l1-1L113.8,75.2z"/>
<linearGradient id="SVGID_4_" gradientUnits="userSpaceOnUse" x1="381.1519" y1="105.4929" x2="444.6158" y2="105.4929" gradientTransform="matrix(1 0 0 -1 0.1758 501.7847)">
	<stop  offset="0.4096" style="stop-color:#231F20"/>
	<stop  offset="1" style="stop-color:#4D4D4D"/>
</linearGradient>
<path class="st3" d="M384.9,418.4l37-37c0.3,0.3,0.7,0.5,0.9,0.8l13.7,13.7c4.7,4.7,7.3,10.6,8.1,16.7c1.1-8.5-1.5-17.4-8.1-24
	l-13.7-13.7c-0.3-0.3-0.6-0.5-0.9-0.8l-40.5,40.5c0.3,0.3,0.5,0.7,0.8,0.9L384.9,418.4z"/>
<linearGradient id="SVGID_5_" gradientUnits="userSpaceOnUse" x1="269.9411" y1="105.4968" x2="333.4041" y2="105.4968" gradientTransform="matrix(-1 0 0 -1 392.7266 501.7852)">
	<stop  offset="0.4096" style="stop-color:#231F20"/>
	<stop  offset="1" style="stop-color:#4D4D4D"/>
</linearGradient>
<path class="st4" d="M119.2,418.4l-37-37c-0.3,0.3-0.7,0.5-0.9,0.8l-13.7,13.7c-4.7,4.7-7.3,10.6-8.1,16.7c-1.1-8.5,1.5-17.4,8.1-24
	l13.7-13.7c0.3-0.3,0.6-0.5,0.9-0.8l40.5,40.5c-0.3,0.3-0.5,0.7-0.8,0.9L119.2,418.4z"/>
<radialGradient id="SVGID_6_" cx="253.9327" cy="34.8606" r="406.7911" gradientTransform="matrix(1 0 0 -1 0.1758 501.7847)" gradientUnits="userSpaceOnUse">
	<stop  offset="0.1687" style="stop-color:#CECECE"/>
	<stop  offset="0.3373" style="stop-color:#989899"/>
	<stop  offset="0.512" style="stop-color:#9B9B9C"/>
	<stop  offset="0.7048" style="stop-color:#666666"/>
	<stop  offset="0.8916" style="stop-color:#9B9B9C"/>
	<stop  offset="1" style="stop-color:#D9D9D9"/>
</radialGradient>
<path class="st5" d="M467.7,254.2c0,120-97.3,217.2-217.2,217.2c-120,0-217.2-97.3-217.2-217.2c0-120,97.3-217.2,217.2-217.2
	C370.5,36.9,467.7,134.2,467.7,254.2z"/>
<radialGradient id="SVGID_7_" cx="250.5" cy="247.4012" r="220.2221" gradientTransform="matrix(1 0 0 -1 0 502)" gradientUnits="userSpaceOnUse">
	<stop  offset="0.9515" style="stop-color:#808080"/>
	<stop  offset="1" style="stop-color:#404040"/>
</radialGradient>
<path class="st6" d="M250.5,34.7C129.3,34.7,31.1,133,31.1,254.2c0,121.2,98.2,219.4,219.4,219.4c121.2,0,219.4-98.2,219.4-219.4
	C469.9,133,371.7,34.7,250.5,34.7z"/>
<radialGradient id="SVGID_8_" cx="249.0024" cy="37.9396" r="378.7032" gradientTransform="matrix(1 0 0 -1 0.1758 501.7852)" gradientUnits="userSpaceOnUse">
	<stop  offset="0.1687" style="stop-color:#CECECE"/>
	<stop  offset="0.3373" style="stop-color:#989899"/>
	<stop  offset="0.512" style="stop-color:#9B9B9C"/>
	<stop  offset="0.7048" style="stop-color:#666666"/>
	<stop  offset="0.8916" style="stop-color:#9B9B9C"/>
	<stop  offset="1" style="stop-color:#D9D9D9"/>
</radialGradient>
<path class="st7" d="M422.8,382.2c-0.3-0.3-0.6-0.5-0.9-0.8l-3.5,3.5c28.2-36.1,45-81.5,45-130.8c0-46.8-15.1-90-40.7-125.2
	c0.1,0,0.1-0.1,0.2-0.1l13.7-13.7c11.2-11.2,11.2-29.5,0-40.7c-11.2-11.2-29.5-11.2-40.7,0l-13,13c-36.3-28.9-82.3-46.2-132.3-46.1
	c-49.4,0-94.7,16.8-130.8,45l-11.9-11.9c-11.2-11.2-29.5-11.2-40.7,0c-11.2,11.2-11.2,29.5,0,40.7l12.4,12.4
	c-26.2,35.4-41.8,79.2-41.8,126.6c0,48.1,16,92.5,43,128.2l-13.5,13.5c-11.2,11.2-11.2,29.5,0,40.7c11.2,11.2,29.5,11.2,40.7,0
	l13.4-13.4C157,450.6,201.9,467,250.5,467c49.4,0,94.8-16.8,130.9-45.1l0,0c0.3,0.3,0.5,0.6,0.8,0.9l13.7,13.7
	c11.2,11.2,29.5,11.2,40.7,0c11.2-11.2,11.2-29.5,0-40.7L422.8,382.2z"/>
<linearGradient id="SVGID_9_" gradientUnits="userSpaceOnUse" x1="250.5015" y1="36.1122" x2="250.5015" y2="453.9213" gradientTransform="matrix(1 0 0 -1 0 502)">
	<stop  offset="0" style="stop-color:#FFFFFF"/>
	<stop  offset="0.1879" style="stop-color:#999999;stop-opacity:0.8909"/>
	<stop  offset="1" style="stop-color:#FFFFFF;stop-opacity:0"/>
</linearGradient>
<path class="st8" d="M422.8,382.2c-0.3-0.3-0.6-0.5-0.9-0.8l-3.5,3.5c28.2-36.1,45-81.5,45-130.8c0-46.8-15.1-90-40.7-125.2
	c0.1,0,0.1-0.1,0.2-0.1l13.7-13.7c11.2-11.2,11.2-29.5,0-40.7c-11.2-11.2-29.5-11.2-40.7,0l-13,13c-36.3-28.9-82.3-46.2-132.3-46.1
	c-49.4,0-94.7,16.8-130.8,45l-11.9-11.9c-11.2-11.2-29.5-11.2-40.7,0c-11.2,11.2-11.2,29.5,0,40.7l12.4,12.4
	c-26.2,35.4-41.8,79.2-41.8,126.6c0,48.1,16,92.5,43,128.2l-13.5,13.5c-11.2,11.2-11.2,29.5,0,40.7c11.2,11.2,29.5,11.2,40.7,0
	l13.4-13.4C157,450.6,201.9,467,250.5,467c49.4,0,94.8-16.8,130.9-45.1l0,0c0.3,0.3,0.5,0.6,0.8,0.9l13.7,13.7
	c11.2,11.2,29.5,11.2,40.7,0c11.2-11.2,11.2-29.5,0-40.7L422.8,382.2z"/>
<linearGradient id="SVGID_10_" gradientUnits="userSpaceOnUse" x1="250.3244" y1="432.8848" x2="250.3244" y2="62.6933" gradientTransform="matrix(1 0 0 -1 0.1758 501.7847)">
	<stop  offset="0" style="stop-color:#D9D9D9"/>
	<stop  offset="1" style="stop-color:#808080"/>
</linearGradient>
<path class="st9" d="M439.3,254.2c0,104.3-84.5,188.8-188.8,188.8c-104.3,0-188.8-84.5-188.8-188.8c0-104.3,84.5-188.8,188.8-188.8
	C354.8,65.4,439.3,149.9,439.3,254.2z"/>
<radialGradient id="SVGID_11_" cx="250.3244" cy="247.6381" r="188.7827" gradientTransform="matrix(1 0 0 -1 0.1758 501.7847)" gradientUnits="userSpaceOnUse">
	<stop  offset="0.9217" style="stop-color:#333333"/>
	<stop  offset="1" style="stop-color:#333333;stop-opacity:0.5"/>
</radialGradient>
<path class="st10" d="M250.5,65.4c-104.3,0-188.8,84.5-188.8,188.8c0,104.3,84.5,188.8,188.8,188.8c104.3,0,188.8-84.5,188.8-188.8
	C439.3,149.9,354.8,65.4,250.5,65.4z M250.5,433.5c-99.1,0-179.3-80.3-179.3-179.3c0-99,80.3-179.4,179.3-179.4
	c99,0,179.3,80.3,179.3,179.4C429.8,353.2,349.5,433.5,250.5,433.5z"/>
<linearGradient id="SVGID_12_" gradientUnits="userSpaceOnUse" x1="53.9915" y1="247.6454" x2="445.0325" y2="247.6454" gradientTransform="matrix(1 0 0 -1 0.1758 501.7847)">
	<stop  offset="1.212100e-02" style="stop-color:#FFFFFF;stop-opacity:0.3"/>
	<stop  offset="0.3152" style="stop-color:#FFFFFF"/>
	<stop  offset="0.6788" style="stop-color:#FFFFFF"/>
	<stop  offset="1" style="stop-color:#FFFFFF;stop-opacity:0.3"/>
</linearGradient>
<path class="st11" d="M250.5,57.8c-108.4,0-196.3,87.9-196.3,196.3c0,108.4,87.9,196.3,196.3,196.3c108.4,0,196.3-87.9,196.3-196.3
	C446.8,145.7,358.9,57.8,250.5,57.8z M250.5,442.9c-104.3,0-188.8-84.5-188.8-188.8c0-104.3,84.5-188.8,188.8-188.8
	c104.3,0,188.8,84.5,188.8,188.8C439.3,358.4,354.8,442.9,250.5,442.9z"/>
<g>
	
		<linearGradient id="SVGID_13_" gradientUnits="userSpaceOnUse" x1="417.9615" y1="398.0287" x2="417.9615" y2="426.3643" gradientTransform="matrix(1 0 0 -1 -0.3799 501.7612)">
		<stop  offset="0" style="stop-color:#7B7D80"/>
		<stop  offset="1" style="stop-color:#19191A"/>
	</linearGradient>
	<path class="st12" d="M432.2,89.6c0,8.1-6.6,14.7-14.7,14.7c-8.1,0-14.7-6.6-14.7-14.7c0-8.1,6.6-14.7,14.7-14.7
		C425.7,75,432.2,81.6,432.2,89.6z"/>
	
		<radialGradient id="SVGID_14_" cx="556.1476" cy="597.0635" r="16.63" gradientTransform="matrix(6.892600e-02 0.9976 1.3169 -9.098200e-02 -407.5844 -417.8704)" gradientUnits="userSpaceOnUse">
		<stop  offset="0.2909" style="stop-color:#CDCDCD"/>
		<stop  offset="0.5212" style="stop-color:#555556"/>
		<stop  offset="0.6" style="stop-color:#616162"/>
		<stop  offset="1" style="stop-color:#ABACAB"/>
	</radialGradient>
	<path class="st13" d="M429.7,89.6c0,6.7-5.4,12.1-12.1,12.1c-6.7,0-12.1-5.4-12.1-12.1c0-6.7,5.4-12.1,12.1-12.1
		C424.3,77.6,429.7,83,429.7,89.6z"/>
</g>
<g>
	
		<linearGradient id="SVGID_15_" gradientUnits="userSpaceOnUse" x1="417.9546" y1="69.6797" x2="417.9546" y2="98.0237" gradientTransform="matrix(1 0 0 -1 -0.3799 501.7612)">
		<stop  offset="0" style="stop-color:#4A4B4D"/>
		<stop  offset="1" style="stop-color:#19191A"/>
	</linearGradient>
	<path class="st14" d="M432.2,418c0,8.1-6.6,14.7-14.7,14.7c-8.1,0-14.7-6.6-14.7-14.7c0-8.1,6.6-14.7,14.7-14.7
		C425.7,403.3,432.2,409.9,432.2,418z"/>
	
		<radialGradient id="SVGID_16_" cx="514.0427" cy="228.7247" r="16.6302" gradientTransform="matrix(6.892600e-02 0.9976 1.3169 -9.098200e-02 80.3609 -81.0314)" gradientUnits="userSpaceOnUse">
		<stop  offset="0.2909" style="stop-color:#CDCDCD"/>
		<stop  offset="0.5212" style="stop-color:#555556"/>
		<stop  offset="0.6" style="stop-color:#616162"/>
		<stop  offset="1" style="stop-color:#ABACAB"/>
	</radialGradient>
	<path class="st15" d="M429.7,418c0,6.7-5.4,12.1-12.1,12.1c-6.7,0-12.1-5.4-12.1-12.1c0-6.7,5.4-12.1,12.1-12.1
		C424.3,405.9,429.7,411.3,429.7,418z"/>
</g>
<g>
	
		<linearGradient id="SVGID_17_" gradientUnits="userSpaceOnUse" x1="85.0807" y1="398.0287" x2="85.0807" y2="426.3643" gradientTransform="matrix(1 0 0 -1 -0.3799 501.7612)">
		<stop  offset="0" style="stop-color:#7B7D80"/>
		<stop  offset="1" style="stop-color:#19191A"/>
	</linearGradient>
	<path class="st16" d="M99.4,89.6c0,8.1-6.6,14.7-14.7,14.7c-8.1,0-14.7-6.6-14.7-14.7C70,81.6,76.6,75,84.7,75
		C92.8,75,99.4,81.6,99.4,89.6z"/>
	
		<radialGradient id="SVGID_18_" cx="183.4356" cy="629.3951" r="16.63" gradientTransform="matrix(6.892600e-02 0.9976 1.3169 -9.098200e-02 -757.3522 -43.1031)" gradientUnits="userSpaceOnUse">
		<stop  offset="0.2909" style="stop-color:#CDCDCD"/>
		<stop  offset="0.5212" style="stop-color:#555556"/>
		<stop  offset="0.6" style="stop-color:#616162"/>
		<stop  offset="1" style="stop-color:#ABACAB"/>
	</radialGradient>
	<path class="st17" d="M96.8,89.6c0,6.7-5.4,12.1-12.1,12.1c-6.7,0-12.1-5.4-12.1-12.1c0-6.7,5.4-12.1,12.1-12.1
		C91.4,77.6,96.8,83,96.8,89.6z"/>
</g>
<g>
	
		<linearGradient id="SVGID_19_" gradientUnits="userSpaceOnUse" x1="85.0878" y1="69.6797" x2="85.0878" y2="98.0237" gradientTransform="matrix(1 0 0 -1 -0.3799 501.7612)">
		<stop  offset="0" style="stop-color:#4A4B4D"/>
		<stop  offset="1" style="stop-color:#19191A"/>
	</linearGradient>
	<path class="st18" d="M99.4,418c0,8.1-6.6,14.7-14.7,14.7c-8.1,0-14.7-6.6-14.7-14.7c0-8.1,6.6-14.7,14.7-14.7
		C92.8,403.3,99.4,409.9,99.4,418z"/>
	
		<radialGradient id="SVGID_20_" cx="141.3471" cy="261.0548" r="16.6304" gradientTransform="matrix(6.892600e-02 0.9976 1.3169 -9.098200e-02 -269.3915 293.7192)" gradientUnits="userSpaceOnUse">
		<stop  offset="0.2909" style="stop-color:#CDCDCD"/>
		<stop  offset="0.5212" style="stop-color:#555556"/>
		<stop  offset="0.6" style="stop-color:#616162"/>
		<stop  offset="1" style="stop-color:#ABACAB"/>
	</radialGradient>
	<path class="st19" d="M96.8,418c0,6.7-5.4,12.1-12.1,12.1c-6.7,0-12.1-5.4-12.1-12.1c0-6.7,5.4-12.1,12.1-12.1
		C91.4,405.9,96.8,411.3,96.8,418z"/>
</g>
<path class="st20" d="M421.9,103.9c0.5-0.5,0.5-1.4,0-2"/>
<radialGradient id="SVGID_21_" cx="248.677" cy="255.5777" r="80.6501" gradientTransform="matrix(1 0 0 -1 0.1758 501.7847)" gradientUnits="userSpaceOnUse">
	<stop  offset="0.5636" style="stop-color:#331A00;stop-opacity:0"/>
	<stop  offset="0.6788" style="stop-color:#331A00"/>
	<stop  offset="0.8606" style="stop-color:#523619;stop-opacity:0.5"/>
	<stop  offset="1" style="stop-color:#806040;stop-opacity:0"/>
</radialGradient>
<path class="st21" d="M329.5,246.2c0,44.5-36.1,80.7-80.6,80.7c-44.5,0-80.6-36.1-80.7-80.7c0-44.5,36.1-80.6,80.6-80.6
	C293.4,165.6,329.5,201.7,329.5,246.2z"/>
<radialGradient id="SVGID_22_" cx="250.3277" cy="247.6383" r="182.4268" gradientTransform="matrix(1 0 0 -1 0.1758 501.7847)" gradientUnits="userSpaceOnUse">
	<stop  offset="0" style="stop-color:#000000"/>
	<stop  offset="0.9758" style="stop-color:#15161A"/>
	<stop  offset="1" style="stop-color:#141519;stop-opacity:0"/>
</radialGradient>
<path class="st22" d="M250.5,71.7c-100.8,0-182.4,81.7-182.4,182.4c0,100.7,81.7,182.4,182.4,182.4c100.7,0,182.4-81.7,182.4-182.4
	C432.9,153.4,351.2,71.7,250.5,71.7z M250.5,400.1c-80.6,0-145.9-65.3-145.9-145.9c0-80.6,65.3-145.9,145.9-145.9
	c80.6,0,145.9,65.3,145.9,145.9C396.4,334.7,331.1,400.1,250.5,400.1z"/>
<linearGradient id="SVGID_23_" gradientUnits="userSpaceOnUse" x1="250.3262" y1="420.9805" x2="250.3262" y2="275.5006" gradientTransform="matrix(1 0 0 -1 0.1758 501.7847)">
	<stop  offset="0" style="stop-color:#FFFFFF;stop-opacity:0.7"/>
	<stop  offset="0.2485" style="stop-color:#FFFFFF;stop-opacity:0.4"/>
	<stop  offset="1" style="stop-color:#000000;stop-opacity:0"/>
</linearGradient>
<path class="st23" d="M250.5,87c79.1,0,146.1,59.1,168.6,134.5c-17.9-80.7-86.5-141-168.6-141c-82.2,0-150.8,60.2-168.6,141
	C104.4,146.1,171.4,87,250.5,87z"/>
<linearGradient id="SVGID_24_" gradientUnits="userSpaceOnUse" x1="250.3188" y1="871.2355" x2="250.3188" y2="725.756" gradientTransform="matrix(1 0 0 1 0.1758 -455.7861)">
	<stop  offset="0" style="stop-color:#FFFFFF;stop-opacity:0.7"/>
	<stop  offset="0.2485" style="stop-color:#FFFFFF;stop-opacity:0.4"/>
	<stop  offset="1" style="stop-color:#000000;stop-opacity:0"/>
</linearGradient>
<path class="st24" d="M250.5,409.2c75.2,0,138.8-59.1,160.2-134.5c-17,80.7-82.2,141-160.2,141c-78,0-143.2-60.2-160.2-141
	C111.7,350.2,175.3,409.2,250.5,409.2z"/>
<linearGradient id="SVGID_25_" gradientUnits="userSpaceOnUse" x1="250.3279" y1="393.3364" x2="250.3279" y2="99.4705" gradientTransform="matrix(1 0 0 -1 0.1758 501.7847)">
	<stop  offset="0" style="stop-color:#222626"/>
	<stop  offset="0.8485" style="stop-color:#17191A"/>
	<stop  offset="1" style="stop-color:#4F5256"/>
</linearGradient>
<path class="st25" d="M250.5,106.7c-80.6,0-147.4,66.8-147.4,147.4c0,80.6,66.8,147.4,147.4,147.4c80.6,0,147.4-66.8,147.4-147.4
	C397.9,173.5,331.1,106.7,250.5,106.7z M250.5,389.9c-75,0-135.7-60.8-135.7-135.7c0-75,60.8-135.7,135.7-135.7
	c75,0,135.7,60.8,135.7,135.7C386.2,329.1,325.5,389.9,250.5,389.9z"/>
<radialGradient id="SVGID_26_" cx="249.1002" cy="53.9516" r="92.747" gradientTransform="matrix(1 0 0 -0.4106 0.1758 261.6085)" gradientUnits="userSpaceOnUse">
	<stop  offset="0.3818" style="stop-color:#303033"/>
	<stop  offset="0.9394" style="stop-color:#0C0C0D"/>
</radialGradient>
<path class="st26" d="M303.2,254.1c0,29.1-23.6,52.7-52.7,52.8c-29.1,0-52.7-23.6-52.7-52.8c0-29.1,23.6-52.7,52.7-52.7
	C279.6,201.4,303.2,225,303.2,254.1z"/>
<radialGradient id="SVGID_27_" cx="250.3214" cy="247.6476" r="65.9433" gradientTransform="matrix(1 0 0 -1 0.1758 501.7847)" gradientUnits="userSpaceOnUse">
	<stop  offset="0" style="stop-color:#000000"/>
	<stop  offset="0.9697" style="stop-color:#15161A"/>
	<stop  offset="1" style="stop-color:#141519;stop-opacity:0.5"/>
</radialGradient>
<path class="st27" d="M250.5,188.2c-36.4,0-65.9,29.5-65.9,65.9c0,36.4,29.5,65.9,65.9,65.9c36.4,0,65.9-29.5,65.9-65.9
	C316.4,217.7,286.9,188.2,250.5,188.2z M250.5,306.9c-29.1,0-52.7-23.6-52.7-52.8c0-29.1,23.6-52.7,52.7-52.7
	c29.1,0,52.7,23.6,52.7,52.7C303.2,283.3,279.6,306.9,250.5,306.9z"/>
<linearGradient id="SVGID_28_" gradientUnits="userSpaceOnUse" x1="250.3242" y1="310.1231" x2="250.3242" y2="257.1827" gradientTransform="matrix(1 0 0 -1 0.1758 501.7847)">
	<stop  offset="0" style="stop-color:#FFFFFF;stop-opacity:0.7"/>
	<stop  offset="0.2485" style="stop-color:#FFFFFF;stop-opacity:0.4"/>
	<stop  offset="1" style="stop-color:#000000;stop-opacity:0"/>
</linearGradient>
<path class="st28" d="M250.5,195.3c28,0,51.6,20.9,59.6,47.5c-6.3-28.5-30.6-51.3-59.6-51.3c-29,0-53.3,22.8-59.6,51.3
	C198.9,216.2,222.5,195.3,250.5,195.3z"/>
<linearGradient id="SVGID_29_" gradientUnits="userSpaceOnUse" x1="250.3247" y1="763.2402" x2="250.3247" y2="710.3007" gradientTransform="matrix(1 0 0 1 0.1753 -446.7275)">
	<stop  offset="0" style="stop-color:#FFFFFF;stop-opacity:0.7"/>
	<stop  offset="0.2485" style="stop-color:#FFFFFF;stop-opacity:0.4"/>
	<stop  offset="1" style="stop-color:#000000;stop-opacity:0"/>
</linearGradient>
<path class="st29" d="M250.5,312.8c28,0,51.6-20.9,59.6-47.5c-6.3,28.5-30.6,51.3-59.6,51.3c-29,0-53.3-22.8-59.6-51.3
	C198.9,292,222.5,312.8,250.5,312.8z"/>
<linearGradient id="SVGID_30_" gradientUnits="userSpaceOnUse" x1="250.3205" y1="245.9013" x2="250.3205" y2="184.6189" gradientTransform="matrix(1 0 0 -1 0.1758 501.7847)">
	<stop  offset="0" style="stop-color:#000000;stop-opacity:0"/>
	<stop  offset="1" style="stop-color:#FFFFFF;stop-opacity:0.4"/>
</linearGradient>
<path class="st30" d="M250.5,288c-41.4,0-55.4-35.9-55.4-33.9c0,30.6,24.8,55.4,55.4,55.4c30.6,0,55.4-24.8,55.4-55.4
	C305.9,252.1,291.3,288,250.5,288z"/>
<radialGradient id="SVGID_31_" cx="249.6181" cy="247.7938" r="54.8449" gradientTransform="matrix(1 0 0 -1 0.1758 501.7847)" gradientUnits="userSpaceOnUse">
	<stop  offset="0.8909" style="stop-color:#2E2E31;stop-opacity:0"/>
	<stop  offset="1" style="stop-color:#0C0C0D"/>
</radialGradient>
<path class="st31" d="M305.9,254.1c0,30.6-24.8,55.4-55.4,55.4c-30.6,0-55.4-24.8-55.4-55.4c0-30.6,24.8-55.4,55.4-55.4
	C281.1,198.8,305.9,223.6,305.9,254.1z"/>
<radialGradient id="SVGID_32_" cx="316.3429" cy="356.597" r="14.5611" gradientTransform="matrix(0.866 0.5 0.6087 -1.0543 -268.6488 460.1061)" gradientUnits="userSpaceOnUse">
	<stop  offset="0.2" style="stop-color:#808080;stop-opacity:0.5"/>
	<stop  offset="1" style="stop-color:#FFFFFF;stop-opacity:0"/>
</radialGradient>
<path class="st32" d="M232.7,248.3c-4.6,8-13,11.9-18.7,8.6c-5.7-3.3-6.6-12.5-2-20.5c4.6-8,13-11.9,18.7-8.6
	C236.5,231.1,237.4,240.3,232.7,248.3z"/>
<radialGradient id="SVGID_33_" cx="204.7858" cy="260.9542" r="21.5916" gradientTransform="matrix(-0.5736 0.8192 -0.9973 -0.6983 652.7191 243.6068)" gradientUnits="userSpaceOnUse">
	<stop  offset="0.2061" style="stop-color:#FFFFFF;stop-opacity:0.6"/>
	<stop  offset="0.6121" style="stop-color:#DDDDDD;stop-opacity:0.4045"/>
	<stop  offset="1" style="stop-color:#FFFFFF;stop-opacity:0"/>
</radialGradient>
<path class="st33" d="M261.3,247.7c9.1,6.4,20.2,6.3,24.7-0.2c4.5-6.5,0.8-16.9-8.3-23.3c-9.1-6.4-20.2-6.3-24.7,0.2
	C248.5,230.9,252.2,241.3,261.3,247.7z"/>
<linearGradient id="SVGID_34_" gradientUnits="userSpaceOnUse" x1="261.7989" y1="376.5952" x2="251.0623" y2="250.0613" gradientTransform="matrix(1 0 0 -1 0.1758 501.7847)">
	<stop  offset="0" style="stop-color:#807366;stop-opacity:0"/>
	<stop  offset="0.7091" style="stop-color:#807366;stop-opacity:0.8"/>
	<stop  offset="0.9212" style="stop-color:#807366;stop-opacity:0.5"/>
	<stop  offset="1" style="stop-color:#807366;stop-opacity:0"/>
</linearGradient>
<path class="st34" d="M388.2,258.9c0-1.2,0.2-2.4,0.2-3.7c0-76.1-61.5-137.7-137.3-137.7c-75.8,0-137.3,61.7-137.3,137.7
	c0,1.2,0.2,2.4,0.2,3.7H388.2z"/>
</svg>
