
<svg id="icon-speaker" xmlns="http://www.w3.org/2000/svg" viewBox="0 0 44 44">
	<style type="text/css">
		.st0{fill:url(#SVGID_1_);}
		.st1{fill:url(#SVGID_2_);}
		.st2{fill:url(#SVGID_3_);}
		.st3{fill:url(#SVGID_4_);}
		.st4{fill:url(#SVGID_5_);}
		.st5{fill:url(#SVGID_6_);}
		.st6{fill:url(#SVGID_7_);}
		.st7{fill:url(#SVGID_8_);}
		.st8{opacity:0.5;fill:url(#SVGID_9_);enable-background:new    ;}
		.st9{fill:url(#SVGID_10_);}
		.st10{fill:url(#SVGID_11_);}
		.st11{opacity:0.8;fill:url(#SVGID_12_);enable-background:new    ;}
		.st12{opacity:0.8;fill:url(#SVGID_13_);enable-background:new    ;}
		.st13{fill:url(#SVGID_14_);}
		.st14{opacity:0.8;fill:url(#SVGID_15_);enable-background:new    ;}
		.st15{fill:url(#SVGID_16_);}
		.st16{opacity:0.8;fill:url(#SVGID_17_);enable-background:new    ;}
		.st17{fill:url(#SVGID_18_);}
		.st18{opacity:0.8;fill:url(#SVGID_19_);enable-background:new    ;}
		.st19{fill:url(#SVGID_20_);}
		.st20{fill:#808080;}
		.st21{opacity:0.6;fill:url(#SVGID_21_);enable-background:new    ;}
		.st22{fill:url(#SVGID_22_);}
		.st23{opacity:0.5;fill:url(#SVGID_23_);enable-background:new    ;}
		.st24{opacity:0.4;fill:url(#SVGID_24_);enable-background:new    ;}
		.st25{fill:url(#SVGID_25_);}
		.st26{fill:url(#SVGID_26_);}
		.st27{fill:url(#SVGID_27_);}
		.st28{opacity:0.3;fill:url(#SVGID_28_);enable-background:new    ;}
		.st29{opacity:0.25;fill:url(#SVGID_29_);enable-background:new    ;}
		.st30{opacity:0.8;fill:url(#SVGID_30_);enable-background:new    ;}
		.st31{fill:url(#SVGID_31_);}
		.st32{opacity:0.7;fill:url(#SVGID_32_);enable-background:new    ;}
		.st33{fill:url(#SVGID_33_);}
		.st34{opacity:0.5;fill:url(#SVGID_34_);enable-background:new    ;}
	</style>
	<linearGradient id="SVGID_1_" gradientUnits="userSpaceOnUse" x1="3.1894" y1="-445.2592" x2="40.459" y2="-445.2592" gradientTransform="matrix(1 0 0 1 0.1758 457.7847)">
		<stop  offset="0" style="stop-color:#262626"/>
		<stop  offset="0.2545" style="stop-color:#4D4D4D"/>
		<stop  offset="0.5152" style="stop-color:#808080"/>
		<stop  offset="0.7455" style="stop-color:#4D4D4D"/>
		<stop  offset="1" style="stop-color:#262626"/>
	</linearGradient>
	<path class="st0" d="M22,3.7c10.2,0,18.5,8.2,18.6,18.3c0-0.1,0-0.2,0-0.3c0-10.3-8.3-18.6-18.6-18.6c-10.3,0-18.6,8.3-18.6,18.6
		c0,0.1,0,0.2,0,0.3C3.5,11.8,11.8,3.7,22,3.7z"/>
	<linearGradient id="SVGID_2_" gradientUnits="userSpaceOnUse" x1="35.6945" y1="-448.9278" x2="35.6945" y2="-451.7903" gradientTransform="matrix(1 0 0 1 0.1758 457.7847)">
		<stop  offset="0" style="stop-color:#231F20"/>
		<stop  offset="1" style="stop-color:#808080"/>
	</linearGradient>
	<path class="st1" d="M37.8,6.6c-1-1-2.5-1-3.5,0l-0.7,0.7l-0.4,0.9l0,0l1.1-0.9c1-1,2.5-1,3.5,0c0.4,0.4,0.6,0.9,0.7,1.4
		C38.6,7.9,38.4,7.1,37.8,6.6z"/>
	<linearGradient id="SVGID_3_" gradientUnits="userSpaceOnUse" x1="8.118" y1="-448.9285" x2="8.118" y2="-451.7903" gradientTransform="matrix(1 0 0 1 0.1758 457.7847)">
		<stop  offset="0" style="stop-color:#231F20"/>
		<stop  offset="1" style="stop-color:#808080"/>
	</linearGradient>
	<path class="st2" d="M10.4,7.1L10.4,7.1L9.9,6.6c-1-1-2.5-1-3.5,0c-0.6,0.6-0.8,1.3-0.7,2c0.1-0.5,0.3-1,0.7-1.4c1-1,2.5-1,3.5,0
		l0.9,0.9L10.9,8L10.4,7.1z"/>
	<linearGradient id="SVGID_4_" gradientUnits="userSpaceOnUse" x1="32.9361" y1="-423.4096" x2="38.3248" y2="-423.4096" gradientTransform="matrix(1 0 0 1 0.1758 457.7847)">
		<stop  offset="0.4096" style="stop-color:#231F20"/>
		<stop  offset="1" style="stop-color:#4D4D4D"/>
	</linearGradient>
	<path class="st3" d="M33.4,36.3l3.1-3.1c0,0,0.1,0,0.1,0.1l1.2,1.2c0.4,0.4,0.6,0.9,0.7,1.4c0.1-0.7-0.1-1.5-0.7-2l-1.2-1.2
		c0,0-0.1,0-0.1-0.1l-3.4,3.4c0,0,0,0.1,0.1,0.1L33.4,36.3z"/>
	<linearGradient id="SVGID_5_" gradientUnits="userSpaceOnUse" x1="383.5741" y1="-423.4101" x2="388.9627" y2="-423.4101" gradientTransform="matrix(-1 0 0 1 394.7266 457.7852)">
		<stop  offset="0.4096" style="stop-color:#231F20"/>
		<stop  offset="1" style="stop-color:#4D4D4D"/>
	</linearGradient>
	<path class="st4" d="M10.8,36.3l-3.1-3.1c0,0-0.1,0-0.1,0.1l-1.2,1.2c-0.4,0.4-0.6,0.9-0.7,1.4c-0.1-0.7,0.1-1.5,0.7-2l1.2-1.2
		c0,0,0.1,0,0.1-0.1l3.4,3.4c0,0,0,0.1-0.1,0.1L10.8,36.3z"/>
	<radialGradient id="SVGID_6_" cx="22.1307" cy="-417.4069" r="34.551" gradientTransform="matrix(1 0 0 1 0.1758 457.7847)" gradientUnits="userSpaceOnUse">
		<stop  offset="0.1687" style="stop-color:#CECECE"/>
		<stop  offset="0.3373" style="stop-color:#989899"/>
		<stop  offset="0.512" style="stop-color:#9B9B9C"/>
		<stop  offset="0.7048" style="stop-color:#666666"/>
		<stop  offset="0.8916" style="stop-color:#9B9B9C"/>
		<stop  offset="1" style="stop-color:#D9D9D9"/>
	</radialGradient>
	<path class="st5" d="M40.4,22.3c0,10.2-8.3,18.4-18.4,18.4c-10.2,0-18.4-8.3-18.4-18.4C3.6,12.1,11.8,3.9,22,3.9
		C32.2,3.9,40.4,12.1,40.4,22.3z"/>
	<radialGradient id="SVGID_7_" cx="22" cy="-435.6561" r="18.7047" gradientTransform="matrix(1 0 0 1 0 458)" gradientUnits="userSpaceOnUse">
		<stop  offset="0.9515" style="stop-color:#808080"/>
		<stop  offset="1" style="stop-color:#404040"/>
	</radialGradient>
	<path class="st6" d="M22,3.7C11.7,3.7,3.4,12,3.4,22.3S11.7,40.9,22,40.9s18.6-8.3,18.6-18.6S32.3,3.7,22,3.7z"/>
	<radialGradient id="SVGID_8_" cx="21.7119" cy="-417.6688" r="32.1653" gradientTransform="matrix(1 0 0 1 0.1758 457.7852)" gradientUnits="userSpaceOnUse">
		<stop  offset="0.1687" style="stop-color:#CECECE"/>
		<stop  offset="0.3373" style="stop-color:#989899"/>
		<stop  offset="0.512" style="stop-color:#9B9B9C"/>
		<stop  offset="0.7048" style="stop-color:#666666"/>
		<stop  offset="0.8916" style="stop-color:#9B9B9C"/>
		<stop  offset="1" style="stop-color:#D9D9D9"/>
	</radialGradient>
	<path class="st7" d="M36.6,33.2C36.6,33.2,36.6,33.1,36.6,33.2l-0.4,0.2c2.4-3.1,3.8-6.9,3.8-11.1c0-4-1.3-7.6-3.5-10.6c0,0,0,0,0,0
		l1.2-1.2c1-1,1-2.5,0-3.5s-2.5-1-3.5,0l-1.1,1.1c-3.1-2.5-7-3.9-11.2-3.9c-4.2,0-8,1.4-11.1,3.8l-1-1c-1-1-2.5-1-3.5,0s-1,2.5,0,3.5
		l1.1,1.1c-2.2,3-3.6,6.7-3.6,10.8c0,4.1,1.4,7.9,3.7,10.9l-1.1,1.1c-1,1-1,2.5,0,3.5s2.5,1,3.5,0l1.1-1.1c3,2.3,6.8,3.7,11,3.7
		c4.2,0,8.1-1.4,11.1-3.8l0,0c0,0,0,0.1,0.1,0.1l1.2,1.2c1,1,2.5,1,3.5,0c1-1,1-2.5,0-3.5L36.6,33.2z"/>
	<linearGradient id="SVGID_9_" gradientUnits="userSpaceOnUse" x1="22.0085" y1="-417.7102" x2="22.0085" y2="-453.197" gradientTransform="matrix(1 0 0 1 0 458)">
		<stop  offset="0" style="stop-color:#FFFFFF"/>
		<stop  offset="0.1879" style="stop-color:#999999;stop-opacity:0.8909"/>
		<stop  offset="1" style="stop-color:#FFFFFF;stop-opacity:0"/>
	</linearGradient>
	<path class="st8" d="M36.6,33.2C36.6,33.2,36.6,33.1,36.6,33.2l-0.4,0.2c2.4-3.1,3.8-6.9,3.8-11.1c0-4-1.3-7.6-3.5-10.6c0,0,0,0,0,0
		l1.2-1.2c1-1,1-2.5,0-3.5s-2.5-1-3.5,0l-1.1,1.1c-3.1-2.5-7-3.9-11.2-3.9c-4.2,0-8,1.4-11.1,3.8l-1-1c-1-1-2.5-1-3.5,0s-1,2.5,0,3.5
		l1.1,1.1c-2.2,3-3.6,6.7-3.6,10.8c0,4.1,1.4,7.9,3.7,10.9l-1.1,1.1c-1,1-1,2.5,0,3.5s2.5,1,3.5,0l1.1-1.1c3,2.3,6.8,3.7,11,3.7
		c4.2,0,8.1-1.4,11.1-3.8l0,0c0,0,0,0.1,0.1,0.1l1.2,1.2c1,1,2.5,1,3.5,0c1-1,1-2.5,0-3.5L36.6,33.2z"/>
	<linearGradient id="SVGID_10_" gradientUnits="userSpaceOnUse" x1="21.8242" y1="-451.2132" x2="21.8242" y2="-419.7708" gradientTransform="matrix(1 0 0 1 0.1758 457.7847)">
		<stop  offset="0" style="stop-color:#D9D9D9"/>
		<stop  offset="1" style="stop-color:#808080"/>
	</linearGradient>
	<path class="st9" d="M38,22.3c0,8.9-7.2,16-16,16s-16-7.2-16-16s7.2-16,16-16C30.9,6.3,38,13.5,38,22.3z"/>
	<radialGradient id="SVGID_11_" cx="21.8242" cy="-435.4747" r="16.0358" gradientTransform="matrix(1 0 0 1 0.1758 457.7847)" gradientUnits="userSpaceOnUse">
		<stop  offset="0.9217" style="stop-color:#333333"/>
		<stop  offset="1" style="stop-color:#333333;stop-opacity:0.5"/>
	</radialGradient>
	<path class="st10" d="M22,6.3c-8.9,0-16,7.2-16,16s7.2,16,16,16s16-7.2,16-16S30.9,6.3,22,6.3z M22,37.5c-8.4,0-15.2-6.8-15.2-15.2
		S13.6,7.1,22,7.1s15.2,6.8,15.2,15.2C37.2,30.7,30.4,37.5,22,37.5z"/>
	<linearGradient id="SVGID_12_" gradientUnits="userSpaceOnUse" x1="5.1514" y1="-435.4832" x2="38.3646" y2="-435.4832" gradientTransform="matrix(1 0 0 1 0.1758 457.7847)">
		<stop  offset="1.212100e-02" style="stop-color:#FFFFFF;stop-opacity:0.3"/>
		<stop  offset="0.3152" style="stop-color:#FFFFFF"/>
		<stop  offset="0.6788" style="stop-color:#FFFFFF"/>
		<stop  offset="1" style="stop-color:#FFFFFF;stop-opacity:0.3"/>
	</linearGradient>
	<path class="st11" d="M22,5.6c-9.2,0-16.7,7.5-16.7,16.7S12.8,39,22,39s16.7-7.5,16.7-16.7S31.2,5.6,22,5.6z M22,38.3
		c-8.9,0-16-7.2-16-16s7.2-16,16-16s16,7.2,16,16S30.9,38.3,22,38.3z"/>
	<g>
		
			<linearGradient id="SVGID_13_" gradientUnits="userSpaceOnUse" x1="36.5641" y1="-448.2312" x2="36.5641" y2="-450.6379" gradientTransform="matrix(1 0 0 1 -0.3799 457.7612)">
			<stop  offset="0" style="stop-color:#7B7D80"/>
			<stop  offset="1" style="stop-color:#19191A"/>
		</linearGradient>
		<path class="st12" d="M37.4,8.3c0,0.7-0.6,1.2-1.2,1.2c-0.7,0-1.2-0.6-1.2-1.2s0.6-1.2,1.2-1.2C36.9,7.1,37.4,7.7,37.4,8.3z"/>
		
			<radialGradient id="SVGID_14_" cx="455.1218" cy="-267.421" r="1.4125" gradientTransform="matrix(6.892600e-02 0.9976 -1.3169 9.098200e-02 -347.3928 -421.9622)" gradientUnits="userSpaceOnUse">
			<stop  offset="0.2909" style="stop-color:#CDCDCD"/>
			<stop  offset="0.5212" style="stop-color:#555556"/>
			<stop  offset="0.6" style="stop-color:#616162"/>
			<stop  offset="1" style="stop-color:#ABACAB"/>
		</radialGradient>
		<path class="st13" d="M37.2,8.3c0,0.6-0.5,1-1,1s-1-0.5-1-1s0.5-1,1-1C36.8,7.3,37.2,7.8,37.2,8.3z"/>
	</g>
	<g>
		
			<linearGradient id="SVGID_15_" gradientUnits="userSpaceOnUse" x1="36.5641" y1="-420.3427" x2="36.5641" y2="-422.7502" gradientTransform="matrix(1 0 0 1 -0.3799 457.7612)">
			<stop  offset="0" style="stop-color:#4A4B4D"/>
			<stop  offset="1" style="stop-color:#19191A"/>
		</linearGradient>
		<path class="st14" d="M37.4,36.2c0,0.7-0.6,1.2-1.2,1.2c-0.7,0-1.2-0.6-1.2-1.2s0.6-1.2,1.2-1.2C36.9,35,37.4,35.5,37.4,36.2z"/>
		
			<radialGradient id="SVGID_16_" cx="113.2673" cy="85.2136" r="1.4125" gradientTransform="matrix(6.892600e-02 0.9976 -1.3169 9.098200e-02 140.5525 -85.1232)" gradientUnits="userSpaceOnUse">
			<stop  offset="0.2909" style="stop-color:#CDCDCD"/>
			<stop  offset="0.5212" style="stop-color:#555556"/>
			<stop  offset="0.6" style="stop-color:#616162"/>
			<stop  offset="1" style="stop-color:#ABACAB"/>
		</radialGradient>
		<path class="st15" d="M37.2,36.2c0,0.6-0.5,1-1,1s-1-0.5-1-1s0.5-1,1-1C36.8,35.2,37.2,35.7,37.2,36.2z"/>
	</g>
	<g>
		
			<linearGradient id="SVGID_17_" gradientUnits="userSpaceOnUse" x1="8.2976" y1="-448.2312" x2="8.2976" y2="-450.6379" gradientTransform="matrix(1 0 0 1 -0.3799 457.7612)">
			<stop  offset="0" style="stop-color:#7B7D80"/>
			<stop  offset="1" style="stop-color:#19191A"/>
		</linearGradient>
		<path class="st16" d="M9.2,8.3c0,0.7-0.6,1.2-1.2,1.2S6.7,9,6.7,8.3c0-0.7,0.6-1.2,1.2-1.2S9.2,7.7,9.2,8.3z"/>
		
			<radialGradient id="SVGID_18_" cx="103.3974" cy="-529.9598" r="1.4125" gradientTransform="matrix(6.892600e-02 0.9976 -1.3169 9.098200e-02 -697.1606 -47.1949)" gradientUnits="userSpaceOnUse">
			<stop  offset="0.2909" style="stop-color:#CDCDCD"/>
			<stop  offset="0.5212" style="stop-color:#555556"/>
			<stop  offset="0.6" style="stop-color:#616162"/>
			<stop  offset="1" style="stop-color:#ABACAB"/>
		</radialGradient>
		<path class="st17" d="M8.9,8.3c0,0.6-0.5,1-1,1s-1-0.5-1-1s0.5-1,1-1C8.5,7.3,8.9,7.8,8.9,8.3z"/>
	</g>
	<g>
		
			<linearGradient id="SVGID_19_" gradientUnits="userSpaceOnUse" x1="8.2976" y1="-420.3427" x2="8.2976" y2="-422.7502" gradientTransform="matrix(1 0 0 1 -0.3799 457.7612)">
			<stop  offset="0" style="stop-color:#4A4B4D"/>
			<stop  offset="1" style="stop-color:#19191A"/>
		</linearGradient>
		<path class="st18" d="M9.2,36.2c0,0.7-0.6,1.2-1.2,1.2s-1.2-0.6-1.2-1.2S7.2,35,7.9,35S9.2,35.5,9.2,36.2z"/>
		
			<radialGradient id="SVGID_20_" cx="-238.4415" cy="-177.3137" r="1.4125" gradientTransform="matrix(6.892600e-02 0.9976 -1.3169 9.098200e-02 -209.1999 289.6274)" gradientUnits="userSpaceOnUse">
			<stop  offset="0.2909" style="stop-color:#CDCDCD"/>
			<stop  offset="0.5212" style="stop-color:#555556"/>
			<stop  offset="0.6" style="stop-color:#616162"/>
			<stop  offset="1" style="stop-color:#ABACAB"/>
		</radialGradient>
		<path class="st19" d="M8.9,36.2c0,0.6-0.5,1-1,1s-1-0.5-1-1s0.5-1,1-1S8.9,35.7,8.9,36.2z"/>
	</g>
	<path class="st20" d="M36.6,9.5c0,0,0-0.1,0-0.2"/>
	<radialGradient id="SVGID_21_" cx="21.6841" cy="-436.1499" r="6.85" gradientTransform="matrix(1 0 0 1 0.1758 457.7847)" gradientUnits="userSpaceOnUse">
		<stop  offset="0.5636" style="stop-color:#331A00;stop-opacity:0"/>
		<stop  offset="0.6788" style="stop-color:#331A00"/>
		<stop  offset="0.8606" style="stop-color:#523619;stop-opacity:0.5"/>
		<stop  offset="1" style="stop-color:#806040;stop-opacity:0"/>
	</radialGradient>
	<path class="st21" d="M28.7,21.6c0,3.8-3.1,6.9-6.8,6.9S15,25.4,15,21.6c0-3.8,3.1-6.8,6.8-6.8C25.6,14.8,28.7,17.9,28.7,21.6z"/>
	<radialGradient id="SVGID_22_" cx="21.8242" cy="-435.4832" r="15.4922" gradientTransform="matrix(1 0 0 1 0.1758 457.7847)" gradientUnits="userSpaceOnUse">
		<stop  offset="0" style="stop-color:#000000"/>
		<stop  offset="0.9758" style="stop-color:#15161A"/>
		<stop  offset="1" style="stop-color:#141519;stop-opacity:0"/>
	</radialGradient>
	<path class="st22" d="M22,6.8c-8.6,0-15.5,6.9-15.5,15.5S13.4,37.8,22,37.8s15.5-6.9,15.5-15.5S30.6,6.8,22,6.8z M22,34.7
		c-6.8,0-12.4-5.5-12.4-12.4S15.2,9.9,22,9.9s12.4,5.5,12.4,12.4C34.4,29.1,28.8,34.7,22,34.7z"/>
	<linearGradient id="SVGID_23_" gradientUnits="userSpaceOnUse" x1="21.8242" y1="-450.2021" x2="21.8242" y2="-437.8457" gradientTransform="matrix(1 0 0 1 0.1758 457.7847)">
		<stop  offset="0" style="stop-color:#FFFFFF;stop-opacity:0.7"/>
		<stop  offset="0.2485" style="stop-color:#FFFFFF;stop-opacity:0.4"/>
		<stop  offset="1" style="stop-color:#000000;stop-opacity:0"/>
	</linearGradient>
	<path class="st23" d="M22,8.1c6.7,0,12.4,5,14.3,11.4c-1.5-6.9-7.3-12-14.3-12c-7,0-12.8,5.1-14.3,12C9.6,13.1,15.3,8.1,22,8.1z"/>
	<linearGradient id="SVGID_24_" gradientUnits="userSpaceOnUse" x1="21.8242" y1="-445.7919" x2="21.8242" y2="-433.4355" gradientTransform="matrix(1 0 0 -1 0.1758 -409.7861)">
		<stop  offset="0" style="stop-color:#FFFFFF;stop-opacity:0.7"/>
		<stop  offset="0.2485" style="stop-color:#FFFFFF;stop-opacity:0.4"/>
		<stop  offset="1" style="stop-color:#000000;stop-opacity:0"/>
	</linearGradient>
	<path class="st24" d="M22,35.5c6.4,0,11.8-5,13.6-11.4c-1.4,6.9-7,12-13.6,12s-12.2-5.1-13.6-12C10.2,30.5,15.6,35.5,22,35.5z"/>
	<linearGradient id="SVGID_25_" gradientUnits="userSpaceOnUse" x1="21.8242" y1="-447.8542" x2="21.8242" y2="-422.8945" gradientTransform="matrix(1 0 0 1 0.1758 457.7847)">
		<stop  offset="0" style="stop-color:#222626"/>
		<stop  offset="0.8485" style="stop-color:#17191A"/>
		<stop  offset="1" style="stop-color:#4F5256"/>
	</linearGradient>
	<path class="st25" d="M22,9.8c-6.8,0-12.5,5.7-12.5,12.5S15.2,34.8,22,34.8s12.5-5.7,12.5-12.5S28.8,9.8,22,9.8z M22,33.8
		c-6.4,0-11.5-5.2-11.5-11.5c0-6.4,5.2-11.5,11.5-11.5c6.4,0,11.5,5.2,11.5,11.5S28.4,33.8,22,33.8z"/>
	<radialGradient id="SVGID_26_" cx="21.7202" cy="-543.2873" r="7.8775" gradientTransform="matrix(1 0 0 0.4106 0.1758 244.1315)" gradientUnits="userSpaceOnUse">
		<stop  offset="0.3818" style="stop-color:#303033"/>
		<stop  offset="0.9394" style="stop-color:#0C0C0D"/>
	</radialGradient>
	<path class="st26" d="M26.5,22.3c0,2.5-2,4.5-4.5,4.5c-2.5,0-4.5-2-4.5-4.5c0-2.5,2-4.5,4.5-4.5S26.5,19.8,26.5,22.3z"/>
	<radialGradient id="SVGID_27_" cx="21.8242" cy="-435.4832" r="5.5972" gradientTransform="matrix(1 0 0 1 0.1758 457.7847)" gradientUnits="userSpaceOnUse">
		<stop  offset="0" style="stop-color:#000000"/>
		<stop  offset="0.9697" style="stop-color:#15161A"/>
		<stop  offset="1" style="stop-color:#141519;stop-opacity:0.5"/>
	</radialGradient>
	<path class="st27" d="M22,16.7c-3.1,0-5.6,2.5-5.6,5.6c0,3.1,2.5,5.6,5.6,5.6s5.6-2.5,5.6-5.6C27.6,19.2,25.1,16.7,22,16.7z
		 M22,26.8c-2.5,0-4.5-2-4.5-4.5c0-2.5,2-4.5,4.5-4.5s4.5,2,4.5,4.5C26.5,24.8,24.5,26.8,22,26.8z"/>
	<linearGradient id="SVGID_28_" gradientUnits="userSpaceOnUse" x1="21.8242" y1="-440.7864" x2="21.8242" y2="-436.2899" gradientTransform="matrix(1 0 0 1 0.1758 457.7847)">
		<stop  offset="0" style="stop-color:#FFFFFF;stop-opacity:0.7"/>
		<stop  offset="0.2485" style="stop-color:#FFFFFF;stop-opacity:0.4"/>
		<stop  offset="1" style="stop-color:#000000;stop-opacity:0"/>
	</linearGradient>
	<path class="st28" d="M22,17.3c2.4,0,4.4,1.8,5.1,4C26.5,18.9,24.5,17,22,17s-4.5,1.9-5.1,4.4C17.6,19.1,19.6,17.3,22,17.3z"/>
	<linearGradient id="SVGID_29_" gradientUnits="userSpaceOnUse" x1="21.8247" y1="-428.3301" x2="21.8247" y2="-423.8336" gradientTransform="matrix(1 0 0 -1 0.1753 -400.7275)">
		<stop  offset="0" style="stop-color:#FFFFFF;stop-opacity:0.7"/>
		<stop  offset="0.2485" style="stop-color:#FFFFFF;stop-opacity:0.4"/>
		<stop  offset="1" style="stop-color:#000000;stop-opacity:0"/>
	</linearGradient>
	<path class="st29" d="M22,27.3c2.4,0,4.4-1.8,5.1-4c-0.5,2.4-2.6,4.4-5.1,4.4s-4.5-1.9-5.1-4.4C17.6,25.5,19.6,27.3,22,27.3z"/>
	<linearGradient id="SVGID_30_" gradientUnits="userSpaceOnUse" x1="21.8242" y1="-435.3317" x2="21.8242" y2="-430.1266" gradientTransform="matrix(1 0 0 1 0.1758 457.7847)">
		<stop  offset="0" style="stop-color:#000000;stop-opacity:0"/>
		<stop  offset="1" style="stop-color:#FFFFFF;stop-opacity:0.4"/>
	</linearGradient>
	<path class="st30" d="M22,25.2c-3.5,0-4.7-3-4.7-2.9c0,2.6,2.1,4.7,4.7,4.7s4.7-2.1,4.7-4.7C26.7,22.1,25.5,25.2,22,25.2z"/>
	<radialGradient id="SVGID_31_" cx="21.7642" cy="-435.4832" r="4.6537" gradientTransform="matrix(1 0 0 1 0.1758 457.7847)" gradientUnits="userSpaceOnUse">
		<stop  offset="0.8909" style="stop-color:#2E2E31;stop-opacity:0"/>
		<stop  offset="1" style="stop-color:#0C0C0D"/>
	</radialGradient>
	<path class="st31" d="M26.7,22.3c0,2.6-2.1,4.7-4.7,4.7s-4.7-2.1-4.7-4.7s2.1-4.7,4.7-4.7C24.6,17.6,26.7,19.7,26.7,22.3z"/>
	<radialGradient id="SVGID_32_" cx="29.8721" cy="-385.8463" r="1.2366" gradientTransform="matrix(0.866 0.5 -0.6087 1.0543 -241.1233 413.1626)" gradientUnits="userSpaceOnUse">
		<stop  offset="0.2" style="stop-color:#808080;stop-opacity:0.5"/>
		<stop  offset="1" style="stop-color:#FFFFFF;stop-opacity:0"/>
	</radialGradient>
	<path class="st32" d="M20.5,21.8c-0.4,0.7-1.1,1-1.6,0.7c-0.5-0.3-0.6-1.1-0.2-1.7s1.1-1,1.6-0.7C20.8,20.3,20.9,21.1,20.5,21.8z"/>
	<radialGradient id="SVGID_33_" cx="178.2905" cy="-484.3733" r="1.8339" gradientTransform="matrix(-0.5736 0.8192 0.9973 0.6983 609.4142 212.3641)" gradientUnits="userSpaceOnUse">
		<stop  offset="0.2061" style="stop-color:#FFFFFF;stop-opacity:0.6"/>
		<stop  offset="0.6121" style="stop-color:#DDDDDD;stop-opacity:0.4045"/>
		<stop  offset="1" style="stop-color:#FFFFFF;stop-opacity:0"/>
	</radialGradient>
	<path class="st33" d="M22.9,21.8c0.8,0.5,1.7,0.5,2.1,0c0.4-0.6,0.1-1.4-0.7-2c-0.8-0.5-1.7-0.5-2.1,0S22.1,21.2,22.9,21.8z"/>
	<linearGradient id="SVGID_34_" gradientUnits="userSpaceOnUse" x1="22.7956" y1="-446.4325" x2="21.8837" y2="-435.6853" gradientTransform="matrix(1 0 0 1 0.1758 457.7847)">
		<stop  offset="0" style="stop-color:#807366;stop-opacity:0"/>
		<stop  offset="0.7091" style="stop-color:#807366;stop-opacity:0.8"/>
		<stop  offset="0.9212" style="stop-color:#807366;stop-opacity:0.5"/>
		<stop  offset="1" style="stop-color:#807366;stop-opacity:0"/>
	</linearGradient>
	<path class="st34" d="M33.7,22.7c0-0.1,0-0.2,0-0.3c0-6.5-5.2-11.7-11.7-11.7s-11.7,5.2-11.7,11.7c0,0.1,0,0.2,0,0.3H33.7z"/>
</svg>
