
<svg id="icon-cloud-storage" viewBox="0 0 500 500">
	<style type="text/css">
		.st0{fill:url(#SVGID_1_);}
		.st1{fill:url(#SVGID_2_);}
		.st2{fill:url(#SVGID_3_);}
		.st3{fill:url(#SVGID_4_);}
		.st4{fill:url(#SVGID_5_);}
		.st5{fill:url(#SVGID_6_);}
		.st6{fill:url(#SVGID_7_);}
		.st7{fill:url(#SVGID_8_);}
		.st8{fill:url(#SVGID_9_);}
		.st9{fill:url(#SVGID_10_);}
		.st10{fill:url(#SVGID_11_);}
	</style>
	<linearGradient id="SVGID_1_" gradientUnits="userSpaceOnUse" x1="38.133" y1="-112.6743" x2="462.7442" y2="-112.6743" gradientTransform="matrix(1 0 0 1 0 376)">
		<stop  offset="0" style="stop-color:#B5B7B7"/>
		<stop  offset="1" style="stop-color:#A2A5A6"/>
	</linearGradient>
	<linearGradient id="SVGID_2_" gradientUnits="userSpaceOnUse" x1="38.2368" y1="58.9966" x2="462.7641" y2="58.9966" gradientTransform="matrix(1 0 0 1 0 376)">
		<stop  offset="0" style="stop-color:#B5B7B7"/>
		<stop  offset="4.065678e-02" style="stop-color:#A1A7A8"/>
		<stop  offset="0.1773" style="stop-color:#D7DFE2"/>
		<stop  offset="0.4362" style="stop-color:#C6CACB"/>
		<stop  offset="0.6479" style="stop-color:#DDE3E6"/>
		<stop  offset="0.9623" style="stop-color:#A5ACAF"/>
		<stop  offset="1" style="stop-color:#8F9597"/>
	</linearGradient>
	<linearGradient id="SVGID_3_" gradientUnits="userSpaceOnUse" x1="449.2244" y1="96.6976" x2="449.2244" y2="26.931" gradientTransform="matrix(1 0 0 1 0 376)">
		<stop  offset="0" style="stop-color:#C5C9CB"/>
		<stop  offset="1" style="stop-color:#9FA6A9"/>
	</linearGradient>
	<linearGradient id="SVGID_4_" gradientUnits="userSpaceOnUse" x1="50.4577" y1="96.6976" x2="50.4577" y2="26.931" gradientTransform="matrix(1 0 0 1 0 376)">
		<stop  offset="0" style="stop-color:#C5C9CB"/>
		<stop  offset="1" style="stop-color:#B8BDC0;stop-opacity:0.3"/>
	</linearGradient>
	<linearGradient id="SVGID_5_" gradientUnits="userSpaceOnUse" x1="38.1532" y1="-145.2727" x2="462.6459" y2="-145.2727" gradientTransform="matrix(1 0 0 1 0 376)">
		<stop  offset="0" style="stop-color:#DBE7EA"/>
		<stop  offset="0.5044" style="stop-color:#D2D9DC"/>
		<stop  offset="1" style="stop-color:#E6EEF0"/>
	</linearGradient>
	<linearGradient id="SVGID_6_" gradientUnits="userSpaceOnUse" x1="250.3996" y1="-324.8264" x2="250.3996" y2="29.2874" gradientTransform="matrix(1 0 0 1 0 376)">
		<stop  offset="0" style="stop-color:#C8C8C8"/>
		<stop  offset="1" style="stop-color:#A1A2A2"/>
	</linearGradient>
	<linearGradient id="SVGID_7_" gradientUnits="userSpaceOnUse" x1="250.0532" y1="-316.9999" x2="250.0532" y2="-42.3815" gradientTransform="matrix(1 0 0 1 0 376)">
		<stop  offset="0" style="stop-color:#FFC320"/>
		<stop  offset="1" style="stop-color:#FF9900"/>
	</linearGradient>
	<linearGradient id="SVGID_8_" gradientUnits="userSpaceOnUse" x1="369.4935" y1="69.1961" x2="391.2922" y2="69.1961" gradientTransform="matrix(1 0 0 1 0 376)">
		<stop  offset="0" style="stop-color:#DBE7EA"/>
		<stop  offset="0.5044" style="stop-color:#D2D9DC"/>
		<stop  offset="1" style="stop-color:#E6EEF0"/>
	</linearGradient>
	<radialGradient id="SVGID_9_" cx="380.3751" cy="67.5623" r="9.4781" gradientTransform="matrix(1 0 0 0.9815 0 377.8693)" gradientUnits="userSpaceOnUse">
		<stop  offset="4.082876e-04" style="stop-color:#879098"/>
		<stop  offset="0.5025" style="stop-color:#358936"/>
		<stop  offset="1" style="stop-color:#838B91"/>
	</radialGradient>
	<radialGradient id="SVGID_10_" cx="380.3431" cy="66.0741" r="6.6828" fx="380.3619" fy="67.7849" gradientTransform="matrix(1 0 0 0.9815 0 377.8693)" gradientUnits="userSpaceOnUse">
		<stop  offset="4.082876e-04" style="stop-color:#DFFFDC"/>
		<stop  offset="0.4827" style="stop-color:#8CFA80"/>
		<stop  offset="0.9197" style="stop-color:#4DCB40"/>
		<stop  offset="1" style="stop-color:#248920"/>
	</radialGradient>
	<linearGradient id="SVGID_11_" gradientUnits="userSpaceOnUse" x1="251.3676" y1="233.0932" x2="251.3676" y2="380.7971" gradientTransform="matrix(1 0 0 -1 0 499)">
		<stop  offset="0" style="stop-color:#E58F10"/>
		<stop  offset="1" style="stop-color:#D78700"/>
	</linearGradient>
	<g>
		<path class="st0" d="M462.7,394.8c0-0.2,0.1-0.5,0.1-0.7c0-0.5,0-1-0.1-1.5L419.3,64.7c-0.9-8-7.7-13.4-15.7-13.4H96.3 c-8,0-14.4,5-15.7,13.4l-42.3,328c0,0.5-0.1,1-0.1,1.5c0,0.2,0,0.5,0.1,0.7h-0.1c0,0.5,3.7,64.7,3.7,65.2 c0.2,7.9,7.6,15.2,15.9,15.2h384.4c8.2,0,15.7-7.3,15.9-15.2C458.1,459.6,462.8,395.3,462.7,394.8L462.7,394.8z"/>
	</g>
	<path class="st1" d="M38.2,394.8c0,0.5,3.7,64.7,3.7,65.2c0.2,7.9,7.6,15.2,15.9,15.2h384.4c8.2,0,15.7-7.3,15.9-15.2 c0-0.5,4.7-64.7,4.7-65.2"/>
	<path class="st2" d="M456.7,402.9c0.1,15-1.9,45.3-2.6,52.5c-0.9,8.8-3.8,13.8-12.5,17.3c7.8-7.4,8-16.4,8.4-22.6 c0.3-6.3,0.9-42.4,0.9-42.4L456.7,402.9z"/>
	<path class="st3" d="M42.9,402.9c-0.1,15,1.8,45.3,2.6,52.5c0.9,8.8,3.8,13.8,12.5,17.3c-7.8-7.4-8-16.4-8.3-22.6 c-0.3-6.3-0.9-42.4-0.9-42.4L42.9,402.9z"/>
	<path class="st4" d="M403.7,51.4H96.3c-8,0-14.4,5-15.7,13.4l-42.3,328c0,0.5-0.1,1-0.1,1.5c0.2,7.7,7.5,15.9,15.7,15.9h393.1 c8.1,0,15.5-8.2,15.7-15.9c0-0.5,0-1-0.1-1.5l-43.2-328C418.5,56.6,411.5,51.4,403.7,51.4z"/>
	<path class="st5" d="M403.3,51.2H96.7c-7.8,0-14.2,4.9-15.4,13.2L41.6,388.2c0,0.5-0.1,1-0.1,1.4c0.2,7.6,7.4,15.7,15.4,15.7H444 c8,0,15.2-8,15.4-15.7c0-0.5,0-1-0.1-1.5L418.8,64.3C417.9,56.4,411.2,51.2,403.3,51.2z"/>
	<path class="st6" d="M397.6,59H101.5c-7.6,0-11.7,3.8-13,11.8l-29.8,239c0,0.5-1.2,9.4-1.2,9.9c-0.8,8.6,7.1,13.9,14.8,13.9h355.4 c9.1,0,15.6-6.7,14.8-13.9c0-0.5-0.3-2.8-0.3-3.3L410.6,70.8C409.7,63.2,405.2,59,397.6,59z"/>
	<path class="st7" d="M380.3,436.7c6,0,10.9,3.8,11,8.5c0.1,4.7-4.7,8.6-10.7,8.6c-6,0-10.9-3.8-11-8.6 C369.5,440.5,374.3,436.7,380.3,436.7z"/>
	<path class="st8" d="M380.3,436c5.8,0,10.5,3.7,10.6,8.2c0.1,4.6-4.5,8.2-10.3,8.2s-10.5-3.7-10.6-8.2 C369.9,439.6,374.5,436,380.3,436z"/>
	<path class="st9" d="M387.2,442.4c0.1,3.7-2.9,6.8-6.8,6.8s-7-3-7-6.8c-0.1-3.8,2.9-6,6.8-6S387.1,438.6,387.2,442.4z"/>
	<path class="st10" d="M368.4,216.3c5.9,26.3-11.9,49.6-40.4,49.6H181.8c-33.2,0-54-27.1-47.2-57.1c4.4-19.7,19.9-35.6,38.2-42.6 c0.1-1.3,0.2-2.8,0.5-4.1c4.2-25.4,30.1-43.9,58.3-43.9c21.3,0,40,10.4,48.9,26.3c4.4-3.4,10.3-5.4,17-5.4c14.7,0,28.4,10.1,30.5,23 c0.8,4.9-0.1,9.5-2.4,13.4C345.6,179.6,363.6,195.6,368.4,216.3z"/>
</svg>