
<svg id="icon-keyboard" xmlns="http://www.w3.org/2000/svg" viewBox="0 0 44 44">
	<style type="text/css">
		.st0{fill:url(#SVGID_1_);}
		.st1{opacity:0.2;}
		.st2{fill:#424242;}
		.st3{fill:#F5F5F5;}
	</style>
	<linearGradient id="SVGID_1_" gradientUnits="userSpaceOnUse" x1="21.9908" y1="-446.0869" x2="21.9908" y2="-425.1124" gradientTransform="matrix(1 0 0 1 0 458)">
		<stop  offset="0" style="stop-color:#BDBDBD"/>
		<stop  offset="1" style="stop-color:#9E9E9E"/>
	</linearGradient>
	<path class="st0" d="M41.7,32.9H2.3c-0.7,0-1.2-0.6-1.2-1.2V13.2C1,12.5,1.6,12,2.3,12h39.4c0.7,0,1.2,0.6,1.2,1.2v18.5
		C42.9,32.4,42.4,32.9,41.7,32.9z"/>
	<g class="st1">
		<path class="st2" d="M41.7,13c0.1,0,0.2,0.1,0.2,0.2v18.5c0,0.1-0.1,0.2-0.2,0.2H2.3c-0.1,0-0.2-0.1-0.2-0.2V13.2
			c0-0.1,0.1-0.2,0.2-0.2H41.7 M41.7,12H2.3C1.6,12,1,12.5,1,13.2v18.5c0,0.7,0.6,1.2,1.2,1.2h39.4c0.7,0,1.2-0.6,1.2-1.2V13.2
			C42.9,12.5,42.4,12,41.7,12L41.7,12z"/>
	</g>
	<path class="st3" d="M5.4,17.4H3.7c-0.3,0-0.6-0.3-0.6-0.6v-1.7c0-0.3,0.3-0.6,0.6-0.6h1.7c0.3,0,0.6,0.3,0.6,0.6v1.7
		C6,17.1,5.8,17.4,5.4,17.4z"/>
	<path class="st3" d="M9.6,17.4H7.9c-0.3,0-0.6-0.3-0.6-0.6v-1.7c0-0.3,0.3-0.6,0.6-0.6h1.7c0.3,0,0.6,0.3,0.6,0.6v1.7
		C10.2,17.1,9.9,17.4,9.6,17.4z"/>
	<path class="st3" d="M13.7,17.4H12c-0.3,0-0.6-0.3-0.6-0.6v-1.7c0-0.3,0.3-0.6,0.6-0.6h1.7c0.3,0,0.6,0.3,0.6,0.6v1.7
		C14.3,17.1,14,17.4,13.7,17.4z"/>
	<path class="st3" d="M17.9,17.4h-1.7c-0.3,0-0.6-0.3-0.6-0.6v-1.7c0-0.3,0.3-0.6,0.6-0.6h1.7c0.3,0,0.6,0.3,0.6,0.6v1.7
		C18.5,17.1,18.2,17.4,17.9,17.4z"/>
	<path class="st3" d="M22,17.4h-1.7c-0.3,0-0.6-0.3-0.6-0.6v-1.7c0-0.3,0.3-0.6,0.6-0.6H22c0.3,0,0.6,0.3,0.6,0.6v1.7
		C22.6,17.1,22.3,17.4,22,17.4z"/>
	<path class="st3" d="M26.2,17.4h-1.7c-0.3,0-0.6-0.3-0.6-0.6v-1.7c0-0.3,0.3-0.6,0.6-0.6h1.7c0.3,0,0.6,0.3,0.6,0.6v1.7
		C26.8,17.1,26.5,17.4,26.2,17.4z"/>
	<path class="st3" d="M30.3,17.4h-1.7c-0.3,0-0.6-0.3-0.6-0.6v-1.7c0-0.3,0.3-0.6,0.6-0.6h1.7c0.3,0,0.6,0.3,0.6,0.6v1.7
		C30.9,17.1,30.6,17.4,30.3,17.4z"/>
	<path class="st3" d="M34.4,17.4h-1.7c-0.3,0-0.6-0.3-0.6-0.6v-1.7c0-0.3,0.3-0.6,0.6-0.6h1.7c0.3,0,0.6,0.3,0.6,0.6v1.7
		C35,17.1,34.8,17.4,34.4,17.4z"/>
	<path class="st3" d="M40.2,17.4h-3.2c-0.3,0-0.6-0.3-0.6-0.6v-1.7c0-0.3,0.3-0.6,0.6-0.6h3.2c0.3,0,0.6,0.3,0.6,0.6v1.7
		C40.8,17.1,40.6,17.4,40.2,17.4z"/>
	<path class="st3" d="M38.5,21.7h1.7c0.3,0,0.6-0.3,0.6-0.6v-1.7c0-0.3-0.3-0.6-0.6-0.6h-1.7c-0.3,0-0.6,0.3-0.6,0.6v1.7
		C37.9,21.5,38.2,21.7,38.5,21.7z"/>
	<path class="st3" d="M34.4,21.7h1.7c0.3,0,0.6-0.3,0.6-0.6v-1.7c0-0.3-0.3-0.6-0.6-0.6h-1.7c-0.3,0-0.6,0.3-0.6,0.6v1.7
		C33.8,21.5,34.1,21.7,34.4,21.7z"/>
	<path class="st3" d="M30.2,21.7h1.7c0.3,0,0.6-0.3,0.6-0.6v-1.7c0-0.3-0.3-0.6-0.6-0.6h-1.7c-0.3,0-0.6,0.3-0.6,0.6v1.7
		C29.6,21.5,29.9,21.7,30.2,21.7z"/>
	<path class="st3" d="M26.1,21.7h1.7c0.3,0,0.6-0.3,0.6-0.6v-1.7c0-0.3-0.3-0.6-0.6-0.6h-1.7c-0.3,0-0.6,0.3-0.6,0.6v1.7
		C25.5,21.5,25.8,21.7,26.1,21.7z"/>
	<path class="st3" d="M21.9,21.7h1.7c0.3,0,0.6-0.3,0.6-0.6v-1.7c0-0.3-0.3-0.6-0.6-0.6h-1.7c-0.3,0-0.6,0.3-0.6,0.6v1.7
		C21.4,21.5,21.6,21.7,21.9,21.7z"/>
	<path class="st3" d="M17.8,21.7h1.7c0.3,0,0.6-0.3,0.6-0.6v-1.7c0-0.3-0.3-0.6-0.6-0.6h-1.7c-0.3,0-0.6,0.3-0.6,0.6v1.7
		C17.2,21.5,17.5,21.7,17.8,21.7z"/>
	<path class="st3" d="M13.7,21.7h1.7c0.3,0,0.6-0.3,0.6-0.6v-1.7c0-0.3-0.3-0.6-0.6-0.6h-1.7c-0.3,0-0.6,0.3-0.6,0.6v1.7
		C13.1,21.5,13.3,21.7,13.7,21.7z"/>
	<path class="st3" d="M9.5,21.7h1.7c0.3,0,0.6-0.3,0.6-0.6v-1.7c0-0.3-0.3-0.6-0.6-0.6H9.5c-0.3,0-0.6,0.3-0.6,0.6v1.7
		C8.9,21.5,9.2,21.7,9.5,21.7z"/>
	<path class="st3" d="M3.7,21.7h3.2c0.3,0,0.6-0.3,0.6-0.6v-1.7c0-0.3-0.3-0.6-0.6-0.6H3.7c-0.3,0-0.6,0.3-0.6,0.6v1.7
		C3.1,21.5,3.4,21.7,3.7,21.7z"/>
	<path class="st3" d="M28.4,26.1h1.7c0.3,0,0.6-0.3,0.6-0.6v-1.7c0-0.3-0.3-0.6-0.6-0.6h-1.7c-0.3,0-0.6,0.3-0.6,0.6v1.7
		C27.8,25.8,28.1,26.1,28.4,26.1z"/>
	<path class="st3" d="M24,26.1h1.7c0.3,0,0.6-0.3,0.6-0.6v-1.7c0-0.3-0.3-0.6-0.6-0.6H24c-0.3,0-0.6,0.3-0.6,0.6v1.7
		C23.4,25.8,23.7,26.1,24,26.1z"/>
	<path class="st3" d="M19.7,26.1h1.7c0.3,0,0.6-0.3,0.6-0.6v-1.7c0-0.3-0.3-0.6-0.6-0.6h-1.7c-0.3,0-0.6,0.3-0.6,0.6v1.7
		C19.1,25.8,19.4,26.1,19.7,26.1z"/>
	<path class="st3" d="M15.3,26.1h1.7c0.3,0,0.6-0.3,0.6-0.6v-1.7c0-0.3-0.3-0.6-0.6-0.6h-1.7c-0.3,0-0.6,0.3-0.6,0.6v1.7
		C14.7,25.8,15,26.1,15.3,26.1z"/>
	<path class="st3" d="M11,26.1h1.7c0.3,0,0.6-0.3,0.6-0.6v-1.7c0-0.3-0.3-0.6-0.6-0.6H11c-0.3,0-0.6,0.3-0.6,0.6v1.7
		C10.4,25.8,10.6,26.1,11,26.1z"/>
	<path class="st3" d="M3.7,26.1h4.6c0.3,0,0.6-0.3,0.6-0.6v-1.7c0-0.3-0.3-0.6-0.6-0.6H3.7c-0.3,0-0.6,0.3-0.6,0.6v1.7
		C3.1,25.8,3.4,26.1,3.7,26.1z"/>
	<path class="st3" d="M32.7,26.1h7.5c0.3,0,0.6-0.3,0.6-0.6v-1.8c0-0.3-0.3-0.6-0.6-0.6h-7.5c-0.3,0-0.6,0.3-0.6,0.6v1.8
		C32.1,25.9,32.4,26.1,32.7,26.1z"/>
	<path class="st3" d="M38.5,30.4h1.7c0.3,0,0.6-0.3,0.6-0.6v-1.7c0-0.3-0.3-0.6-0.6-0.6h-1.7c-0.3,0-0.6,0.3-0.6,0.6v1.7
		C37.9,30.2,38.2,30.4,38.5,30.4z"/>
	<path class="st3" d="M34,30.4h1.7c0.3,0,0.6-0.3,0.6-0.6v-1.7c0-0.3-0.3-0.6-0.6-0.6H34c-0.3,0-0.6,0.3-0.6,0.6v1.7
		C33.4,30.2,33.7,30.4,34,30.4z"/>
	<path class="st3" d="M12.7,30.4h18.5c0.3,0,0.6-0.3,0.6-0.6v-1.7c0-0.3-0.3-0.6-0.6-0.6H12.7c-0.3,0-0.6,0.3-0.6,0.6v1.7
		C12.1,30.2,12.4,30.4,12.7,30.4z"/>
	<path class="st3" d="M8.2,30.4h1.7c0.3,0,0.6-0.3,0.6-0.6v-1.7c0-0.3-0.3-0.6-0.6-0.6H8.2c-0.3,0-0.6,0.3-0.6,0.6v1.7
		C7.6,30.2,7.9,30.4,8.2,30.4z"/>
	<path class="st3" d="M3.7,30.4h1.7c0.3,0,0.6-0.3,0.6-0.6v-1.7c0-0.3-0.3-0.6-0.6-0.6H3.7c-0.3,0-0.6,0.3-0.6,0.6v1.7
		C3.1,30.2,3.4,30.4,3.7,30.4z"/>
</svg>
