
<svg id="icon-general" xmlns="http://www.w3.org/2000/svg" viewBox="0 0 44 44">
	<style type="text/css">
		.st0{fill:#DDDDDD;}
		.st1{fill:url(#SVGID_1_);}
		.st2{fill:#FFFFFF;}
		.st3{fill:url(#SVGID_2_);}
		.st4{fill:#C8C8C8;}
		.st5{fill:#333333;}
		.st6{fill:url(#SVGID_3_);}
	</style>
	<linearGradient id="SVGID_1_" gradientUnits="userSpaceOnUse" x1="346.5307" y1="41.9125" x2="346.5307" y2="29.6426" gradientTransform="matrix(-1 0 0 -1 377.2448 46)">
		<stop  offset="0" style="stop-color:#9390C6"/>
		<stop  offset="1" style="stop-color:#3953A4"/>
	</linearGradient>
	<linearGradient id="SVGID_2_" gradientUnits="userSpaceOnUse" x1="10.8775" y1="29.6426" x2="10.8775" y2="6.0875" gradientTransform="matrix(1 0 0 -1 0 46)">
		<stop  offset="0" style="stop-color:#33AACC"/>
		<stop  offset="0.5135" style="stop-color:#449988"/>
		<stop  offset="1" style="stop-color:#336677"/>
	</linearGradient>
	<linearGradient id="SVGID_3_" gradientUnits="userSpaceOnUse" x1="10.8395" y1="41.9125" x2="10.8395" y2="29.6426" gradientTransform="matrix(1 0 0 -1 0 46)">
		<stop  offset="0" style="stop-color:#FFFFFF"/>
		<stop  offset="1" style="stop-color:#D6D6D6"/>
	</linearGradient>
	<path class="st0" d="M39.4,39.9H4.6c-1.4,0-2.5-1.1-2.5-2.5V6.6c0-1.4,1.1-2.5,2.5-2.5h34.8c1.4,0,2.5,1.1,2.5,2.5v30.8
		C41.9,38.8,40.8,39.9,39.4,39.9z"/>
	<path class="st1" d="M19.6,16.4h22.2V6.6c0-1.4-1.1-2.5-2.5-2.5H19.6"/>
	<path d="M41.9,16.4H19.6v0L41.9,16.4l0-9.8c0-1.4-1.1-2.5-2.5-2.5H19.6v0h19.7c1.4,0,2.5,1.1,2.5,2.5V16.4z"/>
	<path class="st2" d="M23,13V7.6h3.7v0.6h-2.9v1.7h2.6v0.6h-2.6V13L23,13L23,13z"/>
	<path class="st2" d="M27.6,8.4V7.6h0.7v0.8H27.6z M27.6,13V9.1h0.7V13H27.6z"/>
	<path class="st2" d="M29.2,13V7.6h0.7V13H29.2z"/>
	<path class="st2" d="M33.6,11.8l0.7,0.1c-0.1,0.4-0.3,0.7-0.6,0.9c-0.3,0.2-0.7,0.3-1.1,0.3c-0.6,0-1-0.2-1.4-0.5
		c-0.3-0.4-0.5-0.9-0.5-1.5c0-0.7,0.2-1.2,0.5-1.5C31.6,9.2,32,9,32.6,9c0.5,0,1,0.2,1.3,0.5c0.3,0.4,0.5,0.9,0.5,1.5
		c0,0,0,0.1,0,0.2h-2.9c0,0.4,0.1,0.8,0.4,1s0.5,0.3,0.8,0.3c0.2,0,0.5-0.1,0.6-0.2C33.4,12.3,33.5,12.1,33.6,11.8z M31.4,10.7h2.2
		c0-0.3-0.1-0.6-0.3-0.7c-0.2-0.3-0.5-0.4-0.8-0.4c-0.3,0-0.6,0.1-0.8,0.3C31.6,10.1,31.5,10.4,31.4,10.7z"/>
	<path class="st3" d="M19.7,16.4v23.6H4.6c-1.4,0-2.5-1.1-2.5-2.5v-21"/>
	<path class="st4" d="M19.6,16.4v23.6h19.8c1.4,0,2.5-1.1,2.5-2.5v-21"/>
	<path d="M39.4,40H19.5V16.4h0.2v23.5h19.7c1.3,0,2.4-1.1,2.4-2.4v-21H42v21C42,38.8,40.8,40,39.4,40z"/>
	<path class="st5" d="M23,26.1v-5.4h0.7l2.9,4.3v-4.3h0.7v5.4h-0.7l-2.9-4.3v4.3H23z"/>
	<path class="st5" d="M31.1,24.8l0.7,0.1c-0.1,0.4-0.3,0.7-0.6,0.9c-0.3,0.2-0.7,0.3-1.1,0.3c-0.6,0-1-0.2-1.4-0.5
		c-0.3-0.4-0.5-0.9-0.5-1.5c0-0.7,0.2-1.2,0.5-1.5c0.3-0.4,0.8-0.5,1.3-0.5c0.5,0,1,0.2,1.3,0.5s0.5,0.9,0.5,1.5c0,0,0,0.1,0,0.2
		h-2.9c0,0.4,0.1,0.8,0.4,1c0.2,0.2,0.5,0.3,0.8,0.3c0.2,0,0.5-0.1,0.6-0.2C30.9,25.3,31,25.1,31.1,24.8z M28.9,23.8h2.2
		c0-0.3-0.1-0.6-0.3-0.7c-0.2-0.3-0.5-0.4-0.8-0.4c-0.3,0-0.6,0.1-0.8,0.3C29,23.1,28.9,23.4,28.9,23.8z"/>
	<path class="st5" d="M33.4,26.1l-1.2-3.9h0.7l0.6,2.3l0.2,0.8c0,0,0.1-0.3,0.2-0.8l0.6-2.3h0.7l0.6,2.3l0.2,0.7l0.2-0.8l0.7-2.3h0.6
		l-1.2,3.9h-0.7L35,23.7l-0.2-0.7l-0.8,3L33.4,26.1L33.4,26.1z"/>
	<path class="st5" d="M22.8,33.1c0-0.9,0.2-1.6,0.7-2.1c0.5-0.5,1.1-0.8,1.9-0.8c0.5,0,1,0.1,1.4,0.4c0.4,0.2,0.7,0.6,0.9,1
		c0.2,0.4,0.3,0.9,0.3,1.5s-0.1,1-0.3,1.5c-0.2,0.4-0.5,0.8-0.9,1c-0.4,0.2-0.8,0.3-1.3,0.3c-0.5,0-1-0.1-1.4-0.4
		c-0.4-0.2-0.7-0.6-0.9-1C22.9,34.1,22.8,33.6,22.8,33.1z M23.5,33.1c0,0.7,0.2,1.2,0.5,1.5c0.4,0.4,0.8,0.6,1.3,0.6
		c0.5,0,1-0.2,1.3-0.6c0.4-0.4,0.5-0.9,0.5-1.6c0-0.4-0.1-0.8-0.2-1.2c-0.2-0.3-0.4-0.6-0.7-0.8c-0.3-0.2-0.6-0.3-1-0.3
		c-0.5,0-0.9,0.2-1.3,0.5C23.7,31.7,23.5,32.3,23.5,33.1z"/>
	<path class="st5" d="M28.8,37.3v-5.4h0.6v0.5c0.1-0.2,0.3-0.4,0.5-0.4c0.2-0.1,0.4-0.2,0.7-0.2c0.3,0,0.6,0.1,0.9,0.3
		c0.3,0.2,0.5,0.4,0.6,0.7c0.1,0.3,0.2,0.7,0.2,1c0,0.4-0.1,0.8-0.2,1.1s-0.4,0.6-0.6,0.7s-0.6,0.3-0.9,0.3c-0.2,0-0.4,0-0.6-0.1
		c-0.2-0.1-0.3-0.2-0.4-0.4v1.9L28.8,37.3L28.8,37.3z M29.4,33.8c0,0.5,0.1,0.9,0.3,1.1c0.2,0.2,0.5,0.4,0.7,0.4
		c0.3,0,0.5-0.1,0.8-0.4c0.2-0.3,0.3-0.6,0.3-1.2c0-0.5-0.1-0.9-0.3-1.1s-0.5-0.4-0.7-0.4s-0.5,0.1-0.8,0.4
		C29.5,32.9,29.4,33.3,29.4,33.8z"/>
	<path class="st5" d="M35.7,34.5l0.7,0.1c-0.1,0.4-0.3,0.7-0.6,0.9c-0.3,0.2-0.7,0.3-1.1,0.3c-0.6,0-1-0.2-1.4-0.5
		c-0.3-0.4-0.5-0.9-0.5-1.5c0-0.7,0.2-1.2,0.5-1.5c0.3-0.4,0.8-0.5,1.3-0.5c0.5,0,1,0.2,1.3,0.5c0.3,0.4,0.5,0.9,0.5,1.5
		c0,0,0,0.1,0,0.2h-2.9c0,0.4,0.1,0.8,0.4,1c0.2,0.2,0.5,0.3,0.8,0.3c0.2,0,0.5-0.1,0.6-0.2C35.5,35,35.6,34.8,35.7,34.5z M33.5,33.4
		h2.2c0-0.3-0.1-0.6-0.3-0.7c-0.2-0.3-0.5-0.4-0.8-0.4c-0.3,0-0.6,0.1-0.8,0.3C33.7,32.8,33.6,33.1,33.5,33.4z"/>
	<path class="st5" d="M37.3,35.8v-3.9h0.6v0.6c0.3-0.4,0.7-0.6,1.3-0.6c0.2,0,0.5,0,0.7,0.1c0.2,0.1,0.4,0.2,0.4,0.3
		c0.1,0.1,0.2,0.3,0.2,0.5c0,0.1,0,0.3,0,0.6v2.4h-0.7v-2.4c0-0.3,0-0.5-0.1-0.6c0-0.1-0.1-0.2-0.3-0.3c-0.1-0.1-0.3-0.1-0.5-0.1
		c-0.3,0-0.5,0.1-0.7,0.3s-0.3,0.5-0.3,1v2.2H37.3z"/>
	<path class="st6" d="M19.6,16.4H2.1V6.6c0-1.4,1.1-2.5,2.5-2.5h15"/>
	<path d="M19.6,16.5H2V6.6C2,5.2,3.2,4,4.6,4h15v0.2h-15c-1.3,0-2.4,1.1-2.4,2.4v9.7h17.4V16.5z"/>
	<path d="M39.4,40H4.6C3.2,40,2,38.8,2,37.4V6.6C2,5.2,3.2,4,4.6,4h34.8C40.8,4,42,5.2,42,6.6v30.8C42,38.8,40.8,40,39.4,40z
		 M4.6,4.2c-1.3,0-2.4,1.1-2.4,2.4v30.8c0,1.3,1.1,2.4,2.4,2.4h34.8c1.3,0,2.4-1.1,2.4-2.4V6.6c0-1.3-1.1-2.4-2.4-2.4H4.6z"/>
</svg>
