
<svg id="icon-date-time" xmlns="http://www.w3.org/2000/svg" viewBox="0 0 44 44">
	<style type="text/css">
		.st0{fill:url(#SVGID_1_);}
		.st1{fill:#FFFFFF;}
		.st2{fill:url(#Oval_3_);}
		.st3{font-family:'Helvetica';}
		.st4{font-size:3.2442px;}
		.st5{fill:#2B2A2A;}
		.st6{fill:#FF9500;}
		.st7{fill:url(#SVGID_2_);}
	</style>
	<linearGradient id="SVGID_1_" gradientUnits="userSpaceOnUse" x1="17.4037" y1="-247.0968" x2="17.4037" y2="-275.549" gradientTransform="matrix(1 0 0 -1 0 -244)">
		<stop  offset="0" style="stop-color:#BBBBBB"/>
		<stop  offset="1" style="stop-color:#999999"/>
	</linearGradient>
	<circle class="st0" cx="17.4" cy="17.3" r="15.3"/>
	<path class="st1" d="M21.9,18.8h18.4c0.8,0,1.4,0.6,1.4,1.4v20.2c0,0.8-0.6,1.4-1.4,1.4H21.9c-0.8,0-1.4-0.6-1.4-1.4V20.3
		C20.5,19.5,21.2,18.8,21.9,18.8z"/>
	<linearGradient id="Oval_3_" gradientUnits="userSpaceOnUse" x1="-6.6852" y1="140.7162" x2="-6.6852" y2="140.1957" gradientTransform="matrix(52 0 0 -52 365 7321)">
		<stop  offset="0" style="stop-color:#F5F4F9"/>
		<stop  offset="1" style="stop-color:#EEEEEE"/>
	</linearGradient>
	<circle id="Oval" class="st2" cx="17.4" cy="17.3" r="13.5"/>
	<g>
		<text transform="matrix(1 0 0 1 21.6719 9.5029)" class="st3 st4">1</text>
		<text transform="matrix(1 0 0 1 25.5869 13.4043)" class="st3 st4">2</text>
		<text transform="matrix(1 0 0 1 27.1426 18.3662)" class="st3 st4">3</text>
		<text transform="matrix(1 0 0 1 15.6104 7.958)" class="st3 st4">12</text>
		<text transform="matrix(1 0 0 1 10.499 9.5029)" class="st3 st4">11</text>
		<text transform="matrix(1 0 0 1 6.2354 13.4043)" class="st3 st4">10</text>
		<text transform="matrix(1 0 0 1 6.0068 18.3711)" class="st3 st4">9</text>
		<text transform="matrix(1 0 0 1 7.1475 23.8428)" class="st3 st4">8</text>
		<text transform="matrix(1 0 0 1 10.96 27.4258)" class="st3 st4">7</text>
		<text transform="matrix(1 0 0 1 16.5146 29.0527)" class="st3 st4">6</text>
	</g>
	<g id="Arrows" transform="translate(18.000000, 11.000000)">
		<path id="Arrow" class="st5" d="M-5.9-0.2L-5.9-0.2L-5.9-0.2c0.1-0.1,0.2,0,0.3,0L-0.5,6l0,0c0.1,0.1,0,0.2,0,0.3l0,0l0,0
			c-0.1,0.1-0.2,0-0.3,0l-5.1-6.1l0,0C-5.9,0-5.9-0.1-5.9-0.2z"/>
		<path id="Arrow_1_" class="st5" d="M-0.6,6.2L-0.6,6.2L-0.6,6.2c-0.1-0.1-0.1-0.2,0-0.3l0,0l7.4-9l0,0C6.9-3.1,7-3.1,7.1-3l0,0l0,0
			c0.1,0.1,0.1,0.2,0,0.3l0,0l-7.4,9l0,0C-0.4,6.3-0.5,6.3-0.6,6.2z"/>
		<path id="Arrow_2_" class="st6" d="M0,4.5L0,4.5L0,4.5c0.1,0,0.1,0.1,0.1,0.2l-4.4,12.8l0,0c0,0.1-0.1,0.1-0.2,0.1l0,0l0,0l0,0
			c-0.1,0-0.1-0.1-0.1-0.2l4.4-12.8l0,0C-0.1,4.5-0.1,4.5,0,4.5L0,4.5z"/>
		<path id="Oval_1_" class="st5" d="M-0.6,5.6C-0.3,5.6,0,5.9,0,6.3C0,6.6-0.2,7-0.6,7C-1,7-1.3,6.7-1.3,6.3C-1.3,5.9-1,5.6-0.6,5.6z
			"/>
		<circle id="Oval_2_" class="st6" cx="-0.6" cy="6.3" r="0.5"/>
	</g>
	<path class="st1" d="M21.9,18.8h18.4c0.8,0,1.4,0.6,1.4,1.4v20.2c0,0.8-0.6,1.4-1.4,1.4H21.9c-0.8,0-1.4-0.6-1.4-1.4V20.3
		C20.5,19.5,21.2,18.8,21.9,18.8z"/>
	<path d="M40.4,42H21.9c-0.8,0-1.5-0.7-1.5-1.5V20.3c0-0.8,0.7-1.5,1.5-1.5h18.4c0.8,0,1.5,0.7,1.5,1.5v20.2
		C41.9,41.3,41.2,42,40.4,42z M21.9,18.9c-0.7,0-1.3,0.6-1.3,1.3v20.2c0,0.7,0.6,1.3,1.3,1.3h18.4c0.7,0,1.3-0.6,1.3-1.3V20.3
		c0-0.7-0.6-1.3-1.3-1.3H21.9z"/>
	<linearGradient id="SVGID_2_" gradientUnits="userSpaceOnUse" x1="31.1577" y1="-432.8441" x2="31.1577" y2="-439.1559" gradientTransform="matrix(1 0 0 1 0 458)">
		<stop  offset="0" style="stop-color:#CC0003"/>
		<stop  offset="1" style="stop-color:#FF5559"/>
	</linearGradient>
	<path class="st7" d="M41.8,25.2v-5c0-0.7-0.6-1.3-1.3-1.3H21.8c-0.7,0-1.3,0.6-1.3,1.3v5H41.8z"/>
	<path d="M41.9,25.2H20.4v-5.1c0-0.8,0.6-1.4,1.4-1.4h18.6c0.8,0,1.4,0.6,1.4,1.4V25.2z M20.6,25.1h21.1v-4.9c0-0.7-0.5-1.2-1.2-1.2
		H21.8c-0.7,0-1.2,0.5-1.2,1.2V25.1z"/>
	<path class="st1" d="M25.9,23.1l0.5-0.1c0,0.3,0.1,0.5,0.2,0.6c0.1,0.1,0.3,0.2,0.4,0.2c0.1,0,0.3,0,0.4-0.1
		c0.1-0.1,0.2-0.1,0.2-0.3c0-0.1,0.1-0.3,0.1-0.5v-2.8h0.5v2.8c0,0.3,0,0.6-0.1,0.8c-0.1,0.2-0.2,0.3-0.4,0.4
		c-0.2,0.1-0.4,0.1-0.6,0.1c-0.4,0-0.6-0.1-0.8-0.3C26,23.8,25.9,23.5,25.9,23.1z"/>
	<path class="st1" d="M31.7,20.1h0.5v2.4c0,0.4,0,0.7-0.1,1c-0.1,0.2-0.3,0.4-0.5,0.6c-0.2,0.2-0.6,0.2-1,0.2c-0.4,0-0.7-0.1-1-0.2
		c-0.2-0.1-0.4-0.3-0.5-0.6c-0.1-0.3-0.2-0.6-0.2-1v-2.4h0.5v2.4c0,0.4,0,0.6,0.1,0.8c0.1,0.2,0.2,0.3,0.3,0.4
		c0.2,0.1,0.4,0.1,0.6,0.1c0.4,0,0.7-0.1,0.9-0.3c0.2-0.2,0.3-0.5,0.3-1L31.7,20.1L31.7,20.1z"/>
	<path class="st1" d="M33.2,24.2v-4.1h0.6l2.2,3.2v-3.2h0.5v4.1h-0.6L33.7,21v3.2H33.2z"/>
	<path d="M34.6,30.5l-1.3,0.1c-0.1-0.5-0.3-0.9-0.5-1.1c-0.4-0.4-0.8-0.6-1.3-0.6c-0.4,0-0.8,0.1-1.1,0.4c-0.4,0.3-0.8,0.8-1,1.3
		c-0.2,0.6-0.4,1.4-0.4,2.5c0.3-0.5,0.7-0.9,1.2-1.1c0.5-0.2,1-0.4,1.5-0.4c0.9,0,1.6,0.3,2.3,1c0.6,0.7,0.9,1.5,0.9,2.5
		c0,0.7-0.1,1.3-0.4,1.9c-0.3,0.6-0.7,1-1.2,1.3c-0.5,0.3-1.1,0.5-1.8,0.5c-1.1,0-2-0.4-2.7-1.2c-0.7-0.8-1.1-2.2-1.1-4.1
		c0-2.1,0.4-3.6,1.2-4.6c0.7-0.8,1.6-1.2,2.7-1.2c0.9,0,1.6,0.2,2.1,0.7C34.1,29,34.4,29.6,34.6,30.5z M29.1,35.2
		c0,0.5,0.1,0.9,0.3,1.3c0.2,0.4,0.5,0.7,0.8,1c0.3,0.2,0.7,0.3,1.1,0.3c0.6,0,1-0.2,1.5-0.7c0.4-0.5,0.6-1.1,0.6-1.9
		c0-0.8-0.2-1.3-0.6-1.8s-0.9-0.6-1.5-0.6c-0.6,0-1.1,0.2-1.5,0.6C29.3,33.9,29.1,34.5,29.1,35.2z"/>
</svg>
