
<svg id="icon-padlock" xmlns="http://www.w3.org/2000/svg" viewBox="0 0 31 31">
	<style type="text/css">
		.st0{opacity:0.6;enable-background:new    ;}
		.st1{fill:url(#SVGID_1_);}
		.st2{opacity:0.42;fill:#FFFFFF;enable-background:new    ;}
		.st3{opacity:0.6;fill:url(#SVGID_2_);enable-background:new    ;}
		.st4{fill:#717172;}
		.st5{fill:#848484;}
		.st6{fill:#999999;}
		.st7{fill:#ADADAD;}
		.st8{fill:#D1D1D1;}
		.st9{fill:#F2F2F2;}
		.st10{fill:#C9C9C9;}
		.st11{fill:#A8A8A8;}
		.st12{fill:#959596;}
		.st13{fill:#818184;}
		.st14{fill:#4F4F51;}
		.st15{fill:url(#SVGID_3_);}
		.st16{fill:url(#SVGID_4_);}
		.st17{fill:url(#SVGID_5_);}
		.st18{opacity:0.35;fill:#222222;enable-background:new    ;}
	</style>
	<g class="st0">
		<path d="M24.2,13.1c0,0-0.3-0.1-0.6-0.1c0,0,0-0.1,0-0.1V9.5c0-4.5-3.6-8.1-8.1-8.1c-4.5,0-8.1,3.7-8.1,8.1v3.4c0,0,0,0,0,0
			c-0.4,0-0.7,0.1-0.7,0.1c0,0-0.6,0.6-0.6,0.9v14.2c0,0.6,0.5,0.8,1.1,0.9c0,0,2.9,0.5,8.3,0.5s8.2-0.5,8.2-0.5
			c0.7-0.2,1.1-0.3,1.1-0.9V14C24.9,13.7,24.2,13.1,24.2,13.1z M15.5,12.8c-1.4,0-3.3,0-5.1,0V9.5c0-2.8,2.3-5.1,5.1-5.1
			s5.1,2.3,5.1,5.1v3.4l0,0C18.9,12.8,16.9,12.8,15.5,12.8z"/>
		<path d="M15.5,30c-5.3,0-8.3-0.5-8.4-0.5l0,0c-0.4-0.1-1.3-0.3-1.3-1.2V14c0-0.4,0.4-0.9,0.7-1.1c0.1-0.1,0.2-0.2,0.6-0.2V9.5
			c0-2.2,0.9-4.4,2.5-6C11.2,1.9,13.3,1,15.5,1c2.2,0,4.3,0.9,5.9,2.5c1.6,1.6,2.5,3.7,2.5,6v3.2c0.4,0,0.5,0.1,0.6,0.2
			c0.3,0.3,0.7,0.8,0.7,1.1v14.2c0,0.9-0.8,1.1-1.3,1.2l0,0C23.7,29.5,20.9,30,15.5,30z M7.3,28.8c0.1,0,3.1,0.5,8.2,0.5
			c5.1,0,8-0.5,8.2-0.5c0.7-0.2,0.9-0.3,0.9-0.6V14c0-0.1-0.2-0.4-0.5-0.7c-0.1,0-0.2,0-0.5,0l-0.4,0l0.1-0.3c0,0,0,0,0,0V9.5
			c0-2.1-0.8-4-2.3-5.5c-1.5-1.5-3.4-2.3-5.5-2.3c-2.1,0-4,0.8-5.5,2.3C8.6,5.4,7.8,7.4,7.8,9.5v3.8l-0.3,0c-0.3,0-0.5,0.1-0.5,0.1
			c-0.2,0.3-0.5,0.6-0.5,0.7v14.2C6.4,28.5,6.6,28.7,7.3,28.8z M24.1,13.3L24.1,13.3L24.1,13.3z M6.9,13.3L6.9,13.3L6.9,13.3z
			 M20.9,13.2l-0.3,0c-1.6,0-3.4,0-5.1-0.1l0,0c-1.3,0-3.2,0-5.1,0l-0.3,0V9.5c0-3,2.4-5.4,5.4-5.4s5.4,2.4,5.4,5.4V13.2z M15.5,12.5
			c1.6,0,3.3,0,4.8,0.1V9.5c0-2.6-2.1-4.8-4.8-4.8c-2.6,0-4.8,2.1-4.8,4.8v3C12.5,12.5,14.3,12.5,15.5,12.5L15.5,12.5z"/>
	</g>
	<linearGradient id="SVGID_1_" gradientUnits="userSpaceOnUse" x1="6.1375" y1="10.7611" x2="24.8625" y2="10.7611" gradientTransform="matrix(1 0 0 -1 0 32)">
		<stop  offset="0" style="stop-color:#EAA228"/>
		<stop  offset="9.510000e-02" style="stop-color:#E9BC66"/>
		<stop  offset="0.3262" style="stop-color:#F0E4B4"/>
		<stop  offset="0.6742" style="stop-color:#E9BC66"/>
		<stop  offset="0.8711" style="stop-color:#F7CD6E"/>
		<stop  offset="0.9628" style="stop-color:#E1AB4B"/>
		<stop  offset="1" style="stop-color:#F5BC48"/>
	</linearGradient>
	<path class="st1" d="M23.8,29.1c0,0-2.8,0.5-8.2,0.5s-8.3-0.5-8.3-0.5c-0.6-0.1-1.1-0.3-1.1-0.9V14c0-0.3,0.6-0.9,0.6-0.9
		c0.2-0.2,5.8-0.3,8.7-0.2c3,0,8.6,0.1,8.7,0.2c0,0,0.6,0.6,0.6,0.9v14.2C24.9,28.8,24.4,29,23.8,29.1z"/>
	<path class="st2" d="M6.3,14c0,0,4.1,0.1,9.2,0.1s9.2,0,9.2-0.1c0,0.2-4.1,0.3-9.2,0.3S6.3,14.2,6.3,14z"/>
	<linearGradient id="SVGID_2_" gradientUnits="userSpaceOnUse" x1="6.1437" y1="18.557" x2="24.8625" y2="18.557" gradientTransform="matrix(1 0 0 -1 0 32)">
		<stop  offset="0" style="stop-color:#D2A04C"/>
		<stop  offset="0.1971" style="stop-color:#E2BF7B"/>
		<stop  offset="0.5092" style="stop-color:#FCFFFF"/>
		<stop  offset="0.7624" style="stop-color:#FFE9AF"/>
		<stop  offset="1" style="stop-color:#DCAA53"/>
	</linearGradient>
	<path class="st3" d="M6.8,13.1c0.2-0.2,5.8-0.3,8.7-0.2c3,0,8.6,0.1,8.7,0.2l0,0c0,0,0.6,0.6,0.6,0.9c0,0-4.2,0.1-9.3,0.1
		S6.1,14,6.1,14C6.1,13.7,6.8,13.1,6.8,13.1z"/>
	<path class="st4" d="M22.1,13.8c-1,0-1.5-0.3-1.5-1V9.5c0-2.8-2.3-5.1-5.1-5.1s-5.1,2.3-5.1,5.1v3.4c0,0.7-0.5,1-1.5,1
		c-1,0-1.5-0.3-1.5-1V9.5c0-4.4,3.6-8.1,8.1-8.1c4.4,0,8.1,3.6,8.1,8.1v3.4C23.6,13.5,23,13.8,22.1,13.8z"/>
	<path class="st5" d="M22.1,13.6c-0.8,0-1.5-0.7-1.5-1.5V9.3c0-2.8-2.3-5.1-5.1-5.1s-5.1,2.3-5.1,5.1v2.8c0,0.8-0.7,1.5-1.5,1.5
		s-1.5-0.7-1.5-1.5V9.3c0-4.4,3.6-8,8-8s8,3.6,8,8v2.8C23.6,12.9,22.9,13.6,22.1,13.6z"/>
	<path class="st6" d="M22.1,13.4c-0.7,0-1.3-0.6-1.3-1.3V9.2c0-2.9-2.3-5.2-5.2-5.2c-2.9,0-5.2,2.3-5.2,5.2v2.8
		c0,0.7-0.6,1.3-1.3,1.3s-1.3-0.6-1.3-1.3V9.2c0-4.4,3.5-7.9,7.9-7.9c4.4,0,7.9,3.5,7.9,7.9v2.8C23.4,12.8,22.8,13.4,22.1,13.4z"/>
	<path class="st7" d="M22.1,13.2c-0.7,0-1.2-0.6-1.2-1.2V9.2c0-2.9-2.4-5.3-5.3-5.3c-2.9,0-5.3,2.4-5.3,5.3V12c0,0.7-0.6,1.2-1.2,1.2
		c-0.7,0-1.2-0.6-1.2-1.2V9.2c0-4.3,3.5-7.8,7.8-7.8s7.8,3.5,7.8,7.8V12C23.3,12.7,22.8,13.2,22.1,13.2z"/>
	<path class="st8" d="M22.1,13c-0.6,0-1.1-0.5-1.1-1.1V9.1c0-3-2.5-5.5-5.5-5.5S10,6.1,10,9.1v2.8c0,0.6-0.5,1.1-1.1,1.1
		c-0.6,0-1.1-0.5-1.1-1.1V9.1c0-4.2,3.4-7.7,7.7-7.7s7.7,3.4,7.7,7.7v2.8C23.2,12.5,22.7,13,22.1,13z"/>
	<path class="st9" d="M22.1,12.9c-0.5,0-0.9-0.4-0.9-0.9V9.1c0-3.1-2.5-5.6-5.6-5.6c-3.1,0-5.6,2.5-5.6,5.6v2.8
		c0,0.5-0.4,0.9-0.9,0.9S8,12.4,8,11.9V9.1c0-4.1,3.4-7.5,7.5-7.5C19.7,1.6,23,5,23,9.1v2.8C23,12.4,22.6,12.9,22.1,12.9z"/>
	<path class="st10" d="M22.1,13.1c-0.4,0-0.8-0.3-0.8-0.8V9.5c0-3.2-2.6-5.8-5.8-5.8S9.7,6.3,9.7,9.5v2.8c0,0.4-0.3,0.8-0.8,0.8
		s-0.8-0.3-0.8-0.8V9.5c0-4.1,3.3-7.4,7.4-7.4s7.4,3.3,7.4,7.4v2.8C22.9,12.7,22.5,13.1,22.1,13.1z"/>
	<path class="st11" d="M22.1,13c-0.4,0-0.7-0.3-0.7-0.7V9.5c0-3.2-2.6-5.9-5.9-5.9S9.6,6.2,9.6,9.5v2.8c0,0.4-0.3,0.7-0.7,0.7
		c-0.4,0-0.7-0.3-0.7-0.7V9.5c0-4,3.3-7.3,7.3-7.3s7.3,3.3,7.3,7.3v2.8C22.8,12.7,22.5,13,22.1,13z"/>
	<path class="st12" d="M22.1,12.8c-0.3,0-0.6-0.3-0.6-0.6V9.5c0-3.3-2.7-6-6-6c-3.3,0-6,2.7-6,6v2.8c0,0.3-0.3,0.6-0.6,0.6
		c-0.3,0-0.6-0.3-0.6-0.6V9.5c0-3.9,3.2-7.1,7.1-7.1s7.1,3.2,7.1,7.1v2.8C22.7,12.6,22.4,12.8,22.1,12.8z"/>
	<path class="st13" d="M22.1,12.6c-0.2,0-0.3-0.2-0.3-0.3V9.5c0-3.4-2.8-6.2-6.2-6.2c-3.4,0-6.2,2.8-6.2,6.2v2.8
		c0,0.2-0.2,0.3-0.3,0.3c-0.2,0-0.3-0.2-0.3-0.3V9.5c0-3.8,3.1-6.9,6.9-6.9c3.8,0,6.9,3.1,6.9,6.9v2.8C22.4,12.5,22.3,12.6,22.1,12.6
		z"/>
	<path class="st14" d="M22.1,12.4c-0.1,0-0.2-0.1-0.2-0.2V9.5c0-3.5-2.9-6.4-6.4-6.4c-3.5,0-6.4,2.9-6.4,6.4v2.8
		c0,0.1-0.1,0.2-0.2,0.2s-0.2-0.1-0.2-0.2V9.5c0-3.7,3-6.7,6.7-6.7c3.7,0,6.7,3,6.7,6.7v2.8C22.2,12.4,22.2,12.4,22.1,12.4z"/>
	<linearGradient id="SVGID_3_" gradientUnits="userSpaceOnUse" x1="15.5249" y1="18.1601" x2="15.5249" y2="30.606" gradientTransform="matrix(1 0 0 -1 0 32)">
		<stop  offset="0" style="stop-color:#999999"/>
		<stop  offset="0.1373" style="stop-color:#999999;stop-opacity:0.9"/>
		<stop  offset="0.1573" style="stop-color:#999999;stop-opacity:0.879"/>
		<stop  offset="0.9984" style="stop-color:#999999;stop-opacity:0"/>
	</linearGradient>
	<path class="st15" d="M22.1,13.8c-0.8,0-1.5-0.2-1.5-1V9.5c0-2.8-2.3-5.1-5.1-5.1s-5.1,2.3-5.1,5.1v3.4c0,0.8-0.7,1-1.5,1
		c-0.8,0-1.5-0.2-1.5-1V9.5c0-4.4,3.6-8.1,8.1-8.1c4.4,0,8.1,3.6,8.1,8.1v3.4C23.6,13.6,22.9,13.8,22.1,13.8z"/>
	<linearGradient id="SVGID_4_" gradientUnits="userSpaceOnUse" x1="15.5249" y1="30.606" x2="15.5249" y2="18.1601" gradientTransform="matrix(1 0 0 -1 0 32)">
		<stop  offset="0" style="stop-color:#FFFFFF;stop-opacity:0.5"/>
		<stop  offset="9.334087e-02" style="stop-color:#FBFBFB;stop-opacity:0.4314"/>
		<stop  offset="0.1798" style="stop-color:#F0F0F0;stop-opacity:0.3678"/>
		<stop  offset="0.2636" style="stop-color:#DDDDDD;stop-opacity:0.3062"/>
		<stop  offset="0.3458" style="stop-color:#C3C3C3;stop-opacity:0.2459"/>
		<stop  offset="0.4268" style="stop-color:#A1A1A1;stop-opacity:0.1863"/>
		<stop  offset="0.5068" style="stop-color:#777777;stop-opacity:0.1275"/>
		<stop  offset="0.5862" style="stop-color:#454545;stop-opacity:6.914780e-02"/>
		<stop  offset="0.6632" style="stop-color:#0E0E0E;stop-opacity:1.258865e-02"/>
		<stop  offset="0.6803" style="stop-color:#000000;stop-opacity:5.565784e-09"/>
		<stop  offset="0.7253" style="stop-color:#000000;stop-opacity:4.779116e-09"/>
		<stop  offset="0.9984" style="stop-color:#000000;stop-opacity:0"/>
	</linearGradient>
	<path class="st16" d="M22.1,13.8c-0.8,0-1.5-0.3-1.5-1V9.5c0-2.8-2.3-5.1-5.1-5.1s-5.1,2.3-5.1,5.1v3.4c0,0.7-0.7,1-1.5,1
		c-0.8,0-1.5-0.3-1.5-1V9.5c0-4.4,3.6-8.1,8.1-8.1c4.4,0,8.1,3.6,8.1,8.1v3.4C23.6,13.6,22.9,13.8,22.1,13.8z"/>
	<radialGradient id="SVGID_5_" cx="51.9755" cy="25.1528" r="4.2527" fx="51.9815" fy="23.753" gradientTransform="matrix(1.1894 0 0 -1.6286 -46.3134 44.8246)" gradientUnits="userSpaceOnUse">
		<stop  offset="0" style="stop-color:#FFFFFF;stop-opacity:0.8"/>
		<stop  offset="1" style="stop-color:#FFFFFF;stop-opacity:0"/>
	</radialGradient>
	<path class="st17" d="M9.6,5.5c1.3-1.8,3.5-3.1,5.9-3.1s4.6,1.3,5.9,3.1c0.4,0.2,0.7,0.6,1,0.9c-0.1-0.4-0.3-1-0.6-1.4
		c-1.3-2.2-3.6-3.7-6.3-3.7c-2.7,0-5.1,1.5-6.3,3.6C8.9,5.4,8.7,5.9,8.6,6.4C8.9,6.1,9.3,5.7,9.6,5.5z"/>
	<path class="st18" d="M22.1,13.8c-0.5,0-1.1-0.1-1.4-0.4C20.9,13.7,21.4,13.8,22.1,13.8c0.7,0.1,1.2-0.1,1.4-0.4
		C23.1,13.6,22.6,13.8,22.1,13.8z"/>
	<path class="st18" d="M8.9,13.8c-0.6,0-1-0.1-1.4-0.4C7.8,13.7,8.2,13.8,8.9,13.8c0.8,0.1,1.2-0.1,1.4-0.4
		C10,13.6,9.5,13.8,8.9,13.8z"/>
</svg>
