
<svg id="icon-flag" xmlns="http://www.w3.org/2000/svg" viewBox="0 0 44 44">
	<style type="text/css">
		.st0{fill:url(#SVGID_1_);}
		.st1{fill:url(#SVGID_2_);}
		.st2{fill:#003399;}
		.st3{fill:#FFFFFF;opacity:.75;}
	</style>
	<linearGradient id="SVGID_1_" gradientUnits="userSpaceOnUse" x1="3.0418" y1="22.9936" x2="5.5068" y2="22.9936" gradientTransform="matrix(1 0 0 -1 0 46)">
		<stop  offset="0" style="stop-color:#0044BB"/>
		<stop  offset="0.517" style="stop-color:#3399FF"/>
		<stop  offset="1" style="stop-color:#0044BB"/>
	</linearGradient>
	<path class="st0" d="M5.1,42.1H3.5c-0.2,0-0.4-0.2-0.4-0.4V4.4C3,4.2,3.2,4,3.5,4h1.6c0.2,0,0.4,0.2,0.4,0.4v37.2
		C5.5,41.9,5.3,42.1,5.1,42.1z"/>
	<linearGradient id="SVGID_2_" gradientUnits="userSpaceOnUse" x1="23.2541" y1="43.0247" x2="23.2541" y2="17.9354" gradientTransform="matrix(1 0 0 -1 0 46)">
		<stop  offset="0" style="stop-color:#21D7FC"/>
		<stop  offset="1" style="stop-color:#0C58C7"/>
	</linearGradient>
	<path class="st1" d="M40.9,4.2c-4,2.7-11.4,2.8-18.4,0.2c-5.6-2.1-12.7-1.7-16.8,0v25.3c4.1-1.7,11.2-2.1,16.8,0
		c7,2.6,14.4,2.6,18.4-0.2V4.2z"/>
	<path class="st2" d="M32.6,31.7c-3.2,0-6.7-0.6-10.2-1.9c-5.8-2.1-12.8-1.6-16.7,0l-0.1,0.1V4.3l0.1,0c4-1.6,11-2.2,16.9,0
		c7,2.6,14.4,2.5,18.3-0.2L41,4.1v25.5l0,0C38.9,31,35.9,31.7,32.6,31.7z M14,28.2c2.8,0,5.8,0.4,8.5,1.4c7,2.6,14.3,2.5,18.3-0.1
		V4.4c-4,2.6-11.4,2.7-18.4,0.1c-5.8-2.1-12.7-1.6-16.7,0v25.1C7.8,28.7,10.8,28.2,14,28.2z"/>
	<path class="st3" d="M21.8,25.4h-0.6c0,0-0.1,0-0.1,0c0,0-0.1,0-0.1,0h-0.1c-0.1,0-0.1,0-0.2,0h0c-0.1,0-0.1,0-0.2,0l0,0
		c-1.4-0.2-2.7-0.6-3.8-1.4l0,0c0,0,0,0,0,0c0,0-0.1,0-0.1-0.1c0,0,0,0,0,0l0,0c0,0,0,0,0,0c0,0,0,0,0,0c0,0-0.1,0-0.1-0.1
		c0,0,0,0,0,0c0,0,0,0,0,0c0,0,0,0,0,0c0,0,0,0,0,0l0,0c-0.4-0.3-0.9-0.7-1.3-1.1l0,0c0,0,0,0-0.1-0.1c0,0,0,0-0.1-0.1l0,0
		c0,0,0,0,0,0c0,0,0,0,0,0c0,0,0,0,0,0c0,0,0,0,0,0c0,0,0,0,0,0c-1.3-1.6-2-3.6-2-5.6c0-2.4,0.9-4.6,2.6-6.3l0.2-0.2
		c0.1-0.1,0.1-0.1,0.2-0.2l0,0c1.4-1.2,3.1-2,4.9-2.2l0,0c0,0,0.1,0,0.1,0c0,0,0.1,0,0.1,0l0,0h0c0,0,0,0,0.1,0c0,0,0.1,0,0.1,0H21
		c0.1,0,0.1,0,0.2,0h0.6c0,0,0.1,0,0.1,0c0,0,0.1,0,0.1,0H22c0.1,0,0.1,0,0.2,0h0c0.1,0,0.1,0,0.2,0l0,0c1.7,0.2,3.3,0.9,4.7,2
		c0,0,0,0,0.1,0.1c0,0,0.1,0.1,0.1,0.1c0,0,0,0,0,0c0.1,0.1,0.1,0.1,0.1,0.1l0,0c0,0,0.1,0.1,0.1,0.1c0,0,0,0,0,0h0l0.1,0.1
		c1.7,1.7,2.6,3.9,2.6,6.3c0,2.1-0.7,4-2,5.6v0l0,0c-0.5,0.6-1,1.1-1.6,1.5l0,0c0,0,0,0,0,0c0,0,0,0-0.1,0.1l-0.2,0.1
		c0,0-0.1,0.1-0.1,0.1l0,0c0,0,0,0,0,0c0,0,0,0,0,0c-1.1,0.7-2.5,1.2-3.8,1.4l0,0c0,0-0.1,0-0.1,0c0,0-0.1,0-0.1,0l0,0h0
		c0,0,0,0-0.1,0c0,0-0.1,0-0.1,0H22C21.9,25.4,21.8,25.4,21.8,25.4z M18.1,21c0.2,0.5,0.4,1,0.6,1.4c0.7,1.3,1.5,2.1,2.5,2.3v-4.1
		C20,20.6,19,20.7,18.1,21z M21.8,20.6l0,4.1c0.9-0.2,1.8-1,2.5-2.3c0.2-0.4,0.4-0.9,0.6-1.4C23.9,20.7,22.9,20.6,21.8,20.6z
		 M15.4,22c1,1.2,2.4,2,3.8,2.4c-0.4-0.4-0.8-1-1.2-1.7c-0.3-0.5-0.5-1-0.6-1.6C16.7,21.4,16,21.7,15.4,22z M25.5,21.1
		c-0.2,0.6-0.4,1.1-0.6,1.6c-0.4,0.7-0.8,1.3-1.2,1.7c1.5-0.4,2.8-1.2,3.9-2.4C26.9,21.7,26.3,21.4,25.5,21.1z M25.7,20.5
		c0.8,0.3,1.6,0.6,2.2,1c1-1.4,1.6-2.9,1.7-4.6h-3.4C26.2,18.1,26,19.4,25.7,20.5z M13.3,16.9c0.1,1.7,0.7,3.3,1.7,4.6
		c0.7-0.4,1.4-0.8,2.2-1c-0.3-1.1-0.5-2.3-0.5-3.6H13.3z M21.8,19.9c1.1,0,2.2,0.2,3.2,0.4c0.3-1,0.4-2.2,0.5-3.4h-3.7V19.9z
		 M17.4,16.9c0,1.2,0.2,2.4,0.5,3.4c1-0.3,2.1-0.4,3.2-0.4v-3L17.4,16.9z M26.2,16.2h3.4c-0.1-1.7-0.6-3.2-1.6-4.6
		c-0.7,0.4-1.4,0.8-2.3,1C26,13.7,26.2,14.9,26.2,16.2z M21.8,16.2h3.7c0-1.2-0.2-2.3-0.4-3.3c-1,0.3-2.1,0.4-3.3,0.4V16.2z
		 M17.4,16.2h3.7v-2.9c-1.1,0-2.2-0.2-3.3-0.4C17.6,13.9,17.4,15,17.4,16.2z M13.3,16.2h3.4c0-1.2,0.2-2.4,0.5-3.5
		c-0.8-0.3-1.6-0.6-2.3-1C13.9,12.9,13.3,14.5,13.3,16.2z M21.8,8.3v4.2c1.1,0,2.1-0.2,3.1-0.4c-0.2-0.6-0.4-1.1-0.6-1.5
		C23.6,9.3,22.7,8.5,21.8,8.3z M18,12.2c1,0.2,2,0.4,3.1,0.4V8.3c-0.9,0.2-1.8,1-2.5,2.3C18.4,11.1,18.2,11.6,18,12.2z M15.3,11.1
		c0.6,0.4,1.3,0.7,2,0.9c0.2-0.6,0.4-1.2,0.7-1.7c0.4-0.7,0.8-1.3,1.2-1.7C17.8,9,16.4,9.9,15.3,11.1z M23.7,8.6
		c0.4,0.4,0.8,1,1.2,1.7c0.2,0.5,0.5,1,0.7,1.7c0.8-0.3,1.5-0.6,2-0.9C26.5,9.9,25.2,9,23.7,8.6z"/>
</svg>
