
<svg id="icon-general" xmlns="http://www.w3.org/2000/svg" viewBox="0 0 500 500">
	<style type="text/css">
		.st0{fill:url(#SVGID_1_);stroke:#000000;stroke-width:0.5;}
		.st1{fill:#FFFFFF;}
		.st2{fill:url(#SVGID_2_);}
		.st3{fill:#C8C8C8;stroke:#000000;stroke-width:2;}
		.st4{fill:url(#SVGID_3_);stroke:#000000;stroke-width:2;}
		.st5{fill:none;stroke:#000000;stroke-width:2;}
		.st6{fill:#ddd;}
	</style>
	<filter x="-6.1%" y="-3.9%" width="112.1%" height="113.2%" filterUnits="objectBoundingBox" id="drop-filter-1">
		<feOffset dx="0" dy="11" in="SourceAlpha" result="dropShadowOffsetOuter1"></feOffset>
		<feGaussianBlur stdDeviation="11" in="dropShadowOffsetOuter1" result="dropShadowBlurOuter1"></feGaussianBlur>
		<feColorMatrix values="0 0 0 0 0   0 0 0 0 0   0 0 0 0 0  0 0 0 0.5 0" type="matrix" in="dropShadowBlurOuter1" result="dropShadowMatrixOuter1"></feColorMatrix>
		<feMerge>
			<feMergeNode in="dropShadowMatrixOuter1"></feMergeNode>
			<feMergeNode in="SourceGraphic"></feMergeNode>
		</feMerge>
	</filter>
	<linearGradient id="SVGID_1_" gradientUnits="userSpaceOnUse" x1="33.3161" y1="40" x2="33.3161" y2="169.3809" gradientTransform="matrix(-1 0 0 1 375.2448 0)">
		<stop  offset="0" style="stop-color:#9390C6"/>
		<stop  offset="1" style="stop-color:#3953A4"/>
	</linearGradient>
	<linearGradient id="SVGID_2_" gradientUnits="userSpaceOnUse" x1="132.6904" y1="169.3809" x2="132.6904" y2="460">
		<stop  offset="0" style="stop-color:#3ac"/>
		<stop  offset="0.5135" style="stop-color:#498"/>
		<stop  offset="1" style="stop-color:#367"/>
	</linearGradient>
	<linearGradient id="SVGID_3_" gradientUnits="userSpaceOnUse" x1="132.3096" y1="40" x2="132.3096" y2="169.3809">
		<stop  offset="0" style="stop-color:#FFFFFF"/>
		<stop  offset="1" style="stop-color:#D6D6D6"/>
	</linearGradient>
	<path class="st6" filter="url(#drop-filter-1)" d="M433.4,460H66.6C51.9,460,40,448.1,40,433.4V66.6C40,51.9,51.9,40,66.6,40h366.8c14.7,0,26.6,11.9,26.6,26.6 v366.8C460,448.1,448.1,460,433.4,460z"/>
	<path class="st0" d="M224.6,169.4h234.6V66.6c0-14.7-11.9-26.6-26.6-26.6h-208"/>
	<path class="st1" d="M261,134.4V77.1h38.7v6.8h-31.1v17.7h26.9v6.8h-26.9v26H261z"/>
	<path class="st1" d="M308.7,85.2v-8.1h7v8.1H308.7z M308.7,134.4V92.9h7v41.5H308.7z"/>
	<path class="st1" d="M326.3,134.4V77.1h7v57.3H326.3z"/>
	<path class="st1" d="M372.6,121.1l7.3,0.9c-1.1,4.2-3.3,7.5-6.4,9.9s-7.1,3.5-11.9,3.5c-6.1,0-10.9-1.9-14.4-5.6 c-3.6-3.7-5.3-9-5.3-15.7c0-7,1.8-12.4,5.4-16.3c3.6-3.9,8.3-5.8,14-5.8c5.5,0,10.1,1.9,13.6,5.7c3.5,3.8,5.3,9.1,5.3,15.9 c0,0.4,0,1,0,1.9h-31c0.3,4.6,1.5,8.1,3.9,10.5s5.2,3.6,8.7,3.6c2.6,0,4.8-0.7,6.6-2C370.1,126.2,371.5,124,372.6,121.1z  M349.5,109.7h23.2c-0.3-3.5-1.2-6.1-2.7-7.9c-2.2-2.7-5.1-4.1-8.7-4.1c-3.2,0-5.9,1.1-8.1,3.2C351,103.2,349.7,106.1,349.5,109.7z "/>
	<path class="st2" d="M225.4,169.4V460H66.6C51.9,460,40,448.1,40,433.4v-264"/>
	<path class="st3" d="M224.6,169.4V460h208.8c14.7,0,26.6-11.9,26.6-26.6v-264"/>
	<path d="M260.6,282.7v-57.3h7.8l30.1,45v-45h7.3v57.3h-7.8l-30.1-45v45H260.6z"/>
	<path d="M346,269.4l7.3,0.9c-1.1,4.2-3.3,7.5-6.4,9.9c-3.1,2.3-7.1,3.5-11.9,3.5c-6.1,0-10.9-1.9-14.4-5.6c-3.6-3.7-5.3-9-5.3-15.7 c0-7,1.8-12.4,5.4-16.3s8.3-5.8,14-5.8c5.5,0,10.1,1.9,13.6,5.7c3.5,3.8,5.3,9.1,5.3,15.9c0,0.4,0,1,0,1.9h-31 c0.3,4.6,1.5,8.1,3.9,10.5s5.2,3.6,8.7,3.6c2.6,0,4.8-0.7,6.6-2C343.4,274.5,344.9,272.3,346,269.4z M322.9,258H346 c-0.3-3.5-1.2-6.1-2.7-7.9c-2.2-2.7-5.1-4.1-8.7-4.1c-3.2,0-5.9,1.1-8.1,3.2C324.3,251.5,323.1,254.4,322.9,258z"/>
	<path d="M369.7,282.7L357,241.2h7.3l6.6,24l2.5,8.9c0.1-0.4,0.8-3.3,2.1-8.6l6.6-24.3h7.2l6.2,24.1l2.1,7.9l2.4-8l7.1-24h6.8 l-13,41.5h-7.3l-6.6-24.9l-1.6-7.1l-8.4,31.9H369.7z"/>
	<path d="M258.3,377.9c0-9.5,2.6-17,7.7-22.3c5.1-5.4,11.7-8.1,19.8-8.1c5.3,0,10.1,1.3,14.3,3.8c4.2,2.5,7.5,6.1,9.7,10.6 c2.2,4.5,3.3,9.6,3.3,15.4c0,5.8-1.2,11-3.5,15.6c-2.3,4.6-5.7,8.1-10,10.4c-4.3,2.4-8.9,3.5-13.9,3.5c-5.4,0-10.2-1.3-14.5-3.9 c-4.2-2.6-7.5-6.2-9.7-10.7S258.3,382.9,258.3,377.9z M266.1,378c0,6.9,1.9,12.3,5.6,16.3c3.7,4,8.4,6,14,6c5.7,0,10.4-2,14.1-6 c3.7-4,5.5-9.7,5.5-17.1c0-4.7-0.8-8.7-2.4-12.2s-3.9-6.2-6.9-8.1s-6.4-2.9-10.2-2.9c-5.4,0-10,1.8-13.9,5.5 C268.1,363.2,266.1,369.4,266.1,378z"/>
	<path d="M322,421.7v-57.4h6.4v5.4c1.5-2.1,3.2-3.7,5.1-4.7c1.9-1.1,4.2-1.6,6.9-1.6c3.5,0,6.7,0.9,9.4,2.7s4.8,4.4,6.1,7.7 c1.4,3.3,2.1,7,2.1,10.9c0,4.2-0.8,8.1-2.3,11.5s-3.7,6-6.6,7.8s-6,2.7-9.2,2.7c-2.3,0-4.5-0.5-6.3-1.5c-1.9-1-3.4-2.2-4.6-3.8 v20.2H322z M328.4,385.3c0,5.3,1.1,9.3,3.2,11.8c2.2,2.6,4.8,3.8,7.9,3.8c3.1,0,5.8-1.3,8-4s3.3-6.7,3.3-12.3 c0-5.3-1.1-9.2-3.3-11.9s-4.8-3.9-7.8-3.9c-3,0-5.6,1.4-8,4.2C329.5,375.9,328.4,379.9,328.4,385.3z"/>
	<path d="M394.9,392.4l7.3,0.9c-1.1,4.2-3.3,7.5-6.4,9.9c-3.1,2.3-7.1,3.5-11.9,3.5c-6.1,0-10.9-1.9-14.4-5.6 c-3.6-3.7-5.3-9-5.3-15.7c0-7,1.8-12.4,5.4-16.3s8.3-5.8,14-5.8c5.5,0,10.1,1.9,13.6,5.7c3.5,3.8,5.3,9.1,5.3,15.9c0,0.4,0,1,0,1.9 h-31c0.3,4.6,1.5,8.1,3.9,10.5s5.2,3.6,8.7,3.6c2.6,0,4.8-0.7,6.6-2C392.4,397.6,393.9,395.4,394.9,392.4z M371.8,381.1H395 c-0.3-3.5-1.2-6.1-2.7-7.9c-2.2-2.7-5.1-4.1-8.7-4.1c-3.2,0-5.9,1.1-8.1,3.2C373.3,374.5,372.1,377.4,371.8,381.1z"/>
	<path d="M411,405.8v-41.5h6.3v5.9c3-4.6,7.5-6.8,13.2-6.8c2.5,0,4.8,0.4,6.9,1.3c2.1,0.9,3.7,2.1,4.7,3.5c1,1.5,1.8,3.2,2.2,5.2 c0.3,1.3,0.4,3.6,0.4,6.8v25.5h-7v-25.2c0-2.9-0.3-5-0.8-6.4c-0.5-1.4-1.5-2.6-2.9-3.4c-1.4-0.8-3-1.3-4.9-1.3c-3,0-5.6,1-7.8,2.9 c-2.2,1.9-3.3,5.5-3.3,10.8v22.7H411z"/>
	<path class="st4" d="M224.6,169.4H40V66.6C40,51.9,51.9,40,66.6,40h158"/>
	<path class="st5" d="M433.4,460H66.6C51.9,460,40,448.1,40,433.4V66.6C40,51.9,51.9,40,66.6,40h366.8c14.7,0,26.6,11.9,26.6,26.6 v366.8C460,448.1,448.1,460,433.4,460z"/>
</svg>
