
<svg id="icon-update" xmlns="http://www.w3.org/2000/svg" viewBox="0 0 44 44">
	<style type="text/css">
		.st0{fill:url(#SVGID_1_);}
		.st1{fill:url(#Oval_1_);}
		.st2{fill:#CCCCCC;}
		.st3{fill:#EEEEEE;}
	</style>
	<linearGradient id="SVGID_1_" gradientUnits="userSpaceOnUse" x1="22" y1="-454.9614" x2="22" y2="-417.0386" gradientTransform="matrix(1 0 0 1 0 458)">
		<stop  offset="0" style="stop-color:#FFFFFF"/>
		<stop  offset="1" style="stop-color:#DDDDDD"/>
	</linearGradient>
	<circle class="st0" cx="22" cy="22" r="19"/>
	<linearGradient id="Oval_1_" gradientUnits="userSpaceOnUse" x1="22.042" y1="-452.4769" x2="22.042" y2="-419.6071" gradientTransform="matrix(1 0 0 1 0 458)">
		<stop  offset="0" style="stop-color:#AAAAAA"/>
		<stop  offset="1" style="stop-color:#222222"/>
	</linearGradient>
	<circle id="Oval_3_" class="st1" cx="22" cy="22" r="16.4"/>
	<path id="path-3_14_" class="st2" d="M23.2,13.2c0,0,0.1,0,0.1,0c0.1,0,0.2,0,0.3,0l0.5-1.1c0.1-0.4,0.2-0.3,0.2,0l0,1.2l0,0
		c0.1,0,0.3,0.1,0.4,0.1l0,0l0.6-1.1c0.2-0.3,0.3-0.3,0.2,0.1l-0.2,1.2c0.1,0.1,0.3,0.1,0.4,0.1l0.7-1c0.2-0.3,0.3-0.3,0.2,0.1
		L26.1,14l0,0c0.1,0.1,0.3,0.1,0.4,0.2l0,0l0.8-0.9c0.2-0.3,0.3-0.2,0.2,0.1L27,14.6c0.1,0.1,0.2,0.2,0.3,0.3l0.9-0.8
		c0.3-0.3,0.4-0.2,0.2,0.2l-0.6,1l0,0c0.1,0.1,0.2,0.2,0.3,0.3l0,0l1-0.7c0.3-0.2,0.4-0.2,0.1,0.1l-0.7,1c0.1,0.1,0.2,0.2,0.3,0.3
		l1-0.5c0.3-0.2,0.4-0.1,0.1,0.2l-0.8,0.9l0,0c0.1,0.1,0.2,0.2,0.2,0.4l0,0l1.1-0.4c0.4-0.1,0.4,0,0.1,0.2l-0.9,0.8
		c0.1,0.1,0.1,0.3,0.2,0.4l1.2-0.3c0.4-0.1,0.4,0,0.1,0.2l-1,0.7l0,0c0.1,0.1,0.1,0.3,0.2,0.4l1.2-0.2c0.3,0,0.4,0.1,0.1,0.2l-1,0.5
		c0,0.1,0.1,0.3,0.1,0.4l1.2,0c0.4,0,0.4,0.1,0.1,0.2l-1.1,0.4l0,0c0,0.1,0,0.3,0.1,0.4l0,0l1.2,0.1c0.4,0.1,0.4,0.1,0,0.2L31,21.8
		c0,0.1,0,0.3,0,0.4l1.1,0.3c0.4,0.1,0.4,0.2,0,0.2l-1.2,0.1l0,0c0,0.1,0,0.3-0.1,0.4c0,0,0,0,0,0l0,0l1.1,0.4c0.4,0.1,0.4,0.2,0,0.2
		l-1.2,0c0,0.2-0.1,0.3-0.1,0.5l1,0.5c0.3,0.2,0.3,0.3-0.1,0.2l-1.1-0.2c-0.1,0.1-0.1,0.3-0.1,0.4l0,0l1,0.6c0.3,0.2,0.3,0.3-0.1,0.2
		l-1.1-0.3C30,26,30,26.2,29.9,26.3l0.9,0.8c0.3,0.2,0.3,0.3-0.1,0.2l-1.1-0.4l0,0c-0.1,0.1-0.2,0.3-0.3,0.4l0,0l0.8,0.8
		c0.3,0.2,0.2,0.4-0.2,0.2l-1.1-0.7c-0.1,0.1-0.2,0.2-0.3,0.3l0.7,0.9c0.2,0.3,0.2,0.4-0.1,0.1l-0.9-0.6l0,0
		c-0.1,0.1-0.2,0.2-0.3,0.3l0.6,1c0.2,0.3,0.1,0.4-0.2,0.1L27.4,29c-0.1,0.1-0.2,0.2-0.4,0.2l0.4,1c0.2,0.4,0.1,0.4-0.2,0.1l-0.8-0.8
		l0,0c-0.1,0.1-0.3,0.1-0.4,0.2l0.3,1.1c0.1,0.4,0,0.4-0.2,0.1L25.6,30c-0.1,0.1-0.3,0.1-0.5,0.2l0.2,1.1c0.1,0.4,0,0.4-0.2,0.1
		l-0.5-1l0,0c-0.1,0-0.3,0.1-0.4,0.1l0,0l0.1,1.1c0,0.4-0.1,0.4-0.2,0.1l-0.4-0.9c-0.1,0-0.3,0-0.4,0.1L23,31.9c0,0.4-0.1,0.4-0.2,0
		l-0.3-1.1l0,0c-0.1,0-0.3,0-0.5,0l0,0l-0.2,1.1c-0.1,0.4-0.2,0.4-0.2,0l-0.1-1.2c-0.2,0-0.3,0-0.5,0l-0.4,1.1
		c-0.1,0.4-0.2,0.4-0.2,0l0-1.2l0,0c-0.2,0-0.3,0-0.5-0.1l0,0l-0.5,1c-0.1,0.3-0.3,0.3-0.2-0.1l0.1-1.1c-0.2-0.1-0.3-0.1-0.4-0.1
		l-0.6,1c-0.2,0.3-0.3,0.3-0.2-0.1l0.2-1.1c-0.1-0.1-0.3-0.1-0.4-0.2l0,0l-0.7,0.9c-0.2,0.3-0.3,0.3-0.2-0.1l0.4-1.1
		c-0.1-0.1-0.2-0.2-0.4-0.2l-0.8,0.8c-0.2,0.3-0.3,0.2-0.2-0.1l0.5-1l0,0c-0.1-0.1-0.2-0.2-0.3-0.3l0,0l-0.9,0.7
		c-0.3,0.2-0.4,0.2-0.1-0.1l0.6-1c-0.1-0.1-0.2-0.2-0.3-0.3l-1,0.5c-0.3,0.2-0.4,0.1-0.1-0.1l0.7-0.9l0,0c-0.1-0.1-0.2-0.2-0.3-0.3
		l0,0l-1,0.5c-0.3,0.2-0.4,0.1-0.1-0.2l0.8-0.8c-0.1-0.1-0.1-0.2-0.2-0.4l-1.1,0.4c-0.4,0.1-0.4,0-0.1-0.2l0.9-0.7l0,0
		c-0.1-0.1-0.1-0.3-0.2-0.4l-1.1,0.2c-0.4,0.1-0.4,0-0.1-0.2l1-0.6c-0.1-0.1-0.1-0.3-0.1-0.4l-1.2,0.1c-0.4,0-0.4-0.1-0.1-0.2
		l1.1-0.4l0,0c0-0.1,0-0.3-0.1-0.4l0,0l-1.2,0c-0.4,0-0.4-0.1,0-0.2l1.1-0.4c0-0.1,0-0.3,0-0.4L12,22.1c-0.4-0.1-0.4-0.2,0-0.2
		l1.2-0.2l0,0c0-0.1,0-0.3,0-0.4l0,0l-1.1-0.3c-0.4-0.1-0.4-0.2,0-0.2l1.2,0c0-0.1,0-0.3,0.1-0.4l-1.1-0.5c-0.3-0.1-0.3-0.3,0.1-0.2
		l1.2,0.1l0,0c0-0.1,0.1-0.3,0.1-0.4l0,0l-1-0.6c-0.3-0.2-0.3-0.3,0.1-0.2l1.2,0.2c0.1-0.1,0.1-0.3,0.2-0.4l-1-0.7
		c-0.3-0.2-0.3-0.3,0.1-0.2l1.1,0.4l0,0c0.1-0.1,0.2-0.2,0.2-0.4l0,0l-0.9-0.8c-0.3-0.2-0.2-0.3,0.1-0.2l1.1,0.5
		c0.1-0.1,0.2-0.2,0.3-0.3l-0.8-0.9c-0.3-0.3-0.2-0.4,0.1-0.1l1,0.6l0,0c0.1-0.1,0.2-0.2,0.3-0.3l0,0l-0.7-1
		c-0.2-0.3-0.1-0.4,0.1-0.1l1,0.7c0.1-0.1,0.2-0.2,0.3-0.3l-0.5-1.2c-0.2-0.3-0.1-0.4,0.2-0.1l0.9,0.8l0,0c0.1-0.1,0.2-0.1,0.4-0.2
		l-0.4-1.1c-0.1-0.4,0-0.4,0.2-0.1l0.8,1c0.1-0.1,0.3-0.1,0.4-0.2l-0.3-1.2c-0.1-0.4,0-0.4,0.2-0.1l0.6,1l0,0
		c0.1-0.1,0.3-0.1,0.4-0.1l0,0l-0.1-1.2c0-0.4,0.1-0.4,0.2-0.1l0.5,1.1c0.1,0,0.3,0,0.4-0.1l0-1.2c0-0.4,0.1-0.4,0.2,0l0.3,1.2l0,0
		c0.1,0,0.3,0,0.4,0l0,0l0.2-1.2c0.1-0.4,0.1-0.4,0.2,0l0.3,1.2c0.1,0,0.3,0,0.4,0l0.3-1.2c0.1-0.4,0.2-0.4,0.2,0L23.2,13.2
		L23.2,13.2z M21,29.2c4,0.6,7.6-2.2,8.2-6.2s-2.2-7.6-6.2-8.2c-4-0.6-7.7,2.2-8.2,6.1C14.3,24.9,17.1,28.6,21,29.2z"/>
	<path class="st3" d="M36.8,22.7c0.5-0.1,0.5-0.2,0-0.3l-1.6-0.3c0,0,0-0.1,0-0.1c0-0.2,0-0.4,0-0.6l1.5-0.4c0.5-0.1,0.5-0.3,0-0.3
		l-1.6-0.1c0-0.3,0-0.5-0.1-0.7l1.5-0.5c0.5-0.2,0.5-0.3,0-0.3l-1.6,0c0-0.3-0.1-0.5-0.2-0.7l1.4-0.7c0.5-0.3,0.4-0.4-0.1-0.3
		l-1.6,0.3c-0.1-0.2-0.2-0.5-0.3-0.7l1.3-0.9c0.5-0.3,0.4-0.5-0.1-0.3L34,16c-0.1-0.2-0.2-0.4-0.3-0.6l1.2-1.1
		c0.4-0.4,0.3-0.5-0.2-0.3l-1.4,0.6c-0.1-0.2-0.3-0.4-0.4-0.6l1.1-1.2c0.4-0.4,0.3-0.5-0.2-0.3l-1.5,0.8c-0.2-0.2-0.3-0.4-0.5-0.5
		l0.9-1.3c0.3-0.5,0.2-0.5-0.3-0.3l-1.3,0.9c-0.2-0.2-0.3-0.3-0.5-0.5l0.8-1.4c0.3-0.5,0.1-0.6-0.3-0.2l-1.1,1
		c-0.2-0.1-0.4-0.3-0.6-0.4l0.6-1.5c0.2-0.5,0.1-0.6-0.3-0.2l-1,1.2c-0.2-0.1-0.4-0.2-0.6-0.3l0.4-1.5c0.1-0.5,0-0.6-0.3-0.1
		l-0.8,1.3c-0.2-0.1-0.5-0.2-0.7-0.3l0.2-1.6c0.1-0.5,0-0.6-0.3-0.1l-0.7,1.4C25.6,9,25.3,9,25.1,8.9l0-1.6c0-0.5-0.1-0.6-0.3,0
		l-0.5,1.5c-0.3,0-0.5-0.1-0.7-0.1l-0.3-1.5c0-0.5-0.2-0.5-0.3,0l-0.4,1.5c-0.2,0-0.3,0-0.5,0c-0.1,0-0.2,0-0.2,0l-0.3-1.6
		c-0.1-0.5-0.3-0.5-0.3,0L21,8.7c-0.3,0-0.5,0-0.7,0.1l-0.5-1.5c-0.2-0.5-0.3-0.5-0.3,0l0,1.6c-0.3,0-0.5,0.1-0.7,0.2L18,7.6
		c-0.3-0.5-0.4-0.5-0.3,0.1l0.2,1.6c-0.2,0.1-0.5,0.2-0.7,0.3l-0.8-1.3C16,7.8,15.9,7.8,16,8.3l0.4,1.5c-0.2,0.1-0.4,0.2-0.6,0.3
		l-1-1.2c-0.3-0.4-0.5-0.3-0.3,0.2l0.5,1.5c-0.2,0.1-0.4,0.3-0.6,0.4l-1.1-1.1c-0.4-0.4-0.5-0.3-0.3,0.2l0.7,1.4
		c-0.2,0.2-0.4,0.3-0.5,0.5L12,11c-0.5-0.3-0.5-0.2-0.3,0.2l0.9,1.3c-0.2,0.2-0.3,0.3-0.5,0.5l-1.4-0.8c-0.5-0.3-0.6-0.2-0.2,0.3
		l1,1.2l0,0c-0.1,0.2-0.3,0.4-0.4,0.6l-1.4-0.6c-0.5-0.2-0.6-0.1-0.2,0.3l1.2,1.1c-0.1,0.2-0.3,0.4-0.3,0.6l-1.5-0.4
		c-0.5-0.2-0.6,0-0.1,0.3l1.3,0.9c-0.1,0.2-0.2,0.4-0.3,0.7l-1.6-0.3c-0.5-0.1-0.6,0-0.1,0.3l1.4,0.8c-0.1,0.2-0.1,0.5-0.2,0.7
		l-1.6,0c-0.5,0-0.6,0.1-0.1,0.3L9,19.4c0,0.3-0.1,0.5-0.1,0.7l-1.6,0.2c-0.5,0-0.5,0.2,0,0.3l1.5,0.4c0,0.3,0,0.5,0,0.7l-1.6,0.3
		c-0.5,0.1-0.5,0.3,0,0.3l1.6,0.2c0,0.3,0,0.5,0,0.7l-1.5,0.5c-0.5,0.2-0.5,0.3,0,0.3l1.6,0c0,0.3,0.1,0.5,0.1,0.7l-1.4,0.7
		c-0.5,0.3-0.5,0.4,0.1,0.3l1.6-0.2c0.1,0.3,0.1,0.5,0.2,0.7l-1.4,0.8c-0.5,0.3-0.4,0.4,0.1,0.3l1.6-0.3c0.1,0.2,0.2,0.4,0.3,0.7
		l-1.2,1c-0.4,0.3-0.4,0.5,0.2,0.3l1.5-0.5c0.1,0.2,0.3,0.4,0.4,0.6l-1,1c-0.4,0.4-0.3,0.5,0.2,0.3l1.4-0.7c0.1,0.2,0.3,0.4,0.5,0.5
		l-1,1.3c-0.3,0.4-0.3,0.5,0.2,0.3l1.3-0.8c0.2,0.2,0.3,0.3,0.5,0.5L12.1,33c-0.3,0.5-0.2,0.5,0.3,0.2l1.2-1c0.2,0.2,0.4,0.3,0.6,0.5
		l-0.7,1.4c-0.3,0.5-0.1,0.6,0.3,0.2l1.1-1.1c0.2,0.1,0.4,0.3,0.6,0.4L15,34.9c-0.2,0.5,0,0.6,0.3,0.2l1-1.3c0.2,0.1,0.4,0.2,0.7,0.3
		l-0.3,1.6c-0.1,0.5,0,0.6,0.3,0.1l0.8-1.4c0.2,0.1,0.5,0.2,0.7,0.2l-0.2,1.6c0,0.5,0.1,0.6,0.3,0.1l0.6-1.4c0.3,0,0.5,0.1,0.7,0.1
		l0.1,1.6c0,0.5,0.2,0.5,0.3,0l0.4-1.5c0.3,0,0.5,0,0.7,0l0.3,1.6c0.1,0.5,0.2,0.5,0.3,0l0.3-1.6c0.3,0,0.5,0,0.7,0l0.4,1.5
		c0.2,0.5,0.3,0.5,0.3,0l0.1-1.6c0.3,0,0.5-0.1,0.7-0.1l0.6,1.4c0.2,0.5,0.3,0.5,0.3-0.1l-0.2-1.5c0.3,0,0.5-0.1,0.7-0.2l0.8,1.4
		c0.3,0.5,0.4,0.4,0.3-0.1l-0.3-1.6c0.2-0.1,0.5-0.2,0.7-0.3l0.9,1.3c0.3,0.5,0.5,0.4,0.3-0.2l-0.4-1.4c0.2-0.1,0.4-0.3,0.6-0.4
		l1.1,1.1c0.4,0.4,0.5,0.3,0.3-0.2l-0.6-1.4c0.2-0.1,0.4-0.3,0.6-0.4l1.2,1c0.4,0.3,0.5,0.3,0.3-0.2l-0.8-1.4
		c0.2-0.2,0.3-0.3,0.5-0.5l1.3,0.8c0.5,0.3,0.5,0.2,0.2-0.3l-1-1.2c0.2-0.2,0.3-0.4,0.5-0.5l1.4,0.7c0.5,0.3,0.6,0.1,0.2-0.3L33,29.5
		c0.1-0.2,0.3-0.4,0.4-0.6l1.5,0.5c0.5,0.2,0.6,0,0.2-0.3l-1.2-1c0.1-0.2,0.2-0.4,0.3-0.7l1.5,0.3c0.5,0.1,0.6,0,0.1-0.3l-1.4-0.8
		c0.1-0.2,0.2-0.5,0.3-0.7l1.6,0.2c0.5,0,0.6-0.1,0.1-0.3l-1.4-0.7c0-0.3,0.1-0.5,0.2-0.7l1.6,0c0.5,0,0.6-0.2,0-0.3l-1.5-0.4
		c0-0.3,0-0.5,0.1-0.7L36.8,22.7z M16.5,30.1c-0.4,0.8-1.5,0.8-2.2,0.5c-0.5-0.3-1.6-1.3-2.6-2.9c-0.9-1.7-1.4-3.6-1.4-5.6
		c0-3.5,1.5-6.5,3.9-8.7c0.8-0.4,1.8-0.3,2.2,0.4l4.2,7.2c0.3,0.6,0.3,1.7,0,2.3L16.5,30.1z M31.1,29.4C29.7,31,28,32.2,26,33
		c-2.6,0.8-6,0.8-7.3,0.1c-0.9-0.4-1.2-1.4-0.8-2.1l4.1-7.2c0.3-0.6,1.2-1.1,1.9-1.1h8c0.9,0,1.5,0.8,1.5,1.5
		C33.4,24.9,32.8,27.2,31.1,29.4z M21.4,22c0-0.3,0.3-0.6,0.6-0.6s0.6,0.3,0.6,0.6s-0.3,0.6-0.6,0.6S21.4,22.3,21.4,22z M32.1,21.2
		h-8.4c-0.7,0-1.6-0.6-1.9-1.3l-4-7c-0.4-0.8,0-1.6,0.7-2c0.5-0.3,1.9-0.7,3.9-0.7c5.5,0.1,10.1,4.1,11.1,9.4
		C33.6,20.5,32.8,21.2,32.1,21.2z"/>
</svg>
