
<svg id="icon-flag" xmlns="http://www.w3.org/2000/svg" viewBox="0 0 500 500">
	<filter x="-6.1%" y="-3.9%" width="112.1%" height="113.2%" filterUnits="objectBoundingBox" id="drop-filter">
		<feOffset dx="0" dy="3" in="SourceAlpha" result="dropShadowOffsetOuter1"></feOffset>
		<feGaussianBlur stdDeviation="3" in="dropShadowOffsetOuter1" result="dropShadowBlurOuter1"></feGaussianBlur>
		<feColorMatrix values="0 0 0 0 0   0 0 0 0 0   0 0 0 0 0  0 0 0 0.5 0" type="matrix" in="dropShadowBlurOuter1" result="dropShadowMatrixOuter1"></feColorMatrix>
		<feMerge>
			<feMergeNode in="dropShadowMatrixOuter1"></feMergeNode>
			<feMergeNode in="SourceGraphic"></feMergeNode>
		</feMerge>
	</filter>
	<style type="text/css">
		.st0{fill:url(#SVGID_1_);}
		.st1{fill:url(#SVGID_2_);stroke:#039;stroke-width:2;}
		.st2{fill:#fff;stroke:#fff;stroke-width:3;}
	</style>
	<linearGradient id="SVGID_1_" gradientUnits="userSpaceOnUse" x1="39.0241" y1="253.2936" x2="66.7378" y2="253.2936">
		<stop offset="0" style="stop-color:#444"/>
		<stop offset="0.517" style="stop-color:#aaa"/>
		<stop offset="1" style="stop-color:#444"/>
	</linearGradient>
	<linearGradient id="SVGID_2_" gradientUnits="userSpaceOnUse" x1="266.2036" y1="26.4436" x2="266.2036" y2="308.5267">
		<stop offset="0" style="stop-color:#21D7FC"/>
		<stop offset="1" style="stop-color:#0C58C7"/>
	</linearGradient>
	<path class="st0" d="M62,466.7H43.8c-2.6,0-4.8-2.1-4.8-4.8V44.7c0-2.6,2.1-4.8,4.8-4.8H62c2.6,0,4.8,2.1,4.8,4.8v417.2
		C66.7,464.5,64.6,466.7,62,466.7z"/>
	<path class="st1" d="M464.3,40.4c-45.2,30.7-128.7,31-207.2,2c-63-23.3-142.4-19.2-188.9,0v284.7c46.5-19.2,126-23.3,188.9,0
		c78.5,29,162,28.8,207.2-2V40.4z"/>
	<path class="st2" filter="url(#drop-filter)" d="M364.7,186.4L364.7,186.4C364.7,186.4,364.7,186.4,364.7,186.4c0-26.3-10.2-51.1-28.9-69.7
		c-0.2-0.2-0.4-0.4-0.6-0.6c-0.1,0-0.1-0.1-0.2-0.1c-0.6-0.6-1.2-1.1-1.7-1.7c-0.1-0.1-0.2-0.2-0.3-0.3c-0.6-0.5-1.1-1-1.7-1.6
		c-0.1-0.1-0.2-0.2-0.3-0.2c-0.6-0.6-1.3-1.1-2-1.7c0,0,0,0,0,0c-14.8-12.3-32.6-19.9-51.7-22.1c-0.1,0-0.2,0-0.3,0
		c-0.8-0.1-1.5-0.2-2.3-0.2c-0.2,0-0.4,0-0.5,0c-0.7-0.1-1.4-0.1-2-0.1c-0.2,0-0.5,0-0.7,0c-0.7,0-1.3-0.1-2-0.1c-0.2,0-0.5,0-0.7,0
		c-0.9,0-1.8,0-2.7,0s-1.8,0-2.7,0c-0.2,0-0.5,0-0.7,0c-0.7,0-1.3,0-2,0.1c-0.2,0-0.5,0-0.7,0c-0.7,0-1.4,0.1-2,0.1
		c-0.2,0-0.4,0-0.5,0c-0.8,0.1-1.5,0.1-2.3,0.2c-0.1,0-0.2,0-0.3,0c-20,2.2-38.6,10.5-53.7,23.8c-0.1,0.1-0.1,0.1-0.2,0.2
		c-0.6,0.5-1.2,1.1-1.8,1.7c-0.1,0.1-0.1,0.1-0.2,0.2c-0.6,0.6-1.2,1.2-1.8,1.8c0,0,0,0-0.1,0.1c-0.2,0.2-0.4,0.4-0.6,0.6
		c-18.6,18.6-28.9,43.4-28.9,69.7c0,0,0,0,0,0l0,0l0,0c0,23.2,7.9,45.1,22.5,62.7c0,0,0,0.1,0.1,0.1c0.2,0.3,0.5,0.6,0.7,0.9
		c0.2,0.3,0.4,0.5,0.6,0.8c0.4,0.5,0.9,1,1.3,1.5c0.1,0.1,0.2,0.2,0.3,0.3c4.3,4.7,9,9,14,12.7c0.2,0.1,0.4,0.3,0.6,0.4
		c0.4,0.3,0.7,0.5,1.1,0.8c0.4,0.3,0.8,0.6,1.2,0.8c0.2,0.2,0.5,0.3,0.7,0.5c0.6,0.4,1.1,0.8,1.7,1.1c0.1,0.1,0.2,0.1,0.3,0.2
		c12.8,8.3,27.2,13.5,42.5,15.2c0.1,0,0.2,0,0.2,0c0.8,0.1,1.5,0.2,2.3,0.2c0.2,0,0.3,0,0.5,0c0.7,0.1,1.3,0.1,2,0.1
		c0.2,0,0.5,0,0.7,0c0.6,0,1.3,0.1,1.9,0.1c0.3,0,0.5,0,0.8,0c0.8,0,1.6,0,2.4,0c0.1,0,0.2,0,0.2,0c0.1,0,0.2,0,0.2,0
		c0.8,0,1.6,0,2.4,0c0.3,0,0.5,0,0.8,0c0.6,0,1.3,0,1.9-0.1c0.2,0,0.5,0,0.7,0c0.7,0,1.4-0.1,2-0.1c0.2,0,0.3,0,0.5,0
		c0.8-0.1,1.5-0.1,2.3-0.2c0.1,0,0.1,0,0.2,0c15.2-1.7,29.7-6.9,42.4-15.1c0.2-0.1,0.3-0.2,0.5-0.3c0.5-0.3,1-0.6,1.5-1
		c0.3-0.2,0.6-0.4,0.9-0.6c0.3-0.2,0.6-0.4,0.9-0.6c0.5-0.3,0.9-0.7,1.4-1c0,0,0.1-0.1,0.1-0.1c6.3-4.7,12.1-10.2,17.3-16.4
		c0-0.1,0.1-0.1,0.1-0.2C356.8,231.5,364.7,209.6,364.7,186.4L364.7,186.4z M339.8,244.5c-7.9-5.1-17.2-9.3-27.4-12.4
		c3.6-13.2,5.6-27.9,5.8-43.2h41.8C359.4,209.8,351.9,229.1,339.8,244.5z M287.4,277.7c0,0-0.1,0-0.1,0c-0.6,0.1-1.3,0.3-1.9,0.4
		c6.7-5,12.8-12.6,18-22.7c3-5.8,5.5-12.1,7.6-18.9c9.6,2.9,18.3,6.8,25.7,11.5C323.9,262.7,306.8,273.2,287.4,277.7z M245,277.7
		c-19.4-4.5-36.5-15.1-49.2-29.6c7.4-4.7,16.1-8.6,25.7-11.5c2.1,6.8,4.7,13.1,7.6,18.9c5.2,10,11.3,17.7,18,22.7
		c-0.6-0.1-1.3-0.3-1.9-0.4C245.1,277.8,245,277.8,245,277.7z M172.5,188.8h41.8c0.2,15.3,2.2,30,5.8,43.2
		c-10.2,3.1-19.5,7.3-27.4,12.4C180.5,229.1,173,209.8,172.5,188.8z M192.1,129.1c7.9,5.2,17.3,9.5,27.7,12.7
		c-3.4,13-5.4,27.3-5.5,42.2h-41.8C173,163.4,180.3,144.4,192.1,129.1z M245,95.1C245,95.1,245.1,95.1,245,95.1
		c0.7-0.2,1.4-0.3,2-0.4c-6.7,5-12.8,12.6-18,22.7c-3.1,6-5.7,12.7-7.9,19.8c-9.7-3-18.5-7-26-11.8C207.9,110.5,225.3,99.7,245,95.1z
		 M337.2,125.4c-7.4,4.9-16.3,8.8-26,11.8c-2.2-7.1-4.8-13.8-7.9-19.8c-5.2-10-11.3-17.7-18-22.7C305.9,99,324,110,337.2,125.4z
		 M263.8,143.6c-13.4-0.2-26.3-2-38-5.1c2.1-6.8,4.6-13.2,7.6-19c8.3-16.2,19.1-25.6,30.5-26.7V143.6z M263.8,148.5V184h-44.7
		c0.2-14.5,2-28.4,5.3-40.9C236.6,146.4,250,148.3,263.8,148.5z M263.8,188.8v36.6c-13.7,0.2-27,2-39.1,5.2
		c-3.5-12.8-5.4-27-5.6-41.9L263.8,188.8L263.8,188.8z M263.8,230.3V280c-11.4-1.2-22.1-10.5-30.5-26.7c-2.8-5.5-5.3-11.5-7.3-18
		C237.7,232.2,250.5,230.5,263.8,230.3z M268.6,230.3c13.3,0.2,26.1,1.9,37.7,5c-2,6.5-4.4,12.5-7.3,18
		c-8.3,16.2-19.1,25.6-30.5,26.7L268.6,230.3L268.6,230.3z M268.6,225.5v-36.6h44.7c-0.2,14.8-2.1,29.1-5.6,41.9
		C295.6,227.5,282.3,225.6,268.6,225.5z M268.6,184v-35.6c13.8-0.2,27.2-2,39.4-5.3c3.3,12.5,5.2,26.4,5.3,40.9L268.6,184L268.6,184z
		 M268.6,143.6V92.8c11.4,1.2,22.1,10.5,30.5,26.7c3,5.8,5.5,12.1,7.6,19C294.9,141.7,282,143.5,268.6,143.6z M318.1,184
		c-0.2-14.9-2.1-29.3-5.5-42.2c10.4-3.2,19.8-7.5,27.7-12.7c11.8,15.3,19.1,34.3,19.6,54.9H318.1z"/>
</svg>
