
<svg id="icon-cloud-storage" viewBox="0 0 44 44">
	<style type="text/css">
		.st0{fill:url(#SVGID_1_);}
		.st1{fill:url(#SVGID_2_);}
		.st2{fill:url(#SVGID_3_);}
		.st3{fill:url(#SVGID_4_);}
		.st4{fill:url(#SVGID_5_);}
		.st5{fill:url(#SVGID_6_);}
		.st6{fill:url(#SVGID_7_);}
		.st7{fill:url(#SVGID_8_);}
		.st8{fill:url(#SVGID_9_);}
		.st9{fill:url(#SVGID_10_);}
		.st10{fill:url(#SVGID_11_);}
	</style>
	<g>
		
			<linearGradient id="SVGID_1_" gradientUnits="userSpaceOnUse" x1="3.0349" y1="399.9955" x2="40.9651" y2="399.9955" gradientTransform="matrix(1 0 0 -1 0 422)">
			<stop  offset="0" style="stop-color:#B5B7B7"/>
			<stop  offset="1" style="stop-color:#A2A5A6"/>
		</linearGradient>
		<path class="st0" d="M41,33.8C41,33.7,41,33.7,41,33.8c0-0.1,0-0.2,0-0.2L37.1,4.3c-0.1-0.7-0.7-1.2-1.4-1.2H8.2
			c-0.7,0-1.3,0.4-1.4,1.2L3,33.6c0,0,0,0.1,0,0.1c0,0,0,0,0,0.1h0c0,0,0.3,5.8,0.3,5.8c0,0.7,0.7,1.4,1.4,1.4h34.3
			c0.7,0,1.4-0.7,1.4-1.4C40.5,39.5,41,33.8,41,33.8L41,33.8z"/>
	</g>
	<linearGradient id="SVGID_2_" gradientUnits="userSpaceOnUse" x1="3.0349" y1="384.6573" x2="40.9651" y2="384.6573" gradientTransform="matrix(1 0 0 -1 0 422)">
		<stop  offset="0" style="stop-color:#B5B7B7"/>
		<stop  offset="4.065678e-02" style="stop-color:#A1A7A8"/>
		<stop  offset="0.1773" style="stop-color:#D7DFE2"/>
		<stop  offset="0.4362" style="stop-color:#C6CACB"/>
		<stop  offset="0.6479" style="stop-color:#DDE3E6"/>
		<stop  offset="0.9623" style="stop-color:#A5ACAF"/>
		<stop  offset="1" style="stop-color:#8F9597"/>
	</linearGradient>
	<path class="st1" d="M3,33.8c0,0,0.3,5.8,0.3,5.8c0,0.7,0.7,1.4,1.4,1.4h34.3c0.7,0,1.4-0.7,1.4-1.4c0,0,0.4-5.8,0.4-5.8"/>
	<linearGradient id="SVGID_3_" gradientUnits="userSpaceOnUse" x1="39.7459" y1="381.2895" x2="39.7459" y2="387.5248" gradientTransform="matrix(1 0 0 -1 0 422)">
		<stop  offset="0" style="stop-color:#C5C9CB"/>
		<stop  offset="1" style="stop-color:#9FA6A9"/>
	</linearGradient>
	<path class="st2" d="M40.4,34.5c0,1.3-0.2,4-0.2,4.7c-0.1,0.8-0.3,1.2-1.1,1.5c0.7-0.7,0.7-1.5,0.8-2c0-0.6,0.1-3.8,0.1-3.8
		L40.4,34.5z"/>
	<linearGradient id="SVGID_4_" gradientUnits="userSpaceOnUse" x1="4.129" y1="381.2895" x2="4.129" y2="387.5248" gradientTransform="matrix(1 0 0 -1 0 422)">
		<stop  offset="0" style="stop-color:#C5C9CB"/>
		<stop  offset="1" style="stop-color:#B8BDC0;stop-opacity:0.3"/>
	</linearGradient>
	<path class="st3" d="M3.5,34.5c0,1.3,0.2,4,0.2,4.7C3.8,40,4,40.4,4.8,40.7c-0.7-0.7-0.7-1.5-0.7-2C4,38.1,4,34.9,4,34.9L3.5,34.5z"
		/>
	<linearGradient id="SVGID_5_" gradientUnits="userSpaceOnUse" x1="3.0349" y1="402.8988" x2="40.9562" y2="402.8988" gradientTransform="matrix(1 0 0 -1 0 422)">
		<stop  offset="0" style="stop-color:#DBE7EA"/>
		<stop  offset="0.5044" style="stop-color:#D2D9DC"/>
		<stop  offset="1" style="stop-color:#E6EEF0"/>
	</linearGradient>
	<path class="st4" d="M35.7,3.1H8.2c-0.7,0-1.3,0.4-1.4,1.2L3,33.6c0,0,0,0.1,0,0.1c0,0.7,0.7,1.4,1.4,1.4h35.1
		c0.7,0,1.4-0.7,1.4-1.4c0,0,0-0.1,0-0.1L37.1,4.3C37,3.5,36.4,3.1,35.7,3.1z"/>
	<linearGradient id="SVGID_6_" gradientUnits="userSpaceOnUse" x1="21.9955" y1="418.9428" x2="21.9955" y2="387.3105" gradientTransform="matrix(1 0 0 -1 0 422)">
		<stop  offset="0" style="stop-color:#C8C8C8"/>
		<stop  offset="1" style="stop-color:#A1A2A2"/>
	</linearGradient>
	<path class="st5" d="M35.6,3.1H8.3C7.6,3.1,7,3.5,6.9,4.2L3.3,33.2c0,0,0,0.1,0,0.1c0,0.7,0.7,1.4,1.4,1.4h34.6
		c0.7,0,1.4-0.7,1.4-1.4c0,0,0-0.1,0-0.1L37,4.2C37,3.5,36.4,3.1,35.6,3.1z"/>
	<linearGradient id="SVGID_7_" gradientUnits="userSpaceOnUse" x1="21.9558" y1="418.246" x2="21.9558" y2="393.7155" gradientTransform="matrix(1 0 0 -1 0 422)">
		<stop  offset="0" style="stop-color:#FFC320"/>
		<stop  offset="1" style="stop-color:#FF9900"/>
	</linearGradient>
	<path class="st6" d="M35.1,3.8H8.7c-0.7,0-1,0.3-1.2,1.1L4.9,26.2c0,0-0.1,0.8-0.1,0.9c-0.1,0.8,0.6,1.2,1.3,1.2h31.7
		c0.8,0,1.4-0.6,1.3-1.2c0,0,0-0.3,0-0.3L36.3,4.8C36.2,4.1,35.8,3.8,35.1,3.8z"/>
	<linearGradient id="SVGID_8_" gradientUnits="userSpaceOnUse" x1="32.6299" y1="383.7416" x2="34.5772" y2="383.7416" gradientTransform="matrix(1 0 0 -1 0 422)">
		<stop  offset="0" style="stop-color:#DBE7EA"/>
		<stop  offset="0.5044" style="stop-color:#D2D9DC"/>
		<stop  offset="1" style="stop-color:#E6EEF0"/>
	</linearGradient>
	<path class="st7" d="M33.6,37.5c0.5,0,1,0.3,1,0.8s-0.4,0.8-1,0.8c-0.5,0-1-0.3-1-0.8C32.6,37.8,33.1,37.5,33.6,37.5z"/>
	<radialGradient id="SVGID_9_" cx="33.602" cy="392.1282" r="0.8467" gradientTransform="matrix(1 0 0 -0.9815 0 423.0368)" gradientUnits="userSpaceOnUse">
		<stop  offset="4.082876e-04" style="stop-color:#879098"/>
		<stop  offset="0.5025" style="stop-color:#358936"/>
		<stop  offset="1" style="stop-color:#838B91"/>
	</radialGradient>
	<path class="st8" d="M33.6,37.4c0.5,0,0.9,0.3,0.9,0.7c0,0.4-0.4,0.7-0.9,0.7c-0.5,0-0.9-0.3-0.9-0.7C32.7,37.8,33.1,37.4,33.6,37.4
		z"/>
	<radialGradient id="SVGID_10_" cx="33.5991" cy="392.2612" r="0.597" fx="33.6008" fy="392.414" gradientTransform="matrix(1 0 0 -0.9815 0 423.0368)" gradientUnits="userSpaceOnUse">
		<stop  offset="4.082876e-04" style="stop-color:#DFFFDC"/>
		<stop  offset="0.4827" style="stop-color:#8CFA80"/>
		<stop  offset="0.9197" style="stop-color:#4DCB40"/>
		<stop  offset="1" style="stop-color:#248920"/>
	</radialGradient>
	<path class="st9" d="M34.2,38c0,0.3-0.3,0.6-0.6,0.6c-0.3,0-0.6-0.3-0.6-0.6c0-0.3,0.3-0.5,0.6-0.5S34.2,37.7,34.2,38z"/>
	<linearGradient id="SVGID_11_" gradientUnits="userSpaceOnUse" x1="22.0823" y1="-432.7633" x2="22.0823" y2="-445.9576" gradientTransform="matrix(1 0 0 1 0 455)">
		<stop  offset="0" style="stop-color:#E58F10"/>
		<stop  offset="1" style="stop-color:#D78700"/>
	</linearGradient>
	<path class="st10" d="M32.5,17.8c0.5,2.3-1.1,4.4-3.6,4.4H15.9c-3,0-4.8-2.4-4.2-5.1c0.4-1.8,1.8-3.2,3.4-3.8c0-0.1,0-0.3,0-0.4
		c0.4-2.3,2.7-3.9,5.2-3.9c1.9,0,3.6,0.9,4.4,2.3c0.4-0.3,0.9-0.5,1.5-0.5c1.3,0,2.5,0.9,2.7,2.1c0.1,0.4,0,0.8-0.2,1.2
		C30.5,14.5,32.1,16,32.5,17.8z"/>
</svg>