
<svg id="icon-users-groups" xmlns="http://www.w3.org/2000/svg" viewBox="0 0 500 500">
	<style type="text/css">
		.st0{fill:url(#SVGID_1_);stroke:#bbb;stroke-width:5;}
		.st1{fill:#555;}
	</style>
	<linearGradient id="SVGID_1_" gradientUnits="userSpaceOnUse" x1="250" y1="187.9" x2="250" y2="-263.9" gradientTransform="matrix(1 0 0 -1 0 212)">
		<stop  offset="0" style="stop-color:#eee"/>
		<stop  offset="1" style="stop-color:#bbb"/>
	</linearGradient>
	<circle class="st0" cx="250" cy="250" r="225.9"/>
	<path class="st1" d="M389.7,340.5c-6.3-14.1-36.9-23.5-57.3-32.2c-20.4-8.8-17.6-14.1-18.3-21.4c-0.1-1-0.2-2.2-0.2-3.3
		c6.1-5.8,11.1-13.4,14.5-22.1c0,0,0.2-0.5,0.3-0.6c0.8-2.1,1.5-4.2,2.1-6.4c4.7-0.9,7.4-5.9,8.4-10.5c1-1.9,3.2-6.4,2.7-11.6
		c-0.6-6.7-3.4-9.8-6.5-11.1c0-0.1,0-0.2,0-0.3c1.9-6.4,3.8-13,4-23.4c0.2-8.2-2.3-14.7-6.9-21.6c-0.6-1-22.7-29.7-22.8-30.8
		c-0.7,1.4,0.2,7.8-4.1,6.5c0.5,0.2,2.8-3.5,0.7-7.7c-1.1,3.8-3.7,6.1-7.9,6.9c1.9-1.7,3.1-3.7,3.7-6.1c-2,2.2-4.6,3.1-7.9,2.5
		c-0.1-2.1,0.7-4.1,2.3-5.7c-2.4,1.6-5.1,2.5-8.1,2.7c-0.7-2.4-0.5-4.8,0.5-7.2c-2.7,3.2-6.1,5.6-10.1,7.1c-1.5-2.1-1.5-4.5,0-7.2
		c-1.9,3.2-4.2,6.1-7.1,8.5c-0.9-1.9-1.4-3.9-1.6-6c-7.5,12.9-21.3,22.5-32.2,32.6c-13.9,15.6-11.2,32.2-6.3,49.4
		c-2.9,1.4-5.4,4.5-6,10.8c-0.5,5.2,1.7,9.8,2.7,11.6c1.1,4.7,3.9,9.7,8.7,10.5c0.6,2.2,1.3,4.4,2.1,6.5c0.1,0.1,0.1,0.3,0.2,0.4
		l0.1,0.2c3.4,8.8,8.6,16.6,14.9,22.4c0,1-0.1,2-0.2,2.9c-0.7,7.3,1.4,12.6-19,21.4c-20.4,8.8-51,18.1-57.3,32.2
		c-6.3,14.1-3.8,22.4-3.8,22.4h219.5C393.5,363,396,354.7,389.7,340.5z"/>
	<path class="st1" d="M235.4,286.6c-3.8-8.4-22.1-14-34.3-19.3c-12.2-5.2-10.5-8.4-11-12.8c-0.1-0.7-0.1-1.4-0.1-2.2c3.7-3.5,6.8-8.1,8.8-13.4
		c0,0,0.1-0.3,0.1-0.4c0.5-1.2,0.9-2.5,1.2-3.9c2.8-0.6,4.4-3.5,5-6.3c0.6-1.1,1.9-3.8,1.6-6.9c-0.3-3.1-1.4-4.9-2.7-6
		c2.2-12.4,0.1-18.9-1.5-26.1c-1.2-5.4,5.1,0.4,5.1,0.4c0.3-5-8.5-10.8-10.3-15c-0.5-1.2,4.5,0.5,4.5,0.5c-15.6-16.5-45.7-5-45.7-5
		s-11.9-2.8-14.1,0c-0.1,0.2,2.9-0.2,4.1,1.9c1.5,2.6-4.9,6.3-4.9,6.3c-5.4,3.8-4.5,6.6-4.5,6.6c1.7-1.9,5.1-0.9,5.1-0.9
		s-7.3,5.9-5.7,9c0.2,0.3,3.9-3.6,4.2,1.3c0.3,6.3-0.6,9.8,0.4,20.4c-1.7,0.8-3.3,2.7-3.6,6.5c-0.3,3.1,1,5.8,1.6,6.9
		c0.6,2.8,2.3,5.8,5.2,6.3c0.4,1.3,0.8,2.6,1.3,3.9c0,0.1,0.1,0.2,0.1,0.2l0,0.1c2,5.2,5.1,9.8,8.8,13.3c0,0.8-0.1,1.5-0.1,2.2
		c-0.4,4.4,0.8,7.5-11.3,12.8c-12.2,5.2-30.5,10.8-34.3,19.3c-3.8,8.4-2.3,13.4-2.3,13.4h131.3C237.7,300,239.2,295,235.4,286.6z"/>
</svg>
