
<svg id="icon-update" xmlns="http://www.w3.org/2000/svg" viewBox="0 0 500 500">
	<filter x="-6.1%" y="-3.9%" width="112.1%" height="113.2%" filterUnits="objectBoundingBox" id="drop-filter-2">
		<feOffset dx="0" dy="4" in="SourceAlpha" result="dropShadowOffsetOuter1"></feOffset>
		<feGaussianBlur stdDeviation="4" in="dropShadowOffsetOuter1" result="dropShadowBlurOuter1"></feGaussianBlur>
		<feColorMatrix values="0 0 0 0 0   0 0 0 0 0   0 0 0 0 0  0 0 0 0.5 0" type="matrix" in="dropShadowBlurOuter1" result="dropShadowMatrixOuter1"></feColorMatrix>
		<feMerge>
			<feMergeNode in="dropShadowMatrixOuter1"></feMergeNode>
			<feMergeNode in="SourceGraphic"></feMergeNode>
		</feMerge>
	</filter>
	<style type="text/css">
		.st0{fill:url(#SVGID_1_);}
		.st1{fill:url(#Oval_1_);}
		.st2{fill:#eee;}
		.st3{fill:none;}
		.st4{fill:#ccc;}
	</style>
	<linearGradient id="SVGID_1_" gradientUnits="userSpaceOnUse" x1="250" y1="477.9078" x2="250" y2="26.0922" gradientTransform="matrix(1 0 0 -1 0 502)">
		<stop  offset="0" style="stop-color:#fff"/>
		<stop  offset="1" style="stop-color:#ddd"/>
	</linearGradient>
	<linearGradient id="Oval_1_" gradientUnits="userSpaceOnUse" x1="250.502" y1="448.2888" x2="250.502" y2="56.7152" gradientTransform="matrix(1 0 0 -1 0 502)">
		<stop  offset="0" style="stop-color:#aaa"/>
		<stop  offset="1" style="stop-color:#222"/>
	</linearGradient>
	<circle class="st0" cx="250" cy="250" r="225.9"/>
	<circle id="Oval_3_" class="st1" cx="250.5" cy="249.5" r="195.8"/>
	<g id="Shape_3_" transform="translate(30.000000, 30.000000) rotate(8.000000) translate(-30.000000, -30.000000) ">
		<path id="path-3_14_" filter="url(#drop-filter-2)" class="st4" d="M277.5,111.6c0.5,0,1,0,1.5,0c1,0,2.5,0,3.5,0l3.5-14.1c1-4.5,2-4,2.5,0l1.5,14.1l0,0 c1.5,0,3.5,0.5,5,0.5l0,0l5-13.6c1.5-4,2.5-4,2.5,0.5l-0.5,14.1c1.5,0.5,3.5,1,5,1l6.5-12.6c2-4,3-3.5,2.5,1l-2,14.1l0,0 c1.5,0.5,3.5,1,5,2l0,0l7.5-12c2.5-3.5,3.5-3,2.5,1l-3.5,14.1c1.5,1,3,1.5,4.5,2.5l9-11c3-3.5,4-3,2.5,1.5l-5,13.1l0,0 c1.5,1,3,2,4,3l0,0l10.5-9.5c3-3,4-2.5,2,1.5l-7,13.6c1.5,1,2.5,2,4,3.5l11.5-8c3.5-2.5,4.5-2,2,2l-8,11.5l0,0c1,1,2.5,2.5,3.5,4 l0,0l12.6-7c4-2,4.5-1,1.5,2l-9.5,10.5c1,1.5,2,3,3,4.5l13.1-5.5c4-1.5,4.5-0.5,1.5,2l-10.5,9.5l0,0c1,1.5,1.5,3,2.5,4.5l13.6-4 c4-1,5,0,1,2.5l-11.5,8c0.5,1.5,1.5,3,2,5l13.6-2c4.5-0.5,4.5,0.5,1,2.5l-12,6.5l0,0c0.5,1.5,1,3.5,1.5,5l0,0l14.1-0.5 c4.5,0,4.5,1,0.5,2.5l-13.1,5c0.5,1.5,0.5,3.5,0.5,5l13.6,1.5c4.5,0.5,4.5,1.5,0,2.5l-13.6,3.5l0,0c0,1.5,0,3.5,0,5c0,0,0,0,0,0.5 l0,0l13.6,2.5c4.5,1,4.5,2,0,2.5l-13.6,2c0,2-0.5,3.5-0.5,5.5l13.1,4.5c4,1.5,4,2.5-0.5,2.5h-13.6c-0.5,1.5-0.5,3.5-1,5l0,0l12.6,6 c4,2,3.5,3-0.5,2.5l-13.6-1.5c-0.5,1.5-1,3.5-1.5,5l11.5,7.5c3.5,2.5,3.5,3.5-1,2.5l-13.1-3l0,0c-1,1.5-1.5,3.5-2.5,5l0,0l10.5,8.5 c3.5,2.5,3,4-1.5,2.5l-13.6-6.5c-1,1.5-2,3-3,4.5l9.5,9.5c3,3,2.5,4-1.5,2l-12-6l0,0c-1,1.5-2,3-3.5,4l8.5,10.5c2.5,3.5,2,4.5-2,2 l-11.5-7.5c-1.5,1.5-2.5,2.5-4,3.5l7,11.5c2.5,4,1.5,4.5-2,1.5l-10.5-8.5l0,0c-1.5,1-3,2-4.5,3l5.5,12.6c2,4,1,4.5-2,1.5l-9-10 c-1.5,1-3,2-5,3l4,13.1c1.5,4,0.5,4.5-2.5,1l-8-11l0,0c-1.5,0.5-3.5,1.5-5,2l0,0l2.5,13.1c1,4.5-0.5,4.5-2.5,1l-6.5-10.5 c-1.5,0.5-3.5,1-5,1.5l1,13.6c0.5,4.5-1,4.5-2.5,0.5l-5.5-12.6l0,0c-1.5,0.5-3.5,0.5-5.5,1l0,0l-1,13.6c0,4.5-1.5,4.5-2.5,0.5 l-3-13.6c-2,0-3.5,0-5.5,0.5L279,336c-1,4.5-2,4.5-2.5,0l-2-13.6l0,0c-2,0-3.5,0-5.5-0.5l0,0l-4,13.1c-1,4-2.5,4-2.5-0.5l-0.5-13.6 c-2-0.5-3.5-0.5-5-1l-6,12.6c-1.5,4-3,4-2.5-0.5l1-13.6c-1.5-0.5-3.5-1-5-1.5l0,0l-7,12c-2,4-3.5,3.5-2.5-1l2.5-13.6 c-1.5-0.5-3-1.5-5-2l-8.5,11c-2.5,3.5-3.5,3-2.5-1l4.5-13.1l0,0c-1.5-1-3-2-4.5-2.5l0,0l-9.5,10c-3,3-4,2.5-2-1.5l6-12.6 c-1.5-1-3-2-4-3.5l-10.5,7.5c-3.5,3-4.5,2-2-1.5l7-12l0,0c-1.5-1-2.5-2.5-3.5-3.5l0,0l-11.5,7.5c-3.5,2.5-4.5,1.5-2-2l8.5-11 c-1-1.5-2-2.5-3-4l-12.6,6c-4,2-4.5,1-1.5-2l10-10l0,0c-1-1.5-2-3-2.5-4.5l-13.1,4.5c-4,1.5-4.5,0.5-1-2.5l11-8.5 c-1-1.5-1.5-3-2-4.5l-14.6,3c-4.5,1-5,0-1-2.5l12-7l0,0c-0.5-1.5-1-3.5-1.5-5l0,0l-14.1,1.5c-4.5,0.5-4.5-0.5-0.5-2.5l12.6-6 c-0.5-1.5-0.5-3.5-1-5l-14.1-0.5c-4.5,0-4.5-1.5-0.5-2.5l13.6-4.5l0,0c0-1.5-0.5-3.5-0.5-5l0,0l-14.1-2c-4.5-0.5-4.5-2,0-2.5 l14.1-2.5c0-1.5,0-3.5,0-5L160,207c-4-1-4-2.5,0.5-2.5l14.1-1l0,0c0-1.5,0.5-3.5,1-5l0,0l-13.1-5c-4-1.5-4-2.5,0.5-2.5l14.1,0.5 c0.5-1.5,1-3.5,1.5-5l-12.6-6.5c-4-2-3.5-3,1-2.5l14.1,2.5l0,0c0.5-1.5,1.5-3,2-4.5l0,0l-11.5-8c-3.5-2.5-3-3.5,1-2.5l13.6,4 c1-1.5,1.5-3,2.5-4.5l-10.5-9.5c-3.5-3-2.5-4,1.5-2l13.1,5.5l0,0c1-1.5,2-2.5,3-4l0,0l-9.5-11c-3-3.5-2-4,1.5-2l12.6,7 c1-1.5,2.5-2.5,3.5-4l-8-13.1c-2.5-3.5-1.5-4.5,2-2l11.5,8.5l0,0c1-1,2.5-2,4-3l-6.5-12.6c-2-4-1-4.5,2-1.5l10.5,10c1.5-1,3-2,4-3 l-5-13.6c-1.5-4-0.5-4.5,2.5-1.5l9,11l0,0c1.5-1,3-1.5,4.5-2l0,0l-3.5-14.1c-1-4.5,0-5,2.5-1l7.5,12c1.5-0.5,3-1,4.5-1.5l-1.5-14.1 c-0.5-4.5,0.5-4.5,2.5-0.5l6,13.1l0,0c1.5-0.5,3.5-1,5-1l0,0v-14.6c0-4.5,1-4.5,2.5-0.5l5,13.6c1.5,0,3.5-0.5,5-0.5l1.5-14.1 c0.5-4.5,1.5-4.5,2.5,0L277.5,111.6L277.5,111.6z M279,303.4c47.7,0,86.3-38.7,86.3-86.3s-38.7-86.3-86.3-86.3 s-86.8,38.2-86.8,85.8C192.1,264.3,231.3,303.4,279,303.4z"/>
	</g>
	<path class="st2" filter="url(#drop-filter-2)" d="M426.7,258.5c6.5-1,6.5-2.5,0-4l-18.6-3.5c0-0.5,0-1,0-1.5c0-2.5,0-5,0-7.5l18.1-4.5c6.5-1.5,6-3.5-0.5-4 l-18.6-1.5c-0.5-3-0.5-5.5-1-8.5l17.6-6.5c6-2.5,6-4-0.5-4l-18.6,0.5c-0.5-3-1.5-5.5-2-8.5l16.6-8.5c6-3,5-4.5-1-3.5l-18.6,3 c-1-2.5-2-5.5-3-8l15.6-10.5c5.5-4,4.5-5.5-1.5-3.5l-18.1,5c-1.5-2.5-2.5-5-4-7.5l14.1-12.6c5-4.5,4-6-2-3.5l-17.1,7 c-1.5-2.5-3.5-5-5-7l12.6-14.1c4.5-5,3.5-6-2.5-3l-17.6,9c-2-2-3.5-4.5-5.5-6.5l11-15.6c4-5.5,2.5-6.5-3-3l-15.1,11 c-2-2-4-4-6.5-5.5l9-16.6c3-6,1.5-7-3-2.5L344.4,121c-2.5-1.5-4.5-3.5-7-5l7-17.6c2.5-6,1-7-3.5-2l-12,14.1c-2.5-1.5-5-2.5-7.5-4 l4.5-18.1c1.5-6.5,0-7-3.5-1.5l-10,15.6c-2.5-1-5.5-2-8-3l2.5-18.6c1-6.5-0.5-7-3.5-1l-8.5,16.6c-2.5-1-5.5-1.5-8.5-2l0.5-18.6 c0-6.5-1.5-7-4-0.5l-6.5,17.6c-3-0.5-5.5-1-8.5-1l-3-18.1c-0.5-6.5-2.5-6.5-4-0.5L256,91.4c-2,0-4,0-6,0c-1,0-2,0-2.5,0l-4-18.6 c-1.5-6.5-3-6.5-4,0l-2,18.6c-3,0-5.5,0.5-8.5,1l-6.5-17.6c-2-6-4-6-4,0.5l0.5,18.6c-3,0.5-5.5,1-8.5,2l-8-17.1c-3-6-4.5-5.5-4,1 l2,18.6c-2.5,1-5.5,2-8,3l-10-15.6c-3.5-5.5-5-5-3.5,1.5l4.5,18.1c-2.5,1-5,2.5-7.5,4l-12-14.6c-4-5-5.5-4-3.5,2l6.5,17.6 c-2.5,1.5-5,3-7,4.5l-13.6-13.1c-5-4.5-6-3.5-3,2.5l8.5,16.6c-2,2-4.5,3.5-6.5,5.5l-15.1-11c-5.5-4-6.5-2.5-3,2.5l10.5,15.6 c-2,2-4,4-6,6.5l-16.1-9.5c-5.5-3.5-7-2-2.5,3l12,14.1l0,0c-1.5,2-3.5,4.5-5,7l-17.1-7.5c-6-2.5-7-1-2,3.5l14.1,12.6 c-1.5,2.5-3,5-4,7.5l-18.1-5c-6.5-2-7,0-1.5,3.5l15.1,10.5c-1,2.5-2.5,5-3.5,8l-18.6-3c-6.5-1-7,0.5-1.5,3.5l16.6,9 c-1,2.5-1.5,5.5-2.5,8l-18.6-0.5c-6.5,0-7,1.5-1,4l17.6,6.5c-0.5,3-1,5.5-1.5,8.5l-18.6,2.5c-6.5,0.5-6.5,2-0.5,4l18.1,5 c0,3-0.5,5.5-0.5,8.5l-18.6,3.5c-6.5,1-6.5,3,0,4l18.6,2.5c0,3,0.5,5.5,0.5,8.5l-18.1,5.5c-6.5,2-6,3.5,0.5,4l18.6,0.5 c0.5,3,1,5.5,1.5,8.5l-17.1,8c-6,3-5.5,4.5,1,4l18.6-2c1,3,1.5,5.5,2.5,8.5l-16.1,9.5c-5.5,3.5-5,5,1.5,3.5l18.6-4 c1,2.5,2.5,5,3.5,8l-14.6,11.5c-5,4-4.5,5.5,2,3.5l17.6-6c1.5,2.5,3,5,4.5,7.5l-12,12c-4.5,4.5-3.5,6,2,3l17.1-8 c1.5,2.5,3.5,4.5,5.5,6.5L118,365.5c-4,5-3,6.5,2.5,3l15.6-10c2,2,4,4,6,6l-9.5,16.1c-3.5,5.5-2,6.5,3,2.5l14.6-12 c2,2,4.5,3.5,7,5.5l-8,17.1c-3,6-1.5,7,3,2l13.1-13.6c2.5,1.5,5,3,7.5,4.5l-6,17.6c-2,6-0.5,7,3.5,2l11.5-15.1c2.5,1,5,2.5,8,3.5 l-3.5,18.6c-1.5,6.5,0.5,7,3.5,1.5l9.5-16.1c2.5,1,5.5,2,8,2.5l-2,19.1c-0.5,6.5,1,7,4,1l7.5-17.1c3,0.5,5.5,1,8.5,1.5l1,18.6 c0.5,6.5,2,6.5,4,0.5l5-18.1c3,0.5,6,0.5,8.5,0.5l3,18.6c1,6.5,2.5,6.5,4,0l3.5-18.6c3,0,5.5,0,8.5-0.5l5,18.1c2,6.5,3.5,6,4-0.5 l1-18.6c3-0.5,5.5-1,8.5-1.5l7,17.1c2.5,6,4,5.5,4-1l-2-17.6c3-0.5,5.5-1.5,8-2.5l9.5,16.1c3.5,5.5,5,5,3.5-1.5l-3.5-18.6 c2.5-1,5.5-2,8-3.5l11,15.1c4,5.5,5.5,4.5,3.5-2l-5-17.1c2.5-1.5,5-3,7.5-4.5l12.6,13.6c4.5,5,6,4,3.5-2l-7.5-17.1 c2.5-1.5,4.5-3.5,7-5l14.6,12c5,4,6.5,3,3-2.5l-9.5-16.1c2-2,4-4,6-6l15.6,10c5.5,3.5,6.5,2.5,2.5-3l-11.5-14.6c2-2,3.5-4.5,5.5-6.5 l17.1,8.5c6,3,7,1.5,2.5-3L381,338.9c1.5-2.5,3-4.5,4.5-7l17.6,6c6,2,7,0.5,2-3.5l-14.6-11.5c1.5-2.5,2.5-5,4-8l18.1,4 c6.5,1.5,7,0,1.5-3.5l-16.1-10c1-2.5,2-5.5,3-8l18.6,2c6.5,0.5,7-1,1-4l-17.1-8c0.5-3,1.5-5.5,2-8.5l18.6-0.5c6.5,0,7-2,0.5-4 l-17.6-4.5c0.5-3,0.5-5.5,1-8.5L426.7,258.5z M184.7,346.9c-5,9-18.1,10-26.1,5.5c-5.5-3-18.6-15.6-30.6-35.1 c-11-20.1-17.1-42.7-17.1-67.3c0-41.2,17.6-77.8,46.2-103.4c9-5,21.6-4,26.6,4.5l49.7,85.3c4,7,4,20.6-0.5,27.6L184.7,346.9z  M357.9,337.9c-16.1,19.1-36.6,34.1-60.7,42.7c-31.1,9-71.8,9.5-87.4,1c-10.5-5-14.6-16.1-9.5-25.1l49.2-85.3 c4-7,14.6-13.1,22.6-13.1H368c10.5,0,17.6,9,17.6,18.1C385.5,284.1,379,311.7,357.9,337.9z M243,249.5c0-4,3.5-7.5,7.5-7.5 c4,0,7.5,3.5,7.5,7.5c0,4-3.5,7.5-7.5,7.5C246.5,257,243,253.5,243,249.5z M370,240.5H269.6c-8.5-0.5-18.6-7.5-22.6-15.1l-47.7-82.8 c-5-9,0.5-19.1,8.5-23.6c5.5-3,23.1-8.5,46.2-8.5c65.8,1.5,120,49.2,132.5,111.4C388.1,232.4,379,240.5,370,240.5z"/>
</svg>
