
<svg id="icon-dock" xmlns="http://www.w3.org/2000/svg" viewBox="0 0 44 44">
	<style type="text/css">
		.st0{fill:url(#SVGID_1_);}
		.st1{fill:#222222;}
		.st2{opacity:0.5;enable-background:new    ;}
		.st3{fill:#FFFFFF;}
		.st4{opacity:0.45;enable-background:new    ;}
	</style>
	<g>
		<linearGradient id="SVGID_1_" gradientUnits="userSpaceOnUse" x1="22" y1="-421.3565" x2="22" y2="-447.331" gradientTransform="matrix(1 0 0 1 0 455)">
			<stop  offset="0" style="stop-color:#BB88BB"/>
			<stop  offset="1" style="stop-color:#6699DD"/>
		</linearGradient>
		<path class="st0" d="M39.9,36.6H4.1c-1,0-1.8-0.8-1.8-1.8V9.2c0-1,0.8-1.8,1.8-1.8h35.7c1,0,1.8,0.8,1.8,1.8v25.6
			C41.7,35.8,40.9,36.6,39.9,36.6z"/>
		<path class="st1" d="M39.9,36.9H4.1C3,36.9,2,36,2,34.8V9.2C2,8,3,7.1,4.1,7.1h35.7C41,7.1,42,8,42,9.2v25.6
			C42,36,41,36.9,39.9,36.9z M4.1,7.6c-0.9,0-1.6,0.7-1.6,1.6v25.6c0,0.9,0.7,1.6,1.6,1.6h35.7c0.9,0,1.6-0.7,1.6-1.6V9.2
			c0-0.9-0.7-1.6-1.6-1.6H4.1z"/>
	</g>
	<g class="st2">
		<rect x="6.7" y="27.5" class="st3" width="30.6" height="9.2"/>
		<path class="st1" d="M37.6,36.9H6.4v-9.7h31.2V36.9z M6.9,36.4h30.1v-8.6H6.9V36.4z"/>
	</g>
	<g class="st4">
		<path class="st3" d="M13,34.7h-3c-0.6,0-1.1-0.5-1.1-1.1v-2.8c0-0.6,0.5-1.1,1.1-1.1h3c0.6,0,1.1,0.5,1.1,1.1v2.8
			C14.1,34.2,13.6,34.7,13,34.7z"/>
		<path class="st1" d="M13,34.8h-3c-0.7,0-1.2-0.5-1.2-1.2v-2.8c0-0.7,0.5-1.2,1.2-1.2h3c0.7,0,1.2,0.5,1.2,1.2v2.8
			C14.2,34.3,13.7,34.8,13,34.8z M10,29.9c-0.5,0-0.9,0.4-0.9,0.9v2.8c0,0.5,0.4,0.9,0.9,0.9h3c0.5,0,0.9-0.4,0.9-0.9v-2.8
			c0-0.5-0.4-0.9-0.9-0.9H10z"/>
	</g>
	<g class="st4">
		<path class="st3" d="M33.8,34.7h-3c-0.6,0-1.1-0.5-1.1-1.1v-2.8c0-0.6,0.5-1.1,1.1-1.1h3c0.6,0,1.1,0.5,1.1,1.1v2.8
			C34.8,34.2,34.4,34.7,33.8,34.7z"/>
		<path class="st1" d="M33.8,34.8h-3c-0.7,0-1.2-0.5-1.2-1.2v-2.8c0-0.7,0.5-1.2,1.2-1.2h3c0.7,0,1.2,0.5,1.2,1.2v2.8
			C35,34.3,34.4,34.8,33.8,34.8z M30.8,29.9c-0.5,0-0.9,0.4-0.9,0.9v2.8c0,0.5,0.4,0.9,0.9,0.9h3c0.5,0,0.9-0.4,0.9-0.9v-2.8
			c0-0.5-0.4-0.9-0.9-0.9H30.8z"/>
	</g>
	<g class="st4">
		<path class="st3" d="M26.9,34.7h-3c-0.6,0-1.1-0.5-1.1-1.1v-2.8c0-0.6,0.5-1.1,1.1-1.1h3c0.6,0,1.1,0.5,1.1,1.1v2.8
			C27.9,34.2,27.4,34.7,26.9,34.7z"/>
		<path class="st1" d="M26.9,34.8h-3c-0.7,0-1.2-0.5-1.2-1.2v-2.8c0-0.7,0.5-1.2,1.2-1.2h3c0.7,0,1.2,0.5,1.2,1.2v2.8
			C28.1,34.3,27.5,34.8,26.9,34.8z M23.8,29.9c-0.5,0-0.9,0.4-0.9,0.9v2.8c0,0.5,0.4,0.9,0.9,0.9h3c0.5,0,0.9-0.4,0.9-0.9v-2.8
			c0-0.5-0.4-0.9-0.9-0.9H23.8z"/>
	</g>
	<g class="st4">
		<path class="st3" d="M19.9,34.7h-3c-0.6,0-1.1-0.5-1.1-1.1v-2.8c0-0.6,0.5-1.1,1.1-1.1h3c0.6,0,1.1,0.5,1.1,1.1v2.8
			C21,34.2,20.5,34.7,19.9,34.7z"/>
		<path class="st1" d="M19.9,34.8h-3c-0.7,0-1.2-0.5-1.2-1.2v-2.8c0-0.7,0.5-1.2,1.2-1.2h3c0.7,0,1.2,0.5,1.2,1.2v2.8
			C21.1,34.3,20.6,34.8,19.9,34.8z M16.9,29.9c-0.5,0-0.9,0.4-0.9,0.9v2.8c0,0.5,0.4,0.9,0.9,0.9h3c0.5,0,0.9-0.4,0.9-0.9v-2.8
			c0-0.5-0.4-0.9-0.9-0.9H16.9z"/>
	</g>
</svg>
