
<svg id="icon-padlock-open" xmlns="http://www.w3.org/2000/svg" viewBox="0 0 500 500">
	<style type="text/css">
		.st0{opacity:0.6;stroke:#000;stroke-width:10;}
		.st1{fill:url(#SVGID_1_);}
		.st2{opacity:0.5;fill:url(#SVGID_2_);}
		.st3{opacity:0.5;fill:#fff;}
		.st4{fill:#717172;}
		.st5{fill:none;stroke:#848484;stroke-width:45;stroke-linecap:round;}
		.st6{fill:none;stroke:#999;stroke-width:43;stroke-linecap:round;}
		.st7{fill:none;stroke:#ADADAD;stroke-width:40;stroke-linecap:round;}
		.st8{fill:none;stroke:#D1D1D1;stroke-width:35;stroke-linecap:round;}
		.st9{fill:none;stroke:#F2F2F2;stroke-width:30;stroke-linecap:round;}
		.st10{fill:none;stroke:#C9C9C9;stroke-width:25;stroke-linecap:round;}
		.st11{fill:none;stroke:#A8A8A8;stroke-width:22;stroke-linecap:round;}
		.st12{fill:none;stroke:#959596;stroke-width:18;stroke-linecap:round;}
		.st13{fill:none;stroke:#818184;stroke-width:11;stroke-linecap:round;}
		.st14{fill:none;stroke:#4F4F51;stroke-width:5;stroke-linecap:round;}
		.st15{fill:url(#SVGID_3_);}
		.st16{fill:url(#SVGID_4_);}
		.st17{fill:url(#SVGID_5_);}
		.st18{opacity:0.35;fill:#222;}
		.st19{opacity:0.54;fill:url(#SVGID_6_);}
	</style>
	<linearGradient id="SVGID_1_" gradientUnits="userSpaceOnUse" x1="109.5868" y1="342.2997" x2="390.4131" y2="342.2997">
		<stop  offset="0" style="stop-color:#EAA228"/>
		<stop  offset="0.1428" style="stop-color:#F0BB57"/>
		<stop  offset="0.6047" style="stop-color:#FDE29D"/>
		<stop  offset="0.92" style="stop-color:#E1AB4B"/>
		<stop  offset="1" style="stop-color:#F5BC48"/>
	</linearGradient>
	<linearGradient id="SVGID_3_" gradientUnits="userSpaceOnUse" x1="248.7559" y1="224.8556" x2="248.7559" y2="23.0986">
		<stop  offset="0" style="stop-color:#777"/>
		<stop  offset="0.3073" style="stop-color:#999;stop-opacity:0.9"/>
		<stop  offset="0.3234" style="stop-color:#999;stop-opacity:0.879"/>
		<stop  offset="0.9984" style="stop-color:#999;stop-opacity:0"/>
	</linearGradient>
	<linearGradient id="SVGID_4_" gradientUnits="userSpaceOnUse" x1="248.7559" y1="23.0986" x2="248.7559" y2="224.8556">
		<stop  offset="0" style="stop-color:#fff;stop-opacity:0.5"/>
		<stop  offset="9.334087e-02" style="stop-color:#FBFBFB;stop-opacity:0.4314"/>
		<stop  offset="0.1798" style="stop-color:#F0F0F0;stop-opacity:0.3678"/>
		<stop  offset="0.2636" style="stop-color:#ddd;stop-opacity:0.3062"/>
		<stop  offset="0.3458" style="stop-color:#C3C3C3;stop-opacity:0.2459"/>
		<stop  offset="0.4268" style="stop-color:#A1A1A1;stop-opacity:0.1863"/>
		<stop  offset="0.5068" style="stop-color:#777;stop-opacity:0.1275"/>
		<stop  offset="0.5862" style="stop-color:#454545;stop-opacity:6.914780e-02"/>
		<stop  offset="0.6632" style="stop-color:#0E0E0E;stop-opacity:1.258865e-02"/>
		<stop  offset="0.6803" style="stop-color:#000;stop-opacity:5.565784e-09"/>
		<stop  offset="0.7253" style="stop-color:#000;stop-opacity:4.779116e-09"/>
		<stop  offset="0.9984" style="stop-color:#000;stop-opacity:0"/>
	</linearGradient>
	<radialGradient id="SVGID_5_" cx="248.9082" cy="43.2653" r="60.3005" fx="248.9944" fy="23.4171" gradientTransform="matrix(1.1894 0 0 1.6286 -47.4498 -11.0622)" gradientUnits="userSpaceOnUse">
		<stop  offset="0" style="stop-color:#fff;stop-opacity:0.8"/>
		<stop  offset="1" style="stop-color:#fff;stop-opacity:0"/>
	</radialGradient>
	<linearGradient id="SVGID_6_" gradientUnits="userSpaceOnUse" x1="142.504" y1="238.8425" x2="193.0467" y2="238.8425">
		<stop  offset="0" style="stop-color:#6C480E"/>
		<stop  offset="0.5103" style="stop-color:#37200E"/>
		<stop  offset="1" style="stop-color:#844514"/>
	</linearGradient>
	<linearGradient id="SVGID_2_" gradientUnits="userSpaceOnUse" x1="109.5868" y1="355.2762" x2="150.1505" y2="355.2762">
		<stop  offset="0" style="stop-color:#D7901B"/>
		<stop  offset="1" style="stop-color:#DD8038"/>
	</linearGradient>

	<path class="st0" d="M390.1,218.1c-2.9-3.5-15.6-6.9-26.5-9v-67c0-69.3-49.7-121-115.3-121s-114.4,47.4-114.4,116v31.2
		c0,9.7,7.4,14.1,22.1,14.1c15.1,0,22.7-4.4,22.1-14.1v-31.2c0-41.2,29-69.8,70.2-69.8s71.1,33.6,71.1,74.8v65.5
		c-69.2,2.3-168.9,11.8-209.9,25.4c0,18.3,0,208.3,0,221.2c5.9,9.2,25.9,19.8,37.7,23.4c106.6,0.6,242.9-39.5,242.9-44.8
		S390.7,233.5,390.1,218.1z"/>
	<path class="st1" d="M390.1,218.1c0.6,15.4,0,209.4,0,214.7c0,5.3-136.3,45.4-242.9,44.8c-11.8-3.6-31.8-14.2-37.7-23.4 c0-12.9,0-202.9,0-221.2c47.2-15.6,172-25.9,238.7-25.9C355.2,207,385.4,212.5,390.1,218.1z"/>
	<path class="st2" d="M147.3,477.6c-11.8-3.6-31.8-14.2-37.7-23.4c0-12.9,0-202.9,0-221.2c6.5,7.5,36.6,21.4,40.6,23.3 C150.2,271.3,147.3,460.1,147.3,477.6z"/>
	<path class="st3" d="M109.7,232.9c47.2-15.6,180.8-26.9,238.7-25.9c6.9,0,37.2,5.5,41.9,11.1h-0.1c-20,6.4-76.5,22.5-128.9,29.5 c-64.4,8.7-99.8,8.6-111.1,8.6c-3.5-1.1-36.2-17-40.6-23.3H109.7z"/>
	<path class="st3" d="M148.5,471.1c1.5-45.9,2.4-211.4,6.6-210.8c12.2-2.3,40.3-1.2,104.8-9.3c58.2-7.3,108.4-24.2,130.3-32.8 c-53.8,14.9-149.5,33.9-240,35.7c-7.6-1.5-32.2-14.9-40.4-20.9c6.7,8.4,35.9,23.6,37.1,26C147.6,273.4,148.2,451.8,148.5,471.1z"/>
	<path class="st4" d="M341.5,224.9c-14.5,0-21.8-4.4-22.1-14.1v-68.7c0-41.2-29.9-74.8-71.1-74.8s-70.2,28.6-70.2,69.8v31.2 c0.6,9.7-7,14.1-22.1,14.1c-14.7,0-22.1-4.4-22.1-14.1v-31.2c0-65.6,48.8-114,114.4-114c65.6,0,115.3,53.4,115.3,119v68.7 C363.6,220.4,355.6,224.9,341.5,224.9z"/>
	<path class="st5" d="M341.5,198.4v-59.8c0-53.5-39.7-96.9-93.2-96.9S156,80,156,133.5v24.4"/>
	<path class="st6" d="M341.5,198.5v-59.8c0-53.5-39.7-96.9-93.2-96.9S156,80.2,156,133.7V158"/>
	<path class="st7" d="M341.5,197.6v-59.8c0-53.5-39.7-96.9-93.2-96.9S156,79.3,156,132.8v24.4"/>
	<path class="st8" d="M341.5,196.7v-59.8c0-53.5-39.7-96.9-93.2-96.9S156,78.4,156,131.9v24.4"/>
	<path class="st9" d="M341.5,196.7v-59.8c0-53.5-39.7-96.9-93.2-96.9S156,78.4,156,131.9v24.4"/>
	<path class="st10" d="M341.5,202v-59.8c0-53.5-39.7-96.9-93.2-96.9S156,83.7,156,137.2v22.4"/>
	<path class="st11" d="M341.5,202v-59.8c0-53.5-39.7-96.9-93.2-96.9S156,83.7,156,137.2v22.4"/>
	<path class="st12" d="M341.5,202v-59.8c0-53.5-39.7-96.9-93.2-96.9S156,83.7,156,137.2v22.4"/>
	<path class="st13" d="M341.5,202v-59.8c0-53.5-39.7-96.9-93.2-96.9S156,83.7,156,137.2v22.4"/>
	<path class="st14" d="M341.5,202v-59.8c0-53.5-39.7-96.9-93.2-96.9S156,83.7,156,137.2v22.4"/>
	<path class="st15" d="M341.5,224.9c-12.2,0-22.1-3.1-22.1-14.1v-68.7c0-41.2-29.9-74.8-71.1-74.8s-70.2,28.6-70.2,69.8v31.2 c0,11.5-9.9,14.1-22.1,14.1s-22.1-3.5-22.1-14.1v-31.2c0-65.6,48.8-114,114.4-114c65.6,0,115.3,53.4,115.3,119v68.7 C363.6,221.8,353.7,224.9,341.5,224.9z"/>
	<path class="st16" d="M341.5,224.9c-12.2,0-22.4-4-22.1-14.1v-68.7c0-41.2-29.9-74.8-71.1-74.8s-70.2,28.6-70.2,69.8v31.2 c0.2,10.3-9.9,14.1-22.1,14.1s-22.1-4-22.1-14.1v-31.2c0-65.6,48.8-114,114.4-114c65.6,0,115.3,53.4,115.3,119v68.7 C363.6,220.6,353.7,224.9,341.5,224.9z"/>
	<path class="st17" d="M166,83.2c19.6-26.5,46.5-45.1,82.2-45.1s63.5,18.6,83.1,45.1c5.4,3.6,10.5,9,15.1,13.2 c-2.2-6.6-5.1-14.3-8.5-20.2c-18.5-32.2-49.7-53.8-89.7-53.8c-39.8,0-69.9,21.4-88.5,53.3c-3.5,6.1-6.5,13.9-8.8,20.7 C155.5,92.2,160.5,86.8,166,83.2z"/>
	<path class="st18" d="M341.5,223.7c-8,0-15.8-2-20.1-6c3.1,4.8,9.7,7.1,20.1,7.1c10.1,0,17.1-2.3,20.2-7.2 C357,221.9,349.6,223.7,341.5,223.7z"/>
	<path class="st18" d="M156,181.2c-8.2,0-15.5-1.7-20.4-6.1c3,5,9.7,7.3,20.4,7.3c11.2,0,18.3-2.4,20.9-7.7 C172.3,179.3,164.5,181.2,156,181.2z"/>
	<ellipse class="st19" cx="167.8" cy="238.8" rx="25.3" ry="7.3"/>
</svg>
