
<svg id="icon-display" xmlns="http://www.w3.org/2000/svg" viewBox="0 0 44 44">
	<style type="text/css">
		.st0{fill:url(#SVGID_1_);}
		.st1{fill:url(#SVGID_2_);}
		.st2{fill:url(#SVGID_3_);}
	</style>
	<linearGradient id="SVGID_1_" gradientUnits="userSpaceOnUse" x1="22.2628" y1="14.8448" x2="22.2628" y2="7.0415" gradientTransform="matrix(1 0 0 -1 0 46)">
		<stop  offset="0" style="stop-color:#555555"/>
		<stop  offset="0.3938" style="stop-color:#AAAAAA"/>
		<stop  offset="0.675" style="stop-color:#999999"/>
		<stop  offset="0.6906" style="stop-color:#777777"/>
		<stop  offset="0.9997" style="stop-color:#333333"/>
	</linearGradient>
	<path class="st0" d="M32.5,36.5h-7.5v-5.4h-5.4v5.4H12c-0.5,0-0.8,0.4-0.8,0.8v0.7c0,0.5,0.4,0.8,0.8,0.8h20.5
		c0.5,0,0.8-0.4,0.8-0.8v-0.7C33.3,36.9,33,36.5,32.5,36.5z"/>
	<linearGradient id="SVGID_2_" gradientUnits="userSpaceOnUse" x1="22.2495" y1="40.9585" x2="22.2495" y2="14.8096" gradientTransform="matrix(1 0 0 -1 0 46)">
		<stop  offset="0" style="stop-color:#555555"/>
		<stop  offset="0.9997" style="stop-color:#222222"/>
	</linearGradient>
	<path class="st1" d="M40.4,31.2H4.1c-0.9,0-1.6-0.7-1.6-1.6v-23C2.5,5.7,3.2,5,4.1,5h36.3C41.3,5,42,5.7,42,6.6v23
		C42,30.5,41.3,31.2,40.4,31.2z"/>
	<linearGradient id="SVGID_3_" gradientUnits="userSpaceOnUse" x1="22.2584" y1="39.84" x2="22.2584" y2="15.9985" gradientTransform="matrix(1 0 0 -1 0 46)">
		<stop  offset="0" style="stop-color:#BBBBFF"/>
		<stop  offset="1" style="stop-color:#7777BB"/>
	</linearGradient>
	<path class="st2" d="M40.1,30H4.4c-0.4,0-0.7-0.3-0.7-0.7V6.9c0-0.4,0.3-0.7,0.7-0.7h35.7c0.4,0,0.7,0.3,0.7,0.7v22.4
		C40.9,29.7,40.5,30,40.1,30z"/>
</svg>
