
<svg id="icon-padlock" xmlns="http://www.w3.org/2000/svg" viewBox="0 0 500 500">
	<style type="text/css">
		.st0{opacity:0.6;stroke:#000;stroke-width:10;}
		.st1{fill:url(#SVGID_1_);}
		.st2{opacity:0.42;fill:#fff;}
		.st3{opacity:0.6;fill:url(#SVGID_2_);}
		.st4{fill:#717172;}
		.st5{fill:none;stroke:#848484;stroke-width:47;stroke-linecap:round;}
		.st6{fill:none;stroke:#999;stroke-width:43;stroke-linecap:round;}
		.st7{fill:none;stroke:#ADADAD;stroke-width:40;stroke-linecap:round;}
		.st8{fill:none;stroke:#D1D1D1;stroke-width:35;stroke-linecap:round;}
		.st9{fill:none;stroke:#F2F2F2;stroke-width:30;stroke-linecap:round;}
		.st10{fill:none;stroke:#C9C9C9;stroke-width:25;stroke-linecap:round;}
		.st11{fill:none;stroke:#A8A8A8;stroke-width:22;stroke-linecap:round;}
		.st12{fill:none;stroke:#959596;stroke-width:18;stroke-linecap:round;}
		.st13{fill:none;stroke:#818184;stroke-width:11;stroke-linecap:round;}
		.st14{fill:none;stroke:#4F4F51;stroke-width:5;stroke-linecap:round;}
		.st15{fill:url(#SVGID_3_);}
		.st16{fill:url(#SVGID_4_);}
		.st17{fill:url(#SVGID_5_);}
		.st18{opacity:0.35;fill:#222;}
	</style>
	<linearGradient id="SVGID_1_" gradientUnits="userSpaceOnUse" x1="99.1275" y1="336.8747" x2="399.602" y2="336.8747">
		<stop  offset="0" style="stop-color:#EAA228"/>
		<stop  offset="0.0951" style="stop-color:#E9BC66"/>
		<stop  offset="0.3262" style="stop-color:#F0e4b4"/>
		<stop  offset="0.6742" style="stop-color:#E9BC66"/>
		<stop  offset="0.8711" style="stop-color:#F7CD6E"/>
		<stop  offset="0.9628" style="stop-color:#E1AB4B"/>
		<stop  offset="1" style="stop-color:#F5BC48"/>
	</linearGradient>
	<linearGradient id="SVGID_2_" gradientUnits="userSpaceOnUse" x1="99.1275" y1="211.7476" x2="399.602" y2="211.7476">
		<stop  offset="0" style="stop-color:#D2A04C"/>
		<stop  offset="0.1971" style="stop-color:#E2BF7B"/>
		<stop  offset="0.5092" style="stop-color:#FCFFFF"/>
		<stop  offset="0.7624" style="stop-color:#FFE9AF"/>
		<stop  offset="1" style="stop-color:#DCAA53"/>
	</linearGradient>
	<linearGradient id="SVGID_3_" gradientUnits="userSpaceOnUse" x1="249.6391" y1="218.098" x2="249.6391" y2="18.3655">
		<stop  offset="0" style="stop-color:#999"/>
		<stop  offset="0.1373" style="stop-color:#999;stop-opacity:0.9"/>
		<stop  offset="0.1573" style="stop-color:#999;stop-opacity:0.879"/>
		<stop  offset="0.9984" style="stop-color:#999;stop-opacity:0"/>
	</linearGradient>
	<radialGradient id="SVGID_5_" cx="249.6391" cy="42.345" r="68.2553" fx="249.7367" fy="19.8784" gradientTransform="matrix(1.1894 0 0 1.6286 -47.4498 -11.0622)" gradientUnits="userSpaceOnUse">
		<stop  offset="0" style="stop-color:#fff;stop-opacity:0.8"/>
		<stop  offset="1" style="stop-color:#fff;stop-opacity:0"/>
	</radialGradient>
	<linearGradient id="SVGID_4_" gradientUnits="userSpaceOnUse" x1="249.6391" y1="18.3655" x2="249.6391" y2="218.098">
		<stop  offset="0" style="stop-color:#fff;stop-opacity:0.5"/>
		<stop  offset="9.334087e-02" style="stop-color:#FBFBFB;stop-opacity:0.4314"/>
		<stop  offset="0.1798" style="stop-color:#F0F0F0;stop-opacity:0.3678"/>
		<stop  offset="0.2636" style="stop-color:#ddd;stop-opacity:0.3062"/>
		<stop  offset="0.3458" style="stop-color:#C3C3C3;stop-opacity:0.2459"/>
		<stop  offset="0.4268" style="stop-color:#A1A1A1;stop-opacity:0.1863"/>
		<stop  offset="0.5068" style="stop-color:#777;stop-opacity:0.1275"/>
		<stop  offset="0.5862" style="stop-color:#454545;stop-opacity:6.914780e-02"/>
		<stop  offset="0.6632" style="stop-color:#0E0E0E;stop-opacity:1.258865e-02"/>
		<stop  offset="0.6803" style="stop-color:#000;stop-opacity:5.565784e-09"/>
		<stop  offset="0.7253" style="stop-color:#000;stop-opacity:4.779116e-09"/>
		<stop  offset="0.9984" style="stop-color:#000;stop-opacity:0"/>
	</linearGradient>
	<path class="st0" d="M389.7,205.5c-0.4-0.5-4.2-0.9-10.4-1.3c0.1-0.5,0.1-1,0.1-1.5v-54.8c0-71.5-58.2-130.6-129.6-130.6 c-71.5,0-129.6,59.2-129.6,130.6v54.8c0,0.3,0,0.6,0,0.8c-6.4,0.5-10.5,1.2-11.1,2c0,0-10,10.1-10,14.8V449 c0,9.7,7.9,12.7,17.7,14.8c0,0,47,8.4,133.2,8.4s131.9-8.4,131.9-8.4c10.8-2.6,17.7-5.1,17.8-14.8V220.3 C399.7,215.6,389.7,205.5,389.7,205.5z M249.4,201.7c-22.2-0.2-53.7-0.2-81.2,0.2v-54c0-45,36.5-81.5,81.5-81.5s81.5,36.6,81.5,81.5 v54.8c0,0,0,0,0,0C303.5,202.2,271.7,201.9,249.4,201.7z"/>
	<path class="st1" d="M381.9,463.8c0,0-45.7,8.4-131.9,8.4s-133.2-8.4-133.2-8.4c-9.8-2.1-17.7-5.1-17.7-14.8V220.3 c0-4.7,10-14.8,10-14.8c3.3-4,92.8-4.2,140.3-3.8c47.6,0.4,138.5,1.4,140.3,3.8c0,0,10,10.1,10,14.8V449 C399.6,458.7,392.7,461.2,381.9,463.8z"/>
	<path class="st2" d="M102.1,220.5c0,0.8,66.2,1.4,147.9,1.4s147.9-0.6,147.9-1.4c0,2.7-66.2,5-147.9,5S102.1,223.2,102.1,220.5z"/>
	<path class="st3" d="M109.1,205.5c3.3-4,92.8-4.2,140.3-3.8c47.6,0.4,138.5,1.4,140.3,3.8l0,0c0,0,10,10.1,10,14.8 c0,0.8-67.9,1.6-149.6,1.6s-150.9-0.8-150.9-1.6C99.1,215.6,109.1,205.5,109.1,205.5z"/>
	<path class="st4" d="M355.2,218.1c-15.8,0-23.7-4.8-24-15.4v-54.8c0-44.9-36.5-81.5-81.5-81.5s-81.5,36.5-81.5,81.5v54.8 c0.6,10.6-7.6,15.4-24,15.4c-16,0-24-4.8-24-15.4v-54.8c0-71.4,58.1-129.6,129.6-129.6c71.4,0,129.6,58.1,129.6,129.6v54.8 C379.2,213.3,370.5,218.1,355.2,218.1z"/>
	<path class="st5" d="M355.2,190.4v-45.2c0-58.3-47.2-105.5-105.5-105.5c-58.3,0-105.5,47.2-105.5,105.5v45.2"/>
	<path class="st6" d="M355.2,189.4v-45.2c0-58.3-47.2-105.5-105.5-105.5c-58.3,0-105.5,47.2-105.5,105.5v45.2"/>
	<path class="st7" d="M355.2,188.4v-45.2c0-58.3-47.2-105.5-105.5-105.5c-58.3,0-105.5,47.2-105.5,105.5v45.2"/>
	<path class="st8" d="M355.2,187.5v-45.2c0-58.3-47.2-105.5-105.5-105.5c-58.3,0-105.5,47.2-105.5,105.5v45.2"/>
	<path class="st9" d="M355.2,187.5v-45.2c0-58.3-47.2-105.5-105.5-105.5c-58.3,0-105.5,47.2-105.5,105.5v45.2"/>
	<path class="st10" d="M355.2,193.2v-45.2c0-58.3-47.2-105.5-105.5-105.5c-58.3,0-105.5,47.2-105.5,105.5v45.2"/>
	<path class="st11" d="M355.2,193.2v-45.2c0-58.3-47.2-105.5-105.5-105.5c-58.3,0-105.5,47.2-105.5,105.5v45.2"/>
	<path class="st12" d="M355.2,193.2v-45.2c0-58.3-47.2-105.5-105.5-105.5c-58.3,0-105.5,47.2-105.5,105.5v45.2"/>
	<path class="st13" d="M355.2,193.2v-45.2c0-58.3-47.2-105.5-105.5-105.5c-58.3,0-105.5,47.2-105.5,105.5v45.2"/>
	<path class="st14" d="M355.2,193.2v-45.2c0-58.3-47.2-105.5-105.5-105.5c-58.3,0-105.5,47.2-105.5,105.5v45.2"/>
	<path class="st15" d="M355.2,218.1c-13.3,0-24-3.3-24-15.4v-54.8c0-44.9-36.5-81.5-81.5-81.5s-81.5,36.5-81.5,81.5v54.8 c0,12.5-10.8,15.4-24,15.4s-24-3.8-24-15.4v-54.8c0-71.4,58.1-129.6,129.6-129.6c71.4,0,129.6,58.1,129.6,129.6v54.8 C379.2,214.8,368.4,218.1,355.2,218.1z"/>
	<path class="st16" d="M355.2,218.1c-13.3,0-24.4-4.4-24-15.4v-54.8c0-44.9-36.5-81.5-81.5-81.5s-81.5,36.5-81.5,81.5v54.8 c0.2,11.2-10.8,15.4-24,15.4s-24-4.4-24-15.4v-54.8c0-71.4,58.1-129.6,129.6-129.6c71.4,0,129.6,58.1,129.6,129.6v54.8 C379.2,213.5,368.4,218.1,355.2,218.1z"/>
	<path class="st17" d="M155,83.8c21.3-28.8,55.7-49.1,94.5-49.1s73.2,20.3,94.5,49.1c5.9,3.9,11.4,9.8,16.5,14.4 c-2.4-7.1-5.5-15.5-9.3-22C331,41.2,293,17.6,249.5,17.6c-43.3,0-81.1,23.4-101.4,58.1c-3.9,6.6-7.1,15.2-9.6,22.5 C143.5,93.6,149.1,87.8,155,83.8z"/>
	<path class="st18" d="M355.2,216.8c-8.8,0-17.2-2.1-21.9-6.5c3.3,5.3,10.6,7.8,21.9,7.8c11,0,18.6-2.5,22-7.8 C372,214.9,364,216.8,355.2,216.8z"/>
	<path class="st18" d="M144.1,216.8c-8.9,0-16.8-1.8-22.2-6.7c3.2,5.4,10.6,7.9,22.2,7.9c12.2,0,19.9-2.7,22.8-8.4 C161.9,214.7,153.4,216.8,144.1,216.8z"/>
</svg>
