<svg xmlns="http://www.w3.org/2000/svg" width="0" height="0">
	<svg id="icon-chevron-left" viewBox="0 0 240 240">
		<polyline fill="none" stroke="#333" stroke-width="32" stroke-linecap="round" stroke-linejoin="round" points="165,28.75 74,119.75 165.75,211"/>
	</svg>

	<svg id="icon-chevron-right" viewBox="0 0 240 240">
		<polyline fill="none" stroke="#333" stroke-width="32" stroke-linecap="round" stroke-linejoin="round" points="74,211.25 165,120.25 74.25,28"/>
	</svg>

	<svg id="icon-show-all" viewBox="0 0 240 240">
		<rect fill="#333" y="40" width="40" height="40"/>
		<rect fill="#333" x="60" y="40" width="40" height="40"/>
		<rect fill="#333" x="120" y="40" width="40" height="40"/>
		<rect fill="#333" x="180" y="40" width="40" height="40"/>
		<rect fill="#333" y="100" width="40" height="40"/>
		<rect fill="#333" x="60" y="100" width="40" height="40"/>
		<rect fill="#333" x="120" y="100" width="40" height="40"/>
		<rect fill="#333" x="180" y="100" width="40" height="40"/>
		<rect fill="#333" y="160" width="40" height="40"/>
		<rect fill="#333" x="60" y="160" width="40" height="40"/>
		<rect fill="#333" x="120" y="160" width="40" height="40"/>
		<rect fill="#333" x="180" y="160" width="40" height="40"/>
	</svg>

	<svg id="icon-add" viewBox="0 0 500 500">
		<path d="M446.5,226.5h-173v-173c0-13-10.5-23.5-23.5-23.5c-13,0-23.5,10.5-23.5,23.5v173h-173C40.5,226.5,30,237,30,250 c0,13,10.5,23.5,23.5,23.5h173v173c0,13,10.5,23.5,23.5,23.5c13,0,23.5-10.5,23.5-23.5v-173h173c13,0,23.5-10.5,23.5-23.5 C470,237,459.5,226.5,446.5,226.5z"/>
	</svg>

	<svg id="icon-times" viewBox="0 0 500 500">
		<path d="M303,250l149.5-149.5c14.6-14.6,14.6-38.4,0-53s-38.4-14.6-53,0L250,197L100.5,47.5c-14.6-14.6-38.4-14.6-53,0
	s-14.6,38.4,0,53L197,250L47.5,399.5c-14.6,14.6-14.6,38.4,0,53c7.3,7.3,16.9,11,26.5,11s19.2-3.7,26.5-11L250,303l149.5,149.5
	c7.3,7.3,16.9,11,26.5,11s19.2-3.7,26.5-11c14.6-14.6,14.6-38.4,0-53L303,250z"/>
	</svg>

	@import "icon-update.svg"
	@import "icon-security.svg"
	@import "icon-sharing.svg"
	@import "icon-spotlight.svg"
	@import "icon-general.svg"
	@import "icon-desktop.svg"
	@import "icon-users-groups.svg"
	@import "icon-apis.svg"
	@import "icon-date-time.svg"
	@import "icon-keyboard.svg"
	@import "icon-display.svg"
	@import "icon-accessibility.svg"
	@import "icon-flag.svg"
	@import "icon-speaker.svg"
	@import "icon-mouse.svg"
	@import "icon-notifications.svg"
	@import "icon-screensaver.svg"
</svg>
