
<svg id="icon-sharing" xmlns="http://www.w3.org/2000/svg" viewBox="0 0 500 500">
	<style type="text/css">
		.st0{fill:#97DAF8;}
		.st1{fill:#6FC7F1;}
		.st2{opacity:0.4;fill:url(#SVGID_1_);enable-background:new;}
		.st3{opacity:0.4;fill:url(#SVGID_2_);enable-background:new;}
		.st4{opacity:0.4;fill:url(#SVGID_3_);enable-background:new;}
		.st5{fill:#dd2;stroke:#545B28;stroke-width:3;stroke-miterlimit:10;}
	</style>
	<filter x="-6.1%" y="-3.9%" width="112.1%" height="113.2%" filterUnits="objectBoundingBox" id="drop-filter-1">
		<feOffset dx="0" dy="8" in="SourceAlpha" result="dropShadowOffsetOuter1"></feOffset>
		<feGaussianBlur stdDeviation="8" in="dropShadowOffsetOuter1" result="dropShadowBlurOuter1"></feGaussianBlur>
		<feColorMatrix values="0 0 0 0 0   0 0 0 0 0   0 0 0 0 0  0 0 0 0.5 0" type="matrix" in="dropShadowBlurOuter1" result="dropShadowMatrixOuter1"></feColorMatrix>
		<feMerge>
			<feMergeNode in="dropShadowMatrixOuter1"></feMergeNode>
			<feMergeNode in="SourceGraphic"></feMergeNode>
		</feMerge>
	</filter>
	<filter x="-6.1%" y="-3.9%" width="112.1%" height="113.2%" filterUnits="objectBoundingBox" id="drop-filter-2">
		<feOffset dx="0" dy="1.5" in="SourceAlpha" result="dropShadowOffsetOuter1"></feOffset>
		<feGaussianBlur stdDeviation="1.5" in="dropShadowOffsetOuter1" result="dropShadowBlurOuter1"></feGaussianBlur>
		<feColorMatrix values="0 0 0 0 0   0 0 0 0 0   0 0 0 0 0  0 0 0 0.5 0" type="matrix" in="dropShadowBlurOuter1" result="dropShadowMatrixOuter1"></feColorMatrix>
		<feMerge>
			<feMergeNode in="dropShadowMatrixOuter1"></feMergeNode>
			<feMergeNode in="SourceGraphic"></feMergeNode>
		</feMerge>
	</filter>
	<path class="st0" filter="url(#drop-filter-1)" d="M23.4,92.4c0-11.6,9.4-21,21-21c0,0,73.2,0,103.1,0c38.2,0,28,34.4,60.5,34.4c48.4,0,247.6,0,247.6,0
		c11.6,0,21,9.4,21,21v280.7c0,11.6-9.4,21-21,21H44.4c-11.6,0-21-9.4-21-21C23.4,407.6,23.4,92.4,23.4,92.4z"/>
	<path class="st1" d="M23.4,148.5c0-11.6,9.4-21,21-21h411.2c11.6,0,21,9.4,21,21v259.1c0,11.6-9.4,21-21,21H44.4
		c-11.6,0-21-9.4-21-21V148.5z"/>
	<linearGradient id="SVGID_1_" gradientUnits="userSpaceOnUse" x1="353.4328" y1="-315.0153" x2="353.4328" y2="-328.0524" gradientTransform="matrix(0.9766 0 0 -0.9766 -95.162 83.3895)">
		<stop  offset="0" style="stop-color:#FFFFFF;stop-opacity:0.5"/>
		<stop  offset="9.200000e-02" style="stop-color:#E0E1E2;stop-opacity:0.3"/>
		<stop  offset="0.9102" style="stop-color:#4054A4;stop-opacity:0.3"/>
		<stop  offset="1" style="stop-color:#384EA2;stop-opacity:0.5"/>
	</linearGradient>
	<linearGradient id="SVGID_2_" gradientUnits="userSpaceOnUse" x1="353.4328" y1="-328.0524" x2="353.4328" y2="-341.0895" gradientTransform="matrix(0.9766 0 0 -0.9766 -95.162 83.3895)">
		<stop  offset="0" style="stop-color:#FFFFFF;stop-opacity:0.5"/>
		<stop  offset="9.200000e-02" style="stop-color:#E0E1E2;stop-opacity:0.3"/>
		<stop  offset="0.9102" style="stop-color:#4054A4;stop-opacity:0.3"/>
		<stop  offset="1" style="stop-color:#384EA2;stop-opacity:0.5"/>
	</linearGradient>
	<linearGradient id="SVGID_3_" gradientUnits="userSpaceOnUse" x1="353.4318" y1="-341.0905" x2="353.4318" y2="-353.4723" gradientTransform="matrix(0.9766 0 0 -0.9766 -95.162 83.3895)">
		<stop  offset="0" style="stop-color:#FFFFFF;stop-opacity:0.5"/>
		<stop  offset="9.200000e-02" style="stop-color:#E0E1E2;stop-opacity:0.3"/>
		<stop  offset="0.9102" style="stop-color:#4054A4;stop-opacity:0.3"/>
		<stop  offset="1" style="stop-color:#384EA2;stop-opacity:0.5"/>
	</linearGradient>
	<path class="st5" d="M364.1,281.6L257.6,388.1c-4.2,4.2-11,4.2-15.2,0L135.9,281.6c-4.2-4.2-4.2-11,0-15.2l106.5-106.5
	c4.2-4.2,11-4.2,15.2,0l106.5,106.5C368.3,270.6,368.3,277.4,364.1,281.6z"/>
	<circle cx="241" cy="216.2" r="10.9"/>
	<path d="M207.1,263c3-0.5,15.1-2.6,15.8-2.8c0.8-0.3,0,0,0.3-0.4c0.3-0.4,10.8-22.7,11.8-23.8c1-1.2,3.9-4.1,7.9-5.4
		c4-1.3,8,0.8,8,0.8s19.8,11.3,21.1,12c1.3,0.6,2.4,3,2.4,3l9.3,17.4c0.8,1,1.2,2.2,1.2,3.5c0,3.1-2.5,5.6-5.6,5.6
		c-2.6,0-4.9-1.8-5.4-4.3l-8.6-16.3l-5.4-3c0.4,1.2,5.3,25.3,5.3,25.3l5,28.6l17.6,21.2c1.3,1.2,2.1,2.9,2.1,4.7
		c0,3.6-2.9,6.5-6.5,6.5c-2.2,0-4.1-1.1-5.3-2.7c-3.2-3.8-19.4-22.9-21-24.7c-1.7-2.1-2.2-3.1-2.4-4.4c-0.3-1.4-3.2-18.8-3.2-18.8
		l-16.6,16.6v29.3h0c-0.3,3.3-3.1,5.8-6.5,5.8c-3.4,0-6.1-2.6-6.5-5.8h0c0,0,0-0.2,0-0.6c0,0,0-0.1,0-0.1c0,0,0-0.1,0-0.1
		c0-4.5,0.2-26.7,0-31.7c-0.2-5.6,1.8-6.8,2.3-7.3c0.5-0.5,16-17,16-17l-3.4-16.5c0,0-4.4,8.7-4.9,9.7c-0.5,1-1.9,2.7-3.3,3
		c-1.5,0.3-20,4.1-20,4.1l0,0c-0.3,0-0.5,0.1-0.8,0.1c-3,0-5.5-2.5-5.5-5.5C202.1,265.6,204.3,263.3,207.1,263z"/>
</svg>
