
<svg id="icon-spotlight" xmlns="http://www.w3.org/2000/svg" viewBox="0 0 44 44">
	<style type="text/css">
		.st0{fill:url(#SVGID_1_);}
		.st1{fill:url(#SVGID_2_);}
		.st2{fill:#FFFFFF;}
	</style>
	<linearGradient id="SVGID_1_" gradientUnits="userSpaceOnUse" x1="22" y1="-245.989" x2="22" y2="-286.011" gradientTransform="matrix(1 0 0 -1 0 -244)">
		<stop  offset="0" style="stop-color:#FFFFFF"/>
		<stop  offset="1" style="stop-color:#DDDDDD"/>
	</linearGradient>
	<circle class="st0" cx="22" cy="22" r="20"/>
	<linearGradient id="SVGID_2_" gradientUnits="userSpaceOnUse" x1="22.0443" y1="-248.6111" x2="22.0443" y2="-283.3003" gradientTransform="matrix(1 0 0 -1 0 -244)">
		<stop  offset="0" style="stop-color:#9999FF"/>
		<stop  offset="1" style="stop-color:#3333FF"/>
	</linearGradient>
	<circle class="st1" cx="22" cy="22" r="17.3"/>
	<path class="st2" d="M32,30.4l-7-7c1-1.4,1.6-3.1,1.6-4.9c0-4.5-3.6-8.1-8.1-8.1c-4.5,0-8.1,3.6-8.1,8.1c0,4.5,3.6,8.1,8.1,8.1
		c1.8,0,3.5-0.6,4.9-1.6l7,7c0.2,0.2,0.5,0.3,0.8,0.3s0.6-0.1,0.8-0.3C32.4,31.6,32.4,30.9,32,30.4z M12.7,18.6
		c0-3.3,2.6-5.9,5.9-5.9c3.3,0,5.9,2.6,5.9,5.9c0,3.3-2.6,5.9-5.9,5.9C15.3,24.5,12.7,21.8,12.7,18.6z"/>
</svg>
