
<svg id="icon-padlock-open" xmlns="http://www.w3.org/2000/svg" viewBox="0 0 31 31">
	<style type="text/css">
		.st0{opacity:0.6;enable-background:new    ;}
		.st1{fill:url(#SVGID_1_);}
		.st2{opacity:0.5;fill:url(#SVGID_2_);enable-background:new    ;}
		.st3{opacity:0.5;fill:#FFFFFF;enable-background:new    ;}
		.st4{fill:#717172;}
		.st5{fill:#848484;}
		.st6{fill:#999999;}
		.st7{fill:#ADADAD;}
		.st8{fill:#D1D1D1;}
		.st9{fill:#F2F2F2;}
		.st10{fill:#C9C9C9;}
		.st11{fill:#A8A8A8;}
		.st12{fill:#959596;}
		.st13{fill:#818184;}
		.st14{fill:#4F4F51;}
		.st15{fill:url(#SVGID_3_);}
		.st16{fill:url(#SVGID_4_);}
		.st17{fill:url(#SVGID_5_);}
		.st18{opacity:0.35;fill:#222222;enable-background:new    ;}
		.st19{opacity:0.54;fill:url(#SVGID_6_);enable-background:new    ;}
	</style>
	<linearGradient id="SVGID_1_" gradientUnits="userSpaceOnUse" x1="6.769" y1="9.718" x2="24.231" y2="9.718" gradientTransform="matrix(1 0 0 -1 0 31)">
		<stop  offset="0" style="stop-color:#EAA228"/>
		<stop  offset="0.1428" style="stop-color:#F0BB57"/>
		<stop  offset="0.6047" style="stop-color:#FDE29D"/>
		<stop  offset="0.92" style="stop-color:#E1AB4B"/>
		<stop  offset="1" style="stop-color:#F5BC48"/>
	</linearGradient>
	<linearGradient id="SVGID_2_" gradientUnits="userSpaceOnUse" x1="6.7752" y1="8.9131" x2="9.2994" y2="8.9131" gradientTransform="matrix(1 0 0 -1 0 31)">
		<stop  offset="0" style="stop-color:#D7901B"/>
		<stop  offset="1" style="stop-color:#DD8038"/>
	</linearGradient>
	<linearGradient id="SVGID_3_" gradientUnits="userSpaceOnUse" x1="15.4264" y1="17.0203" x2="15.4264" y2="29.5666" gradientTransform="matrix(1 0 0 -1 0 31)">
		<stop  offset="0" style="stop-color:#777777"/>
		<stop  offset="0.3073" style="stop-color:#999999;stop-opacity:0.9"/>
		<stop  offset="0.3234" style="stop-color:#999999;stop-opacity:0.879"/>
		<stop  offset="0.9984" style="stop-color:#999999;stop-opacity:0"/>
	</linearGradient>
	<linearGradient id="SVGID_4_" gradientUnits="userSpaceOnUse" x1="15.4264" y1="29.5666" x2="15.4264" y2="17.0203" gradientTransform="matrix(1 0 0 -1 0 31)">
		<stop  offset="0" style="stop-color:#FFFFFF;stop-opacity:0.5"/>
		<stop  offset="9.334087e-02" style="stop-color:#FBFBFB;stop-opacity:0.4314"/>
		<stop  offset="0.1798" style="stop-color:#F0F0F0;stop-opacity:0.3678"/>
		<stop  offset="0.2636" style="stop-color:#DDDDDD;stop-opacity:0.3062"/>
		<stop  offset="0.3458" style="stop-color:#C3C3C3;stop-opacity:0.2459"/>
		<stop  offset="0.4268" style="stop-color:#A1A1A1;stop-opacity:0.1863"/>
		<stop  offset="0.5068" style="stop-color:#777777;stop-opacity:0.1275"/>
		<stop  offset="0.5862" style="stop-color:#454545;stop-opacity:6.914780e-02"/>
		<stop  offset="0.6632" style="stop-color:#0E0E0E;stop-opacity:1.258865e-02"/>
		<stop  offset="0.6803" style="stop-color:#000000;stop-opacity:5.565784e-09"/>
		<stop  offset="0.7253" style="stop-color:#000000;stop-opacity:4.779116e-09"/>
		<stop  offset="0.9984" style="stop-color:#000000;stop-opacity:0"/>
	</linearGradient>
	<radialGradient id="SVGID_5_" cx="52.8586" cy="21.9417" r="3.7485" fx="52.864" fy="20.7078" gradientTransform="matrix(1.1894 0 0 -1.6286 -47.4498 39.4244)" gradientUnits="userSpaceOnUse">
		<stop  offset="0" style="stop-color:#FFFFFF;stop-opacity:0.8"/>
		<stop  offset="1" style="stop-color:#FFFFFF;stop-opacity:0"/>
	</radialGradient>
	<linearGradient id="SVGID_6_" gradientUnits="userSpaceOnUse" x1="8.8207" y1="16.1561" x2="11.963" y2="16.1561" gradientTransform="matrix(1 0 0 -1 0 31)">
		<stop  offset="0" style="stop-color:#6C480E"/>
		<stop  offset="0.5103" style="stop-color:#37200E"/>
		<stop  offset="1" style="stop-color:#844514"/>
	</linearGradient>
	<g class="st0">
		<path d="M24.2,13.6c-0.2-0.2-1-0.4-1.6-0.6V8.8c0-4.3-3.1-7.5-7.2-7.5S8.3,4.3,8.3,8.5v1.9c0,0.6,0.5,0.9,1.4,0.9 c0.9,0,1.4-0.3,1.4-0.9V8.5c0-2.6,1.8-4.3,4.4-4.3s4.4,2.1,4.4,4.7v4.1c-4.3,0.1-10.5,0.7-13,1.6c0,1.1,0,13,0,13.8 c0.4,0.6,1.6,1.2,2.3,1.5c6.6,0,15.1-2.5,15.1-2.8C24.2,26.6,24.3,14.5,24.2,13.6z"/>
		<path d="M9.3,30c0,0-0.1,0-0.1,0l0,0l0,0c-0.8-0.2-2.1-0.9-2.5-1.6l0-0.1V14.3l0.2-0.1c2.5-0.8,8.4-1.4,12.8-1.6V8.8 c0-1.2-0.4-2.3-1.2-3.1c-0.8-0.8-1.8-1.3-2.9-1.3c-2.4,0-4.1,1.7-4.1,4v1.9c0,0.3-0.1,0.6-0.3,0.8c-0.3,0.3-0.7,0.4-1.4,0.4 c-0.8,0-1.7-0.2-1.7-1.2V8.5c0-2.1,0.8-4.1,2.1-5.4C11.4,1.7,13.3,1,15.4,1c4.3,0,7.5,3.4,7.5,7.8v3.9c0.9,0.2,1.4,0.4,1.6,0.6 l0.1,0.1l0,0.1c0,0.6,0,4.8,0,12.7c0,0.4,0,0.6,0,0.7c0,0.1,0,0.2-0.1,0.3c-0.1,0.1-0.2,0.2-1.8,0.7c-1,0.3-2.3,0.6-3.7,0.9 C16.9,29.2,12.9,30,9.3,30z M9.2,29.4C9.2,29.4,9.2,29.4,9.2,29.4c6.2,0,13.7-2.1,14.7-2.6c0-0.1,0-0.3,0-0.5c0-7.4,0-11.6,0-12.5 c-0.2-0.1-0.6-0.3-1.4-0.4l-0.3,0V8.8c0-4.1-2.9-7.2-6.9-7.2c-1.9,0-3.6,0.7-4.9,1.9c-1.2,1.2-1.9,3-1.9,5v1.9c0,0.2,0,0.6,1.1,0.6 c0.6,0,0.9-0.1,1-0.2c0,0,0.1-0.1,0.1-0.3l0,0V8.5c0-1.3,0.5-2.5,1.3-3.4c0.8-0.8,2-1.3,3.4-1.3c1.3,0,2.5,0.5,3.4,1.5 c0.9,0.9,1.3,2.2,1.3,3.5v4.4l-0.3,0c-4.3,0.1-10.2,0.7-12.7,1.5v13.4C7.4,28.6,8.5,29.2,9.2,29.4z"/>
	</g>
	<path class="st1" d="M24.2,13.6c0,1,0,13,0,13.3c0,0.3-8.5,2.8-15.1,2.8c-0.7-0.2-2-0.9-2.3-1.5c0-0.8,0-12.6,0-13.8 c2.9-1,10.7-1.6,14.8-1.6C22,12.9,23.9,13.2,24.2,13.6z"/>
	<path class="st2" d="M9.1,29.7c-0.7-0.2-2-0.9-2.3-1.5c0-0.8,0-12.6,0-13.8c0.4,0.5,2.3,1.3,2.5,1.4C9.3,16.9,9.1,28.6,9.1,29.7z"/>
	<path class="st3" d="M6.8,14.5c2.9-1,11.2-1.7,14.8-1.6c0.4,0,2.3,0.3,2.6,0.7h0c-1.2,0.4-4.8,1.4-8,1.8c-4,0.5-6.2,0.5-6.9,0.5 C9.1,15.9,7,14.9,6.8,14.5L6.8,14.5L6.8,14.5z"/>
	<path class="st3" d="M9.2,29.3c0.1-2.9,0.1-13.1,0.4-13.1c0.8-0.1,2.5-0.1,6.5-0.6c3.6-0.5,6.7-1.5,8.1-2c-3.3,0.9-9.3,2.1-14.9,2.2 c-0.5-0.1-2-0.9-2.5-1.3C7.2,15,9,16,9.1,16.1C9.1,17,9.2,28.1,9.2,29.3z"/>
	<path class="st4" d="M21.2,14c-0.9,0-1.4-0.3-1.4-0.9V8.8c0-2.6-1.9-4.7-4.4-4.7S11,6,11,8.5v1.9c0,0.6-0.4,0.9-1.4,0.9 c-0.9,0-1.4-0.3-1.4-0.9V8.5c0-4.1,3-7.1,7.1-7.1s7.2,3.3,7.2,7.4v4.3C22.6,13.7,22.1,14,21.2,14z"/>
	<path class="st5" d="M21.2,13.7c-0.8,0-1.4-0.6-1.4-1.4V8.6c0-1.3-0.4-2.4-1.3-3.3C17.7,4.5,16.6,4,15.4,4c-2.6,0-4.3,1.8-4.3,4.3 v1.5c0,0.8-0.6,1.4-1.4,1.4s-1.4-0.6-1.4-1.4V8.3c0-2,0.7-3.8,2-5.1c1.3-1.3,3.1-2,5.1-2c4,0,7.2,3.3,7.2,7.4v3.7 C22.6,13.1,22,13.7,21.2,13.7z"/>
	<path class="st6" d="M21.2,13.7c-0.7,0-1.3-0.6-1.3-1.3V8.6c0-1.3-0.5-2.5-1.3-3.3c-0.8-0.9-2-1.3-3.2-1.3c-2.6,0-4.4,1.8-4.4,4.4 v1.5c0,0.7-0.6,1.3-1.3,1.3s-1.3-0.6-1.3-1.3V8.3c0-2,0.7-3.8,2-5.1c1.3-1.3,3.1-2,5.1-2c4,0,7.1,3.2,7.1,7.4v3.7 C22.5,13.1,21.9,13.7,21.2,13.7z"/>
	<path class="st7" d="M21.2,13.5c-0.7,0-1.2-0.6-1.2-1.2V8.6c0-1.3-0.5-2.5-1.3-3.4c-0.8-0.9-2-1.4-3.2-1.4c-2.6,0-4.5,1.8-4.5,4.5 v1.5c0,0.7-0.6,1.2-1.2,1.2s-1.2-0.6-1.2-1.2V8.3c0-1.9,0.7-3.7,2-5c1.3-1.3,3.1-2,5-2c3.9,0,7,3.2,7,7.3v3.7 C22.4,13,21.9,13.5,21.2,13.5z"/>
	<path class="st8" d="M21.2,13.3c-0.6,0-1.1-0.5-1.1-1.1V8.5c0-1.3-0.5-2.6-1.4-3.5c-0.9-0.9-2.1-1.4-3.4-1.4c-2.7,0-4.7,1.9-4.7,4.6 v1.5c0,0.6-0.5,1.1-1.1,1.1s-1.1-0.5-1.1-1.1V8.2c0-1.9,0.7-3.6,1.9-4.9c1.2-1.2,3-1.9,4.9-1.9c3.9,0,6.9,3.1,6.9,7.1v3.7 C22.3,12.8,21.8,13.3,21.2,13.3z"/>
	<path class="st9" d="M21.2,13.2c-0.5,0-0.9-0.4-0.9-0.9V8.5c0-1.4-0.5-2.7-1.4-3.6c-0.9-1-2.1-1.5-3.5-1.5c-2.8,0-4.8,2-4.8,4.8v1.5 c0,0.5-0.4,0.9-0.9,0.9s-0.9-0.4-0.9-0.9V8.2c0-1.9,0.7-3.5,1.9-4.8c1.2-1.2,2.9-1.9,4.8-1.9c3.8,0,6.7,3.1,6.7,7v3.7 C22.1,12.7,21.7,13.2,21.2,13.2z"/>
	<path class="st10" d="M21.2,13.3c-0.4,0-0.8-0.3-0.8-0.8V8.8c0-1.4-0.5-2.7-1.4-3.7c-0.9-1-2.2-1.5-3.6-1.5c-1.4,0-2.7,0.5-3.6,1.4 c-0.9,0.9-1.4,2.2-1.4,3.6v1.4c0,0.4-0.3,0.8-0.8,0.8c-0.4,0-0.8-0.3-0.8-0.8V8.5c0-1.8,0.7-3.5,1.9-4.7C11.9,2.7,13.6,2,15.4,2 C19.1,2,22,5,22,8.8v3.7C22,13,21.6,13.3,21.2,13.3z"/>
	<path class="st11" d="M21.2,13.2c-0.4,0-0.7-0.3-0.7-0.7V8.8C20.5,7.4,20,6,19,5c-0.9-1-2.2-1.6-3.6-1.6c-1.4,0-2.7,0.5-3.6,1.4 c-0.9,0.9-1.4,2.2-1.4,3.6v1.4c0,0.4-0.3,0.7-0.7,0.7C9.3,10.6,9,10.3,9,9.9V8.5c0-3.7,2.7-6.4,6.4-6.4c3.6,0,6.5,2.9,6.5,6.7v3.7 C21.9,12.9,21.6,13.2,21.2,13.2z"/>
	<path class="st12" d="M21.2,13.1c-0.3,0-0.6-0.3-0.6-0.6V8.8c0-1.5-0.5-2.9-1.5-3.9c-1-1-2.3-1.6-3.7-1.6c-1.5,0-2.8,0.5-3.7,1.4 c-0.9,0.9-1.5,2.3-1.5,3.7v1.4c0,0.3-0.3,0.6-0.6,0.6s-0.6-0.3-0.6-0.6V8.5c0-3.6,2.6-6.3,6.3-6.3c3.6,0,6.4,2.9,6.4,6.6v3.7 C21.8,12.9,21.5,13.1,21.2,13.1z"/>
	<path class="st13" d="M21.2,12.9c-0.2,0-0.3-0.2-0.3-0.3V8.8c0-1.5-0.6-3-1.6-4c-1-1.1-2.4-1.7-3.9-1.7c-1.5,0-2.9,0.5-3.9,1.5 c-1,1-1.5,2.3-1.5,3.9v1.4c0,0.2-0.2,0.3-0.3,0.3s-0.3-0.2-0.3-0.3V8.5c0-3.5,2.6-6.1,6.1-6.1c3.4,0,6.1,2.8,6.1,6.4v3.7 C21.5,12.7,21.4,12.9,21.2,12.9z"/>
	<path class="st14" d="M21.2,12.7c-0.1,0-0.2-0.1-0.2-0.2V8.8c0-1.6-0.6-3.1-1.6-4.2c-1-1.1-2.5-1.7-4-1.7c-1.6,0-3,0.6-4,1.6 c-1,1-1.6,2.4-1.6,4v1.4c0,0.1-0.1,0.2-0.2,0.2S9.5,10,9.5,9.9V8.5c0-3.4,2.5-5.9,5.9-5.9c1.6,0,3.1,0.6,4.3,1.8 c1.1,1.2,1.7,2.7,1.7,4.4v3.7C21.3,12.6,21.3,12.7,21.2,12.7z"/>
	<path class="st15" d="M21.2,14c-0.8,0-1.4-0.2-1.4-0.9V8.8c0-2.6-1.9-4.7-4.4-4.7S11,6,11,8.5v1.9c0,0.7-0.6,0.9-1.4,0.9 s-1.4-0.2-1.4-0.9V8.5c0-4.1,3-7.1,7.1-7.1s7.2,3.3,7.2,7.4v4.3C22.6,13.8,22,14,21.2,14z"/>
	<path class="st16" d="M21.2,14c-0.8,0-1.4-0.2-1.4-0.9V8.8c0-2.6-1.9-4.7-4.4-4.7S11,6,11,8.5v1.9c0,0.6-0.6,0.9-1.4,0.9 s-1.4-0.2-1.4-0.9V8.5c0-4.1,3-7.1,7.1-7.1s7.2,3.3,7.2,7.4v4.3C22.6,13.7,22,14,21.2,14z"/>
	<path class="st17" d="M10.3,5.2c1.2-1.6,2.9-2.8,5.1-2.8s3.9,1.2,5.2,2.8c0.3,0.2,0.7,0.6,0.9,0.8c-0.1-0.4-0.3-0.9-0.5-1.3 c-1.2-2-3.1-3.3-5.6-3.3c-2.5,0-4.3,1.3-5.5,3.3C9.7,5.1,9.5,5.6,9.3,6C9.6,5.7,9.9,5.4,10.3,5.2z"/>
	<path class="st18" d="M21.2,13.9c-0.5,0-1-0.1-1.2-0.4C20.1,13.8,20.5,14,21.2,13.9c0.6,0.1,1.1-0.1,1.3-0.4 C22.2,13.8,21.7,13.9,21.2,13.9z"/>
	<path class="st18" d="M9.7,11.3c-0.5,0-1-0.1-1.3-0.4C8.6,11.2,9,11.3,9.7,11.3c0.7,0.1,1.1-0.1,1.3-0.4 C10.7,11.1,10.2,11.3,9.7,11.3z"/>
	<ellipse class="st19" cx="10.4" cy="14.8" rx="1.6" ry="0.5"/>
</svg>
