<?xml version="1.0" encoding="utf-8"?>
<!-- Generator: Adobe Illustrator 24.0.2, SVG Export Plug-In . SVG Version: 6.00 Build 0)  -->
<svg version="1.1" id="icon-date-time" xmlns="http://www.w3.org/2000/svg" xmlns:xlink="http://www.w3.org/1999/xlink" x="0px"
	 y="0px" viewBox="0 0 500 500" style="enable-background:new 0 0 500 500;" xml:space="preserve">
<style type="text/css">
	.st0{fill:url(#SVGID_1_);}
	.st1{fill:#FFFFFF;}
	.st2{fill:url(#Oval_3_);}
	.st3{font-family:'Helvetica';}
	.st4{font-size:37.1622px;}
	.st5{fill:#2B2A2A;}
	.st6{fill:#FF9500;}
	.st7{fill:#FFFFFF;stroke:#000000;stroke-width:2;stroke-miterlimit:10;}
	.st8{fill:url(#SVGID_2_);stroke:#000000;stroke-width:2;stroke-miterlimit:10;}
</style>
<linearGradient id="SVGID_1_" gradientUnits="userSpaceOnUse" x1="195.2" y1="322.2162" x2="195.2" y2="648.1327" gradientTransform="matrix(1 0 0 1 0 -290)">
	<stop  offset="0" style="stop-color:#BBBBBB"/>
	<stop  offset="1" style="stop-color:#999999"/>
</linearGradient>
<circle class="st0" cx="195.2" cy="195.2" r="175"/>
<path class="st1" d="M247.1,212.6h211.2c8.9,0,16.2,7.2,16.2,16.2v231.3c0,8.9-7.2,16.2-16.2,16.2H247.1c-8.9,0-16.2-7.2-16.2-16.2
	V228.8C231,219.9,238.2,212.6,247.1,212.6z"/>
<linearGradient id="Oval_3_" gradientUnits="userSpaceOnUse" x1="-4.2538" y1="-95.0038" x2="-4.2538" y2="-89.0423" gradientTransform="matrix(52 0 0 52 416 4980)">
	<stop  offset="0" style="stop-color:#F5F4F9"/>
	<stop  offset="1" style="stop-color:#EEEEEE"/>
</linearGradient>
<circle id="Oval" class="st2" cx="194.8" cy="194.8" r="155"/>
<g>
	<text transform="matrix(1 0 0 1 244.0843 105.5952)" class="st3 st4">1</text>
	<text transform="matrix(1 0 0 1 288.9276 150.2871)" class="st3 st4">2</text>
	<text transform="matrix(1 0 0 1 306.7622 207.1204)" class="st3 st4">3</text>
	<text transform="matrix(1 0 0 1 174.6526 87.89)" class="st3 st4">12</text>
	<text transform="matrix(1 0 0 1 116.0987 105.5952)" class="st3 st4">11</text>
	<text transform="matrix(1 0 0 1 67.2669 150.2874)" class="st3 st4">10</text>
	<text transform="matrix(1 0 0 1 64.6456 207.1756)" class="st3 st4">9</text>
	<text transform="matrix(1 0 0 1 77.7125 269.8629)" class="st3 st4">8</text>
	<text transform="matrix(1 0 0 1 121.3826 310.8818)" class="st3 st4">7</text>
	<text transform="matrix(1 0 0 1 185.0155 329.5307)" class="st3 st4">6</text>
</g>
<g id="Arrows" transform="translate(18.000000, 11.000000)">
	<path id="Arrow" class="st5" d="M116.9,109.9L116.9,109.9L116.9,109.9c1-0.8,2.4-0.5,3.2,0.4l57.9,70.3l0,0c0.8,1,0.5,2.4-0.4,3.2
		l0,0l0,0c-1,0.8-2.4,0.5-3.2-0.4L116.5,113l0,0C116,111.9,115.9,110.7,116.9,109.9z"/>
	<path id="Arrow_1_" class="st5" d="M177.4,183.3L177.4,183.3L177.4,183.3c-0.7-0.6-0.8-1.8-0.4-2.9l0,0l85-103l0,0
		c0.6-0.7,1.8-0.8,2.9-0.4l0,0l0,0c0.7,0.6,0.8,1.8,0.4,2.9l0,0l-85,103l0,0C179.5,184.2,178.3,184.3,177.4,183.3z"/>
	<path id="Arrow_2_" class="st6" d="M184,163.5L184,163.5L184,163.5c0.8,0.4,1.2,1.2,0.8,2l-50.5,147.1l0,0c-0.4,0.8-1.2,1.2-2,0.8
		l0,0l0,0l0,0c-0.8-0.4-1.2-1.2-0.8-2L182,164.3l0,0C182.4,163.5,183.2,163.1,184,163.5L184,163.5z"/>
	<path id="Oval_1_" class="st5" d="M176.8,176.2c4,0,7.6,3.2,7.6,7.6c0,4-3.2,7.6-7.6,7.6c-4,0-7.6-3.2-7.6-7.6
		C169.2,179.8,172.8,176.2,176.8,176.2z"/>
	<circle id="Oval_2_" class="st6" cx="176.8" cy="183.8" r="6"/>
</g>
<path class="st7" d="M247.1,212.6h211.2c8.9,0,16.2,7.2,16.2,16.2v231.3c0,8.9-7.2,16.2-16.2,16.2H247.1c-8.9,0-16.2-7.2-16.2-16.2
	V228.8C231,219.9,238.2,212.6,247.1,212.6z"/>
<linearGradient id="SVGID_2_" gradientUnits="userSpaceOnUse" x1="352.75" y1="217.1" x2="352.75" y2="289.4" gradientTransform="matrix(1 0 0 -1 0 502)">
	<stop  offset="0" style="stop-color:#CC0003"/>
	<stop  offset="1" style="stop-color:#FF5559"/>
</linearGradient>
<path class="st8" d="M474.5,284.9v-57.3c0-8.3-6.7-15-15-15H246c-8.3,0-15,6.7-15,15v57.3H474.5z"/>
<path class="st1" d="M292.1,260.9l5.6-0.8c0.1,3.6,0.8,6.1,2,7.4s2.9,2,5,2c1.6,0,2.9-0.4,4.1-1.1c1.1-0.7,1.9-1.7,2.4-2.9
	c0.4-1.2,0.6-3.2,0.6-5.9V227h6.3v32.3c0,4-0.5,7-1.4,9.2c-1,2.2-2.5,3.8-4.6,5c-2.1,1.1-4.5,1.7-7.3,1.7c-4.2,0-7.3-1.2-9.5-3.6
	C293.1,269.1,292,265.6,292.1,260.9z"/>
<path class="st1" d="M359.4,227h6.3v27.3c0,4.8-0.5,8.5-1.6,11.3c-1.1,2.8-3,5.1-5.8,6.8c-2.8,1.8-6.5,2.6-11.1,2.6
	c-4.4,0-8.1-0.8-10.9-2.3s-4.8-3.7-6-6.6s-1.8-6.8-1.8-11.9V227h6.3v27.3c0,4.1,0.4,7.1,1.1,9.1c0.8,1.9,2.1,3.4,3.9,4.5
	s4.1,1.6,6.8,1.6c4.6,0,7.9-1,9.8-3.1c2-2.1,2.9-6.1,2.9-12V227H359.4z"/>
<path class="st1" d="M376.1,274.3V227h6.4l24.9,37.2V227h6v47.3H407l-24.9-37.2v37.2H376.1z"/>
<path d="M391.7,345.8l-15.2,1.2c-1.4-6-3.3-10.4-5.8-13.1c-4.1-4.4-9.2-6.5-15.3-6.5c-4.9,0-9.2,1.4-12.8,4.1
	c-4.8,3.5-8.6,8.6-11.4,15.4c-2.8,6.7-4.2,16.4-4.3,28.8c3.7-5.6,8.2-9.8,13.5-12.5s10.9-4.1,16.7-4.1c10.2,0,18.9,3.8,26.1,11.3
	s10.8,17.2,10.8,29.1c0,7.8-1.7,15.1-5.1,21.8c-3.4,6.7-8,11.9-13.9,15.4c-5.9,3.6-12.6,5.4-20.1,5.4c-12.8,0-23.2-4.7-31.2-14.1
	s-12.1-24.8-12.1-46.4c0-24.1,4.4-41.6,13.3-52.5c7.8-9.5,18.2-14.3,31.4-14.3c9.8,0,17.8,2.8,24.1,8.2
	C386.7,328.5,390.4,336.1,391.7,345.8z M329.2,399.5c0,5.3,1.1,10.3,3.4,15.1c2.2,4.8,5.4,8.5,9.4,11s8.2,3.8,12.7,3.8
	c6.5,0,12-2.6,16.7-7.8c4.6-5.2,7-12.3,7-21.3c0-8.6-2.3-15.4-6.9-20.4s-10.4-7.4-17.3-7.4s-12.8,2.5-17.6,7.4
	C331.6,384.9,329.2,391.4,329.2,399.5z"/>
</svg>
