
<svg id="icon-notifications" xmlns="http://www.w3.org/2000/svg" viewBox="0 0 500 500">
	<filter x="-17%" y="-17%" width="137%" height="137%" filterUnits="objectBoundingBox" id="drop-filter">
		<feOffset dx="0" dy="3" in="SourceAlpha" result="dropShadowOffsetOuter1"></feOffset>
		<feGaussianBlur stdDeviation="3" in="dropShadowOffsetOuter1" result="dropShadowBlurOuter1"></feGaussianBlur>
		<feColorMatrix values="0 0 0 0 0   0 0 0 0 0   0 0 0 0 0  0 0 0 0.5 0" type="matrix" in="dropShadowBlurOuter1" result="dropShadowMatrixOuter1"></feColorMatrix>
		<feMerge>
			<feMergeNode in="dropShadowMatrixOuter1"></feMergeNode>
			<feMergeNode in="SourceGraphic"></feMergeNode>
		</feMerge>
	</filter>
	<style type="text/css">
		.st0{fill:url(#SVGID_1_);}
		.st1{filter:url(#drop-filter);}
		.st2{fill:#FFFFFF;}
		.st6{fill:none;stroke:#FFFFFF;stroke-width:15;}
	</style>
	<linearGradient id="SVGID_1_" gradientUnits="userSpaceOnUse" x1="250" y1="465.3" x2="250" y2="38.7" gradientTransform="matrix(1 0 0 -1 0 502)">
		<stop  offset="0" style="stop-color:#b7b"/>
		<stop  offset="1" style="stop-color:#636"/>
	</linearGradient>
	<path class="st0" d="M384.1,463.3H115.9c-43.7,0-79.2-35.5-79.2-79.2V115.9c0-43.7,35.5-79.2,79.2-79.2h268.3
		c43.7,0,79.2,35.5,79.2,79.2v268.3C463.3,427.8,427.8,463.3,384.1,463.3z"/>
	<g class="st1">
		<path class="st2" d="M250,376.9c16.2,0,29.3-13.1,29.3-29.3h-58.5C220.7,363.8,233.8,376.9,250,376.9z"/>
		<path class="st2" d="M347.6,308.5c-18.7-18.7-29.3-44.2-29.3-70.7V211c0-30.9-20.6-57.1-48.8-65.5v-2.8c0-10.8-8.7-19.5-19.5-19.5
			s-19.5,8.7-19.5,19.5v2.8c-28.2,8.4-48.8,34.5-48.8,65.5v26.9c0,26.5-10.5,51.9-29.3,70.7c-5.4,0-9.8,4.4-9.8,9.8s4.4,9.8,9.8,9.8
			h195.2c5.4,0,9.8-4.4,9.8-9.8C357.3,312.9,353,308.5,347.6,308.5z"/>
	</g>
	<path class="st6" d="M385.9,432.5H114.1c-25.8,0-46.6-20.9-46.6-46.6V114.1c0-25.8,20.9-46.6,46.6-46.6h271.7
		c25.8,0,46.6,20.9,46.6,46.6v271.7C432.5,411.6,411.6,432.5,385.9,432.5z"/>
</svg>
