
<svg id="icon-notifications" xmlns="http://www.w3.org/2000/svg" viewBox="0 0 500 500">
	<filter x="-17%" y="-17%" width="137%" height="137%" filterUnits="objectBoundingBox" id="drop-filter">
		<feOffset dx="0" dy="3" in="SourceAlpha" result="dropShadowOffsetOuter1"></feOffset>
		<feGaussianBlur stdDeviation="3" in="dropShadowOffsetOuter1" result="dropShadowBlurOuter1"></feGaussianBlur>
		<feColorMatrix values="0 0 0 0 0   0 0 0 0 0   0 0 0 0 0  0 0 0 0.5 0" type="matrix" in="dropShadowBlurOuter1" result="dropShadowMatrixOuter1"></feColorMatrix>
		<feMerge>
			<feMergeNode in="dropShadowMatrixOuter1"></feMergeNode>
			<feMergeNode in="SourceGraphic"></feMergeNode>
		</feMerge>
	</filter>
	<style type="text/css">
		.st0{fill:url(#SVGID_1_);}
		.st1{fill:url(#SVGID_2_);}
		.st2{fill:#fff;}
		.st3{fill:#ED1C24;stroke:#fff;stroke-width:10;stroke-miterlimit:10;}
		.st4{fill:#fff;stroke:#fff;stroke-width:5;stroke-miterlimit:10;}
	</style>
	<linearGradient id="SVGID_1_" gradientUnits="userSpaceOnUse" x1="250" y1="36.6904" x2="250" y2="463.3096">
		<stop  offset="0" style="stop-color:#fff"/>
		<stop  offset="1" style="stop-color:#ddd"/>
	</linearGradient>
	<path class="st0" d="M375.9,463.3H124.1c-48.3,0-87.4-39.1-87.4-87.4V124.1c0-48.3,39.1-87.4,87.4-87.4h251.8
		c48.3,0,87.4,39.1,87.4,87.4v251.8C463.3,424.2,424.2,463.3,375.9,463.3z"/>
	<linearGradient id="SVGID_2_" gradientUnits="userSpaceOnUse" x1="250" y1="55.2001" x2="250" y2="444.7999">
		<stop  offset="0" style="stop-color:#3bb"/>
		<stop  offset="1" style="stop-color:#077"/>
	</linearGradient>
	<path class="st1" d="M372.5,444.8h-245c-39.9,0-72.3-32.4-72.3-72.3v-245c0-39.9,32.4-72.3,72.3-72.3h245
		c39.9,0,72.3,32.4,72.3,72.3v245C444.8,412.4,412.4,444.8,372.5,444.8z"/>
	<g filter="url(#drop-filter)">
		<path class="st2" d="M250,376.9c16.2,0,29.3-13.1,29.3-29.3h-58.5C220.7,363.8,233.8,376.9,250,376.9z"/>
		<path class="st2" d="M347.6,308.5c-18.7-18.7-29.3-44.2-29.3-70.7V211c0-30.9-20.6-57.1-48.8-65.5v-2.8c0-10.8-8.7-19.5-19.5-19.5
			c-10.8,0-19.5,8.7-19.5,19.5v2.8c-28.2,8.4-48.8,34.5-48.8,65.5v26.9c0,26.5-10.5,51.9-29.3,70.7c-5.4,0-9.8,4.4-9.8,9.8
			c0,5.4,4.4,9.8,9.8,9.8h195.2c5.4,0,9.8-4.4,9.8-9.8C357.3,312.9,353,308.5,347.6,308.5z"/>
	</g>
	<path filter="url(#drop-filter)" class="st3" d="M381.1,191.2h-53.2c-9.5,0-17.2-7.7-17.2-17.2v-53.2c0-9.5,7.7-17.2,17.2-17.2h53.2c9.5,0,17.2,7.7,17.2,17.2
		v53.2C398.4,183.4,390.6,191.2,381.1,191.2z"/>
	<path class="st4" d="M346.4,131.1l10.1-4.9h1v34.9c0,2.3,0.1,3.8,0.3,4.3c0.2,0.6,0.6,1,1.2,1.3c0.6,0.3,1.9,0.5,3.7,0.5v1.1h-15.6
		v-1.1c2,0,3.2-0.2,3.8-0.5c0.6-0.3,1-0.7,1.2-1.2c0.2-0.5,0.3-2,0.3-4.5v-22.3c0-3-0.1-4.9-0.3-5.8c-0.1-0.7-0.4-1.1-0.8-1.4
		c-0.4-0.3-0.8-0.5-1.4-0.5c-0.8,0-1.8,0.3-3.1,0.9L346.4,131.1z"/>
</svg>
