
<svg id="icon-apis" xmlns="http://www.w3.org/2000/svg" viewBox="0 0 500 500">
	<style type="text/css">
		.st0{fill:url(#SVGID_1_);stroke:#555;stroke-width:3;stroke-miterlimit:10;}
	</style>
	<linearGradient id="SVGID_1_" gradientUnits="userSpaceOnUse" x1="250" y1="83.3866" x2="250" y2="416.6134">
		<stop  offset="0" style="stop-color:#eee"/>
		<stop  offset="1" style="stop-color:#ccc"/>
	</linearGradient>
	<path class="st0" d="M433.7,199.8c-11.5,0-19,4.6-27,12.2c-4.8,4-14.3,12-20.9,5.9V100.4c0-17.2-13.9-31.1-31.1-31.1H55.5
		c-17.2,0-31.1,13.9-31.1,31.1v114.2c6.3,5.3,15.7-2.4,20.4-6.3c8.1-7.6,15.5-12.2,27-12.2c25.4,0,41.9,22.5,41.9,50.2
		s-16.6,50.2-41.9,50.2c-12.1,0-20-5.1-28.2-13.4c-4.3-4-13.4-10.1-19.2-5.3v121.8c0,17.2,13.9,31.1,31.1,31.1h299.2
		c17.2,0,31.1-13.9,31.1-31.1V281.9c6.1-5.6,15.3,0.7,19.7,4.9c8.2,8.3,16.2,13.4,28.2,13.4c25.4,0,41.9-22.5,41.9-50.2
		S459,199.8,433.7,199.8z"/>
</svg>
