
<svg id="icon-accounts" xmlns="http://www.w3.org/2000/svg" viewBox="0 0 500 500">
	<filter x="-10%" y="-10%" width="130%" height="130%" filterUnits="objectBoundingBox" id="drop-filter-2">
		<feOffset dx="5" dy="5" in="SourceAlpha" result="dropShadowOffsetOuter1"></feOffset>
		<feGaussianBlur stdDeviation="5" in="dropShadowOffsetOuter1" result="dropShadowBlurOuter1"></feGaussianBlur>
		<feColorMatrix values="0 0 0 0 0   0 0 0 0 0   0 0 0 0 0  0 0 0 0.5 0" type="matrix" in="dropShadowBlurOuter1" result="dropShadowMatrixOuter1"></feColorMatrix>
		<feMerge>
			<feMergeNode in="dropShadowMatrixOuter1"></feMergeNode>
			<feMergeNode in="SourceGraphic"></feMergeNode>
		</feMerge>
	</filter>
	<style type="text/css">
		.st0{fill:url(#SVGID_1_);}
		.st1{fill:url(#SVGID_2_);}
		.st2{fill:#fff;opacity:.85}
	</style>
	<linearGradient id="SVGID_1_" gradientUnits="userSpaceOnUse" x1="250" y1="41.6643" x2="250" y2="458.3357">
		<stop  offset="0" style="stop-color:#fff"/>
		<stop  offset="1" style="stop-color:#ddd"/>
	</linearGradient>
	<linearGradient id="SVGID_2_" gradientUnits="userSpaceOnUse" x1="250" y1="67.5251" x2="250" y2="432.4749">
		<stop  offset="0" style="stop-color:#aae"/>
		<stop  offset="1" style="stop-color:#33f"/>
	</linearGradient>
	<circle class="st0" cx="250" cy="250" r="225.9"/>
	<circle class="st1" cx="250.5" cy="249.5" r="195.8"/>
	<path class="st2" filter="url(#drop-filter-2)" d="M311.9,193.6l-8.8,73c-0.6,4.7-0.9,9.4-0.9,14.1c0,2,0.5,3.5,1.5,4.7c1,1.2,2.1,1.8,3.5,1.8
		c4.5,0,8.7-1.5,12.5-4.4c3.8-2.9,7.1-6.8,10-11.7c2.8-4.9,5-10.5,6.6-16.7c1.6-6.3,2.3-12.7,2.3-19.4c0-11.1-2.2-21.3-6.5-30.5
		c-4.3-9.2-10.2-17-17.7-23.5c-7.5-6.5-16.4-11.4-26.5-15c-10.2-3.5-21.1-5.3-32.8-5.3c-13.5,0-26,2.3-37.4,6.9
		c-11.4,4.6-21.3,10.8-29.6,18.8c-8.3,7.9-14.8,17.4-19.5,28.3c-4.7,11-7,22.7-7,35.2c0,14.1,2.5,26.7,7.6,37.8
		c5.1,11.1,12,20.5,20.7,28.2c8.7,7.6,18.9,13.4,30.5,17.4c11.6,4,24,6,37.1,6c7.6,0,14.4-0.2,20.2-0.7c5.9-0.5,11.4-1.4,16.6-2.8
		c5.2-1.4,10.2-3.2,15-5.6c4.8-2.3,10-5.4,15.7-9.1l12.6,24.6c-11.9,7.4-24.4,12.9-37.4,16.6c-13,3.6-27.1,5.4-42.4,5.4
		c-19.2,0-36.4-3.1-51.8-9.4c-15.3-6.3-28.4-14.8-39.1-25.5c-10.8-10.8-19.1-23.3-24.9-37.5c-5.9-14.3-8.8-29.4-8.8-45.5
		c0-16.6,3.1-32.1,9.4-46.3c6.3-14.3,14.9-26.7,25.8-37.2c10.9-10.6,23.8-18.9,38.6-24.9c14.8-6.1,30.7-9.1,47.9-9.1
		c15.8,0,30.6,2.6,44.3,7.9c13.7,5.3,25.6,12.5,35.6,21.7c10.1,9.2,18,20,23.8,32.4c5.8,12.4,8.7,25.7,8.7,39.7
		c0,11.9-1.5,22.8-4.5,32.7c-3,9.9-7.3,18.4-12.9,25.5c-5.6,7.1-12.3,12.7-20.1,16.6c-7.8,3.9-16.6,5.9-26.4,5.9
		c-5.3,0-10-1.4-14.2-4.1c-4.2-2.7-7.9-6.5-11-11.1c-6.5,6.5-12.6,10.5-18.5,12.2c-5.9,1.7-11.3,2.5-16.4,2.5
		c-6.3,0-12.8-1.5-19.5-4.5c-6.7-3-12.9-7.3-18.5-12.8c-5.6-5.5-10.2-12-13.9-19.6c-3.7-7.6-5.6-16-5.6-25.2c0-9,1.8-17.3,5.3-24.8
		c3.5-7.5,8.1-14,13.8-19.4c5.7-5.4,12.2-9.5,19.5-12.5c7.3-2.9,14.8-4.4,22.4-4.4c8.4,0,15.7,1.6,22,4.8
		c6.3,3.2,10.8,7.5,13.8,12.8l2.6-15H311.9z M217.5,251.6c0,3.9,0.8,7.7,2.3,11.4c1.6,3.7,3.7,6.9,6.3,9.7c2.6,2.7,5.8,4.9,9.4,6.6
		c3.6,1.7,7.4,2.5,11.3,2.5c3.9,0,7.7-0.8,11.3-2.5c3.6-1.7,6.7-3.9,9.4-6.6c2.6-2.7,4.7-6,6.3-9.7c1.6-3.7,2.3-7.5,2.3-11.4
		c0-3.9-0.8-7.7-2.3-11.3c-1.6-3.6-3.7-6.8-6.3-9.7c-2.6-2.8-5.8-5.1-9.4-6.7c-3.6-1.7-7.4-2.5-11.3-2.5c-3.9,0-7.7,0.8-11.3,2.5
		c-3.6,1.7-6.7,3.9-9.4,6.7c-2.6,2.8-4.7,6.1-6.3,9.7C218.2,243.9,217.5,247.7,217.5,251.6z"/>
</svg>
