<svg xmlns="http://www.w3.org/2000/svg" width="0" height="0">

	<svg id="icon-chevron-left" viewBox="0 0 13 13">
		<polygon fill="#333" points="9.2,1.6 8.5,0.8 3.5,5.8 3.5,5.8 2.8,6.5 3.5,7.2 8.5,12.2 9.2,11.4 4.2,6.5 "/>
	</svg>

	<svg id="icon-chevron-right" viewBox="0 0 13 13">
		<polygon fill="#333" points="2.8,11.4 3.5,12.2 8.5,7.2 8.5,7.2 9.2,6.5 8.5,5.8 3.5,0.8 2.8,1.6 7.8,6.5 "/>
	</svg>

	<svg id="icon-chevron-down" viewBox="0 0 13 13">
		<polygon fill="#333" points="1.6,3.3 0.8,4 5.8,9 5.8,9 6.5,9.7 7.2,9 12.2,4 11.4,3.3 6.5,8.3 "/>
	</svg>

	<svg id="icon-show-all" viewBox="0 0 13 13">
		<rect fill="#333" x="1" y="3" width="2" height="2"/>
		<rect fill="#333" x="1" y="6" width="2" height="2"/>
		<rect fill="#333" x="1" y="9" width="2" height="2"/>
		<rect fill="#333" x="4" y="3" width="2" height="2"/>
		<rect fill="#333" x="4" y="6" width="2" height="2"/>
		<rect fill="#333" x="4" y="9" width="2" height="2"/>
		<rect fill="#333" x="7" y="3" width="2" height="2"/>
		<rect fill="#333" x="7" y="6" width="2" height="2"/>
		<rect fill="#333" x="7" y="9" width="2" height="2"/>
		<rect fill="#333" x="10" y="3" width="2" height="2"/>
		<rect fill="#333" x="10" y="6" width="2" height="2"/>
		<rect fill="#333" x="10" y="9" width="2" height="2"/>
	</svg>

	<svg id="icon-trashcan" viewBox="0 0 15 15">
		<path d="M9.6,2V1.3H5.4V2H1.8v1.4h0.7v9.2C2.5,13.3,3.2,14,4,14H11c0.8,0,1.4-0.6,1.4-1.4V3.4h0.7V2H9.6z M11,12.6H4V3.4H11V12.6z"/>
		<path d="M5.4,4.8h1.4v6.3H5.4V4.8z M8.2,4.8h1.4v6.3H8.2V4.8z"/>
	</svg>

	<svg id="icon-gear" viewBox="0 0 13 13">
		<path fill="#333" d="M10.6,7c0-0.2,0-0.3,0-0.5c0-0.2,0-0.4,0-0.5l1.2-0.9c0.1-0.1,0.1-0.2,0.1-0.3l-1.1-1.9c-0.1-0.1-0.2-0.2-0.3-0.1L9,3.2 C8.7,3,8.4,2.8,8.1,2.7L7.9,1.2C7.8,1.1,7.7,1,7.6,1H5.4C5.3,1,5.2,1.1,5.1,1.2L4.9,2.7C4.6,2.8,4.3,3,4,3.2L2.6,2.7 c-0.1,0-0.3,0-0.3,0.1L1.2,4.7C1.1,4.8,1.2,5,1.3,5.1L2.4,6c0,0.2-0.1,0.4-0.1,0.5s0,0.4,0,0.5L1.3,7.9C1.2,8,1.1,8.2,1.2,8.3 l1.1,1.9c0.1,0.1,0.2,0.2,0.3,0.1L4,9.8c0.3,0.2,0.6,0.4,0.9,0.5l0.2,1.5c0,0.1,0.1,0.2,0.3,0.2h2.2c0.1,0,0.3-0.1,0.3-0.2l0.2-1.5 C8.4,10.2,8.7,10,9,9.8l1.4,0.5c0.1,0,0.3,0,0.3-0.1l1.1-1.9c0.1-0.1,0-0.3-0.1-0.3L10.6,7z M6.5,8.9c-1.3,0-2.4-1.1-2.4-2.4 s1.1-2.4,2.4-2.4s2.4,1.1,2.4,2.4S7.8,8.9,6.5,8.9z"/>
	</svg>

	<svg id="icon-add" viewBox="0 0 13 13">
		<polygon fill="#333" points="11,6 7,6 7,2 6,2 6,6 2,6 2,7 6,7 6,11 7,11 7,7 11,7 "/>
	</svg>

	<svg id="icon-apply" viewBox="0 0 13 13">
		<polygon fill="#3a3" points="10.5,1.8 5.7,8 2.1,5.3 0.6,7 4.2,9.9 6,11.2 12.4,3.1 "/>
	</svg>

	<svg id="icon-revert" viewBox="0 0 13 13">
		<path fill="#d55" d="M12,6.5c0,3-2.5,5.5-5.5,5.5c-1.6,0-3.2-0.7-4.2-2c-0.1-0.1-0.1-0.2,0-0.3l1-1c0,0,0.1-0.1,0.2-0.1c0.1,0,0.1,0,0.2,0.1 c0.7,0.9,1.7,1.4,2.9,1.4c2,0,3.6-1.6,3.6-3.6S8.5,2.9,6.5,2.9c-0.9,0-1.8,0.4-2.5,1l1,1c0.1,0.1,0.2,0.3,0.1,0.5 C5,5.5,4.9,5.6,4.7,5.6H1.5C1.2,5.6,1,5.4,1,5.1V1.9c0-0.2,0.1-0.3,0.3-0.4c0.2-0.1,0.4,0,0.5,0.1l0.9,0.9C3.7,1.6,5.1,1,6.5,1 C9.5,1,12,3.5,12,6.5z"/>
	</svg>

	<svg id="icon-times" viewBox="0 0 13 13">
		<polygon fill="#333" points="10.7,3 10,2.3 6.5,5.8 3,2.3 2.3,3 5.8,6.5 2.3,10 3,10.7 6.5,7.2 10,10.7 10.7,10 7.2,6.5 "/>
	</svg>

	<svg id="icon-plus" viewBox="0 0 13 13">
		<polygon points="11,6 7,6 7,2 6,2 6,6 2,6 2,7 6,7 6,11 7,11 7,7 11,7 "/>
	</svg>

	<svg id="icon-minus" viewBox="0 0 13 13">
		<rect fill="#333" x="2" y="6" width="9" height="1"/>
	</svg>

	<svg id="icon-info" viewBox="0 0 15 15">
		<path fill="#777" d="M6.7,4.9c0-0.4,0.2-0.6,0.6-0.6h0.4c0.5,0,0.7,0.2,0.7,0.6v0.4c0,0.4-0.2,0.6-0.6,0.6H7.3c-0.4,0-0.6-0.2-0.6-0.6L6.7,4.9
			L6.7,4.9z"/>
		<path fill="#777" d="M9,10.8H5.8V9.9h0.8V7.5H5.8V6.7h2.4v3.2H9L9,10.8z"/>
		<path fill="#777" d="M7.5,1C3.9,1,1,3.9,1,7.5S3.9,14,7.5,14S14,11.1,14,7.5S11.1,1,7.5,1z M7.5,12.8c-2.9,0-5.3-2.4-5.3-5.3s2.4-5.3,5.3-5.3
			s5.3,2.4,5.3,5.3S10.4,12.8,7.5,12.8z"/>
	</svg>

	<svg id="icon-warning" viewBox="0 0 15 15">
		<path fill="#777" d="M13.4,11.1L8.6,2.8C8.3,2.3,7.9,2,7.5,2S6.7,2.3,6.4,2.8l-4.8,8.3C1,12.1,1.5,13,2.7,13h9.6
			C13.5,13,14,12.1,13.4,11.1z M6.9,6.2h1.2v2.9H6.9L6.9,6.2L6.9,6.2z M7.5,11c-0.4,0-0.7-0.3-0.7-0.7c0-0.4,0.3-0.7,0.7-0.7
			s0.7,0.3,0.7,0.7l0,0C8.2,10.7,7.9,11,7.5,11L7.5,11L7.5,11z"/>
	</svg>

	<svg id="icon-color-preset" viewBox="0 0 17 17">
		<style type="text/css">
			.st0{fill:#fff;}
			.st1{fill:url(#SVGID_1_);}
			.st2{fill:url(#SVGID_2_);}
			.st3{fill:url(#SVGID_3_);}
			.st4{fill:url(#SVGID_4_);}
			.st5{fill:url(#SVGID_5_);}
			.st6{fill:url(#SVGID_6_);stroke:#000;stroke-width:0.25;}
		</style>
		<linearGradient id="SVGID_1_" gradientUnits="userSpaceOnUse" x1="182.5296" y1="177.924" x2="185.6278" y2="183.2903" gradientTransform="matrix(1.2821 0 0 -1.2821 -225.4985 236.577)">
			<stop offset="0" style="stop-color:#fff;stop-opacity:0"/>
			<stop offset="1" style="stop-color:#FF0000;stop-opacity:0.7"/>
		</linearGradient>
		<linearGradient id="SVGID_2_" gradientUnits="userSpaceOnUse" x1="182.5475" y1="177.8933" x2="188.743" y2="177.8933" gradientTransform="matrix(1.2821 0 0 -1.2821 -225.4985 236.577)">
			<stop offset="0" style="stop-color:#fff;stop-opacity:0"/>
			<stop offset="1" style="stop-color:#0000FF;stop-opacity:0.7"/>
		</linearGradient>
		<linearGradient id="SVGID_3_" gradientUnits="userSpaceOnUse" x1="182.5296" y1="177.8627" x2="185.6278" y2="172.4964" gradientTransform="matrix(1.2821 0 0 -1.2821 -225.4985 236.577)">
			<stop offset="0" style="stop-color:#fff;stop-opacity:0"/>
			<stop offset="1" style="stop-color:#00AEEF;stop-opacity:0.7"/>
		</linearGradient>
		<linearGradient id="SVGID_4_" gradientUnits="userSpaceOnUse" x1="182.4945" y1="177.8632" x2="179.3963" y2="172.4969" gradientTransform="matrix(1.2821 0 0 -1.2821 -225.4985 236.577)">
			<stop offset="0" style="stop-color:#fff;stop-opacity:0"/>
			<stop offset="1" style="stop-color:#00FF00;stop-opacity:0.7"/>
		</linearGradient>
		<linearGradient id="SVGID_5_" gradientUnits="userSpaceOnUse" x1="182.4773" y1="177.8933" x2="176.2818" y2="177.8933" gradientTransform="matrix(1.2821 0 0 -1.2821 -225.4985 236.577)">
			<stop offset="0" style="stop-color:#fff;stop-opacity:0"/>
			<stop offset="1" style="stop-color:#FFFF00;stop-opacity:0.7"/>
		</linearGradient>
		<linearGradient id="SVGID_6_" gradientUnits="userSpaceOnUse" x1="182.4945" y1="177.9234" x2="179.3963" y2="183.2897" gradientTransform="matrix(1.2821 0 0 -1.2821 -225.4985 236.577)">
			<stop offset="0" style="stop-color:#fff;stop-opacity:0"/>
			<stop offset="1" style="stop-color:#FF00FF;stop-opacity:0.7"/>
		</linearGradient>
		<circle class="st0" cx="8.5" cy="8.5" r="7.9"/>
		<circle class="st1" cx="8.5" cy="8.5" r="7.9"/>
		<circle class="st2" cx="8.5" cy="8.5" r="7.9"/>
		<circle class="st3" cx="8.5" cy="8.5" r="7.9"/>
		<circle class="st4" cx="8.5" cy="8.5" r="7.9"/>
		<circle class="st5" cx="8.5" cy="8.5" r="7.9"/>
		<circle class="st6" cx="8.5" cy="8.5" r="7.9"/>
	</svg>

	<svg id="tiny-generic-folder" viewBox="0 0 15 15">
		<style type="text/css">
			.st0{fill:#97DAF8;stroke:#3829CC;stroke-width:0.15;stroke-miterlimit:10;}
			.st1{fill:#6FC7F1;stroke:#3829CC;stroke-width:0.15;stroke-miterlimit:10;}
		</style>
		<path class="st0" d="M1.1,2.9c0-0.5,0.3-0.8,0.6-0.8c0,0,2.8,0,3.6,0s0.9,1.6,1.9,1.7c1.4,0,6.2,0,6.2,0c0.3,0,0.6,0.3,0.6,0.6
			l0,6.9c0,0.3-0.3,0.6-0.6,0.6H1.6c-0.3,0-0.5-0.3-0.5-0.4V2.9z"/>
		<path class="st1" d="M1.1,5.2c0-0.3,0.3-0.6,0.6-0.6h11.7c0.3,0,0.6,0.3,0.6,0.6l0,7.1c0,0.3-0.3,0.6-0.6,0.6H1.6
			c-0.3,0-0.5-0.2-0.5-0.6C1.1,11.9,1.1,5.2,1.1,5.2z"/>
	</svg>

	<svg id="user" viewBox="0 0 29 29">
		<style type="text/css">
			.st0{fill:url(#SVGID_1_);}
		</style>
		<radialGradient id="SVGID_1_" cx="14.5" cy="-30.0798" r="13.2613" gradientTransform="matrix(1 0 0 1 0 42)" gradientUnits="userSpaceOnUse">
			<stop  offset="0" style="stop-color:#CFD4EF"/>
			<stop  offset="1" style="stop-color:#7F849F"/>
		</radialGradient>
		<path class="st0" d="M14.5,0C6.5,0,0,6.5,0,14.5c0,3.6,1.3,6.9,3.5,9.4c0.4-0.5,1-0.9,1.8-1.1c2.2-1,3.1-1.2,4.3-1.3
			c1.2-0.2,1.5-0.6,1.7-1.7c0.2-1.1,0.3-1.2,0.3-1.8c-0.7-0.5-1-1.4-1-1.9c0-0.5-0.2-1-0.2-1.5c-0.7,0.2-0.6-0.7-0.8-1.2
			c-0.1-0.2-0.4-1.2-0.5-1.9c-0.1-0.6,0.1-0.9,0.5-0.6c-0.4-1.2-0.3-2.2-0.4-3s-0.4-2.7,1-3c0.5-0.2,0.8-0.9,1.7-1.2
			c0.8-0.3,1.7-0.8,2.7-0.8c1,0,1.9,0.6,2.7,0.8c0.8,0.3,1.2,1,1.7,1.2c1.4,0.4,1,2.3,1,3c-0.1,0.8,0,1.8-0.4,3c0.4-0.3,0.6,0,0.5,0.6
			c-0.1,0.6-0.4,1.7-0.5,1.9c-0.2,0.5-0.1,1.3-0.8,1.2c0,0.5-0.2,1-0.2,1.5c0,0.5-0.3,1.4-1,1.9c0,0.5,0.1,0.7,0.3,1.8
			c0.2,1.1,0.4,1.5,1.7,1.7c1.2,0.2,2.5,0.5,4.3,1.3c0.8,0.3,1.3,0.7,1.8,1.1c2.1-2.5,3.5-5.8,3.5-9.4C29,6.5,22.5,0,14.5,0z"/>
	</svg>

	<svg id="home" viewBox="0 0 23 23">
		<style type="text/css">
			.st0{fill:#DDDDEE;}
			.st1{fill:#555166;}
			.st2{fill:#666666;}
			.st3{fill:#FAFAFF;}
			.st4{fill:#AAAABB;}
		</style>
		<polygon class="st0" points="19.1,10.4 11.5,3.9 3.9,10.4 3.9,20.4 19.1,20.4 "/>
		<path class="st1" d="M19.6,20.9H3.4V10.3l8.2-6.9l8.1,6.8V20.9z M4.1,20.2h14.8v-9.6l-7.4-6.3l-7.4,6.3V20.2z"/>
		<rect x="9.5" y="14.5" class="st2" width="4.1" height="6.1"/>
		<path class="st1" d="M13.9,20.8H9.2v-6.7h4.7V20.8z M9.8,20.2h3.5v-5.4H9.8V20.2z"/>
		<rect x="12.4" y="16.9" class="st3" width="0.6" height="1.4"/>
		<rect x="9.9" y="9" class="st3" width="3.4" height="3.4"/>
		<path class="st1" d="M13.5,12.6h-4v-4h4V12.6z M10.1,12h2.7V9.3h-2.7V12z"/>
		<polygon class="st2" points="17.9,9.5 15.9,7.7 15.9,4 17.9,4 "/>
		<path class="st1" d="M18.3,10.3l-2.7-2.4V3.6h2.7V10.3z M16.2,7.5l1.4,1.3V4.3h-1.4V7.5z"/>
		<rect x="10.1" y="10.9" class="st4" width="2.7" height="1"/>
		<polygon class="st1" points="2.9,12.9 1.4,11.2 11.6,2 21.6,11.2 20.1,12.9 11.5,5.1 "/>
		<rect x="2.3" y="19.9" class="st1" width="18.4" height="1.1"/>
	</svg>

	<svg id="clock" viewBox="0 0 500 500" cache="false">
		<style type="text/css">
			.st0{fill:none;stroke:var(--color-3);stroke-width:7;}
			.st1{fill:none;stroke:var(--color-3);stroke-width:9;}
			.st2 {
				stroke: var(--color-1);
				stroke-width: var(--stroke-hour);
				stroke-linecap: round;
				transform-origin: 50% 50%;
				transform: rotate(var(--rotation-hours));
			}
			.st3 {
				stroke: var(--color-1);
				stroke-width: var(--stroke-minute);
				stroke-linecap: round;
				transform-origin: 50% 50%;
				transform: rotate(var(--rotation-minutes));
			}
			.st4 {
				stroke: var(--color-2);
				stroke-width: var(--stroke-second);
				stroke-linecap: round;
				transform-origin: 50% 50%;
				transform: rotate(var(--rotation-seconds));
			}
			.st5 { fill: var(--color-1); }
		</style>
		<line class="st0" x1="149.2" y1="75.4" x2="141.2" y2="61.6"/>
		<line class="st0" x1="350.8" y1="424.6" x2="358.8" y2="438.4"/>
		<line class="st0" x1="438.4" y1="141.2" x2="424.6" y2="149.2"/>
		<line class="st0" x1="75.4" y1="350.8" x2="61.6" y2="358.8"/>
		<line class="st0" x1="424.6" y1="350.8" x2="438.4" y2="358.8"/>
		<line class="st0" x1="61.6" y1="141.2" x2="75.4" y2="149.2"/>
		<line class="st0" x1="358.8" y1="61.6" x2="350.8" y2="75.4"/>
		<line class="st0" x1="149.2" y1="424.6" x2="141.2" y2="438.4"/>
		<line class="st1" x1="250" y1="470.1" x2="250" y2="438.2"/>
		<line class="st1" x1="250" y1="29.9" x2="250" y2="65.8"/>
		<line class="st1" x1="470.1" y1="250" x2="438.2" y2="250"/>
		<line class="st1" x1="61.8" y1="250" x2="29.9" y2="250"/>

		<line class="st2" x1="250" y1="113" x2="250" y2="250"/>
		<line class="st3" x1="250" y1="67" x2="250" y2="250"/>
		<line class="st4" x1="250" y1="43" x2="250" y2="250"/>
		<circle class="st5" cx="250" cy="250" r="13"/>
	</svg>

	<svg id="icon-help" viewBox="0 0 13 13">
		<path fill="#333" d="M6.5,12c-0.3,0-0.5-0.1-0.7-0.3c-0.2-0.2-0.3-0.4-0.3-0.7c0-0.2,0.1-0.5,0.3-0.7c0.2-0.2,0.4-0.3,0.7-0.3
			c0.3,0,0.5,0.1,0.7,0.3c0.2,0.2,0.3,0.4,0.3,0.7c0,0.2-0.1,0.5-0.3,0.7C7,11.9,6.8,12,6.5,12z M7.1,9.1H5.8V8c0-0.3,0-0.6,0.1-0.8
			C5.9,7,6,6.8,6.1,6.6c0.1-0.2,0.3-0.4,0.4-0.5C6.7,6,6.8,5.8,7,5.7l0,0l0.4-0.4C7.6,5.1,7.8,4.9,8,4.7c0.1-0.2,0.2-0.5,0.2-0.9
			c0-0.3,0-0.5-0.1-0.7C8,2.9,7.9,2.8,7.7,2.6C7.6,2.5,7.4,2.4,7.2,2.3C7,2.2,6.8,2.2,6.5,2.2C6,2.2,5.6,2.4,5.3,2.7
			C5,3,4.8,3.3,4.8,3.8l0,0.1L3.4,3.7l0-0.1C3.6,2.8,4,2.1,4.5,1.7C5.1,1.2,5.8,1,6.6,1C7,1,7.4,1.1,7.7,1.2c0.4,0.1,0.7,0.3,1,0.5
			c0.3,0.2,0.5,0.5,0.6,0.9s0.2,0.7,0.2,1.2c0,0.3,0,0.6-0.1,0.9C9.4,4.9,9.3,5.1,9.1,5.3C9,5.5,8.9,5.7,8.7,5.8
			C8.5,6,8.3,6.1,8.2,6.3C7.9,6.5,7.8,6.6,7.6,6.7C7.5,6.9,7.4,7,7.3,7.1C7.2,7.3,7.2,7.4,7.1,7.6c0,0.2-0.1,0.4-0.1,0.6L7.1,9.1
			L7.1,9.1z"/>
	</svg>

	<svg id="icon-dropbox" viewBox="0 0 30 30">
		<path fill="#007ee5" d="M6.1,11.7l8.9,5.5l-6.1,5.1l-8.8-5.7L6.1,11.7z M23.8,21.6v1.9L15,28.8v0l0,0l0,0v0l-8.8-5.3v-1.9l2.6,1.7 l6.1-5.1v0l0,0l0,0v0l6.1,5.1L23.8,21.6z M8.9,1.1L15,6.2l-8.9,5.5L0.1,6.9L8.9,1.1z M23.9,11.7l6.1,4.9l-8.8,5.7L15,17.2L23.9,11.7 z M21.1,1.1l8.8,5.7l-6.1,4.8L15,6.2L21.1,1.1z"/>
	</svg>

	<svg id="icon-pcloud" viewBox="0 0 30 30">
		<style type="text/css">
			.st0{fill-rule:evenodd;clip-rule:evenodd;fill:#1BBED0;}
		</style>
		<path class="st0" d="M15,7.2c-3.9,0-7,3.2-7,7s3.2,7,7,7s7-3.2,7-7C22,10.3,18.9,7.2,15,7.2 M16.1,16h-2.3v1.8 c0,0.5-0.4,0.9-0.9,0.9c-0.5,0-0.9-0.4-0.9-0.9v-6.7c0-0.5,0.4-0.9,0.9-0.9h3.2c1.6,0,2.9,1.3,2.9,2.9C19,14.7,17.7,16,16.1,16"/>
		<path class="st0" d="M16.2,12.1h-2.4v2.1h2.4c0.5-0.1,0.9-0.5,0.9-1.1C17.1,12.6,16.7,12.1,16.2,12.1"/>
		<path class="st0" d="M27.7,15c-0.2,1.3-1,2.1-2.1,2.6c1.1-0.7,1.8-2,1.8-3.4c0-2.1-1.5-3.8-3.5-4.1c0.5,1.1,0.6,1.9,0.5,2.9 c-0.6-4.7-4.6-8.3-9.4-8.3c-5.2,0-9.5,4.3-9.5,9.5c0,0.9,0.1,1.7,0.3,2.5c-0.4-1.1-0.6-2.2-0.6-3.5c0-1.1,0.2-2.2,0.6-3.3 C2.5,10.6,0,13.5,0,17c0,3.8,3,6.9,6.7,7h18.5c2.6-0.1,4.7-2.3,4.7-4.9C30,17.3,29.1,15.8,27.7,15 M15,22.2c-4.4,0-8-3.6-8-8 c0-4.4,3.6-8,8-8s8,3.6,8,8S19.4,22.2,15,22.2"/>
	</svg>

	<svg id="icon-box" viewBox="0 0 30 30">
		<style type="text/css">
			.st0{fill-rule:evenodd;clip-rule:evenodd;fill:#0061D5;}
		</style>
		<path class="st0" d="M1.1,7.9c0.6,0,1.1,0.4,1.1,1v4.2c0.9-0.6,2.1-1,3.4-1c2.1,0,4,1.1,4.9,2.7c0.9-1.6,2.8-2.7,4.9-2.7 c3.1,0,5.6,2.2,5.6,5s-2.5,5-5.6,5c-2.1,0-4-1.1-4.9-2.7c-0.9,1.6-2.8,2.7-4.9,2.7c-3.1,0-5.5-2.2-5.6-4.9l0,0V8.9 C0,8.3,0.5,7.9,1.1,7.9z M27.8,12.5c0.4-0.4,1.2-0.5,1.7-0.2c0.5,0.3,0.6,0.9,0.3,1.4l-3,3.3l3,3.3c0.4,0.4,0.3,1.1-0.3,1.4 s-1.3,0.2-1.7-0.2l-2.6-2.9l-2.6,2.9c-0.4,0.4-1.2,0.5-1.7,0.2c-0.5-0.3-0.6-0.9-0.3-1.4l0,0l3-3.3l-3-3.3l0,0 c-0.4-0.4-0.3-1.1,0.3-1.4c0.5-0.3,1.3-0.2,1.7,0.2l0,0l2.6,2.9L27.8,12.5L27.8,12.5z M15.5,14.1c-1.9,0-3.4,1.3-3.4,3 c0,1.7,1.5,3,3.4,3s3.4-1.3,3.4-3C18.8,15.4,17.3,14.1,15.5,14.1z M5.6,14.1c-1.9,0-3.4,1.3-3.4,3s1.5,3,3.4,3s3.4-1.3,3.4-3 S7.5,14.1,5.6,14.1z"/>
	</svg>

	<svg id="icon-google-drive" viewBox="0 0 30 30">
		<path fill="#FCC83D" d="M29.1,16.9l-8.7-15H9.7l8.7,15H29.1z"/>
		<path fill="#19994E" d="M8.6,3.8L0.1,18.5l5.4,9.4L14,13.1L8.6,3.8z"/>
		<path fill="#336CF6" d="M12.9,18.7l-5.4,9.4h17l5.4-9.4H12.9z"/>
	</svg>

	<svg id="icon-new-storage" viewBox="0 0 30 30">
		<style type="text/css">
			.st0{fill:none;stroke:#888888;stroke-width:2;}
		</style>
		<path class="st0" d="M28.3,19.7c0,2.9-2.4,5.3-5.3,5.3h-15c-3.4,0-6.2-2.8-6.2-6.2c0-2.5,1.5-4.6,3.6-5.6c0-0.2,0-0.4,0-0.6
			c0-3.9,3.1-6.6,7-6.6c3,0,5.5,1.4,6.6,3.9c0.6-0.5,1.4-0.9,2.3-0.9c1.9,0,3.5,1.6,3.5,3.5c0,0.7-0.2,1.4-0.6,1.9
			C26.5,15.1,28.3,17.2,28.3,19.7z"/>
	</svg>

	@import "icon-padlock.svg"
	@import "icon-padlock-open.svg"

	@import "icon-dock.svg"
	@import "icon-update.svg"
	@import "icon-security.svg"
	@import "icon-sharing.svg"
	@import "icon-spotlight.svg"
	@import "icon-general.svg"
	@import "icon-desktop.svg"
	@import "icon-users-groups.svg"
	@import "icon-cloud-storage.svg"
	@import "icon-apis.svg"
	@import "icon-date-time.svg"
	@import "icon-keyboard.svg"
	@import "icon-display.svg"
	@import "icon-accessibility.svg"
	@import "icon-flag.svg"
	@import "icon-speaker.svg"
	@import "icon-mouse.svg"
	@import "icon-notifications.svg"
	@import "icon-screensaver.svg"

</svg>
