
<svg id="icon-apis" xmlns="http://www.w3.org/2000/svg" viewBox="0 0 44 44">
	<style type="text/css">
		.st0{fill:url(#SVGID_1_);stroke:#555555;stroke-width:0.25;stroke-miterlimit:10;}
	</style>
	<linearGradient id="SVGID_1_" gradientUnits="userSpaceOnUse" x1="22" y1="38.641" x2="22" y2="9.359" gradientTransform="matrix(1 0 0 -1 0 46)">
		<stop  offset="0" style="stop-color:#EEEEEE"/>
		<stop  offset="1" style="stop-color:#CCCCCC"/>
	</linearGradient>
	<path class="st0" d="M38.1,17.6c-1,0-1.7,0.4-2.4,1.1c-0.4,0.4-1.3,1.1-1.8,0.5V8.9c0-1.5-1.2-2.7-2.7-2.7H4.9
		c-1.5,0-2.7,1.2-2.7,2.7v10c0.6,0.5,1.4-0.2,1.8-0.6c0.7-0.7,1.4-1.1,2.4-1.1c2.2,0,3.7,2,3.7,4.4s-1.5,4.4-3.7,4.4
		c-1.1,0-1.8-0.4-2.5-1.2c-0.4-0.4-1.2-0.9-1.7-0.5v10.7c0,1.5,1.2,2.7,2.7,2.7h26.3c1.5,0,2.7-1.2,2.7-2.7V24.8
		c0.5-0.5,1.3,0.1,1.7,0.4c0.7,0.7,1.4,1.2,2.5,1.2c2.2,0,3.7-2,3.7-4.4S40.4,17.6,38.1,17.6z"/>
</svg>
