
<svg id="icon-users-groups" xmlns="http://www.w3.org/2000/svg" viewBox="0 0 44 44">
	<style type="text/css">
		.st0{fill:url(#SVGID_1_);stroke:#BBBBBB;stroke-width:0.5;}
		.st1{fill:#555555;}
	</style>
	<linearGradient id="SVGID_1_" gradientUnits="userSpaceOnUse" x1="22" y1="-164.6311" x2="22" y2="-127.3689" gradientTransform="matrix(1 0 0 1 0 168)">
		<stop  offset="0" style="stop-color:#EEEEEE"/>
		<stop  offset="1" style="stop-color:#BBBBBB"/>
	</linearGradient>
	<circle class="st0" cx="22" cy="22" r="18.6"/>
	<path class="st1" d="M33.5,29.4c-0.5-1.2-3-1.9-4.7-2.6c-1.7-0.7-1.4-1.2-1.5-1.8c0-0.1,0-0.2,0-0.3c0.5-0.5,0.9-1.1,1.2-1.8
		c0,0,0,0,0,0c0.1-0.2,0.1-0.3,0.2-0.5c0.4-0.1,0.6-0.5,0.7-0.9c0.1-0.2,0.3-0.5,0.2-1c0-0.5-0.3-0.8-0.5-0.9c0,0,0,0,0,0
		c0.2-0.5,0.3-1.1,0.3-1.9c0-0.7-0.2-1.2-0.6-1.8c0-0.1-1.9-2.4-1.9-2.5c-0.1,0.1,0,0.6-0.3,0.5c0,0,0.2-0.3,0.1-0.6
		c-0.1,0.3-0.3,0.5-0.6,0.6c0.2-0.1,0.3-0.3,0.3-0.5c-0.2,0.2-0.4,0.3-0.6,0.2c0-0.2,0.1-0.3,0.2-0.5c-0.2,0.1-0.4,0.2-0.7,0.2
		c-0.1-0.2,0-0.4,0-0.6c-0.2,0.3-0.5,0.5-0.8,0.6c-0.1-0.2-0.1-0.4,0-0.6c-0.2,0.3-0.3,0.5-0.6,0.7c-0.1-0.2-0.1-0.3-0.1-0.5
		C23,14,21.9,14.8,21,15.6c-1.1,1.3-0.9,2.6-0.5,4.1C20.3,19.8,20,20,20,20.5c0,0.4,0.1,0.8,0.2,1c0.1,0.4,0.3,0.8,0.7,0.9
		c0,0.2,0.1,0.4,0.2,0.5c0,0,0,0,0,0l0,0c0.3,0.7,0.7,1.4,1.2,1.8c0,0.1,0,0.2,0,0.2c-0.1,0.6,0.1,1-1.6,1.8
		c-1.7,0.7-4.2,1.5-4.7,2.6c-0.5,1.2-0.3,1.8-0.3,1.8h18C33.8,31.3,34,30.6,33.5,29.4z"/>
	<path class="st1" d="M20.8,25c-0.3-0.7-1.8-1.1-2.8-1.6c-1-0.4-0.9-0.7-0.9-1c0-0.1,0-0.1,0-0.2c0.3-0.3,0.6-0.7,0.7-1.1
		c0,0,0,0,0,0c0-0.1,0.1-0.2,0.1-0.3c0.2,0,0.4-0.3,0.4-0.5c0-0.1,0.2-0.3,0.1-0.6c0-0.3-0.1-0.4-0.2-0.5c0.2-1,0-1.5-0.1-2.1
		c-0.1-0.4,0.4,0,0.4,0c0-0.4-0.7-0.9-0.8-1.2c0-0.1,0.4,0,0.4,0c-1.3-1.4-3.7-0.4-3.7-0.4s-1-0.2-1.2,0c0,0,0.2,0,0.3,0.2
		c0.1,0.2-0.4,0.5-0.4,0.5c-0.4,0.3-0.4,0.5-0.4,0.5c0.1-0.2,0.4-0.1,0.4-0.1s-0.6,0.5-0.5,0.7c0,0,0.3-0.3,0.3,0.1
		c0,0.5,0,0.8,0,1.7c-0.1,0.1-0.3,0.2-0.3,0.5c0,0.3,0.1,0.5,0.1,0.6c0,0.2,0.2,0.5,0.4,0.5c0,0.1,0.1,0.2,0.1,0.3c0,0,0,0,0,0v0
		c0.2,0.4,0.4,0.8,0.7,1.1c0,0.1,0,0.1,0,0.2c0,0.4,0.1,0.6-0.9,1c-1,0.4-2.5,0.9-2.8,1.6c-0.3,0.7-0.2,1.1-0.2,1.1H21
		C21,26.1,21.1,25.7,20.8,25z"/>
</svg>
