
<svg id="icon-mouse" xmlns="http://www.w3.org/2000/svg" viewBox="0 0 500 500">
	<style type="text/css">
		.st0{fill-rule:evenodd;clip-rule:evenodd;fill:url(#path11595_1_);stroke:#4F4F4F;}
		.st1{fill-rule:evenodd;clip-rule:evenodd;fill:#FFFFFF;fill-opacity:0.7966;}
		.st2{fill-rule:evenodd;clip-rule:evenodd;fill-opacity:0.2599;}
		.st3{fill-rule:evenodd;clip-rule:evenodd;fill:url(#path11617_1_);}
		.st4{fill:none;stroke:url(#path11633_1_);}
		.st5{fill-rule:evenodd;clip-rule:evenodd;fill:url(#path11619_1_);stroke:#595959;stroke-width:0.5454;}
		.st6{fill-rule:evenodd;clip-rule:evenodd;fill:#FFFFFF;fill-opacity:0.3333;}
	</style>
	<g id="layer1">
		
			<radialGradient id="path11595_1_" cx="73.4284" cy="176.4093" r="148.4902" gradientTransform="matrix(1.8664 0 0 2.3051 78.3109 -308.991)" gradientUnits="userSpaceOnUse">
			<stop  offset="0" style="stop-color:#FFFFFF"/>
			<stop  offset="0.3733" style="stop-color:#D9D9D9"/>
			<stop  offset="0.6031" style="stop-color:#C5C5C5"/>
			<stop  offset="1" style="stop-color:#909090"/>
		</radialGradient>
		<path id="path11595" class="st0" d="M86.6,246.6c-27.5,122.1,52.6,206.2,173,206.2c119,0,178.2-97.3,153.7-206.2l-39-145.7
			C369.7,80.5,360,74,353.5,71.8c-64.1-28.8-154.3-30.1-210.8,0c-7.1,3.8-12.4,3.8-17.6,23.4L86.6,246.6z"/>
		<g id="g11960" transform="matrix(0.840529,0,0,1,4.170553,1)">
			<path id="path11948" class="st1" d="M117.3,210c92.2-59.4,238.3-66.2,335.4-6.8C366.5,159.7,220.8,154.5,117.3,210z"/>
			<path id="path11615" class="st2" d="M119.2,207.5c96.7-69.7,238.3-70.7,332.4-5.3C364.5,149.9,219.3,146.6,119.2,207.5z"/>
		</g>
		
			<linearGradient id="path11617_1_" gradientUnits="userSpaceOnUse" x1="113.7389" y1="310.3908" x2="113.7389" y2="247.2113" gradientTransform="matrix(1.6663 0 0 1.4178 57.589 -289.6476)">
			<stop  offset="0" style="stop-color:#FFFFFF"/>
			<stop  offset="1" style="stop-color:#A9A9A9"/>
		</linearGradient>
		<path id="path11617" class="st3" d="M287.7,126.7c0,41.6-18.1,75.4-40.5,75.4c-22.4,0-40.5-33.7-40.6-75.3v-0.1
			c0-41.6,18.1-75.4,40.5-75.4S287.6,85,287.7,126.7C287.7,126.6,287.7,126.6,287.7,126.7z"/>
		
			<linearGradient id="path11633_1_" gradientUnits="userSpaceOnUse" x1="318.6164" y1="266.6189" x2="375.2882" y2="854.7951" gradientTransform="matrix(0.7714 0 0 1 -19.2968 -289)">
			<stop  offset="0" style="stop-color:#FFFFFF"/>
			<stop  offset="1" style="stop-color:#FFFFFF;stop-opacity:0"/>
		</linearGradient>
		<path id="path11633" class="st4" d="M92.8,266.5c-15.8,94.8,52,175.4,167.6,175.4c115.7,0,160-97.4,146.8-175.4l-41.6-156.2
			c-3.5-24.6-13.7-26.9-19.7-29.3c-65.5-25.7-141.9-27.9-195.3,0c-6.7,3.5-12.2,2.2-16.3,19.9L92.8,266.5z"/>
		
			<linearGradient id="path11619_1_" gradientUnits="userSpaceOnUse" x1="309.7451" y1="334.4697" x2="309.7451" y2="429.4797" gradientTransform="matrix(0.8405 0 0 1 -13.4578 -287.2575)">
			<stop  offset="0" style="stop-color:#B1B1B1"/>
			<stop  offset="0.2" style="stop-color:#DFDFDF"/>
			<stop  offset="1" style="stop-color:#565656"/>
		</linearGradient>
		<path id="path11619" class="st5" d="M267.3,100.5c0,29.3-9.2,53.1-20.4,53.2c-11.3,0-20.4-23.7-20.4-53.1v-0.1
			c0-29.3,9.2-53.1,20.4-53.2C258.2,47.2,267.3,70.9,267.3,100.5C267.3,100.4,267.3,100.4,267.3,100.5z"/>
		<path id="path11631" class="st6" d="M245.5,82.9c0,15.9-2.6,28.9-5.7,28.9c-3.1,0-5.7-12.9-5.7-28.9c0,0,0,0,0-0.1
			c0-15.9,2.6-28.9,5.7-28.9C242.9,53.9,245.5,66.9,245.5,82.9L245.5,82.9z"/>
	</g>
</svg>
