
<svg id="icon-screensaver" xmlns="http://www.w3.org/2000/svg" viewBox="0 0 500 500">
	<style type="text/css">
		.st0{fill:url(#SVGID_1_);}
		.st1{fill:url(#SVGID_2_);}
		.st2{fill:#fff;}
	</style>
	<linearGradient id="SVGID_1_" gradientUnits="userSpaceOnUse" x1="250" y1="420.45" x2="250" y2="83.55" gradientTransform="matrix(1 0 0 -1 0 502)">
		<stop  offset="0" style="stop-color:#fff"/>
		<stop  offset="0.9997" style="stop-color:#aaa"/>
	</linearGradient>
	<path class="st0" d="M456.1,418.4H43.9c-9.8,0-17.7-7.9-17.7-17.7V99.3c0-9.8,7.9-17.7,17.7-17.7H456c9.8,0,17.7,7.9,17.7,17.7
		v301.5C473.8,410.5,465.8,418.4,456.1,418.4z"/>
	<linearGradient id="SVGID_2_" gradientUnits="userSpaceOnUse" x1="250.1" y1="407.75" x2="250.1" y2="97.05" gradientTransform="matrix(1 0 0 -1 0 502)">
		<stop  offset="0" style="stop-color:#555"/>
		<stop  offset="1" style="stop-color:#333"/>
	</linearGradient>
	<path class="st1" d="M452.9,404.9H47.1c-4.6,0-8.2-3.7-8.2-8.2V102.5c0-4.6,3.7-8.2,8.2-8.2H453c4.6,0,8.2,3.7,8.2,8.2v294.3
		C461.2,401.2,457.5,404.9,452.9,404.9z"/>
	<polygon class="st2" points="303.4,233.1 299,225.6 290.4,225 296.1,218.5 294,210.1 301.9,213.6 309.2,208.9 308.4,217.6 
		315.1,223.1 306.6,225 "/>
	<polygon class="st2" points="267.9,365.8 252.5,360.1 239.1,369.5 239.8,353.1 226.7,343.2 242.5,338.8 247.8,323.3 256.9,337 
		273.3,337.3 263.1,350.1 "/>
	<polygon class="st2" points="342.1,294 346,288.3 343.6,281.9 350.1,283.9 355.5,279.6 355.6,286.5 361.3,290.2 354.9,292.5 
		353.1,299.1 348.9,293.6 "/>
	<path class="st2" d="M136.3,218.3c3.1-39.8,39.9-69.9,84.2-70.6c-9.4-5-19.9-8.2-31.1-9c-43.7-3.4-81.8,29.2-85.2,72.9
		c-3.4,43.7,29.2,81.8,72.9,85.2c4.9,0.4,9.8,0.3,14.6-0.2C157,283.9,133.6,252.8,136.3,218.3z"/>
	<polygon class="st2" points="368.2,183 374.3,174.1 370.5,164 380.8,167.1 389.2,160.4 389.4,171.1 398.5,177 388.3,180.6 
		385.5,191 378.9,182.4 "/>
</svg>
