
<svg id="icon-keyboard" xmlns="http://www.w3.org/2000/svg" viewBox="0 0 500 500">
	<style type="text/css">
		.st0{fill:url(#SVGID_1_);}
		.st1{opacity:0.2;}
		.st2{fill:#424242;}
		.st3{fill:#F5F5F5;}
	</style>
	<linearGradient id="SVGID_1_" gradientUnits="userSpaceOnUse" x1="250" y1="365.833" x2="250" y2="139.0496" gradientTransform="matrix(1 0 0 -1 0 502)">
		<stop offset="0" style="stop-color:#BDBDBD"/>
		<stop offset="1" style="stop-color:#9E9E9E"/>
	</linearGradient>
	<path class="st0" d="M463.1,363.4H36.9c-7.4,0-13.4-6-13.4-13.4V150c0-7.4,6-13.4,13.4-13.4h426.2c7.4,0,13.4,6,13.4,13.4V350
		C476.5,357.4,470.5,363.4,463.1,363.4z"/>
	<g class="st1">
		<path class="st2" d="M463.1,148c1.1,0,2,0.9,2,2v200c0,1.1-0.9,2-2,2H36.9c-1.1,0-2-0.9-2-2V150c0-1.1,0.9-2,2-2L463.1,148
			 M463.1,136.6H36.9c-7.4,0-13.4,6-13.4,13.4v200c0,7.4,6,13.4,13.4,13.4h426.2c7.4,0,13.4-6,13.4-13.4V150
			C476.5,142.6,470.5,136.6,463.1,136.6L463.1,136.6z"/>
	</g>
	<path class="st3" d="M70.9,195.4H52.5c-3.6,0-6.5-2.9-6.5-6.5v-18.4c0-3.6,2.9-6.5,6.5-6.5h18.4c3.6,0,6.5,2.9,6.5,6.5v18.4 C77.3,192.5,74.4,195.4,70.9,195.4z"/>
	<path class="st3" d="M115.7,195.4H97.3c-3.6,0-6.5-2.9-6.5-6.5v-18.4c0-3.6,2.9-6.5,6.5-6.5h18.4c3.6,0,6.5,2.9,6.5,6.5v18.4 C122.2,192.5,119.3,195.4,115.7,195.4z"/>
	<path class="st3" d="M160.5,195.4h-18.4c-3.6,0-6.5-2.9-6.5-6.5v-18.4c0-3.6,2.9-6.5,6.5-6.5h18.4c3.6,0,6.5,2.9,6.5,6.5v18.4 C167,192.5,164.1,195.4,160.5,195.4z"/>
	<path class="st3" d="M205.4,195.4H187c-3.6,0-6.5-2.9-6.5-6.5v-18.4c0-3.6,2.9-6.5,6.5-6.5h18.4c3.6,0,6.5,2.9,6.5,6.5v18.4 C211.8,192.5,208.9,195.4,205.4,195.4z"/>
	<path class="st3" d="M250.2,195.4h-18.4c-3.6,0-6.5-2.9-6.5-6.5v-18.4c0-3.6,2.9-6.5,6.5-6.5h18.4c3.6,0,6.5,2.9,6.5,6.5v18.4 C256.6,192.5,253.7,195.4,250.2,195.4z"/>
	<path class="st3" d="M295,195.4h-18.4c-3.6,0-6.5-2.9-6.5-6.5v-18.4c0-3.6,2.9-6.5,6.5-6.5H295c3.6,0,6.5,2.9,6.5,6.5v18.4 C301.5,192.5,298.6,195.4,295,195.4z"/>
	<path class="st3" d="M339.8,195.4h-18.4c-3.6,0-6.5-2.9-6.5-6.5v-18.4c0-3.6,2.9-6.5,6.5-6.5h18.4c3.6,0,6.5,2.9,6.5,6.5v18.4 C346.3,192.5,343.4,195.4,339.8,195.4z"/>
	<path class="st3" d="M384.7,195.4h-18.4c-3.6,0-6.5-2.9-6.5-6.5v-18.4c0-3.6,2.9-6.5,6.5-6.5h18.4c3.6,0,6.5,2.9,6.5,6.5v18.4 C391.1,192.5,388.2,195.4,384.7,195.4z"/>
	<path class="st3" d="M447.2,195.4h-34.1c-3.6,0-6.5-2.9-6.5-6.5v-18.4c0-3.6,2.9-6.5,6.5-6.5h34.1c3.6,0,6.5,2.9,6.5,6.5v18.4 C453.7,192.5,450.8,195.4,447.2,195.4z"/>
	<path class="st3" d="M428.8,242.4h18.4c3.6,0,6.5-2.9,6.5-6.5v-18.4c0-3.6-2.9-6.5-6.5-6.5h-18.4c-3.6,0-6.5,2.9-6.5,6.5v18.4 C422.4,239.5,425.3,242.4,428.8,242.4z"/>
	<path class="st3" d="M384,242.4h18.4c3.6,0,6.5-2.9,6.5-6.5v-18.4c0-3.6-2.9-6.5-6.5-6.5H384c-3.6,0-6.5,2.9-6.5,6.5v18.4 C377.5,239.5,380.4,242.4,384,242.4z"/>
	<path class="st3" d="M339.2,242.4h18.4c3.6,0,6.5-2.9,6.5-6.5v-18.4c0-3.6-2.9-6.5-6.5-6.5h-18.4c-3.6,0-6.5,2.9-6.5,6.5v18.4 C332.7,239.5,335.6,242.4,339.2,242.4z"/>
	<path class="st3" d="M294.3,242.4h18.4c3.6,0,6.5-2.9,6.5-6.5v-18.4c0-3.6-2.9-6.5-6.5-6.5h-18.4c-3.6,0-6.5,2.9-6.5,6.5v18.4 C287.9,239.5,290.8,242.4,294.3,242.4z"/>
	<path class="st3" d="M249.5,242.4h18.4c3.6,0,6.5-2.9,6.5-6.5v-18.4c0-3.6-2.9-6.5-6.5-6.5h-18.4c-3.6,0-6.5,2.9-6.5,6.5v18.4 C243.1,239.5,246,242.4,249.5,242.4z"/>
	<path class="st3" d="M204.7,242.4h18.4c3.6,0,6.5-2.9,6.5-6.5v-18.4c0-3.6-2.9-6.5-6.5-6.5h-18.4c-3.6,0-6.5,2.9-6.5,6.5v18.4 C198.2,239.5,201.1,242.4,204.7,242.4z"/>
	<path class="st3" d="M159.9,242.4h18.4c3.6,0,6.5-2.9,6.5-6.5v-18.4c0-3.6-2.9-6.5-6.5-6.5h-18.4c-3.6,0-6.5,2.9-6.5,6.5v18.4 C153.4,239.5,156.3,242.4,159.9,242.4z"/>
	<path class="st3" d="M115,242.4h18.4c3.6,0,6.5-2.9,6.5-6.5v-18.4c0-3.6-2.9-6.5-6.5-6.5H115c-3.6,0-6.5,2.9-6.5,6.5v18.4 C108.6,239.5,111.5,242.4,115,242.4z"/>
	<path class="st3" d="M52.5,242.4h34.1c3.6,0,6.5-2.9,6.5-6.5v-18.4c0-3.6-2.9-6.5-6.5-6.5H52.5c-3.6,0-6.5,2.9-6.5,6.5v18.4 C46,239.5,48.9,242.4,52.5,242.4z"/>
	<path class="st3" d="M319.2,289.4h18.6c3.5,0,6.4-2.9,6.4-6.4v-18.6c0-3.5-2.9-6.4-6.4-6.4h-18.6c-3.5,0-6.4,2.9-6.4,6.4V283 C312.8,286.5,315.7,289.4,319.2,289.4z"/>
	<path class="st3" d="M272.1,289.4h18.6c3.5,0,6.4-2.9,6.4-6.4v-18.6c0-3.5-2.9-6.4-6.4-6.4h-18.6c-3.5,0-6.4,2.9-6.4,6.4V283 C265.7,286.5,268.6,289.4,272.1,289.4z"/>
	<path class="st3" d="M225,289.4h18.6c3.5,0,6.4-2.9,6.4-6.4v-18.6c0-3.5-2.9-6.4-6.4-6.4H225c-3.5,0-6.4,2.9-6.4,6.4V283 C218.6,286.5,221.5,289.4,225,289.4z"/>
	<path class="st3" d="M178,289.4h18.6c3.5,0,6.4-2.9,6.4-6.4v-18.6c0-3.5-2.9-6.4-6.4-6.4H178c-3.5,0-6.4,2.9-6.4,6.4V283 C171.6,286.5,174.4,289.4,178,289.4z"/>
	<path class="st3" d="M130.9,289.4h18.6c3.5,0,6.4-2.9,6.4-6.4v-18.6c0-3.5-2.9-6.4-6.4-6.4h-18.6c-3.5,0-6.4,2.9-6.4,6.4V283 C124.5,286.5,127.3,289.4,130.9,289.4z"/>
	<path class="st3" d="M52.5,289.4H102c3.6,0,6.5-2.9,6.5-6.5v-18.4c0-3.6-2.9-6.5-6.5-6.5H52.5c-3.6,0-6.5,2.9-6.5,6.5v18.4 C46,286.5,48.9,289.4,52.5,289.4z"/>
	<path class="st3" d="M366.2,290h80.9c3.6,0,6.5-2.9,6.5-6.5v-19.7c0-3.6-2.9-6.5-6.5-6.5h-80.9c-3.6,0-6.5,2.9-6.5,6.5v19.7 C359.8,287.1,362.7,290,366.2,290z"/>
	<path class="st3" d="M428.8,336.4h18.4c3.6,0,6.5-2.9,6.5-6.5v-18.4c0-3.6-2.9-6.5-6.5-6.5h-18.4c-3.6,0-6.5,2.9-6.5,6.5v18.4 C422.4,333.5,425.3,336.4,428.8,336.4z"/>
	<path class="st3" d="M380.1,336.4h18.4c3.6,0,6.5-2.9,6.5-6.5v-18.4c0-3.6-2.9-6.5-6.5-6.5h-18.4c-3.6,0-6.5,2.9-6.5,6.5v18.4 C373.6,333.5,376.5,336.4,380.1,336.4z"/>
	<path class="st3" d="M150,336.4h199.8c3.6,0,6.5-2.9,6.5-6.5v-18.4c0-3.6-2.9-6.5-6.5-6.5H150c-3.6,0-6.5,2.9-6.5,6.5v18.4 C143.5,333.5,146.4,336.4,150,336.4z"/>
	<path class="st3" d="M101.2,336.4h18.4c3.6,0,6.5-2.9,6.5-6.5v-18.4c0-3.6-2.9-6.5-6.5-6.5h-18.4c-3.6,0-6.5,2.9-6.5,6.5v18.4 C94.7,333.5,97.6,336.4,101.2,336.4z"/>
	<path class="st3" d="M52.5,336.4h18.4c3.6,0,6.5-2.9,6.5-6.5v-18.4c0-3.6-2.9-6.5-6.5-6.5H52.5c-3.6,0-6.5,2.9-6.5,6.5v18.4 C46,333.5,48.9,336.4,52.5,336.4z"/>
</svg>
