
<svg id="icon-desktop" xmlns="http://www.w3.org/2000/svg" viewBox="0 0 44 44">
	<style type="text/css">
		.st0{fill:url(#SVGID_1_);}
		.st1{fill:#63B0E1;}
		.st2{fill:#26286E;}
		.st3{fill:#DFDDEF;}
		.st4{opacity:0.75;fill:#336699;enable-background:new    ;}
		.st5{opacity:0.45;fill:#336699;enable-background:new    ;}
	</style>
	<linearGradient id="SVGID_1_" gradientUnits="userSpaceOnUse" x1="29.2566" y1="31.1683" x2="18.7397" y2="1.8312" gradientTransform="matrix(1 0 0 -1 0 46)">
		<stop  offset="0" style="stop-color:#3AC4F3"/>
		<stop  offset="2.532520e-02" style="stop-color:#3FC3E6"/>
		<stop  offset="0.1093" style="stop-color:#46C1C8"/>
		<stop  offset="0.1935" style="stop-color:#49BEAE"/>
		<stop  offset="0.2765" style="stop-color:#4BBD9B"/>
		<stop  offset="0.3583" style="stop-color:#4BBC8E"/>
		<stop  offset="0.438" style="stop-color:#4CBB86"/>
		<stop  offset="0.5135" style="stop-color:#4CBB83"/>
		<stop  offset="0.5677" style="stop-color:#4CB685"/>
		<stop  offset="0.64" style="stop-color:#49AD8B"/>
		<stop  offset="0.7223" style="stop-color:#449E92"/>
		<stop  offset="0.8123" style="stop-color:#3F8A9A"/>
		<stop  offset="0.9071" style="stop-color:#3B71A0"/>
		<stop  offset="1" style="stop-color:#3754A5"/>
	</linearGradient>
	<path class="st0" d="M40.4,40.8l-31.7,0c-0.9,0-1.6-0.7-1.6-1.6l0-22.5c0-0.9,0.7-1.6,1.6-1.6l31.7,0c0.9,0,1.6,0.7,1.6,1.6l0,22.5
		C42,40.1,41.3,40.8,40.4,40.8z"/>
	<path d="M40.4,40.9l-31.7,0c-0.9,0-1.7-0.8-1.7-1.7l0-22.5C7,15.8,7.8,15,8.7,15l31.7,0c0.9,0,1.7,0.8,1.7,1.7l0,22.5
		C42.1,40.2,41.3,40.9,40.4,40.9z M8.7,15.2c-0.8,0-1.5,0.7-1.5,1.5l0,22.5c0,0.8,0.7,1.5,1.5,1.5l31.7,0c0.8,0,1.5-0.7,1.5-1.5
		l0-22.5c0-0.8-0.7-1.5-1.5-1.5L8.7,15.2z"/>
	<path class="st1" d="M35.3,31.9l-31.6,0c-0.9,0-1.6-0.7-1.6-1.6V4.7c0-0.9,0.7-1.6,1.6-1.6l31.6,0c0.9,0,1.6,0.7,1.6,1.6v25.6
		C36.9,31.2,36.2,31.9,35.3,31.9z"/>
	<path class="st2" d="M35.3,32L3.7,32C2.7,32,2,31.2,2,30.3V4.7C2,3.8,2.7,3,3.7,3l31.6,0C36.2,3,37,3.8,37,4.7v25.6
		C37,31.2,36.2,32,35.3,32z M3.7,3.2c-0.8,0-1.5,0.7-1.5,1.5v25.6c0,0.8,0.7,1.5,1.5,1.5l31.6,0c0.8,0,1.5-0.7,1.5-1.5V4.7
		c0-0.8-0.7-1.5-1.5-1.5L3.7,3.2z"/>
	<path class="st3" d="M36.9,9.4V4.7c0-0.9-0.7-1.6-1.6-1.6l-31.6,0c-0.9,0-1.6,0.7-1.6,1.6v4.7L36.9,9.4z"/>
	<path class="st2" d="M37,9.5l-35,0V4.7C2,3.8,2.7,3,3.7,3l31.6,0C36.2,3,37,3.8,37,4.7V9.5z M2.2,9.3l34.7,0V4.7
		c0-0.8-0.7-1.5-1.5-1.5l-31.6,0c-0.8,0-1.5,0.7-1.5,1.5V9.3z"/>
	<path class="st4" d="M35,7.6l-1-1c0.2-0.2,0.2-0.5,0.2-0.8c0-0.8-0.7-1.5-1.5-1.5S31.4,5,31.4,5.8s0.7,1.5,1.5,1.5
		c0.3,0,0.6-0.1,0.8-0.2l1,1c0.1,0.1,0.1,0.1,0.2,0.1S35,8.1,35,8C35.1,7.9,35.1,7.7,35,7.6z M32,5.8C32,5.4,32.4,5,32.8,5
		c0.5,0,0.9,0.4,0.9,0.9c0,0.5-0.4,0.9-0.9,0.9C32.4,6.7,32,6.3,32,5.8z"/>
	<circle class="st5" cx="4.8" cy="6.2" r="1.2"/>
	<circle class="st5" cx="8.4" cy="6.2" r="1.2"/>
	<circle class="st5" cx="12" cy="6.2" r="1.2"/>
</svg>
