<svg xmlns="http://www.w3.org/2000/svg" width="0" height="0">

	<svg id="icon-chevron-left" viewBox="0 0 13 13">
		<polygon fill="#333" points="9.2,1.6 8.5,0.8 3.5,5.8 3.5,5.8 2.8,6.5 3.5,7.2 8.5,12.2 9.2,11.4 4.2,6.5 "/>
	</svg>

	<svg id="icon-chevron-right" viewBox="0 0 13 13">
		<polygon fill="#333" points="2.8,11.4 3.5,12.2 8.5,7.2 8.5,7.2 9.2,6.5 8.5,5.8 3.5,0.8 2.8,1.6 7.8,6.5 "/>
	</svg>

	<svg id="icon-chevron-down" viewBox="0 0 13 13">
		<polygon fill="#333" points="1.6,3.3 0.8,4 5.8,9 5.8,9 6.5,9.7 7.2,9 12.2,4 11.4,3.3 6.5,8.3 "/>
	</svg>

	<svg id="icon-show-all" viewBox="0 0 13 13">
		<rect fill="#333" x="1" y="3" width="2" height="2"/>
		<rect fill="#333" x="1" y="6" width="2" height="2"/>
		<rect fill="#333" x="1" y="9" width="2" height="2"/>
		<rect fill="#333" x="4" y="3" width="2" height="2"/>
		<rect fill="#333" x="4" y="6" width="2" height="2"/>
		<rect fill="#333" x="4" y="9" width="2" height="2"/>
		<rect fill="#333" x="7" y="3" width="2" height="2"/>
		<rect fill="#333" x="7" y="6" width="2" height="2"/>
		<rect fill="#333" x="7" y="9" width="2" height="2"/>
		<rect fill="#333" x="10" y="3" width="2" height="2"/>
		<rect fill="#333" x="10" y="6" width="2" height="2"/>
		<rect fill="#333" x="10" y="9" width="2" height="2"/>
	</svg>

	<svg id="icon-add" viewBox="0 0 13 13">
		<polygon fill="#333" points="11,6 7,6 7,2 6,2 6,6 2,6 2,7 6,7 6,11 7,11 7,7 11,7 "/>
	</svg>

	<svg id="icon-times" viewBox="0 0 13 13">
		<polygon fill="#333" points="10.7,3 10,2.3 6.5,5.8 3,2.3 2.3,3 5.8,6.5 2.3,10 3,10.7 6.5,7.2 10,10.7 10.7,10 7.2,6.5 "/>
	</svg>

	<svg id="icon-plus" viewBox="0 0 13 13">
		<polygon points="11,6 7,6 7,2 6,2 6,6 2,6 2,7 6,7 6,11 7,11 7,7 11,7 "/>
	</svg>

	<svg id="icon-minus" viewBox="0 0 13 13">
		<rect fill="#333" x="2" y="6" width="9" height="1"/>
	</svg>

	<svg id="icon-camera" viewBox="0 0 500 500">
		<path fill="#999" d="M163.8,276.5c0,47.6,38.6,86.2,86.2,86.2s86.2-38.6,86.2-86.2s-38.6-86.2-86.2-86.2S163.8,228.9,163.8,276.5z M435.8,130.6 h-92.9c-6.6-26.5-13.3-53.1-39.8-53.1H196.9c-26.5,0-33.2,26.5-39.8,53.1H64.2c-14.6,0-26.5,11.9-26.5,26.5V396 c0,14.6,11.9,26.5,26.5,26.5h371.5c14.6,0,26.5-11.9,26.5-26.5V157.1C462.3,142.5,450.4,130.6,435.8,130.6z M250,394.3 c-65,0-117.8-52.7-117.8-117.8S185,158.8,250,158.8c65,0,117.8,52.7,117.8,117.8S315,394.3,250,394.3z M435.8,210.2h-53.1v-26.5 h53.1V210.2z"/>
	</svg>

	<svg id="icon-image" viewBox="0 0 500 500">
		<path fill="#999" d="M426.7,98.5C426.7,98.5,426.7,98.5,426.7,98.5l0,303c0,0,0,0,0,0H73.3c0,0,0,0,0,0V98.5c0,0,0,0,0,0 C73.3,98.5,426.7,98.5,426.7,98.5z M426.8,73.2H73.2C59.4,73.2,48,84.6,48,98.5v303c0,13.9,11.4,25.2,25.2,25.2h353.5 c13.9,0,25.2-11.4,25.2-25.2v-303C452,84.6,440.6,73.2,426.8,73.2L426.8,73.2z"/>
		<path fill="#999" d="M376.2,161.6c0,20.9-17,37.9-37.9,37.9s-37.9-17-37.9-37.9s17-37.9,37.9-37.9S376.2,140.7,376.2,161.6z"/>
		<path fill="#999" d="M401.5,376.2h-303v-50.5l88.4-151.5l101,126.2h25.2l88.4-75.8V376.2z"/>
	</svg>

	<svg id="icon-info" viewBox="0 0 15 15">
		<path fill="#777" d="M6.7,4.9c0-0.4,0.2-0.6,0.6-0.6h0.4c0.5,0,0.7,0.2,0.7,0.6v0.4c0,0.4-0.2,0.6-0.6,0.6H7.3c-0.4,0-0.6-0.2-0.6-0.6L6.7,4.9
			L6.7,4.9z"/>
		<path fill="#777" d="M9,10.8H5.8V9.9h0.8V7.5H5.8V6.7h2.4v3.2H9L9,10.8z"/>
		<path fill="#777" d="M7.5,1C3.9,1,1,3.9,1,7.5S3.9,14,7.5,14S14,11.1,14,7.5S11.1,1,7.5,1z M7.5,12.8c-2.9,0-5.3-2.4-5.3-5.3s2.4-5.3,5.3-5.3
			s5.3,2.4,5.3,5.3S10.4,12.8,7.5,12.8z"/>
	</svg>

	<svg id="icon-warning" viewBox="0 0 15 15">
		<path fill="#777" d="M13.4,11.1L8.6,2.8C8.3,2.3,7.9,2,7.5,2S6.7,2.3,6.4,2.8l-4.8,8.3C1,12.1,1.5,13,2.7,13h9.6
			C13.5,13,14,12.1,13.4,11.1z M6.9,6.2h1.2v2.9H6.9L6.9,6.2L6.9,6.2z M7.5,11c-0.4,0-0.7-0.3-0.7-0.7c0-0.4,0.3-0.7,0.7-0.7
			s0.7,0.3,0.7,0.7l0,0C8.2,10.7,7.9,11,7.5,11L7.5,11L7.5,11z"/>
	</svg>

	<svg id="icon-color-preset" viewBox="0 0 17 17">
		<style type="text/css">
			.st0{fill:#fff;}
			.st1{fill:url(#SVGID_1_);}
			.st2{fill:url(#SVGID_2_);}
			.st3{fill:url(#SVGID_3_);}
			.st4{fill:url(#SVGID_4_);}
			.st5{fill:url(#SVGID_5_);}
			.st6{fill:url(#SVGID_6_);stroke:#000;stroke-width:0.25;}
		</style>
		<linearGradient id="SVGID_1_" gradientUnits="userSpaceOnUse" x1="182.5296" y1="177.924" x2="185.6278" y2="183.2903" gradientTransform="matrix(1.2821 0 0 -1.2821 -225.4985 236.577)">
			<stop offset="0" style="stop-color:#fff;stop-opacity:0"/>
			<stop offset="1" style="stop-color:#FF0000;stop-opacity:0.7"/>
		</linearGradient>
		<linearGradient id="SVGID_2_" gradientUnits="userSpaceOnUse" x1="182.5475" y1="177.8933" x2="188.743" y2="177.8933" gradientTransform="matrix(1.2821 0 0 -1.2821 -225.4985 236.577)">
			<stop offset="0" style="stop-color:#fff;stop-opacity:0"/>
			<stop offset="1" style="stop-color:#0000FF;stop-opacity:0.7"/>
		</linearGradient>
		<linearGradient id="SVGID_3_" gradientUnits="userSpaceOnUse" x1="182.5296" y1="177.8627" x2="185.6278" y2="172.4964" gradientTransform="matrix(1.2821 0 0 -1.2821 -225.4985 236.577)">
			<stop offset="0" style="stop-color:#fff;stop-opacity:0"/>
			<stop offset="1" style="stop-color:#00AEEF;stop-opacity:0.7"/>
		</linearGradient>
		<linearGradient id="SVGID_4_" gradientUnits="userSpaceOnUse" x1="182.4945" y1="177.8632" x2="179.3963" y2="172.4969" gradientTransform="matrix(1.2821 0 0 -1.2821 -225.4985 236.577)">
			<stop offset="0" style="stop-color:#fff;stop-opacity:0"/>
			<stop offset="1" style="stop-color:#00FF00;stop-opacity:0.7"/>
		</linearGradient>
		<linearGradient id="SVGID_5_" gradientUnits="userSpaceOnUse" x1="182.4773" y1="177.8933" x2="176.2818" y2="177.8933" gradientTransform="matrix(1.2821 0 0 -1.2821 -225.4985 236.577)">
			<stop offset="0" style="stop-color:#fff;stop-opacity:0"/>
			<stop offset="1" style="stop-color:#FFFF00;stop-opacity:0.7"/>
		</linearGradient>
		<linearGradient id="SVGID_6_" gradientUnits="userSpaceOnUse" x1="182.4945" y1="177.9234" x2="179.3963" y2="183.2897" gradientTransform="matrix(1.2821 0 0 -1.2821 -225.4985 236.577)">
			<stop offset="0" style="stop-color:#fff;stop-opacity:0"/>
			<stop offset="1" style="stop-color:#FF00FF;stop-opacity:0.7"/>
		</linearGradient>
		<circle class="st0" cx="8.5" cy="8.5" r="7.9"/>
		<circle class="st1" cx="8.5" cy="8.5" r="7.9"/>
		<circle class="st2" cx="8.5" cy="8.5" r="7.9"/>
		<circle class="st3" cx="8.5" cy="8.5" r="7.9"/>
		<circle class="st4" cx="8.5" cy="8.5" r="7.9"/>
		<circle class="st5" cx="8.5" cy="8.5" r="7.9"/>
		<circle class="st6" cx="8.5" cy="8.5" r="7.9"/>
	</svg>

	<svg id="tiny-generic-folder" viewBox="0 0 15 15">
		<style type="text/css">
			.st0{fill:#97DAF8;stroke:#3829CC;stroke-width:0.15;stroke-miterlimit:10;}
			.st1{fill:#6FC7F1;stroke:#3829CC;stroke-width:0.15;stroke-miterlimit:10;}
		</style>
		<path class="st0" d="M1.1,2.9c0-0.5,0.3-0.8,0.6-0.8c0,0,2.8,0,3.6,0s0.9,1.6,1.9,1.7c1.4,0,6.2,0,6.2,0c0.3,0,0.6,0.3,0.6,0.6
			l0,6.9c0,0.3-0.3,0.6-0.6,0.6H1.6c-0.3,0-0.5-0.3-0.5-0.4V2.9z"/>
		<path class="st1" d="M1.1,5.2c0-0.3,0.3-0.6,0.6-0.6h11.7c0.3,0,0.6,0.3,0.6,0.6l0,7.1c0,0.3-0.3,0.6-0.6,0.6H1.6
			c-0.3,0-0.5-0.2-0.5-0.6C1.1,11.9,1.1,5.2,1.1,5.2z"/>
	</svg>

	<svg id="user" viewBox="0 0 29 29">
		<style type="text/css">
			.st0{fill:url(#SVGID_1_);}
		</style>
		<radialGradient id="SVGID_1_" cx="14.5" cy="-30.0798" r="13.2613" gradientTransform="matrix(1 0 0 1 0 42)" gradientUnits="userSpaceOnUse">
			<stop  offset="0" style="stop-color:#CFD4EF"/>
			<stop  offset="1" style="stop-color:#7F849F"/>
		</radialGradient>
		<path class="st0" d="M14.5,0C6.5,0,0,6.5,0,14.5c0,3.6,1.3,6.9,3.5,9.4c0.4-0.5,1-0.9,1.8-1.1c2.2-1,3.1-1.2,4.3-1.3
			c1.2-0.2,1.5-0.6,1.7-1.7c0.2-1.1,0.3-1.2,0.3-1.8c-0.7-0.5-1-1.4-1-1.9c0-0.5-0.2-1-0.2-1.5c-0.7,0.2-0.6-0.7-0.8-1.2
			c-0.1-0.2-0.4-1.2-0.5-1.9c-0.1-0.6,0.1-0.9,0.5-0.6c-0.4-1.2-0.3-2.2-0.4-3s-0.4-2.7,1-3c0.5-0.2,0.8-0.9,1.7-1.2
			c0.8-0.3,1.7-0.8,2.7-0.8c1,0,1.9,0.6,2.7,0.8c0.8,0.3,1.2,1,1.7,1.2c1.4,0.4,1,2.3,1,3c-0.1,0.8,0,1.8-0.4,3c0.4-0.3,0.6,0,0.5,0.6
			c-0.1,0.6-0.4,1.7-0.5,1.9c-0.2,0.5-0.1,1.3-0.8,1.2c0,0.5-0.2,1-0.2,1.5c0,0.5-0.3,1.4-1,1.9c0,0.5,0.1,0.7,0.3,1.8
			c0.2,1.1,0.4,1.5,1.7,1.7c1.2,0.2,2.5,0.5,4.3,1.3c0.8,0.3,1.3,0.7,1.8,1.1c2.1-2.5,3.5-5.8,3.5-9.4C29,6.5,22.5,0,14.5,0z"/>
	</svg>

	<svg id="home" viewBox="0 0 23 23">
		<style type="text/css">
			.st0{fill:#DDDDEE;}
			.st1{fill:#555166;}
			.st2{fill:#666666;}
			.st3{fill:#FAFAFF;}
			.st4{fill:#AAAABB;}
		</style>
		<polygon class="st0" points="19.1,10.4 11.5,3.9 3.9,10.4 3.9,20.4 19.1,20.4 "/>
		<path class="st1" d="M19.6,20.9H3.4V10.3l8.2-6.9l8.1,6.8V20.9z M4.1,20.2h14.8v-9.6l-7.4-6.3l-7.4,6.3V20.2z"/>
		<rect x="9.5" y="14.5" class="st2" width="4.1" height="6.1"/>
		<path class="st1" d="M13.9,20.8H9.2v-6.7h4.7V20.8z M9.8,20.2h3.5v-5.4H9.8V20.2z"/>
		<rect x="12.4" y="16.9" class="st3" width="0.6" height="1.4"/>
		<rect x="9.9" y="9" class="st3" width="3.4" height="3.4"/>
		<path class="st1" d="M13.5,12.6h-4v-4h4V12.6z M10.1,12h2.7V9.3h-2.7V12z"/>
		<polygon class="st2" points="17.9,9.5 15.9,7.7 15.9,4 17.9,4 "/>
		<path class="st1" d="M18.3,10.3l-2.7-2.4V3.6h2.7V10.3z M16.2,7.5l1.4,1.3V4.3h-1.4V7.5z"/>
		<rect x="10.1" y="10.9" class="st4" width="2.7" height="1"/>
		<polygon class="st1" points="2.9,12.9 1.4,11.2 11.6,2 21.6,11.2 20.1,12.9 11.5,5.1 "/>
		<rect x="2.3" y="19.9" class="st1" width="18.4" height="1.1"/>
	</svg>

	<svg id="clock" viewBox="0 0 500 500" cache="false">
		<style type="text/css">
			.st0{fill:none;stroke:var(--color-3);stroke-width:7;}
			.st1{fill:none;stroke:var(--color-3);stroke-width:9;}
			.st2 {
				stroke: var(--color-1);
				stroke-width: var(--stroke-hour);
				stroke-linecap: round;
				transform-origin: 50% 50%;
				transform: rotate(var(--rotation-hours));
			}
			.st3 {
				stroke: var(--color-1);
				stroke-width: var(--stroke-minute);
				stroke-linecap: round;
				transform-origin: 50% 50%;
				transform: rotate(var(--rotation-minutes));
			}
			.st4 {
				stroke: var(--color-2);
				stroke-width: var(--stroke-second);
				stroke-linecap: round;
				transform-origin: 50% 50%;
				transform: rotate(var(--rotation-seconds));
			}
			.st5 { fill: var(--color-1); }
		</style>
		<line class="st0" x1="149.2" y1="75.4" x2="141.2" y2="61.6"/>
		<line class="st0" x1="350.8" y1="424.6" x2="358.8" y2="438.4"/>
		<line class="st0" x1="438.4" y1="141.2" x2="424.6" y2="149.2"/>
		<line class="st0" x1="75.4" y1="350.8" x2="61.6" y2="358.8"/>
		<line class="st0" x1="424.6" y1="350.8" x2="438.4" y2="358.8"/>
		<line class="st0" x1="61.6" y1="141.2" x2="75.4" y2="149.2"/>
		<line class="st0" x1="358.8" y1="61.6" x2="350.8" y2="75.4"/>
		<line class="st0" x1="149.2" y1="424.6" x2="141.2" y2="438.4"/>
		<line class="st1" x1="250" y1="470.1" x2="250" y2="438.2"/>
		<line class="st1" x1="250" y1="29.9" x2="250" y2="65.8"/>
		<line class="st1" x1="470.1" y1="250" x2="438.2" y2="250"/>
		<line class="st1" x1="61.8" y1="250" x2="29.9" y2="250"/>

		<line class="st2" x1="250" y1="113" x2="250" y2="250"/>
		<line class="st3" x1="250" y1="67" x2="250" y2="250"/>
		<line class="st4" x1="250" y1="43" x2="250" y2="250"/>
		<circle class="st5" cx="250" cy="250" r="13"/>
	</svg>

	<svg id="icon-help" viewBox="0 0 13 13">
		<path fill="#333" d="M6.5,12c-0.3,0-0.5-0.1-0.7-0.3c-0.2-0.2-0.3-0.4-0.3-0.7c0-0.2,0.1-0.5,0.3-0.7c0.2-0.2,0.4-0.3,0.7-0.3
			c0.3,0,0.5,0.1,0.7,0.3c0.2,0.2,0.3,0.4,0.3,0.7c0,0.2-0.1,0.5-0.3,0.7C7,11.9,6.8,12,6.5,12z M7.1,9.1H5.8V8c0-0.3,0-0.6,0.1-0.8
			C5.9,7,6,6.8,6.1,6.6c0.1-0.2,0.3-0.4,0.4-0.5C6.7,6,6.8,5.8,7,5.7l0,0l0.4-0.4C7.6,5.1,7.8,4.9,8,4.7c0.1-0.2,0.2-0.5,0.2-0.9
			c0-0.3,0-0.5-0.1-0.7C8,2.9,7.9,2.8,7.7,2.6C7.6,2.5,7.4,2.4,7.2,2.3C7,2.2,6.8,2.2,6.5,2.2C6,2.2,5.6,2.4,5.3,2.7
			C5,3,4.8,3.3,4.8,3.8l0,0.1L3.4,3.7l0-0.1C3.6,2.8,4,2.1,4.5,1.7C5.1,1.2,5.8,1,6.6,1C7,1,7.4,1.1,7.7,1.2c0.4,0.1,0.7,0.3,1,0.5
			c0.3,0.2,0.5,0.5,0.6,0.9s0.2,0.7,0.2,1.2c0,0.3,0,0.6-0.1,0.9C9.4,4.9,9.3,5.1,9.1,5.3C9,5.5,8.9,5.7,8.7,5.8
			C8.5,6,8.3,6.1,8.2,6.3C7.9,6.5,7.8,6.6,7.6,6.7C7.5,6.9,7.4,7,7.3,7.1C7.2,7.3,7.2,7.4,7.1,7.6c0,0.2-0.1,0.4-0.1,0.6L7.1,9.1
			L7.1,9.1z"/>
	</svg>

	<svg id="icon-dropbox" viewBox="0 0 500 500">
		<style type="text/css">
			.st0{fill:#007ee5;}
		</style>
		<path class="st0" d="M124.3,198.1L250,275.7l-87,72.5L38.3,267.1L124.3,198.1z M375.2,339.4v27.5l-124.7,74.6v0.3l-0.3-0.3l-0.3,0.3 v-0.3l-124.4-74.6v-27.5l37.4,24.4l87-72.3V291l0.3,0.3l0.3-0.3v0.5l87.3,72.3L375.2,339.4z M163,48.3l87,72.5l-125.7,77.4l-86-68.7 L163,48.3z M375.7,198.1l86,69l-124.4,81.2L250,275.7L375.7,198.1z M337.3,48.3l124.4,81.2l-86,68.7L250,120.8L337.3,48.3z"/>
	</svg>

	<svg id="icon-pcloud" viewBox="0 0 500 500">
		<style type="text/css">
			.st1{fill-rule:evenodd;clip-rule:evenodd;fill:#1BBED0;}
		</style>
		<path class="st1" d="M250,139c-60,0-108.7,48.7-108.7,108.7c0,60,48.7,108.7,108.7,108.7s108.7-48.7,108.7-108.7 C358.7,187.6,310,139,250,139 M266.5,276h-35.4v28.4c0,7.8-6.3,14.2-14.2,14.2c-7.8,0-14.2-6.3-14.2-14.2v-104 c0-7.8,6.3-14.2,14.2-14.2h49.6c24.8,0,44.9,20.1,44.9,44.9C311.4,255.9,291.3,276,266.5,276"/>
		<path class="st1" d="M268.9,214.8l-37.8,0l0,32.7l37.8,0c8-1.1,14.2-8,14.2-16.3C283.1,222.8,276.9,215.9,268.9,214.8"/>
		<path class="st1" d="M445.7,260.2c-3.7,20.8-15.9,32.4-32.9,39.8c17.1-11.4,28.4-30.9,28.4-53c0-31.7-23.1-57.9-53.4-62.8 c8,16.5,9.3,29.3,7.6,44.8c-9.2-72.1-70.7-127.8-145.3-127.8c-80.9,0-146.5,65.6-146.5,146.5c0,13.6,1.8,26.7,5.3,39.2 c-6.5-16.5-10-34.5-10-53.3c0-17.6,3.1-34.5,8.8-50.2c-50.7,9.2-89.2,53.6-89.2,106.9c0,58.4,46.1,106.2,103.9,108.7h285.9 c39.5-1.6,73.2-35.5,73.2-75.4C481.5,296,467.8,273.1,445.7,260.2 M250,370.5c-67.8,0-122.8-55-122.8-122.8 c0-67.9,55-122.8,122.8-122.8s122.8,55,122.8,122.8C372.8,315.5,317.8,370.5,250,370.5"/>
	</svg>

	<svg id="icon-box" viewBox="0 0 500 500">
		<style type="text/css">
			.st0{fill-rule:evenodd;clip-rule:evenodd;fill:#0061D5;}
		</style>
		<path class="st0" d="M37.6,128.4c9.4,0,17,7.5,17.1,16.8v72.2c14.4-10.8,32.1-17.1,51.4-17.1c32.8,0,61.3,18.4,75.7,45.5 c14.4-27.1,42.9-45.5,75.7-45.5c47.3,0,85.6,38.3,85.6,85.6c0,47.3-38.4,85.7-85.6,85.7c-32.8,0-61.3-18.5-75.7-45.5 c-14.4,27-42.9,45.5-75.7,45.5c-46.8,0-84.9-37.6-85.6-84.2h0V145.2C20.7,135.9,28.2,128.4,37.6,128.4z M446.2,208 c6.3-7.3,17.7-8.8,25.9-3.1c8.1,5.6,9.8,16.1,3.9,23.7l-46.6,57.2l46.6,57.1c5.9,7.6,4.2,18.1-3.9,23.7c-8.1,5.6-19.6,4.2-25.9-3.1 l-40-49.1l-40.1,49.1c-6.2,7.3-17.7,8.8-25.9,3.1c-8.1-5.6-9.8-16.1-3.9-23.7h0l46.5-57.1l-46.5-57.2h0c-5.9-7.5-4.2-18.1,3.9-23.7 c8.1-5.6,19.6-4.2,25.9,3.1v0l40.1,49.1L446.2,208L446.2,208z M257.4,234.5c-28.4,0-51.4,23-51.4,51.3c0,28.4,23,51.4,51.4,51.4 c28.4,0,51.4-23,51.4-51.4C308.8,257.5,285.8,234.5,257.4,234.5z M106.1,234.5c-28.4,0-51.4,23-51.4,51.4c0,28.4,23,51.4,51.4,51.4 c28.4,0,51.4-23,51.4-51.4C157.5,257.5,134.5,234.5,106.1,234.5z"/>
	</svg>

	<svg id="icon-google-drive" viewBox="0 0 500 500">
		<style type="text/css">
			.st0{fill:#fcc83d;}
			.st1{fill:#19994e;}
			.st2{fill:#336cf6;}
		</style>
		<path class="st0" d="M448.7,276.3L327.1,65.7h-152l121.6,210.6H448.7z"/>
		<path class="st1" d="M159.9,92.1L40.5,298.9l76,131.6l119.4-206.8L159.9,92.1z"/>
		<path class="st2" d="M220.7,302.6l-75.9,131.6h238.8l75.9-131.6H220.7z"/>
	</svg>

	<svg id="icon-new-storage" viewBox="0 0 500 500">
		<style type="text/css">
			.st0{fill:none;stroke:#888;stroke-width:40;}
		</style>
		<path class="st0" d="M459.7,319.9c0,46.3-37.6,83.9-83.9,83.9H138.1c-54,0-97.9-43.9-97.9-97.9c0-39.1,23.2-73,56.4-88.5 c-0.2-3.1-0.4-6.3-0.4-9.4c0-61.8,50-111.9,111.9-111.9c46.8,0,86.7,28.6,103.6,69.5c9.6-8.5,22.3-13.5,36.3-13.5 c30.8,0,55.9,25.1,55.9,55.9c0,11.1-3.3,21.4-9,30.1C432,246.9,459.7,280.1,459.7,319.9z"/>
	</svg>

	@import "icon-padlock.svg"
	@import "icon-padlock-open.svg"

	@import "icon-dock.svg"
	@import "icon-update.svg"
	@import "icon-security.svg"
	@import "icon-sharing.svg"
	@import "icon-spotlight.svg"
	@import "icon-general.svg"
	@import "icon-desktop.svg"
	@import "icon-users-groups.svg"
	@import "icon-cloud-storage.svg"
	@import "icon-apis.svg"
	@import "icon-date-time.svg"
	@import "icon-keyboard.svg"
	@import "icon-display.svg"
	@import "icon-accessibility.svg"
	@import "icon-flag.svg"
	@import "icon-speaker.svg"
	@import "icon-mouse.svg"
	@import "icon-notifications.svg"
	@import "icon-screensaver.svg"

</svg>
