
<svg id="icon-display" xmlns="http://www.w3.org/2000/svg" viewBox="0 0 500 500">
	<style type="text/css">
		.st0{fill:url(#SVGID_1_);}
		.st1{fill:url(#SVGID_2_);}
		.st2{fill:url(#SVGID_3_);}
	</style>
	<linearGradient id="SVGID_1_" gradientUnits="userSpaceOnUse" x1="250" y1="353.9016" x2="250" y2="442.5235">
		<stop  offset="0" style="stop-color:#555"/>
		<stop  offset="0.3938" style="stop-color:#aaa"/>
		<stop  offset="0.675" style="stop-color:#999"/>
		<stop  offset="0.6906" style="stop-color:#777"/>
		<stop  offset="0.9997" style="stop-color:#333"/>
	</linearGradient>
	<linearGradient id="SVGID_2_" gradientUnits="userSpaceOnUse" x1="250" y1="57.4765" x2="250" y2="354.3453">
		<stop  offset="0" style="stop-color:#555"/>
		<stop  offset="0.9997" style="stop-color:#222"/>
	</linearGradient>
	<linearGradient id="SVGID_3_" gradientUnits="userSpaceOnUse" x1="250" y1="70.0311" x2="250" y2="340.7907">
		<stop  offset="0" style="stop-color:#bbf"/>
		<stop  offset="1" style="stop-color:#77b"/>
	</linearGradient>
	<path class="st0" d="M366.2,415h-85.6v-61.1h-61.1V415h-85.6c-5.3,0-9.6,4.3-9.6,9.6v8.3c0,5.3,4.3,9.6,9.6,9.6h232.4
		c5.3,0,9.6-4.3,9.6-9.6v-8.3C375.8,419.3,371.5,415,366.2,415z"/>
	<path class="st1" d="M456.1,354.3H43.9c-9.8,0-17.7-7.9-17.7-17.7V75.1c0-9.8,7.9-17.7,17.7-17.7h412.1c9.8,0,17.7,7.9,17.7,17.7
		v261.5C473.7,346.4,465.8,354.3,456.1,354.3z"/>
	<path class="st2" d="M452.9,340.8H47.1c-4.6,0-8.2-3.7-8.2-8.2V78.3c0-4.6,3.7-8.2,8.2-8.2h405.9c4.6,0,8.2,3.7,8.2,8.2v254.3
		C461.2,337.1,457.5,340.8,452.9,340.8z"/>
</svg>
