
<svg id="icon-accessibility" xmlns="http://www.w3.org/2000/svg" viewBox="0 0 500 500">
	<filter x="-6.1%" y="-3.9%" width="112.1%" height="113.2%" filterUnits="objectBoundingBox" id="drop-filter">
		<feOffset dx="0" dy="4" in="SourceAlpha" result="dropShadowOffsetOuter1"></feOffset>
		<feGaussianBlur stdDeviation="4" in="dropShadowOffsetOuter1" result="dropShadowBlurOuter1"></feGaussianBlur>
		<feColorMatrix values="0 0 0 0 0   0 0 0 0 0   0 0 0 0 0  0 0 0 0.5 0" type="matrix" in="dropShadowBlurOuter1" result="dropShadowMatrixOuter1"></feColorMatrix>
		<feMerge>
			<feMergeNode in="dropShadowMatrixOuter1"></feMergeNode>
			<feMergeNode in="SourceGraphic"></feMergeNode>
		</feMerge>
	</filter>
	<style type="text/css">
		.st0{fill:url(#Oval_1_);}
		.st1{fill:none;stroke:#f0f0f0;stroke-width:17;stroke-miterlimit:10;}
		.st2{fill:#f0f0f0;}
	</style>
	<linearGradient id="Oval_1_" gradientUnits="userSpaceOnUse" x1="250.5" y1="313.1" x2="250.5" y2="765.9" gradientTransform="matrix(1 0 0 1 0 -290)">
		<stop  offset="0" style="stop-color:#0DB7FA"/>
		<stop  offset="1" style="stop-color:#0036D9"/>
	</linearGradient>
	<circle id="Oval_3_" class="st0" cx="250.5" cy="249.5" r="226.4"/>
	<circle class="st1" filter="url(#drop-filter)" cx="250" cy="250" r="195.9"/>
	<path class="st2" filter="url(#drop-filter)" d="M362.4,176.4c-2.2-7.1-9.8-11.1-16.9-8.9c-16.2,5-42.7,8.1-71.7,9c-5-1-10-1.7-15.1-2c2.5-0.7,4.9-1.8,7.2-3.1
		s4.3-2.9,6.1-4.7c2.8-2.8,5-6,6.5-9.7s2.4-7.6,2.4-11.8c0-4.1-0.8-8.1-2.3-11.6c-1.5-3.6-3.7-6.8-6.3-9.6l-0.1-0.1l-0.1-0.1
		c-2.7-2.7-6-5-9.7-6.5c-3.6-1.5-7.6-2.4-11.8-2.4s-8.2,0.9-11.8,2.4s-6.9,3.8-9.7,6.5c-2.7,2.7-5,6-6.5,9.7s-2.4,7.6-2.4,11.8
		c0,4.2,0.9,8.2,2.4,11.8c1.5,3.6,3.8,6.9,6.5,9.7c1.8,1.8,3.8,3.4,6.1,4.7c2.2,1.3,4.6,2.3,7.2,3.1c-4.4,0.3-8.7,0.9-13,1.7
		c-29.2-1.4-56.7-5.2-74.7-11.6c-7-2.5-14.7,1.1-17.3,8.1s1.1,14.7,8.1,17.3c20.5,7.4,50.4,11.6,82,13.2l-0.3,65.3
		c-7,14.6-13.5,33.3-17.9,52.2c-4.2,17.9-6.7,36-6.2,51.3c0.2,6.4,3.9,10.5,8.5,12.2c1.7,0.6,3.5,0.9,5.4,0.9c1.7,0,3.3-0.4,4.9-1
		l0.4-0.2c4.5-2,8-6.2,7.9-12.6v-0.1c-0.4-12.7,1.8-28.3,5.5-43.8c3.8-16,9-31.8,14.6-44.2h0.9c5.6,12.4,10.9,28.2,14.6,44.2
		c3.6,15.5,5.8,31.2,5.5,43.8c-0.2,6.4,3.3,10.7,7.9,12.6c1.7,0.7,3.5,1.1,5.3,1.2c1.8,0,3.7-0.2,5.4-0.9c4.6-1.7,8.3-5.7,8.5-12.1
		l0-0.1c0.5-15.3-2-33.5-6.2-51.3c-4.5-18.9-10.9-37.6-17.9-52.2l0.1-64.8c31.7-1,61-4.6,79.5-10.3
		C360.7,191.1,364.7,183.6,362.4,176.4z"/>
</svg>
