
<svg id="icon-accessibility" xmlns="http://www.w3.org/2000/svg" viewBox="0 0 44 44">
	<style type="text/css">
		.st0{fill:url(#Oval_1_);}
		.st1{fill:#F0F0F0;}
	</style>
	<linearGradient id="Oval_1_" gradientUnits="userSpaceOnUse" x1="22" y1="-247.0936" x2="22" y2="-284.9064" gradientTransform="matrix(1 0 0 -1 0 -244)">
		<stop  offset="0" style="stop-color:#0DB7FA"/>
		<stop  offset="1" style="stop-color:#0036D9"/>
	</linearGradient>
	<circle id="Oval_3_" class="st0" cx="22" cy="22" r="18.9"/>
	<path class="st1" d="M22,39.1c-9.4,0-17.1-7.7-17.1-17.1C4.9,12.6,12.5,5,22,5C31.4,5,39,12.6,39,22C39,31.5,31.4,39.1,22,39.1z
		 M22,6.4c-8.6,0-15.6,7-15.6,15.6c0,8.6,7,15.6,15.6,15.6c8.6,0,15.6-7,15.6-15.6C37.6,13.4,30.6,6.4,22,6.4z"/>
	<path class="st1" d="M31.3,15.9c-0.2-0.6-0.8-0.9-1.4-0.7c-1.4,0.4-3.6,0.7-6,0.8c-0.4-0.1-0.8-0.1-1.3-0.2c0.2-0.1,0.4-0.2,0.6-0.3
		s0.4-0.2,0.5-0.4c0.2-0.2,0.4-0.5,0.5-0.8c0.1-0.3,0.2-0.6,0.2-1c0-0.3-0.1-0.7-0.2-1c-0.1-0.3-0.3-0.6-0.5-0.8l0,0l0,0
		c-0.2-0.2-0.5-0.4-0.8-0.5c-0.3-0.1-0.6-0.2-1-0.2s-0.7,0.1-1,0.2c-0.3,0.1-0.6,0.3-0.8,0.5c-0.2,0.2-0.4,0.5-0.5,0.8
		c-0.1,0.3-0.2,0.6-0.2,1c0,0.4,0.1,0.7,0.2,1c0.1,0.3,0.3,0.6,0.5,0.8c0.2,0.2,0.3,0.3,0.5,0.4c0.2,0.1,0.4,0.2,0.6,0.3
		c-0.4,0-0.7,0.1-1.1,0.1c-2.4-0.1-4.7-0.4-6.2-1c-0.6-0.2-1.2,0.1-1.4,0.7c-0.2,0.6,0.1,1.2,0.7,1.4c1.7,0.6,4.2,1,6.8,1.1l0,5.5
		c-0.6,1.2-1.1,2.8-1.5,4.4c-0.4,1.5-0.6,3-0.5,4.3c0,0.5,0.3,0.9,0.7,1c0.1,0.1,0.3,0.1,0.5,0.1c0.1,0,0.3,0,0.4-0.1l0,0
		c0.4-0.2,0.7-0.5,0.7-1.1v0c0-1.1,0.2-2.4,0.5-3.7c0.3-1.3,0.8-2.7,1.2-3.7h0.1c0.5,1,0.9,2.4,1.2,3.7c0.3,1.3,0.5,2.6,0.5,3.7
		c0,0.5,0.3,0.9,0.7,1.1c0.1,0.1,0.3,0.1,0.4,0.1c0.2,0,0.3,0,0.5-0.1c0.4-0.1,0.7-0.5,0.7-1v0c0-1.3-0.2-2.8-0.5-4.3
		c-0.4-1.6-0.9-3.1-1.5-4.4l0-5.4c2.6-0.1,5.1-0.4,6.6-0.9C31.2,17.1,31.5,16.5,31.3,15.9z"/>
</svg>
