<svg xmlns="http://www.w3.org/2000/svg" width="0" height="0">
	<svg id="icon-chevron-left" viewBox="0 0 240 240">
		<polyline fill="none" stroke="#333" stroke-width="32" stroke-linecap="round" stroke-linejoin="round" points="165,28.75 74,119.75 165.75,211"/>
	</svg>

	<svg id="icon-chevron-right" viewBox="0 0 240 240">
		<polyline fill="none" stroke="#333" stroke-width="32" stroke-linecap="round" stroke-linejoin="round" points="74,211.25 165,120.25 74.25,28"/>
	</svg>

	<svg id="icon-show-all" viewBox="0 0 240 240">
		<rect fill="#333" y="40" width="40" height="40"/>
		<rect fill="#333" x="60" y="40" width="40" height="40"/>
		<rect fill="#333" x="120" y="40" width="40" height="40"/>
		<rect fill="#333" x="180" y="40" width="40" height="40"/>
		<rect fill="#333" y="100" width="40" height="40"/>
		<rect fill="#333" x="60" y="100" width="40" height="40"/>
		<rect fill="#333" x="120" y="100" width="40" height="40"/>
		<rect fill="#333" x="180" y="100" width="40" height="40"/>
		<rect fill="#333" y="160" width="40" height="40"/>
		<rect fill="#333" x="60" y="160" width="40" height="40"/>
		<rect fill="#333" x="120" y="160" width="40" height="40"/>
		<rect fill="#333" x="180" y="160" width="40" height="40"/>
	</svg>

	<svg id="icon-add" viewBox="0 0 500 500">
		<path d="M446.5,226.5h-173v-173c0-13-10.5-23.5-23.5-23.5c-13,0-23.5,10.5-23.5,23.5v173h-173C40.5,226.5,30,237,30,250 c0,13,10.5,23.5,23.5,23.5h173v173c0,13,10.5,23.5,23.5,23.5c13,0,23.5-10.5,23.5-23.5v-173h173c13,0,23.5-10.5,23.5-23.5 C470,237,459.5,226.5,446.5,226.5z"/>
	</svg>

	<svg id="icon-times" viewBox="0 0 500 500">
		<path d="M303,250l149.5-149.5c14.6-14.6,14.6-38.4,0-53s-38.4-14.6-53,0L250,197L100.5,47.5c-14.6-14.6-38.4-14.6-53,0 s-14.6,38.4,0,53L197,250L47.5,399.5c-14.6,14.6-14.6,38.4,0,53c7.3,7.3,16.9,11,26.5,11s19.2-3.7,26.5-11L250,303l149.5,149.5 c7.3,7.3,16.9,11,26.5,11s19.2-3.7,26.5-11c14.6-14.6,14.6-38.4,0-53L303,250z"/>
	</svg>

	<svg id="user" viewBox="0 0 500 500">
		<style type="text/css">
			.st0{fill:#FFFFFF;}
			.st1{fill:url(#SVGID_1_);}
		</style>
		<radialGradient id="SVGID_1_" cx="250" cy="250" r="250" gradientTransform="matrix(1 0 0 -1 0 500)" gradientUnits="userSpaceOnUse">
			<stop  offset="0" style="stop-color:#CFD4EF"/>
			<stop  offset="1" style="stop-color:#7F849F"/>
		</radialGradient>
		<circle class="st0" cx="250" cy="250" r="250"/>
		<path class="st1" d="M0,0v500h35.5c0,0-13.7-83,54.7-107.7c37.6-17.4,53.4-20.2,74.2-23.4c20.8-3.3,26-11.1,28.6-29.9 c2.6-18.9,4.6-21.5,4.6-30.6c-12.4-8.5-16.3-24.1-16.9-32.6c-0.7-8.5-3.9-17.6-3.3-25.7c-11.7,2.6-10.3-11.9-13.7-19.9 c-1.3-3-7.8-21.5-9.1-31.9c-1.3-10.4,2-15,9.1-10.4c-6.5-20.2-4.6-38.4-5.9-51.4c-1.3-13-7.8-45.6,16.3-52.1 c8.5-2.8,13.8-15,28.5-19.9s29.8-14.2,47.4-14.2s32.7,9.3,47.4,14.2s20,17.1,28.5,19.9c24.1,6.5,17.6,39.1,16.3,52.1 c-1.3,13,0.7,31.2-5.9,51.4c7.2-4.6,10.4,0,9.1,10.4c-1.3,10.4-7.8,28.9-9.1,31.9c-3.4,8-2,22.5-13.7,19.9 c0.7,8.1-2.6,17.3-3.3,25.7c-0.7,8.5-4.6,24.1-16.9,32.6c0,9.1,2,11.7,4.6,30.6c2.6,18.9,7.8,26.7,28.6,29.9 c20.8,3.3,43.6,8.5,74.2,23.4C478.2,417,464.5,500,464.5,500H500V0H0z"/>
	</svg>

	<svg id="home" viewBox="0 0 500 500">
		<style type="text/css">
			.st0{fill:#DDDDEE;}
			.st1{fill:#666666;}
			.st2{fill:#AAAABB;}
			.st3{fill:#FFFFFF;}
			.st4{fill:#433F50;}
			.st5{fill:#433F50;enable-background:new;}
		</style>
		<polygon class="st0" points="418.1,242.9 250,88.8 82.6,241.4 82.6,454.2 418.1,454.2 "/>
		<path class="st1" d="M205.8,321v133.2h89.6V321H205.8z M283.2,402.8h-13.9v-29.4h13.9V402.8z"/>
		<rect x="220.7" y="231.5" class="st2" width="60" height="22.8"/>
		<rect x="220.7" y="194.5" class="st3" width="60" height="37"/>
		<path class="st4" d="M294.6,268.3h-87.8v-87.8h87.8V268.3z M220.8,254.4h60v-60h-60V254.4z"/>
		<path class="st5" d="M439.1,274.8l33.4-36.8l-73.7-67V73h-59v44.5l-89.1-80.9L27.5,238l33.3,36.9l13.9-12.6v182.7h-9.4v18.5h369.8 v-18.5H426v-182L439.1,274.8z M353.7,86.9h31.2v71.5l-31.2-28.3V86.9z M288.5,444.9h-75.7V328h75.7V444.9z M410.2,444.9H302.4V314.1 H198.8v130.9H90.5V248l160-144.5l159.7,145V444.9z"/>
	</svg>

	@import "icon-dock.svg"
	@import "icon-update.svg"
	@import "icon-security.svg"
	@import "icon-sharing.svg"
	@import "icon-spotlight.svg"
	@import "icon-general.svg"
	@import "icon-desktop.svg"
	@import "icon-users-groups.svg"
	@import "icon-apis.svg"
	@import "icon-date-time.svg"
	@import "icon-keyboard.svg"
	@import "icon-display.svg"
	@import "icon-accessibility.svg"
	@import "icon-flag.svg"
	@import "icon-speaker.svg"
	@import "icon-mouse.svg"
	@import "icon-notifications.svg"
	@import "icon-screensaver.svg"
</svg>
