
<svg id="icon-sharing" xmlns="http://www.w3.org/2000/svg" viewBox="0 0 44 44">
	<style type="text/css">
		.st0{fill:#97DAF8;}
		.st1{fill:#6FC7F1;}
		.st2{opacity:0.4;fill:url(#SVGID_1_);enable-background:new    ;}
		.st3{opacity:0.4;fill:url(#SVGID_2_);enable-background:new    ;}
		.st4{opacity:0.4;fill:url(#SVGID_3_);enable-background:new    ;}
		.st5{fill:url(#SVGID_4_);stroke:#545B28;stroke-width:0.35;stroke-miterlimit:10;}
		.st6{fill:#333333;}
	</style>
	<path class="st0" d="M2,7.9C2,6.9,2.9,6,3.9,6c0,0,6.4,0,9.1,0c3.4,0,2.4,3.1,5.3,3.1c4.2,0,21.8,0,21.8,0c1,0,1.9,0.9,1.9,1.9
		l0,26.1c0,1-0.9,1.9-1.9,1.9H3.8c-1,0-1.9-0.9-1.9-1.9L2,7.9z"/>
	<path class="st1" d="M2,12.8c0-1,0.9-1.9,1.9-1.9h36.2c1,0,1.9,0.9,1.9,1.9l0,24.2c0,1-0.9,1.9-1.9,1.9H3.8c-1,0-1.9-0.9-1.9-1.9
		L2,12.8z"/>
	<linearGradient id="SVGID_1_" gradientUnits="userSpaceOnUse" x1="118.5472" y1="438.5704" x2="118.5472" y2="439.7189" gradientTransform="matrix(0.9766 0 0 0.9766 -93.8516 -392.7047)">
		<stop  offset="0" style="stop-color:#FFFFFF;stop-opacity:0.5"/>
		<stop  offset="9.200000e-02" style="stop-color:#E0E1E2;stop-opacity:0.3"/>
		<stop  offset="0.9102" style="stop-color:#4054A4;stop-opacity:0.3"/>
		<stop  offset="1" style="stop-color:#384EA2;stop-opacity:0.5"/>
	</linearGradient>
	<rect x="2" y="35.6" class="st2" width="39.9" height="1.1"/>
	<linearGradient id="SVGID_2_" gradientUnits="userSpaceOnUse" x1="118.5472" y1="439.7189" x2="118.5472" y2="440.8672" gradientTransform="matrix(0.9766 0 0 0.9766 -93.8516 -392.7047)">
		<stop  offset="0" style="stop-color:#FFFFFF;stop-opacity:0.5"/>
		<stop  offset="9.200000e-02" style="stop-color:#E0E1E2;stop-opacity:0.3"/>
		<stop  offset="0.9102" style="stop-color:#4054A4;stop-opacity:0.3"/>
		<stop  offset="1" style="stop-color:#384EA2;stop-opacity:0.5"/>
	</linearGradient>
	<path class="st3" d="M2,37.1c0,0.3,0.1,0.5,0.2,0.8h39.6c0.1-0.2,0.2-0.5,0.2-0.8v-0.3H2V37.1z"/>
	<linearGradient id="SVGID_3_" gradientUnits="userSpaceOnUse" x1="118.5873" y1="440.8673" x2="118.5873" y2="441.9581" gradientTransform="matrix(0.9766 0 0 0.9766 -93.8516 -392.7047)">
		<stop  offset="0" style="stop-color:#FFFFFF;stop-opacity:0.5"/>
		<stop  offset="9.200000e-02" style="stop-color:#E0E1E2;stop-opacity:0.3"/>
		<stop  offset="0.9102" style="stop-color:#4054A4;stop-opacity:0.3"/>
		<stop  offset="1" style="stop-color:#384EA2;stop-opacity:0.5"/>
	</linearGradient>
	<path class="st4" d="M3.8,38.9h36.2c0.7,0,1.4-0.5,1.6-1.1H2.2C2.4,38.5,3.1,38.9,3.8,38.9z"/>
	<linearGradient id="SVGID_4_" gradientUnits="userSpaceOnUse" x1="21.9608" y1="592.6088" x2="21.9608" y2="549.9225" gradientTransform="matrix(1 0 0 -1 0 602)">
		<stop  offset="0" style="stop-color:#FFFF22"/>
		<stop  offset="1" style="stop-color:#777722"/>
	</linearGradient>
	<path class="st5" d="M31.7,24.9L22.6,34c-0.4,0.4-0.9,0.4-1.3,0l-9.1-9.1c-0.4-0.4-0.4-0.9,0-1.3l9.1-9.1c0.4-0.4,0.9-0.4,1.3,0
		l9.1,9.1C32.1,24,32.1,24.5,31.7,24.9z"/>
	<circle class="st6" cx="21.2" cy="19.3" r="0.9"/>
	<path class="st6" d="M18.3,23.3c0.3,0,1.3-0.2,1.3-0.2c0.1,0,0,0,0,0c0,0,0.9-1.9,1-2c0.1-0.1,0.3-0.4,0.7-0.5
		c0.3-0.1,0.7,0.1,0.7,0.1s1.7,1,1.8,1c0.1,0.1,0.2,0.3,0.2,0.3l0.8,1.5c0.1,0.1,0.1,0.2,0.1,0.3c0,0.3-0.2,0.5-0.5,0.5
		c-0.2,0-0.4-0.2-0.5-0.4l-0.7-1.4l-0.5-0.3c0,0.1,0.5,2.2,0.5,2.2l0.4,2.4l1.5,1.8c0.1,0.1,0.2,0.2,0.2,0.4c0,0.3-0.2,0.6-0.6,0.6
		c-0.2,0-0.4-0.1-0.5-0.2c-0.3-0.3-1.7-2-1.8-2.1c-0.1-0.2-0.2-0.3-0.2-0.4c0-0.1-0.3-1.6-0.3-1.6l-1.4,1.4v2.5l0,0
		c0,0.3-0.3,0.5-0.6,0.5s-0.5-0.2-0.6-0.5l0,0c0,0,0,0,0-0.1v0v0c0-0.4,0-2.3,0-2.7c0-0.5,0.2-0.6,0.2-0.6s1.4-1.5,1.4-1.5l-0.3-1.4
		c0,0-0.4,0.7-0.4,0.8s-0.2,0.2-0.3,0.3c-0.1,0-1.7,0.4-1.7,0.4l0,0c0,0,0,0-0.1,0c-0.3,0-0.5-0.2-0.5-0.5
		C17.9,23.5,18.1,23.3,18.3,23.3z"/>
</svg>
