
<svg id="icon-screensaver" xmlns="http://www.w3.org/2000/svg" viewBox="0 0 44 44">
	<style type="text/css">
		.st0{fill:url(#SVGID_1_);}
		.st1{fill:url(#SVGID_2_);}
		.st2{fill:#FFFFFF;}
	</style>
	<linearGradient id="SVGID_1_" gradientUnits="userSpaceOnUse" x1="22" y1="-451.0504" x2="22" y2="-420.9496" gradientTransform="matrix(1 0 0 1 0 458)">
		<stop  offset="0" style="stop-color:#FFFFFF"/>
		<stop  offset="0.9997" style="stop-color:#AAAAAA"/>
	</linearGradient>
	<path class="st0" d="M40.4,37.1H3.6c-0.9,0-1.6-0.7-1.6-1.6V8.5c0-0.9,0.7-1.6,1.6-1.6h36.8c0.9,0,1.6,0.7,1.6,1.6v26.9
		C42,36.3,41.3,37.1,40.4,37.1z"/>
	<linearGradient id="SVGID_2_" gradientUnits="userSpaceOnUse" x1="22.0089" y1="-449.9153" x2="22.0089" y2="-422.1562" gradientTransform="matrix(1 0 0 1 0 458)">
		<stop  offset="0" style="stop-color:#555555"/>
		<stop  offset="1" style="stop-color:#333333"/>
	</linearGradient>
	<path class="st1" d="M40.1,35.8H3.9c-0.4,0-0.7-0.3-0.7-0.7V8.8c0-0.4,0.3-0.7,0.7-0.7h36.3c0.4,0,0.7,0.3,0.7,0.7v26.3
		C40.9,35.5,40.5,35.8,40.1,35.8z"/>
	<polygon class="st2" points="26.8,20.5 26.4,19.8 25.6,19.8 26.1,19.2 25.9,18.4 26.6,18.7 27.3,18.3 27.2,19.1 27.8,19.6 
		27.1,19.8 "/>
	<polygon class="st2" points="23.6,32.3 22.2,31.8 21,32.7 21.1,31.2 19.9,30.3 21.3,29.9 21.8,28.6 22.6,29.8 24.1,29.8 23.2,30.9 
		"/>
	<polygon class="st2" points="30.2,25.9 30.6,25.4 30.4,24.9 31,25 31.4,24.6 31.4,25.3 32,25.6 31.4,25.8 31.2,26.4 30.8,25.9 "/>
	<path class="st2" d="M11.8,19.2c0.3-3.6,3.6-6.2,7.5-6.3c-0.8-0.4-1.8-0.7-2.8-0.8c-3.9-0.3-7.3,2.6-7.6,6.5
		c-0.3,3.9,2.6,7.3,6.5,7.6c0.4,0,0.9,0,1.3,0C13.7,25,11.6,22.3,11.8,19.2z"/>
	<polygon class="st2" points="32.6,16 33.1,15.2 32.8,14.3 33.7,14.6 34.4,14 34.5,14.9 35.3,15.5 34.4,15.8 34.1,16.7 33.5,16 "/>
</svg>
