
<svg id="worldmap-land" viewBox="0 0 540 300">
	<style>
		
	</style>

	<linearGradient id="WMGID_1_" gradientUnits="userSpaceOnUse" x1="215.9692" y1="394.6992" x2="215.9692" y2="37.2388">
		<stop offset="0" style="stop-color:rgba(0,0,0,.425)"/>
		<stop offset="1" style="stop-color:rgba(0,0,0,.225)"/>
	</linearGradient>

	<filter id="WMDS_1" x="0" y="0" width="200%" height="200%">
		<feDropShadow dx="0" dy="1" stdDeviation="1" flood-color="#fff" flood-opacity="0.9" />
		<feDropShadow dx="0" dy="-1" stdDeviation="1" flood-color="#666" flood-opacity="0.75" />
	</filter>


	<linearGradient id="WMGID_1_DARK" gradientUnits="userSpaceOnUse" x1="215.9692" y1="394.6992" x2="215.9692" y2="37.2388">
		<stop offset="0" style="stop-color:rgba(255,255,255,.15)"/>
		<stop offset="1" style="stop-color:rgba(255,255,255,.225)"/>
	</linearGradient>

	<filter id="WMDS_1_DARK" x="0" y="0" width="200%" height="200%">
		<feDropShadow dx="0" dy="1.25" stdDeviation="1.25" flood-color="#000" flood-opacity="0.5" />
		<feDropShadow dx="0" dy="-1" stdDeviation="1" flood-color="#111" flood-opacity="0.75" />
	</filter>

	<path class="land" d="M526.2,51.9l2.3,1.7l-4.2,0.8l-1.6-0.7L526.2,51.9L526.2,51.9z M462.4,38c0,0-2.3,1.3-2.3,1.6c0,0.4,0.8,2.2,0.8,2.2 l2.6,1.3l1.1-0.7h4.9l1.9-0.9l1-1.6l-3.2-1l-2.6-0.5l-1,1.3L462.4,38L462.4,38z M474.1,40.1l-0.4,1.1l5.2,1.8l1.9-1.4L474.1,40.1 L474.1,40.1z M469.5,47.4l0.5-0.6l-3.6-1.7l-1.3,1.5L469.5,47.4L469.5,47.4z M395.5,25l4.3-1.1l1.2-1.2l-3.1-3.1l-5.4,2.7L395.5,25 L395.5,25z M399,28.5h4.8v-4h-3.2l-5.1,0.5L399,28.5L399,28.5z M402.8,32.4l9.8-2.5l-3.9-3.9L402.8,32.4L402.8,32.4z M468.9,95.9 l-0.4,1.5l-1.1,0.1v15.3l1.1-1.3l1.4,1.1l-0.6-6.2l2.3,0.9l-1.5-3.1l-0.3-2.3l0.1-2.3L468.9,95.9L468.9,95.9z M438.4,162.8l-2.2-0.3 l-1.6,4.9l0.9,4.6l1.7,1.7l-0.3-2l0.6-0.3l3.5,1.6l-0.5-2.4l-3-0.3l1.3-4.7L438.4,162.8L438.4,162.8z M415.5,198.2l-1.6-1.7 l-0.6,0.9l-0.8-1.9l-1.6-0.8l0.3-1.3l-4.7-4.3l-4.6-5.5l-3.8-0.6l3.9,6.5l1.4,0.9l2.5,4.2l3.5,6.6l2.7,1.7l2.2-0.6L415.5,198.2 L415.5,198.2L415.5,198.2L415.5,198.2z M427.1,207.1l-0.3-1.1l-2-0.8l1.3-0.5l-4.6-0.9l-7.6-0.8l-0.6,1.9l3.9,1.6l11.5,1.3 L427.1,207.1L427.1,207.1z M432.3,200.3l0.6,3.8l1.7-0.3l0.8-3.6l1.6,3.1l1.3-0.8l-1.9-4.4l2.5-0.5V196l-4.1-0.5l0.2-1.7l5.2,0.2 l1.6-2.2l-0.5-0.3l-7.9,2.1L432.3,200.3L432.3,200.3z M443.2,182.9l1.7-4.2l-0.8-2.2l-4.4,1.3l-1.6,0.9l-0.3,1.6h3l-0.2,1.4 L443.2,182.9L443.2,182.9z M427.7,183.7l-5.8,3.6l-1.3,2l-2.1-0.6l0.6,6.3l0.8,2.5l6.9,1.1l3-2.7l0.9-4.7l1.4-0.8l-1.7-5l2.4-2.2 l-2.1-2.5L427.7,183.7L427.7,183.7L427.7,183.7L427.7,183.7z M461.7,129.7l-2.2,1.3l-6.8,2.1l-3.6,4l0.6,3l1.8,0.1l1.1-4.5l1.6-0.2 l1.5-0.9l1.1,1.3l1.5,0.7l1.1-1.5l3.4-0.6l2-1.3l1-2.9l1.6-4.5l-1.3-3.5l-0.3,1.3l-1.6-0.3l-0.9,4.6L461.7,129.7L461.7,129.7z  M466.7,117.6l-2.5,2.9l1.1,0.1l3.1-0.4l1.2,0.9l3.5-2.7l-0.3-2.5l-0.4,0.3l-1.5,0.5l-3.6-2.5l-1,1l1.6,0.7l-1.1-0.2L466.7,117.6 L466.7,117.6z M375.4,182.8l2.5-1.5l-1.7-4l-2,2L375.4,182.8L375.4,182.8L375.4,182.8z"/>
	<path class="land" d="M288.4,128.5l1.1,0.7l-0.5,1.7l-2.1-0.7l-0.6-1.6L288.4,128.5L288.4,128.5z M289.9,132.8v0.6l1.9,0.7l2.2-0.3v-0.6h-2.9 l-0.5-0.5L289.9,132.8L289.9,132.8z M266.8,123l0,0.7l0.5,0.9l-0.1,1.8l0.6,0.6l0.6-0.6l0.4-0.4l0.4-2.2l-0.5-1.1L266.8,123 L266.8,123z M267.7,119.8v1.4l0.7,0.7l0.4-2.3v-0.8L267.7,119.8L267.7,119.8L267.7,119.8z M258.2,125.4l0.8,0.8l0.7-1.1l-0.5-0.5 l-1,0.6 M271,92.6c0,0.3,0.8,1.4,0.8,1.4l0.5,0.5l1.2-1.8l-0.7-0.7L271,92.6L271,92.6z M282.1,89.7l0.7-1.1l0.4-1l-1.7,0.8 L282.1,89.7z M269.7,93.1v0.9l0.9,0.3v-0.9L269.7,93.1L269.7,93.1z M244.8,90.6l1.9,1.4l0.3,2.5l2.5,0l-0.6,0.8l1,1.1l0,1.4 l-2.3,0.2l0.6,1.7l-1.9,1.4l1.9,0.5l1.9,0.7l-2.7,0.6l-1.4,2.2l2.1-0.7l1,0.3l6.1-1.4l1.5-0.9l-1.1-1.1l1.6-1.6l-0.7-1l-1.6-0.7 l-4.5-6.7l1.5-3.1l-3.5,0.2l1.5-1.9l-2.9-0.2l-1.4,2.7l-1.2-0.2l1.2,1.3L244.8,90.6L244.8,90.6z M240.7,101.7l3.1-1.2l1.3-1.6 l-0.2-2l1.2-1.4l-0.9-1.8l-3.1,0.4l-0.3-0.1l-0.1,1.7l-2.2,0.2l0,1.9l1.3,0.6l-1.9,2.9L240.7,101.7L240.7,101.7z M283.3,25l1.7,1.6 l7.7,0.8l3.8-3.5l-4.2-0.3l-0.8-0.8l-1.4,0.9l-4.7-1.7l-0.9,1.4h-1.9l1.1,0.8L283.3,25L283.3,25z M273.2,29.2l3.1-0.9l1.7,1.3 l-3.8,0.3v1.3l1.9,0.5l-1.6,0.3l3.1,2.2l0.9,0.9l3.9-5l1.4-0.8l1.1,1.9l0.2,2.1l5.4-1.1l-3.9-1.1v-1.4l-1.7-0.3l-2-1.3l-2.7-3.6 l-1.7-0.5l-1.7,2l-0.8-1.1L272,25l0.2,2.2L273.2,29.2L273.2,29.2z M232.8,67.4l-2.2-0.8l-0.6,0.8l-4.7,0.6l-0.9-0.3l-1.3,1.4 l-2.4-2.5l0.5,1.1l-1.1-0.2l-1.1,2h2.2l-1.9,1.4l2.7,1.1l-0.9,0.6l6.8,1.3l0.5-0.9l6.1-2.4L232.8,67.4L232.8,67.4z M337.6,49.6 l3.1,5.2l-2.5,0.4l-4.1-0.7l-0.3-1l-1.1-1l-1.5-0.4l1.5-2.2l1.2-1.4l0.5-0.4L337.6,49.6L337.6,49.6z M357.8,37.9l-10.6,3l-2.8,1.6 l-5.6,5.7l-3.2-1.2v-2l4.9-4.1l3.7-2.3l2.4-0.9l5.8-0.6l2.9-1.8L357.8,37.9L357.8,37.9z"/>
	<path class="land" d="M330.7,217.1l-1,0.2l0.2,1.6l-4.7,13.7l-2.9,1.3l-1.8-1.6l-1.2-3.7l2.1-4.4l-0.8-4.5l4.4-2.8l1.7-1.3l1.3-1.6l0.5-1.9 L330.7,217.1L330.7,217.1z M317.6,193.5l7.3-6.6l4.6-7.8l1.4-3.5l-0.3-2.7l-3.2,1.3l-3.8,0.8l-2.9,0.3l-1.3-1.8l0-1.4l-5.3-4.4 l-3.6-6.9l-0.7-4.1l-4.5-9l0.2-1.3l0.5-5.7l-2.5-0.2l-5.9,0.5l-11-3l-2.2,1.4l0.3,1.4l-1.3,1l-4.6-1.6l-9.2-4.4l1.6-2.7l-0.6-1.6 l-1.4-1.8l-10.1,1l-4.8,1.4l-3.3,1.7l-5.3-1.2l-0.7,1.1l-3.5,2l-1,3.2l0.3,2.2l-5,4.6l-6,11l0.8,1.6l-1.1,10.2l0.8,2.2l4.1,6.8 l0.6,0.6l1.7,3.6l6,3.5l6.9-1.1l10.8-2.1l2.9,3.1l4.3,0.2l1.2,3.3l-1.1,5.2l2,2.8l4.8,9.3l0.7,4.8l-1.5,2.2l-1.6,5L272,221l1.5,1.4 l1.7,4.6l1.7,8.2l3.6,4.3l-0.1,3.7l0.8,4.1l2.3,3.2l4-1.7h1.3l6.5-0.9l9.2-10.9l0.3-4.7l4.2-1.9l-1.3-6.9l2.7-2.7l5-3.3l0.1-7.1 l-1-2l-0.8-5.6l1.1-6L317.6,193.5L317.6,193.5z"/>
	<path class="land" d="M202.6,205.1l-4,4.9l-2.2,4.5l-1.3,7.9l-1.4,2.6l-0.6,2.2L192,229l-4.5,1l-5.7,2.7l-0.4,5.7l-2,3l-3.5,4.8l-3.3,3.4 l-2.4,0.6l-2.1,5.4l-1.6,0.8l-5,1.9l-1.9,3.3l-2.1-0.9l-0.7,2.3l0.9,1.8l-1.9,4l-2.7,1.8l1.4,2.1l1.4,1.4l-2.2,2.5l-1.9,2.5 l-1.3,1.8l1.1,2.5l-0.1,1.6l2.4,2.8l3,1.1l-3.6,1.2l-2.9,0.3l-7-3.8l-1.5-3.8l0.8-1l0.4-0.8l-0.9-1.2l0.5-1.6l0.1-5.4l-0.2-1.7 l3-8.6l-2.1-0.9l0.9-3.5l-0.1-3.4l2.5-6.2l-0.1-3.2l2.5-19.4l-0.3-4.2l-6.2-4.4l-2.4-2.7l-6.5-12.4l-0.9-2.9l1.7-3l-1.5-1.1l1.5-3.5 l1.3-3.4l2-1.5l1.1-4.8l-1.6-1.6l-1.3-2.3V177l3.4,1.1l2.6-4l2.4,0.5l2.8-2.8l-0.5,2.6l0.6,0.2l1.8-1.2l0.6-0.5l2.6,2.5l4.5,0.3 l3.1-1.2l1.5,1.7l1.6,0.5l-0.3,0.9l3.8,2.7l6.3,2.1l4.9,2.6l0.5,3l0.7,3.4l2.2,0.7l0.6,1l4,0.4l3.4,2l4.9,0.7l4.9,3.4l2-0.1 L202.6,205.1L202.6,205.1z"/>
	<polygon class="land" points="99.3,41.5 98.5,41.5 98.1,42.3 99.3,42.8 "/>
	<polygon class="land" points="94.9,47.7 96.3,47.8 97.9,49.3 98.6,47 96,46.6 "/>
	<polygon class="land" points="79.4,57.8 80.7,59.9 84.8,60.1 86.1,62.1 94.9,59.8 96.3,60 100.5,61.5 102.4,58.1 104.1,59.2 103.8,57.4  99.6,55.9 96.8,49.2 92.9,48 94.3,52.4 93.4,52.6 90.4,49.1 89,50.2 86.6,48.8 86.2,51.3 84,47.9 77.5,50.4 75.8,53.2 78.3,54.3  77.8,55.3 87,56.1 81.8,57 "/>
	<polygon class="land" points="105.9,37.4 104.8,39.2 102.3,37.6 102,38.7 99,36.6 98.5,38.7 99.6,40.8 101.3,40.4 101.5,41.5 104.3,41.2  104.2,42.3 109.4,42 109.4,42 106.7,36.6 "/>
	<polygon class="land" points="108.5,45.8 104.4,46.8 103.3,48.3 104.9,49.1 101.3,49.3 102.8,51.8 103.8,51.5 107.1,54.3 111,52.4 111,49.7  108.7,48.8 109.8,47.7 "/>
	<polygon class="land" points="115.5,38.9 117.7,43.7 117.7,43.7 123.2,44.2 134.3,44 136.3,42.8 135.4,41 132.8,40 121.5,41.3 120.9,39.5  120.8,38.3 119.7,37.1 116.9,37 109.9,36.3 112.7,38.7 "/>
	<polygon class="land" points="115.9,28.2 114.3,29.6 118.2,32.4 121.8,32.3 123.5,30.2 124.5,33.2 123,34.3 125.1,35.4 121.6,37.1 124,38.4  128.6,38.4 130,37.3 134,38.3 135.2,38.7 137.5,38.7 136.6,38.4 138.5,37.4 138,34.9 138.3,33.2 141.7,32.7 141.7,32.7 143.1,30.5  143.2,28.7 144.9,27.6 147.8,27.3 159.1,19.4 163.4,17.3 162.2,16.4 159.3,15.3 157.1,14.8 153.1,14.5 147.6,14.1 141.7,14.6  139,15 130.9,17.8 127.5,16.6 122.6,18.7 117.7,19.1 120.7,21.6 124.1,23.6 126.7,23.8 129.4,24 127,25.1 125.2,25.5 119.6,23.7  115.1,21 111.8,22.8 110.9,24.4 110.8,26.6 112.5,28.1 "/>
	<polygon class="land" points="113,40.6 110.5,42.3 114.8,44.1 114.8,42.4 114.8,42.4 "/>
	<polygon class="land" points="75.5,39.9 77.8,37.6 80.2,38.1 82.7,34.6 79.6,34.4 77.1,35.1 77.1,35.1 71.3,38.7 72.4,39.4 "/>
	<path class="land" d="M165.9,104.7l3.8-1.9l1.6-4.1l-2.4-2.4l-4.1-1.7l-3.6-7.4l-2.3-2.8l-1-1.8l-1.9,4.2l-3.5,0.3l-1.9-3.6l0.1-1.9l-3.3-1.7 l-2.2-1.6l-5-0.5l-1,0.1l-0.9,0.6l-0.4,3.6l1.7,2.1l-0.8,0.6l-1.5,2.5l3.2,5.9l-4.8,2.9l1.2,5.2l-2.3,2.5l-2.6-5.5l-0.5-3.2 l-4.3-0.4l-5-3.2l-6.2-0.5l-0.7-3.7l-2.5,0.1l0.5-4.8l5.1-8.5l2.5,0l2.2-1.2l0.8-1.7l0.7-1.2l1.2-2.5l0.6,1l3.1,0.4l0.2-0.8l2.7-2.7 L132,62l0.9-1.6l-0.7-2.7l2.3,0.2l-0.2-0.6l0-0.1l-0.1,0l-0.2-0.8l2.8,0.6l2.5,0.3l2.7,3L143,61l1.4,0.5l2,2.4l-2.5,4.5l1.6,1.5 l-8,0.1l2.1,3.5l4.3-0.7l1.6,0.3l2.2,3.3l1.3,0.9l6.8,2.2l0.3-1l-4.6-3.8l6.2,2.6l0.3-3l-2-2.8l-3.9-2.8l2.7-2.1l0.9,1.1l4.2,4.1 l1.1-2.6l2.8-2l-3.2-1l-1.4-1.7l-1.7-1.9l-1.6,0.5l-3.1-2.1l1.6-2l-1.4-0.9l1-0.8l-0.6-1.3l-1.3,0.5l-5-3.5l-2.5,0.2l-0.5-2.8 l-5.4-1.1l0.9-0.8l-3.5-1.7l-3,0.5l-3.6,0.2l-6.5-0.3l-3.3,5.4l1.3,1.6l1.4,0.2l2.7,1.7l1.6,1.4l2.1,0l0.3,1.1l-5.3,6.9l-0.2-2.6 l-0.6-1.7l-0.9-0.7l-2.5-0.9l-2.3-0.6l-1.4-4.7l-1.9-1.6l1-1.3l-0.2-1.1l2.4-0.1l2.5-3.7l-7.8,0.6l0.5,4l-1.4,3.2l-0.3,3.4l1,0.9 l2.3,1l-2.2,5.9l-0.6-0.1l0-5.3l-2.7-1.5l-2.3,1.8l1.2,1.2l0,1l0.1,2.1l-4.8,0.1l-2.4-1.2l-2.8-0.7l-0.9-1.8L92,62.4l2,4l-2.8-2.7 L88.4,64l-5.9-0.1l0.7-2.6l-1.7-0.5l-6.1-1.1l-4-1.8l-2.1,1.6l-0.8-2.2L67.3,58l-0.9,1.5L65,58.5v-0.6l-0.6-0.4l-2,2.7h0l0.2-0.9 L60.8,59l-3.9,2.4l-1.4-0.6l-2.8,1.7l-5-2.2l-6.4-1.5l-13.7-1.3l-0.3-1l-5.6-0.8l-6.9,0.7l-3.7,5.1l-3.7,0.7l-0.7,1.3l3.4,1.6 l5.3,3.7l-2.7,0.9L10.1,68l-5.7,2.6l2.7,2.8l4.9,0.5l3.1-1.2L14.9,76l-4.6,0.8l-3.4,4.1l3.7,4.3l2.7-1l0,3.6l2.5-0.7l5.1,0.6 l-3.9,4.9l-1.1,0.9l-3.6,1.8l-0.2,1.1l3.7-1.3l5.7-3.7l4.4-3.6l-1.2-1.7l5.3-4.2l1.6,0.6l-2.2,0.7l-0.8,3.4l5.3-2.5l-0.2-1.5l1-0.7 l2.2,1.1l9.3,2.8l3,2l3,2.8l3.1,3.2l5,3.2l0.8,1.7l1.5,1.6l0.1,0.9l0.9,0.2l1.4,5.4v-0.2l0,0l0.6,0.3l2.6,2.2l1.2,3.9l-1,7.1 l1.1,1.8l-0.8,3l1,1.6l1,2.5l1.8,3.4l1.7,3.2l2,0.5l3.1,2.9l2.5,4.9l2.4,3.9l2.8,4.7l3.2,3.2l-1.5-4.6l-5.1-7.3L83,141l1.7,0.1 l2.1,3.8l2.4,2.8l1.8,2.2l5.9,7.2l-0.1,3.4l2.8,2.6l10.6,4.9l3.8-0.9l4,3.4l5.9,1.5l3.3,5.3l0.6,0.6l1.3-0.3l1.4,2.2l2.8,0.6 l0.6,0.8l1.7-0.9l1.3-0.9l0.1,0.1V178l-0.1,0l-5.4,0.2l-1.9-2.9l0.7-6.3l-1.6-1.4l-6.4,0.1l2.6-8.4l-0.4-1.1l-4.5,0.7l-1.4,3.5 l-4.5,1.3l-2.7-1.2l-2.7-5.1l0.6-6.3l1.1-1.4l-0.8-2.4l5.6-2.9l5.5,0.8l2-2l1.7,0.3l3.3,1.1l1.3-1.1l0.7,0.1l1.6,2.4l0.4,1.8 l2.5,4.5l1.3-2l-2.1-6.5l0.8-3l6.6-6.1l0.1-3.1l1.2-2.2l0.4-0.9l1.8-3.4l3.2-2.1l1.9-0.4l-0.3-1.9l1.6-2.4l3.4-1.4l1.8-0.9l1.5-0.4 l-0.8,3.4l3.7-1.7l3.1-1.5l2.4-1.5l-1.1-0.6l-0.4-1.2L162,114l-2.5-1.5l-1.4-2.1l0.8-1.8l-2-1.1l-8.3,5l7-7.3L165.9,104.7z  M78.3,69.3l-1.8-0.1l-1.9,1.7L73.3,70l-2.7,1.5l2.4-3.1l-4.4-0.3l5.2-1.6l1.7-0.6l0.7,0.5l-0.9,1.3l3.4-0.2L78.3,69.3z M90.6,78.3 l-5.8,3.5l-6.1-0.7l3.5-1.6l-0.6-2.2l3.3,1.8l4.2-2.7l2.9,0.5L90.6,78.3z M110.1,105.5l-0.4-2.9l-1.7-0.7l-1.5-2.6l0,0l1.8-3 l2.7,6.8L110.1,105.5z M136,120.6l-3.6,2.3l-2.4-0.7l0.3-1.2l1.4-1.4l-0.6-1.7l-1.9,0.5l0.6-2.7l-1.8-1.2c0,0-2.6,3.5-2.6,3.8 c0,0.3,0.2,3.4,0.2,3.4l-1.5,1.5l-0.6-5.1l1.4-3.6l2.2-0.5l1.4-0.4l-0.8-0.8h-3.1l-1.9-0.6l-0.6-0.6l-2.5,1.3l-1.9-0.7v0l5.9-3.9 l4.5,2l1.1,3.2l5.4,0.9l1.5,1.5l-1.2,1.2l-1.1-1.1l-1.3,3.8l-0.8,0.8l-0.8,0.8l3.6-0.9l2.4-0.5L136,120.6z M141.2,118.6l-1.9,0.9 l-0.8-0.8l-1.9,0.8l-1.1-0.3l1-1.4l0,0l4.6-0.6L141.2,118.6L141.2,118.6L141.2,118.6z"/>
	<polygon class="land" points="126,71.5 126,71.5 126.2,74.8 127.9,76.4 130.1,73.8 131.7,74.8 134.4,75.4 132.9,73.2 131,71.6 129.5,70.6  129.8,69.4 126.9,68.2 128.6,70.7 126.9,69.4 "/>
	<polygon class="land" points="232.7,17.4 229.3,17.6 227.4,19.4 224.6,18.3 219.7,21.3 222,19 221.4,17 219.3,17 217.4,18.2 216.8,16.8  213.6,16.7 222.8,14.4 214.2,13.3 216.1,11.1 205.4,10.9 196.5,11.7 190.5,12.9 187.7,13.5 188.8,16.1 184.1,14.4 188.5,17.5  188,18.3 178.8,14.7 179.5,18.1 177.2,16.7 175.2,16.4 175.6,19.3 174.3,19 174.3,16.4 164.6,17.4 163.4,20.3 160.2,20.1  154.1,23.2 157.5,24.9 157.6,26.4 156.1,27.6 154.8,27.5 146,29.7 145.7,31.2 151.7,32.2 149.5,34.2 147.9,34.9 149.3,36  152.9,37.9 154.8,37.7 156.6,37.6 158,37.6 160.5,37.2 162.4,37.8 164.9,38.1 168.2,41.1 169.1,42 170.5,44.6 171.5,45.4  171.2,48.3 172.8,48.6 172.8,48.6 172.6,50.1 171.2,52.2 175,53.1 177.8,54.3 179.1,55.3 173.8,54.1 173.2,54.9 179.1,57.5  178.1,60.5 175,62 174,64.1 175.9,65.2 174.5,66.8 176.5,69.3 178.1,73.4 183.1,80.4 185.8,80.3 189.1,82.3 190.7,79.4 191.4,76.9  192.1,75.6 194.3,70.5 197.7,68.3 202.9,66.4 206.6,62.3 206.2,60.2 207.7,61.7 214.6,60.9 221.7,56.3 216.6,55.4 217.9,53.3  221.9,54.9 222.6,52.2 221.2,48.9 223.9,46.4 224.5,44.6 226.6,43.2 224,41.5 224.9,41.1 226.9,40.5 225.9,40.2 225.1,40.4  226.2,39.6 226,38.2 222.2,36.8 224.2,35.2 227.5,35.5 227.7,34.4 226.6,33.6 226.2,32.6 222.9,31.2 223.5,28.7 227.3,25.8  229.1,23.8 232.3,21.4 237.4,18.5 "/>
	<polygon class="land" points="175.5,108.9 173.9,107 170.4,106.1 172.2,102.9 166.5,109.2 166.8,110.9 172,110.7 172.2,112.1 174.5,110.8  174.4,111.9 175.9,112.6 176.1,109.9 175.3,110 "/>
	<polygon class="land" points="106.7,33.1 107.2,32.4 105.8,30.2 100,28.5 100,28.5 99.2,29 96.3,29.1 98.1,31.3 "/>
	<polygon class="land" points="88.3,32.9 84.5,34 89.1,35.4 89.1,35.4 89.1,34.1 89.7,32.7 91,31.6 87.2,31.8 84.1,32.4 87.7,32.1 "/>
	<polygon class="land" points="140.1,158.2 136.5,156.3 135.4,155.2 131.9,155.2 128.2,157.2 132.7,157 136.7,157.7 138.7,159.8 138.7,160.9  143.4,159.8 143.4,159.8 141.1,158.4 "/>
	<polygon class="land" points="90.7,41.6 81.2,39.4 80.8,41.2 80.8,41.2 79.7,43 82.8,43.5 83.6,42.7 87.9,43 83.9,44.6 88.3,44 91.5,43.4  92.6,43.7 96.4,42.7 95.1,39.7 94.5,40.8 93.5,39.6 90.4,37.5 "/>
	<polygon class="land" points="74.2,53.8 77,49.9 82,47.4 77.2,44.8 72.3,44.3 68.6,45 69.5,47 66.5,52 66.5,52 70.8,54.7 "/>
	<path class="land" d="M514.9,260.9l1.7,0.2l-2.4,5.5l-5.5,5.5l-1.7-0.3l0.2,1.6h-0.9l0.5-1.6l-2.2-1.1l0.6-1.7l8.7-9.3L514.9,260.9L514.9,260.9z  M518.8,252.8l-1.1,0.3l-3.6-4.9l1.6,9.3l1.6,3.8l1.9,0.6l1.9-3.9l2-3.2l-3.6-0.5L518.8,252.8L518.8,252.8z M473.4,200l-0.8-1.6 l-7.3-3.2l0,0.2l-4.1-1.5l-3.5,2.5l-1.6-3.9l-5.2,0.5l3.5,2.2l-1.6,0.6l1.4,1.6l1.1-0.3l1.4,1.4l4.7,1.6l1.3,4.1l-1.4,1.4l3-0.3 l0.2,0.2l0-0.1l1.3,1.5l3.5-0.2l2.4-3l4.7,4.4l4.3,0.9l-5.1-5.3l0.9-1.7L473.4,200L473.4,200L473.4,200L473.4,200z M481,229.7 l-1.8-0.9l-1.3-3.6l-3.7-2.4l-1.6-6.8l-2.5-1.1l-1.6-5.7l-3.9,11.3l-1.1,0.2l-6.3-4.9l1.7-4.7l-7.4-1.3l1.1,1.6L449,212l-1.4,3.8 l-3.1-1.9l-4.1,3.9l-1.1-0.2l-0.3,1.7l-0.9-0.9v3l-12.8,5.7l-0.5,3.4l1.2,4l-1.5,0.6l0.4,0.4l2.1,5.9l-0.1,5.9l1.3,2.2l2.3,0.8 l3.4-1.6l5.6-0.5l3.2-2.6l6.8-1l4.4,0.1l3.1,2.3l0.8,2.9l3.5-3.6l-0.9,3.5l1.3-0.2l0.1,1.8l1.9,0.4l0.3,2.5l2.6,2.1l3.3,0.9l2.2-1.1 l2.4,1l2.3-1.5l2.2-0.3l2.1-5.5l0.9-3l2.3-4.1l1.1-4.5l-1.1-2.5L481,229.7L481,229.7z M472.8,265l2.4,1.6l1.4-0.9l0.2-4.6l-5-0.3 L472.8,265L472.8,265z"/>
	<polygon class="land" points="314.4,117.5 317.2,121.2 312.1,122.9 302.9,121.4 301.3,122.8 296,121.9 296,123.9 294.1,125.8 295.3,129.8  299.5,131.9 301.3,130.4 305.2,131.8 308.4,131.3 307,139.2 306.7,145.8 310.7,152 313,155 314.4,159.1 318.5,165.1 319.3,169.8  319.7,171.1 320.7,172 321.9,171.5 327.8,168.8 335.4,165.5 341,161.3 344.2,155.8 338.9,149.5 335.7,152.8 333.8,153 332,152.9  331.7,151.8 331.8,149.4 329.7,149 326.6,144 327.4,142.5 329.9,142.7 336.1,148.6 339.2,147.4 341.4,150 354.1,150.5 357.7,154.2  360.1,154.7 358,155.9 360.7,158.4 363.5,156.2 363.5,159.9 367.5,173.1 369,177 369.9,178.6 371.1,178.9 374.1,175.6 374.8,171.4  375.9,166.4 384.5,159.7 386.6,156.6 388.8,156.9 391,155.7 391.9,155.6 394.3,159.7 395.7,161.5 396.5,164 395.9,166.5  397.6,166.7 400.4,165.1 402.9,173.8 402.1,177.8 403.3,179.5 405,183.4 407,187.9 408.8,190.1 410,190.1 412.9,191.2 410.7,188.8  409.4,183.8 404.1,177.2 405.4,170.2 412.1,176 411.9,178 414.1,176.4 416.5,175.1 418.9,171.6 418.1,168.4 415.4,164.8 413,161.2  417,156.7 419.2,157 419.7,159.2 422.1,156.9 427.7,155 431.1,153.3 435.4,147 437.3,142.5 435.3,142 437.3,140.6 435.7,137.5  433.5,134.2 437.3,130.7 438,129.9 433.6,129.4 431.2,127 436.6,122.6 437.6,123.3 436.8,126.6 440.9,125.2 442.7,125.7  442.1,128.4 444.4,128.9 444.3,134.8 449.1,133.1 446.3,125.8 454.8,119.5 457.1,117.3 459.8,115 464.4,108.2 465.3,104.9  465.8,102.7 466.5,98.6 465.2,97 464.6,96 463.6,95.8 461.7,96.7 461.2,95.1 461.8,94.3 460.6,94 457.8,94.6 464.8,88 467.8,84.7  471.8,84.3 476.5,84.3 478.3,83.8 481.2,84 482.2,85.4 484,85 487.8,81.9 488.3,81.1 488.4,80.6 491,78.1 494,78.2 495,78.5  495.2,81 501,75.8 502.1,76.1 503.2,76.3 501.6,76.8 500.5,79.1 493.4,86.1 490.3,88.4 488,93.9 489.2,103.2 494.7,97 496.5,95.3  498.1,92.3 499.6,89.6 499.5,88 498.4,86.4 501.5,84.7 500.1,83.5 503.1,82 504,83 505.7,81.9 508.5,81.6 512.4,81 519.9,76.2  523.4,77.3 522.3,72.3 521.5,71.4 524.2,70.2 525.5,67.6 526.6,67.7 527,69.2 530.7,69.3 534.1,72.2 536.5,69.2 539.8,67.4  534.8,64.3 534.8,64.3 534.8,64.3 534.8,64.7 529.9,62.7 526.2,60.5 523.7,59.1 521.2,58 514.2,56.8 510.6,56.6 510.7,59.7  507.3,58.8 494.3,57.3 493.3,54.3 485.9,53.8 484.2,54.4 483.3,54.2 482.4,54 481.4,53.2 482.5,52 481.2,52.1 480.7,51.3  481.8,50.9 477.4,49.5 474.8,51.8 476.3,50.1 473.3,49.5 472.1,49.4 466.7,48.7 463.4,50.2 464.5,50.8 464.2,51.2 463.6,52.8  458.7,52 456.2,52.9 453.6,51.4 451.2,54.5 447.6,51.9 448.6,50.1 448.3,48.8 447.7,47.5 447.2,47.2 446.9,47.2 446.4,46.8  445.9,46 440.6,45.8 439.7,46.9 439.1,48 432.3,47.4 432.2,46.2 426.6,46 424,45.3 413.3,47.9 421,43.9 424.8,41.3 425.3,39.1  422.5,36.7 419.4,36.3 416.7,36.2 414.3,37 415.2,35.4 413.3,34.1 409,33 404.3,37.8 401.7,37.6 400.1,38.1 388.3,40.3 386.7,41.3  385.6,41.9 384.5,43.3 385.3,45.4 381.1,45.8 375.9,46.2 375.6,49 377.8,50.4 378.7,51.5 378.2,52 376.7,52.1 375.2,50.9  373.8,49.5 373.9,50.7 369.6,51.2 370.4,53.2 368.1,52.9 367.1,49 364.5,53.1 365.2,58 370.1,59.9 366.2,60.5 365.6,64.1  362.5,67.3 361.4,65.6 364.8,61.3 363.2,59.7 363.8,54.9 362.4,52.7 363.7,49.2 358.3,48.4 356.9,52.5 354.7,53.7 354.7,57.4  357.2,59.7 356.9,61.5 354,60 350.1,58 345.5,57.1 343,55.7 342.4,56.2 345.2,58.1 347.3,59.2 345.5,59.7 344.8,58.5 342.1,59.3  336.9,59.9 335.7,58.2 327.6,61.7 327.3,63.4 324.8,64.2 324.3,62.6 326.4,61.5 321.7,58.3 322.4,59.9 321.5,62 320.9,65.1 319,64  315.8,66.5 316.8,68.4 314.7,68.7 313.8,69.3 313.3,71.7 307.1,71.7 306.6,68.2 304.6,65.8 312.6,67.7 315.7,63.3 303.5,57.8  299.1,57.4 301,55 297.4,54.4 296.2,54.3 295.4,54.1 293.9,54.4 292.9,53.7 290.5,54.3 286.2,56.5 284.5,55.8 283.5,56.6 282.6,56  281.5,57.4 282.6,57.7 277.7,60.2 279.9,61.1 277.1,63.6 274.2,67.3 271.1,70.9 269.2,71.9 267.2,75 265.4,77.2 263.2,78.9  262.7,83.4 264.1,86.8 266.7,87 270.8,84.3 272.4,88.1 274,90.8 273.4,91 273.5,91.2 273.5,92 275.2,93.4 276.2,92.1 278.6,91.5  279.7,86.5 282.8,83.3 280.2,80 283.2,74.4 286.6,72.1 287.2,69.9 290.5,68.1 292.3,70.1 286.3,76 286.3,81.3 289.3,83.2  296.9,81.1 299.6,82.7 295.9,84.5 294.7,84.2 292.1,84.2 289.1,85.3 291.1,88.4 290.1,89.8 288,88.1 285.8,90.8 286,93.4  281.7,94.7 275.4,96.8 273,95.3 271.6,96.4 271.1,95.4 269.8,95.4 269.1,94.1 269.3,92.8 270.6,91.9 269.9,89.9 270.2,88.3  267.8,89.5 266.8,91.5 267.8,95.4 267,97.2 263.4,97.7 260,101.1 258.1,102.6 256.6,104.4 254.9,105.5 252.9,106.1 251.5,105.8  252.2,107.6 247.4,107.8 250.8,110.4 253.2,114.2 252.1,118.3 243.6,117.8 240.8,118.7 240.4,126.7 241.2,130 243.7,129.8  245.6,131.8 251.6,130.4 254.6,127.1 254.2,125.3 258.8,121.4 259.8,118.4 263.7,118.6 265.1,118.1 268.2,116.3 270.5,119.1  277,124.7 278.7,126.3 277,128.1 273.5,128.4 277,130.8 277.8,128.2 279,128.1 280.3,125.9 279.6,125.1 280.2,123.9 281.7,125.1  282.2,124.1 278.8,122 278.7,121 276.5,120.7 272.9,115.3 274.6,114.1 275.1,115.3 277.2,116.3 278.7,118 282.7,120.4 283.9,121.6  283.6,124.6 286.1,126.9 287.1,128.1 290.7,128.4 288.4,124.3 290.5,124.3 292.2,123.1 295.2,123.3 295.4,121.6 298.4,119.1  297.7,118 299.2,115.7 299.2,114.6 300.4,113 300.4,112.1 301,111.9 302.3,112 305,113.1 303.1,114.3 305.6,116.3 309.8,115 "/>
</svg>
