<svg class="worldmap" viewBox="0 0 1000 550" data-click="select-time-zone">
	<linearGradient id="WMGID_1_" gradientUnits="userSpaceOnUse" x1="215.9692" y1="394.6992" x2="215.9692" y2="37.2388">
		<stop offset="0" style="stop-color:#a0a0a0"/>
		<stop offset="1" style="stop-color:#bdbdbd"/>
	</linearGradient>
	<filter id="WMDS_1" x="0" y="0" width="200%" height="200%">
		<feDropShadow dx="0" dy="1" stdDeviation="1" flood-color="#fff" flood-opacity="0.85" />
		<feDropShadow dx="0" dy="-1" stdDeviation="1" flood-color="#666" flood-opacity="0.75" />
	</filter>
	<filter id="UTCDS" height="130%">
		<feGaussianBlur in="SourceAlpha" stdDeviation="3"/> 
		<feOffset dx="0" dy="2" result="offsetblur"/>
		<feComponentTransfer>
			<feFuncA type="linear" slope="0.35"/>
		</feComponentTransfer>
		<feMerge> 
			<feMergeNode/>
			<feMergeNode in="SourceGraphic"/> 
		</feMerge>
	</filter>

	<path class="land" d="M964.778,95.152 l4.144,3.111l-7.648,1.425l-2.978-1.292L964.778,95.152L964.778,95.152z M848.727,69.766c0,0-4.137,2.33-4.137,2.979 c0,0.648,1.423,4.018,1.423,4.018l4.664,2.33l1.952-1.292h8.93l3.501-1.558l1.813-2.975l-5.828-1.812l-4.668-0.908l-1.818,2.33 L848.727,69.766L848.727,69.766z M869.972,73.65l-0.649,1.944l9.458,3.241l3.493-2.593L869.972,73.65L869.972,73.65z  M861.552,86.996l0.902-1.169l-6.602-3.106l-2.336,2.721L861.552,86.996L861.552,86.996z M727.033,46.269l7.799-1.947l2.192-2.195 l-5.606-5.6l-9.74,4.873L727.033,46.269L727.033,46.269z M733.369,52.607h8.767v-7.312h-5.846l-9.26,0.973L733.369,52.607 L733.369,52.607z M740.433,59.673l17.785-4.63l-7.063-7.065L740.433,59.673L740.433,59.673z M860.572,175.134l-0.817,2.807 l-1.965,0.235v27.851l1.958-2.299l2.573,1.911l-1.161-11.265l4.272,1.559l-2.72-5.574l-0.521-4.144l0.249-4.136L860.572,175.134 L860.572,175.134z M805.004,296.85l-4.015-0.572l-2.861,8.889l1.718,8.297l3.154,3.144l-0.571-3.717l1.147-0.563l6.301,2.854 l-0.86-4.288l-5.44-0.565l2.287-8.595L805.004,296.85L805.004,296.85z M763.386,361.092l-2.86-3.146l-1.154,1.714l-1.427-3.429 l-2.856-1.437l0.563-2.29l-8.595-7.728l-8.303-10.028l-6.867-1.146l7.161,11.748l2.574,1.714l4.581,7.727l6.301,12.03l4.867,3.153 l4.011-1.144l2.011-7.741v0.003H763.386z M784.583,377.415l-0.581-2.001l-3.717-1.426l2.29-0.875l-8.308-1.717l-13.735-1.423 l-1.161,3.433l7.176,2.875l20.899,2.288L784.583,377.415L784.583,377.415z M794.066,364.962l1.16,6.872l3.14-0.573l1.42-6.585 l2.882,5.724l2.283-1.437l-3.434-8.014l4.573-0.857v-2.874l-7.444-0.854l0.283-3.139l9.455,0.287l2.863-4.016l-0.853-0.566 l-14.322,3.728L794.066,364.962L794.066,364.962z M813.875,333.37l3.146-7.722l-1.424-4.013l-8.021,2.279l-2.86,1.727l-0.568,2.861 h5.44l-0.283,2.587L813.875,333.37L813.875,333.37z M785.576,334.782l-10.61,6.595l-2.283,3.721l-3.73-1.146l1.141,11.455 l1.44,4.588l12.603,1.996l5.447-4.863l1.713-8.582l2.574-1.44l-3.146-9.16l4.301-4.016l-3.729-4.58l-5.727,5.438v-0.005H785.576z  M847.441,236.599l-4.009,2.358l-12.315,3.728l-6.473,7.254l1.13,5.532l3.336,0.095l2.049-8.18l2.943-0.43l2.798-1.661l2.011,2.299 l2.814,1.307l2.004-2.789l6.12-1.034l3.618-2.393l1.885-5.31l2.979-8.161l-2.339-6.365l-0.514,2.366l-2.843-0.533l-1.692,8.292 L847.441,236.599L847.441,236.599z M856.503,214.573l-4.539,5.224l2.077,0.216l5.574-0.777l2.195,1.686l6.35-4.924l-0.458-4.475 l-0.786,0.463l-2.637,0.906l-6.476-4.534l-1.818,1.812l2.913,1.285l-2.012-0.29L856.503,214.573L856.503,214.573z M690.622,333.118 l4.511-2.672l-3.08-7.183l-3.588,3.596l2.161,6.252v0.007H690.622z"/>
	<path class="land" d="M532.387,234.409 l2.08,1.326l-0.85,3.122l-3.875-1.325l-1.035-2.836L532.387,234.409L532.387,234.409z M535.033,242.169v1.135l3.405,1.325 l4.07-0.565v-1.041h-5.199l-0.948-0.949L535.033,242.169L535.033,242.169z M493.016,224.378l-0.09,1.23l0.845,1.612l-0.19,3.312 l1.041,1.041l1.137-1.134l0.805-0.806l0.809-4.021l-0.948-2.088l-3.401,0.857L493.016,224.378z M494.629,218.611v2.46l1.322,1.325 l0.666-4.164v-1.515l-1.988,1.891V218.611L494.629,218.611z M477.504,228.827l1.418,1.418l1.227-2.08l-0.844-0.852l-1.891,1.135  M500.685,169.217c0,0.474,1.509,2.554,1.509,2.554l0.852,0.852l2.176-3.311l-1.281-1.275L500.685,169.217L500.685,169.217z  M520.837,163.914l1.227-2.081l0.763-1.889l-3.13,1.418L520.837,163.914z M498.314,169.972v1.609l1.61,0.566v-1.705 L498.314,169.972L498.314,169.972z M453.112,165.493l3.441,2.575l0.622,4.634l4.619,0.014l-1.042,1.421l1.79,1.978l0.008,2.471 l-4.225,0.314l1.177,3.018l-3.52,2.483l3.444,0.851l3.505,1.278l-4.839,1.093l-2.623,4.008l3.807-1.352l1.762,0.613l11.162-2.572 l2.638-1.617l-1.979-2.02l2.875-2.879l-1.357-1.797l-2.979-1.244l-8.146-12.221l2.757-5.613l-6.32,0.344l2.754-3.498l-5.324-0.38 l-2.586,4.962l-2.12-0.324l2.12,2.326L453.112,165.493L453.112,165.493z M445.678,185.682l5.547-2.112l2.428-2.9l-0.283-3.561 l2.217-2.548l-1.684-3.352l-5.725,0.744l-0.607-0.271l-0.259,3.121l-3.975,0.293l-0.04,3.451l2.34,1.107l-3.478,5.186 L445.678,185.682L445.678,185.682z M523.043,46.126l3.157,2.873l14.025,1.428l6.868-6.303l-7.725-0.568l-1.43-1.43l-2.567,1.717 l-8.595-3.156l-1.713,2.587h-3.448l2.021,1.427L523.043,46.126L523.043,46.126z M504.776,53.909l5.723-1.713l3.146,2.287 l-6.875,0.584v2.288l3.444,0.853l-2.874,0.572l5.727,4.015l1.715,1.714l7.17-9.158l2.572-1.441l2.005,3.443l0.287,3.73l9.745-2.016 l-7.161-2.002v-2.586l-3.154-0.573l-3.717-2.283l-4.859-6.585l-3.157-0.859l-3.144,3.713l-1.425-2.002l-7.45,0.291l0.281,4.014 L504.776,53.909L504.776,53.909z M431.185,123.317l-4.003-1.422l-1.146,1.422l-8.597,1.146l-1.712-0.571l-2.299,2.584l-4.288-4.583 l0.86,2.002L408,123.608l-2.014,3.723h4.012l-3.441,2.574l4.869,2.006l-1.715,1.154l12.314,2.286l0.854-1.716l11.168-4.299 L431.185,123.317L431.185,123.317z M621.866,90.877l5.689,9.396l-4.591,0.688l-7.447-1.199l-0.535-1.758l-1.945-1.772l-2.674-0.769 l2.762-4.015l2.195-2.479l0.825-0.729L621.866,90.877L621.866,90.877z M658.498,69.687l-19.204,5.443l-5.157,2.859l-10.189,10.388 l-5.828-2.177v-3.626l8.867-7.444l6.776-4.24l4.398-1.551l10.52-1.162l5.188-3.311L658.498,69.687L658.498,69.687z"/>
	<path class="land" d="M609.251,395.523 l-1.729,0.284l0.288,2.859l-8.581,24.827l-5.356,2.29l-3.315-2.982l-2.154-6.65l3.769-7.941l-1.537-8.099l8.014-5.157l3.147-2.294 l2.298-2.86l0.856-3.441L609.251,395.523L609.251,395.523z M585.431,352.57l13.295-12.032l8.449-14.259l2.53-6.417l-0.496-4.889 l-5.854,2.392l-6.91,1.465l-5.318,0.561l-2.354-3.207l0.063-2.546l-9.609-7.931l-6.587-12.472l-1.28-7.386l-8.175-16.393 l0.286-2.301l0.976-10.306l-4.472-0.432l-10.746,0.979l-20.046-5.467l-4.057,2.578l0.559,2.57l-2.279,1.729l-8.356-2.918 l-16.817-8.06l2.992-4.991l-1.109-2.994l-2.546-3.33l-18.415,1.776l-8.665,2.56l-6.051,3.029l-9.601-2.18l-1.229,2.055 l-6.305,3.713l-1.729,5.732l0.57,4.016l-9.161,8.297l-10.885,20.054l1.422,2.86l-2.006,18.612l1.421,4.008l7.455,12.315 l1.145,1.146l3.148,6.585l10.875,6.304l12.531-2.049l19.554-3.881l5.21,5.591l7.834,0.402l2.105,5.958l-1.922,9.505l3.67,5.115 l8.676,16.899l1.226,8.763l-2.773,3.994l-2.996,9.09l-0.226,5.764l2.75,2.455l3.116,8.308l3.103,14.882l6.484,7.898l-0.253,6.722 l1.491,7.461l4.21,5.773l7.267-3.111h2.3l11.851-1.721l16.781-19.864l0.588-8.599l7.727-3.428l-2.3-12.602l4.86-4.867l9.014-6.003 l0.231-12.994l-1.889-3.683l-1.538-10.267l2.048-10.868L585.431,352.57L585.431,352.57z"/>
	<path class="land" d="M376.334,373.673 l-7.198,8.98l-4.083,8.213l-2.297,14.312l-2.482,4.657l-1.07,3.987l-2.152,3.375l-8.166,1.877l-10.406,4.867l-0.694,10.368 l-3.602,5.445l-6.296,8.755l-6.008,6.202l-4.275,1.015l-3.838,9.826l-2.915,1.531l-9.056,3.378l-3.377,5.993l-3.892-1.629 l-1.325,4.241l1.674,3.241l-3.515,7.351l-4.915,3.237l2.46,3.818l2.55,2.615l-3.926,4.596l-3.544,4.602l-2.299,3.224l1.999,4.602 l-0.141,2.916l4.436,5.063l5.371,1.993l-6.602,2.154l-5.221,0.461l-12.795-6.965l-2.71-6.847l1.456-1.843l0.693-1.535l-1.548-2.26 l0.858-2.873l0.137-9.729l-0.287-3.112l5.443-15.65l-3.838-1.574l1.691-6.297l-0.195-6.207l4.49-11.245l-0.15-5.742l4.455-35.212 l-0.459-7.549l-11.209-7.983l-4.299-4.866l-11.865-22.625l-1.67-5.353l3.156-5.375l-2.672-2.001l2.652-6.412l2.432-6.14l3.67-2.641 l1.934-8.669l-2.871-2.867l-2.325-4.122v-2.698l6.177,1.933l4.752-7.218l4.298,0.944l5.002-5.018l-0.85,4.73l1.103,0.393 l3.335-2.098l1.134-0.86l4.716,4.566l8.176,0.566l5.642-2.147l2.672,3.018l2.907,0.969l-0.52,1.693l6.987,4.992l11.524,3.798 l8.964,4.702l0.934,5.539l1.229,6.138l4.067,1.196l1.003,1.891l7.218,0.752l6.095,3.679l8.951,1.224l8.9,6.142l3.676-0.138 l2.574,9.718L376.334,373.673z"/>
	<polygon class="land" points="188.539,76.2 187.008,76.2 186.387,77.736 188.539,78.499"/>
	<polygon class="land" points="180.559,87.403 183.09,87.638 185.926,90.478 187.309,86.176 182.479,85.488"/>
	<polygon class="land" points="152.333,105.798 154.681,109.726 162.16,110.069 164.492,113.747 180.439,109.542 182.975,109.944 190.76,112.673 194.146,106.416  197.303,108.351 196.715,105.046 188.99,102.421 183.984,90.207 176.877,88.093 179.451,95.972 177.736,96.405 172.375,90.093  169.806,92.104 165.506,89.517 164.65,94.103 160.643,87.806 148.902,92.388 145.747,97.547 150.338,99.55 149.481,101.261  166.078,102.708 156.635,104.419"/>
	<polygon class="land" points="200.506,68.843 198.505,71.989 193.918,69.128 193.35,71.13 187.898,67.398 187.047,71.126 189.049,74.856 192.202,74.272  192.489,76.285 197.645,75.717 197.358,77.72 206.801,77.146 206.805,77.146 201.932,67.398"/>
	<polygon class="land" points="205.254,84.063 197.803,85.778 195.801,88.632 198.676,90.074 192.072,90.358 194.949,94.933 196.66,94.364 202.678,99.518  209.822,96.087 209.822,91.218 205.541,89.49 207.543,87.491"/>
	<polygon class="land" points="217.939,71.569 221.986,80.155 221.986,80.159 231.92,81.142 252.068,80.808 255.823,78.567 254.23,75.376 249.432,73.54  228.804,75.867 227.873,72.554 227.598,70.442 225.664,68.269 220.508,67.982 207.768,66.827 212.791,71.204"/>
	<polygon class="land" points="218.678,52.081 215.738,54.655 222.791,59.683 229.377,59.56 232.535,55.669 234.26,61.125 231.672,63.112 235.389,65.112  229.088,68.269 233.387,70.558 241.698,70.558 244.271,68.556 251.641,70.339 253.719,71.126 258.014,71.126 256.303,70.558  259.83,68.744 258.953,64.284 259.418,61.208 265.566,60.229 265.566,60.227 268.146,56.295 268.27,52.854 271.467,51.011  276.773,50.359 297.301,36.019 305.135,32.209 302.926,30.608 297.52,28.644 293.584,27.656 286.352,27.077 276.301,26.464  265.556,27.396 260.726,28.059 245.891,33.204 239.768,30.997 230.816,34.677 221.986,35.534 227.383,40.021 233.635,43.622  238.293,44.117 243.198,44.356 238.832,46.444 235.692,47.083 225.377,43.874 217.245,38.88 211.322,42.152 209.609,45.069  209.482,49.136 212.508,51.921"/>
	<polygon class="land" points="213.41,74.665 208.803,77.739 216.637,80.962 216.63,77.894 216.63,77.89"/>
	<polygon class="land" points="145.196,73.37 149.357,69.192 153.7,70.11 158.357,63.653 152.63,63.366 148.186,64.624 148.186,64.62 137.645,71.204  139.507,72.462"/>
	<path class="land" d="M309.658,191.159 l6.906-3.533l2.918-7.401l-4.3-4.415l-7.368-3.07l-6.602-13.508l-4.202-5.12l-1.783-3.323l-3.534,7.676l-6.293,0.459l-3.378-6.598 l0.153-3.382l-6.061-3.144l-4.068-2.99l-9.056-0.919l-1.845,0.149l-1.631,1.018l-0.642,6.523l3.153,3.731l-1.453,1.12l-2.652,4.494 l5.872,10.71l-8.791,5.255l2.152,9.516l-4.147,4.608l-4.646-10.021l-0.881-5.792l-7.835-0.767l-9.055-5.833l-11.204-0.92 l-1.225-6.754l-4.455,0.154l0.925-8.639l9.313-15.459l4.623,0.04l4.021-2.184l1.539-3.07l1.261-2.238l2.23-4.626l1.152,1.807 l5.668,0.779l0.424-1.385l4.994-4.85l-1.912-5.75l1.723-2.854l-1.26-4.94l4.163,0.304l-0.339-1.132l0.057-0.248l-0.137-0.014 l-0.437-1.46l5.146,1.142l4.582,0.574l4.871,5.445l1.715,1.426l2.585,0.854l3.717,4.3l-4.586,8.119l2.87,2.768l-14.605,0.133 l3.854,6.301l7.885-1.274l2.871,0.573l4.015,6.012l2.285,1.715l12.32,4.04l0.509-1.882l-8.336-6.871l11.203,4.76l0.63-5.525 l-3.558-5.053l-7.169-5.155l4.995-3.782l1.715,2.002l7.685,7.387l2.054-4.814l5.146-3.629l-5.754-1.779l-2.546-3.175l-3.14-3.43 l-2.873,0.858l-5.725-3.731l2.875-3.714l-2.59-1.726l1.731-1.429l-1.161-2.284l-2.285,0.859l-9.17-6.299l-4.572,0.286l-0.858-5.155 l-9.743-2.002l1.715-1.438l-6.301-3.145l-5.446,0.855l-6.586,0.287l-11.744-0.572l-6.013,9.742l2.296,2.861l2.575,0.285 l4.873,3.156l2.854,2.57l3.826,0.089l0.488,1.964l-9.696,12.625l-0.325-4.656l-1.15-3.064l-1.716-1.225l-4.571-1.619l-4.258-1.08 l-2.627-8.548L215,96.245l1.836-2.453l-0.35-2.023l4.333-0.239l4.63-6.71l-14.134,1.127l0.881,7.251l-2.528,5.794l-0.561,6.244 l1.836,1.676l4.168,1.754l-4.047,10.745l-1.1-0.12l-0.067-9.564l-4.869-2.697l-4.257,3.188l2.254,2.173l-0.048,1.752l0.124,3.803 l-8.703,0.12l-4.291-2.205l-5.145-1.35l-1.594-3.187l-8.176,2.856l3.643,7.319l-5.127-4.884l-5.041,0.469l-10.796-0.121 l1.182-4.701l-3.022-0.938l-11.156-2.085l-7.356-3.187l-3.781,2.944l-1.364-4.046l-2.084,1.35l-1.572,2.8l-2.602-2.03v-1.146 l-1.074-0.751l-3.717,4.869h-0.008l0.291-1.712l-3.146-0.287l-7.154,4.287l-2.586-1.146l-5.153,3.154l-9.163-4.01l-11.684-2.64 L57.897,105.3l-0.598-1.904l-10.159-1.477l-12.518,1.203l-6.793,9.338l-6.682,1.315l-1.314,2.388l6.203,2.908l9.646,6.673 l-4.999,1.637l-4.35-2.922l-10.389,4.78l4.845,5.182l8.835,0.82l5.604-2.128l-0.232,5.859l-8.451,1.425l-6.104,7.444l6.677,7.821 l4.855-1.807l0.037,6.58l4.479-1.36l9.213,1.097l-7.135,8.87l-2.043,1.678l-6.484,3.263l-0.414,2.088l6.813-2.285l10.427-6.76 l7.934-6.586l-2.152-3.104l9.676-7.717l2.947,1.007l-3.918,1.228l-1.424,6.197l9.549-4.479l-0.361-2.683l1.801-1.323l4.01,1.922 l16.98,5.131l5.488,3.699l5.371,5.132l5.66,5.728l9.168,5.879l1.518,3.072l2.764,2.944l0.111,1.616l1.614,0.39l2.504,9.761v-0.334 l0.003-0.004l1.093,0.523l4.661,3.925l2.271,7.132l-1.756,12.994l1.916,3.258l-1.447,5.43l1.838,2.941l1.841,4.537l3.308,6.253 l3.064,5.761l3.557,0.98l5.639,5.271l4.537,8.951l4.293,7.109l5.146,8.58l5.764,5.883l-2.818-8.432l-9.194-13.266l-0.978-5.271 l3.064,0.243l3.8,6.864l4.415,5.149l3.269,4.08l10.706,13.085l-0.244,6.126l5.15,4.664l19.244,8.826l6.865-1.566l7.355,6.231 l10.666,2.695l5.973,9.686l1.145,1.144l2.299-0.573l2.576,4.008l5.152,1.16l1.121,1.386l3.174-1.672l2.286-1.727l0.246,0.174 v-2.699l-0.246-0.042l-9.876,0.333l-3.432-5.271l1.223-11.528l-2.883-2.633l-11.672,0.217l4.743-15.357l-0.817-2.043l-8.217,1.35 l-2.584,6.294l-8.106,2.385l-4.92-2.22l-4.906-9.318l1.038-11.456l2.002-2.583l-1.428-4.283l10.093-5.26l10.026,1.43l3.645-3.628 l3.141,0.577l5.93,1.911l2.342-2.044l1.32,0.113l2.904,4.43l0.674,3.268l4.533,8.213l2.43-3.559l-3.834-11.819l1.469-5.372 l12.041-11.058l0.153-5.553l2.124-4.011l0.795-1.715l3.344-6.182l5.869-3.873l3.537-0.773l-0.461-3.491l2.965-4.337l6.246-2.609 l3.211-1.689l2.774-0.768l-1.458,6.222l6.696-3.149l5.657-2.764l4.367-2.764l-1.91-1.074l-0.765-2.152l-4.449,3.377l-4.605-2.766 l-2.456-3.859l1.383-3.355l-3.682-1.992l-15.041,9.055l12.738-13.354L309.658,191.159z M150.27,126.747l-3.307-0.125l-3.432,3.064 l-2.328-1.596l-4.941,2.659l4.329-5.595l-7.958-0.494l9.416-2.977l3.079-1.062l1.229,0.977l-1.716,2.327l6.13-0.365L150.27,126.747 z M172.725,143.128l-10.592,6.45l-11.047-1.229l6.291-2.914l-1.077-3.988l5.989,3.219l7.678-4.91l5.296,0.844L172.725,143.128z  M208.186,192.553l-0.77-5.222l-3.068-1.227l-2.764-4.759l-0.004,0.003l3.226-5.371l4.913,12.279L208.186,192.553z  M255.239,220.108l-6.522,4.223l-4.451-1.229l0.611-2.148l2.534-2.535l-1.151-3.144l-3.377,0.917l1.078-4.91l-3.227-2.152 c0,0-4.756,6.296-4.756,6.908c0,0.611,0.305,6.141,0.305,6.141l-2.686,2.686l-1.155-9.287l2.456-6.601l3.992-0.923l2.456-0.768 l-1.458-1.457h-5.604l-3.529-1.151l-1.158-1.154l-4.528,2.381l-3.378-1.227v-0.009l10.751-7.061l8.135,3.684l1.993,5.836 l9.826,1.691l2.686,2.686l-2.152,2.148l-1.993-1.998l-2.382,6.832l-1.533,1.535l-1.54,1.537l6.604-1.69l4.302-0.92L255.239,220.108 z M264.678,216.349l-3.377,1.688l-1.381-1.383l-3.38,1.537l-1.995-0.617l1.845-2.455l0,0l8.285-1.071v2.302H264.678z"/>
	<polygon class="land" points="237.11,130.701 237.114,130.694 237.509,136.681 240.545,139.752 244.562,134.998 247.48,136.838 252.396,137.913 249.632,133.923  246.116,130.868 243.338,129.165 244.032,126.858 238.781,124.739 241.698,129.317 238.723,126.874"/>
	<polygon class="land" points="431.102,32.366 424.957,32.828 421.395,36.022 416.285,34.089 407.402,39.528 411.699,35.227 410.578,31.592 406.629,31.718  403.202,33.867 402.195,31.253 396.322,31.106 413.008,26.897 397.404,24.942 400.817,21.004 381.381,20.657 365.305,22.039  354.352,24.276 349.277,25.224 351.279,30.079 342.693,26.862 350.613,32.589 349.715,33.952 333.039,27.546 334.279,33.601  330.2,31.216 326.527,30.497 327.221,35.808 324.938,35.288 324.809,30.497 307.233,32.337 305.149,37.748 299.248,37.253  288.066,43.029 294.329,46.119 294.572,48.692 291.708,50.991 289.423,50.706 273.382,54.709 272.946,57.578 283.703,59.297  279.828,62.942 276.881,64.169 279.398,66.261 285.986,69.7 289.416,69.332 292.736,69.212 295.261,69.144 299.74,68.474  303.181,69.579 307.729,70.069 313.872,75.478 315.348,77.2 317.93,81.922 319.783,83.347 319.219,88.503 322.082,89.075  322.075,89.079 321.792,91.937 319.287,95.632 326.205,97.266 331.328,99.442 333.533,101.394 323.958,99.196 322.854,100.67  333.667,105.343 331.826,110.749 326.1,113.421 324.295,117.224 327.773,119.354 325.316,122.293 328.878,126.847 331.699,134.224  340.921,146.882 345.852,146.757 351.852,150.319 354.676,145.159 355.91,140.62 357.266,138.152 361.194,128.878 367.342,124.879  376.806,121.56 383.655,114.065 382.956,110.13 385.658,112.955 398.067,111.479 411.093,103.122 401.751,101.558 404.091,97.72  411.467,100.666 412.69,95.632 410.108,89.609 415.15,85.058 416.135,81.864 419.938,79.284 415.157,76.188 416.797,75.541  420.604,74.464 418.782,73.802 417.16,74.177 419.322,72.77 418.842,70.206 411.945,67.731 415.629,64.735 421.649,65.396  422.021,63.302 420.006,61.832 419.312,59.987 413.285,57.53 414.273,52.976 421.158,47.698 424.584,44.015 430.314,39.706  439.577,34.432"/>
	<polygon class="land" points="327.01,198.825 324.156,195.385 317.846,193.67 321.016,187.94 310.629,199.345 311.216,202.454 320.711,201.962 320.994,204.552  325.294,202.252 325.007,204.265 327.865,205.409 328.163,200.54 326.728,200.827"/>
	<polygon class="land" points="202.01,60.896 202.869,59.755 200.295,55.74 189.697,52.587 189.697,52.583 188.27,53.452 183.114,53.739 186.271,57.742"/>
	<polygon class="land" points="168.553,60.534 161.682,62.544 169.98,65.115 169.984,65.115 169.984,62.83 171.128,60.244 173.425,58.242 166.555,58.529  160.826,59.673 167.41,59.103"/>
	<polygon class="land" points="262.752,288.42 256.164,284.979 254.162,282.976 247.803,282.969 241.032,286.65 249.153,286.302 256.445,287.549 260.173,291.276  260.173,293.276 268.764,291.276 268.764,291.276 264.478,288.706"/>
	<polygon class="land" points="172.843,76.438 155.669,72.437 154.803,75.584 154.8,75.584 152.798,79.024 158.523,79.886 159.948,78.451 167.69,79.024  160.521,81.887 168.549,80.736 174.278,79.599 176.279,80.167 183.15,78.451 180.866,73.014 179.725,75.011 177.998,72.728  172.27,68.996"/>
	<polygon class="land" points="142.822,98.547 147.881,91.431 157.015,86.952 148.414,82.223 139.381,81.228 132.657,82.522 134.336,86.151 128.939,95.237  128.937,95.237 136.66,100.14"/>
	<path class="land" d="M944.2,475.217 l3.15,0.284l-4.297,10.024l-10.028,10.029l-3.141-0.567l0.279,2.864h-1.721l0.871-2.864l-4.01-2.015l1.143-3.146L942.2,472.92 L944.2,475.217L944.2,475.217z M951.354,460.335l-2.003,0.563l-6.585-8.871l2.856,16.889l2.875,6.879l3.431,1.144l3.439-7.155 l3.718-5.728l-6.588-0.867L951.354,460.335L951.354,460.335z M868.707,364.414l-1.44-2.871l-13.303-5.836l-0.035,0.336l-7.51-2.721 l-6.302,4.591l-2.874-7.18l-9.44,0.875l6.3,4.001l-2.874,1.147l2.581,2.873l2.007-0.566l2.587,2.566l8.585,2.875l2.283,7.451 l-2.57,2.566l5.445-0.562l0.374,0.275l0.021-0.262l2.409,2.779l6.302-0.286l4.293-5.443l8.581,8.006l7.882,1.586l-9.308-9.6 l1.712-3.154l-5.713-3.44v-0.007H868.707z M882.561,418.374l-3.311-1.712l-2.354-6.588l-6.687-4.295l-2.939-12.318l-4.521-2 l-2.94-10.312l-7.016,20.617l-2.01,0.286l-11.448-8.867l3.15-8.602l-13.473-2.287l2.014,2.875l-6.588,1.146l-2.587,6.867 l-5.725-3.44l-7.451,7.176l-2-0.302l-0.573,3.153l-1.722-1.709v5.438l-23.199,10.301l-0.921,6.267l2.137,7.259l-2.64,1.084 l0.776,0.784l3.805,10.672l-0.231,10.683l2.4,3.922l4.133,1.382l6.271-2.944l10.218-0.979l5.851-4.714l12.336-1.874l7.991,0.098 l5.653,4.13l1.485,5.209l6.382-6.584l-1.569,6.283l2.419-0.327l0.141,3.272l3.538,0.783l0.585,4.521l4.723,3.74l6.028,1.624 l3.987-2.019l4.339,1.752l4.122-2.751l4.089-0.571l3.734-10.091l1.618-5.438l4.108-7.462l1.924-8.216l-2.021-4.592l-6.046-10.326 L882.561,418.374z M867.562,482.69l4.298,2.871l2.574-1.715l0.282-8.308l-9.157-0.566L867.562,482.69L867.562,482.69z"/>
	<polygon class="land" points="579.585,214.339 584.627,221.224 575.521,224.265 558.779,221.514 555.769,224.046 546.247,222.392 546.083,225.986  542.663,229.573 544.946,236.817 552.562,240.667 555.884,237.913 562.938,240.47 568.728,239.458 566.24,253.848 565.581,265.842  572.814,277.132 577.15,282.514 579.57,290.039 587.086,300.883 588.474,309.445 589.176,311.897 591.135,313.453 593.225,312.606  603.988,307.742 617.763,301.753 627.951,294.024 633.77,284.032 624.146,272.524 618.356,278.569 614.86,278.87 611.649,278.8  611.062,276.706 611.247,272.339 607.506,271.74 601.726,262.559 603.204,259.896 607.761,260.199 619.014,270.901  624.776,268.849 628.752,273.506 651.807,274.468 658.395,281.137 662.785,281.997 658.945,284.28 663.736,288.864  668.813,284.864 668.813,291.451 676.22,315.509 678.971,322.67 680.542,325.443 682.625,325.971 688.179,320.012 689.402,312.326  691.465,303.271 707.096,291.057 710.953,285.437 714.837,285.997 718.914,283.92 720.516,283.748 724.946,291.151  727.419,294.347 728.922,298.878 727.823,303.473 730.979,303.822 736.056,300.948 740.545,316.769 739.076,324.136  741.265,327.149 744.427,334.146 747.993,342.42 751.2,346.427 753.483,346.499 758.644,348.43 754.706,344.125 752.375,334.895  742.763,323.034 745.098,310.273 757.26,320.739 756.89,324.415 760.913,321.537 765.252,319.061 769.651,312.747 768.141,306.906  763.211,300.325 758.812,293.954 766.217,285.724 770.086,286.238 771.17,290.298 775.537,285.997 785.552,282.569  791.849,279.546 799.612,267.981 803.007,259.787 799.443,258.96 803.104,256.493 800.265,250.782 796.191,244.732  803.007,238.378 804.388,236.896 796.279,236.048 792.023,231.658 801.766,223.699 803.611,224.995 802.266,230.92  809.543,228.374 812.906,229.321 811.776,234.261 816.032,235.081 815.899,245.784 824.477,242.724 819.466,229.456  834.816,218.065 839.1,214.124 843.967,209.825 852.272,197.509 854.033,191.448 854.995,187.487 856.234,180.04 853.9,177.183  852.803,175.396 850.88,174.983 847.414,176.595 846.492,173.749 847.699,172.31 845.426,171.723 840.32,172.796 853.098,160.827  858.559,154.843 865.727,153.995 874.308,153.995 877.657,153.204 882.896,153.443 884.761,156.05 888.054,155.367  894.917,149.683 895.739,148.255 896.082,147.403 900.655,142.815 906.166,143.021 908.079,143.425 908.313,148.056  918.982,138.521 920.996,139.104 922.862,139.439 920.028,140.417 917.968,144.663 905.093,157.267 899.425,161.521  895.33,171.562 897.414,188.461 907.544,177.189 910.688,174.028 913.576,168.542 916.412,163.731 916.188,160.858  914.128,157.841 919.856,154.851 917.265,152.628 922.765,149.884 924.416,151.667 927.43,149.744 932.5,149.057 939.605,147.96  953.221,139.317 959.673,141.24 957.582,132.285 956.155,130.573 961.064,128.472 963.383,123.675 965.442,123.811  966.128,126.556 972.849,126.777 979.164,132.046 983.419,126.556 989.409,123.341 980.283,117.604 980.283,117.604 980.3,117.604  980.3,118.421 971.37,114.74 964.719,110.833 960.113,108.152 955.582,106.233 942.826,104.037 936.375,103.622 936.47,109.251  930.34,107.603 906.74,105.004 904.957,99.558 891.438,98.616 888.365,99.644 886.703,99.372 885.016,98.914 883.221,97.564  885.222,95.262 882.927,95.548 882.07,94.118 884.085,93.267 876.057,90.691 871.196,94.981 874.056,91.835 868.612,90.691  866.395,90.592 856.499,89.331 850.488,91.961 852.453,93.048 851.999,93.837 850.849,96.765 841.971,95.259 837.438,96.901  832.638,94.159 828.383,99.919 821.798,95.118 823.647,91.835 823.077,89.536 821.935,87.158 821.108,86.61 820.56,86.61  819.563,85.884 818.773,84.377 809.031,84.09 807.528,86.059 806.431,87.985 794.08,86.884 793.807,84.69 783.551,84.38  778.869,83.185 759.375,87.821 773.525,80.663 780.365,75.907 781.19,71.93 776.257,67.417 770.539,66.767 765.544,66.634  761.273,68.028 762.962,65.18 759.511,62.718 751.553,60.815 743.049,69.46 738.314,69.112 735.447,70.064 713.971,74.079  711.019,75.801 709.012,76.936 707.124,79.521 708.548,83.239 700.903,84.09 691.444,84.69 690.898,89.769 694.878,92.372  696.521,94.432 695.56,95.396 692.948,95.556 690.2,93.264 687.591,90.691 687.885,92.98 680.039,93.841 681.458,97.564  677.191,96.991 675.359,89.772 670.716,97.28 672.006,106.243 680.943,109.741 673.821,110.776 672.66,117.322 667.09,123.083  664.996,120.104 671.24,112.202 668.388,109.222 669.422,100.544 666.961,96.657 669.339,90.13 659.442,88.755 656.959,96.14  652.841,98.341 652.841,105.208 657.505,109.352 656.855,112.581 651.546,109.874 644.532,106.257 636.157,104.604  631.553,101.948 630.615,102.947 635.686,106.47 639.518,108.357 636.092,109.228 634.889,107.136 630.021,108.565  620.565,109.719 618.275,106.563 603.681,112.866 603.097,116.021 598.522,117.452 597.669,114.577 601.387,112.579  592.81,106.851 594.229,109.722 592.516,113.438 591.361,119.163 587.935,117.162 582.203,121.749 583.921,125.176  580.116,125.679 578.501,126.851 577.612,131.193 566.256,131.098 565.396,124.797 561.72,120.485 576.336,123.815  582.067,115.862 559.738,105.838 551.849,105.121 555.293,100.835 548.695,99.646 546.531,99.503 545.086,99.066 542.4,99.706  540.604,98.489 536.104,99.405 528.394,103.423 525.231,102.265 523.508,103.706 521.792,102.546 519.791,105.135 521.792,105.704  512.806,110.276 516.829,111.913 511.767,116.433 506.59,123.138 500.893,129.759 497.45,131.474 493.72,137.117 490.576,141.136  486.564,144.286 485.605,152.366 488.072,158.529 492.926,158.892 500.348,154.061 503.207,160.982 506.112,165.794  504.987,166.186 505.188,166.553 505.165,168.126 508.38,170.553 510.133,168.314 514.53,167.216 516.604,158.113 522.196,152.175  517.388,146.165 522.903,136.018 529.148,131.88 530.177,127.876 536.106,124.538 539.516,128.292 528.459,138.997 528.605,148.55  533.96,152.024 547.849,148.286 552.622,151.222 545.975,154.344 543.807,153.91 538.995,153.814 533.674,155.937 537.254,161.434  535.453,164.095 531.666,160.972 527.533,165.841 527.904,170.502 520.161,172.948 508.633,176.776 504.375,174.112  501.762,176.013 500.914,174.226 498.551,174.305 497.321,171.847 497.604,169.479 499.957,167.929 498.664,164.298  499.162,161.345 494.857,163.438 493.029,167.144 494.87,174.212 493.48,177.585 486.824,178.377 480.773,184.622 477.271,187.271  474.459,190.648 471.398,192.57 467.711,193.705 465.311,193.079 466.479,196.355 457.77,196.827 463.922,201.562 468.275,208.44  466.284,215.848 450.957,214.903 445.846,216.51 445.088,231.085 446.604,237.046 451.139,236.76 454.548,240.358 465.434,237.805  470.923,231.939 470.069,228.533 478.592,221.528 480.278,215.96 487.504,216.442 490.039,215.415 495.554,212.275  499.794,217.296 511.572,227.446 514.745,230.329 511.63,233.641 505.271,234.292 511.603,238.546 513.041,233.829  515.211,233.641 517.632,229.719 516.26,228.238 517.485,226.069 520.242,228.249 521.078,226.452 514.875,222.667  514.642,220.774 510.769,220.206 504.226,210.355 507.172,208.183 508.071,210.353 512.016,212.188 514.659,215.382  521.966,219.615 524.085,221.885 523.676,227.337 528.18,231.563 529.977,233.647 536.498,234.21 532.38,226.851 536.113,226.851  539.296,224.665 544.744,224.946 545.135,221.839 550.52,217.374 549.327,215.386 551.901,211.087 551.901,209.085  554.186,206.226 554.186,204.501 555.275,204.282 557.58,204.415 562.479,206.438 559.056,208.505 563.539,212.313  571.186,209.813"/>

	<g transform="translate(-1.5,-1.5)">
		<polygon class="utc-bar" data-name="Samoa Standard" data-utc="-10:00" points="82.455,156.727 44.932,178.37 44.932,262.591 9.453,262.591 9.453,302 44.932,302  44.932,369 13,369 13,391.333 40,405 44.932,405 44.932,541.039 82.455,541.039 82.477,419.864 96.982,419.864 105.533,411.319  97.248,387.751 82.455,387.72"/>
		<path class="utc-bar" data-name="Hawaii–Aleutian Standard" data-utc="-09:00" d="M82.477,541.015v-121.15h14.506l8.551-8.545l-8.285-23.568l-14.793-0.031V156.727L9.453,198.833 v-76.014h5.699v-9.584l1.291-4.4l12.945-10.621l11.912-2.069h0.007L82.48,95.89V8.96h41.826v86.676l-37.357,10.052v46.692 l2.092,0.635l5.489,3.703l11.025,10.859l9.17,5.88l-11.021,1.694l20.678,22.471l-0.068,343.396L82.477,541.015z"/>
		<path class="utc-bar" data-name="Alaska Standard" data-utc="-08:00" d="M163.672,541.019V323.243h11.123v-5.964H163.94v-38.259h-12.478v-14.664h4.622l2.224,2.227 h4.271l-5.16-12.798l0.283-13.567h2.167v-18.176h-7.322l-0.817-3.257h-3.527v-4.886l4.885-4.883h5.833v-5.021l-3.933-3.934v-5.152 l-18.723-24.421v-7.866h7.055v-11.805h-10.992l-2.582-2.574h-5.248l-0.182-3.436l-19.812-24.831h-5.443v-13.724l25.438-7.939 l10.586-30.023l11.666-7.688l16.912-5.969V8.963L124.307,8.96v86.676l-37.357,10.162v46.582l2.092,0.635l5.489,3.703l11.025,10.859 l9.17,5.88l-11.021,1.694l20.678,22.471l-0.068,343.396H163.672z"/>
		<path class="utc-bar" data-name="Pacific Standard" data-utc="-07:00" d="M163.672,541.019V323.243h11.123v-5.964H163.94v-38.259h-12.478v-14.664h4.622l2.224,2.227 h4.271l-5.16-12.798l0.283-13.567h2.167v-18.176h-7.322l-0.817-3.257h-3.527v-4.886l4.885-4.883h5.833v-5.021l-3.933-3.934v-5.152 l-18.723-24.421v-7.866h7.055v-11.805h-10.992l-2.582-2.574h-5.248l-0.182-3.436l-19.812-24.831h-5.443v-13.724l25.438-7.939 l10.586-30.023l11.666-7.688l16.912-5.969V8.963h40.977V38.9H192.16v112.331h-21.435v44.229h16.009v4.611l7.87,1.088l1.899,5.426 v10.854l-7.056,20.893v15.736h-4.615v6.785l4.615,2.445l-2.44,2.442l0.543,4.885h-6.514l-4.228,6.913l5.872,7.179l-0.244,6.126 l5.146,4.658l17.008,7.805v120.355h-36.579v12.211h36.576v105.167L163.672,541.019z"/>
		<path class="utc-bar" data-name="Mountain Standard" data-utc="-06:00" d="M245.566,541.025l0.01-252.854h-9.475v-7.58h9.584v-13.42l-0.673-3.264l-2.903-4.434 l-1.313-0.119l-2.343,2.049l-2.077-17.479l2.419-2.414v-3.165l-6.547-6.545v-7.641l2.6-2.6h-1.168l1.451-12.707l-4.472-3.549 h-3.345l-2.033-2.037l-0.301-6.521h-4.502v-2.133h4.147v-13.857l2.853-2.854l-2.477-2.477v-7.79l2.814-2.812v-24.447l8.997-15.787 l1.522-1.524V29.208l7.244,1.74V8.963h-40.941V38.9H192.16v112.331h-21.435v44.229h16.009v4.611l7.87,1.088l1.899,5.426v10.854 l-7.056,20.893v15.736h-4.615v6.785l4.615,2.445l-2.44,2.442l0.543,4.885h-6.514l-4.228,6.913l5.872,7.179l-0.244,6.126 l5.146,4.658l17.008,7.805v120.355h-36.579v12.211h36.576v105.167L245.566,541.025z M818.389,468.427h41.156"/>
		<path class="utc-bar" data-name="Central Standard" data-utc="-05:00" d="M245.566,541.025l0.01-252.854h-9.475v-7.58h9.584v-13.42l-0.673-3.264l-2.903-4.434 l-1.313-0.119l-2.343,2.049l-2.077-17.479l2.419-2.414v-3.165l-6.547-6.545v-7.641l2.6-2.6h-1.168l1.451-12.707l-4.472-3.549 h-3.345l-2.033-2.037l-0.301-6.521h-4.502v-2.133h4.147v-13.857l2.853-2.854l-2.477-2.477v-7.79l2.814-2.812v-24.447l8.997-15.787 l1.522-1.524V29.208l7.244,1.74V8.963h41.157v13.739l18.395,4.304v3.857l-36.347,24.058v12.442l17.949,7.121l0.283,26.116 l-1.694,1.699l-0.031,39.598l2.33,2.334l-0.737,7.115l7.276-2.332l1.031,4.705v2.375l1.188,1.188l-0.744,2.078l1.854,1.854 l-1.558,5.418l1.931,1.925v3.857l-0.964,0.963h-4.974l-2.699-2.705l-2.938,2.928l1.335,4.451l2.229,5.194l4.007,0.892l0.741,0.745 l2.002-2.006l1.261,1.261h4.155l1.042,3.266v7.568l-10.533,4.451h-6.975l-1.854,1.855l2.449,1.261v5.341l2.447,2.446l-2.074,2.085 v78.862h-11.206v4.451l1.878,16.563l0.793,2.725l-3.269,1.186l-3.558,6.678l2.812,6.235h5.343l2.378,2.818h5.334l-1.184,4.601 l2.079,7.421l-7.271,1.188v5.787l1.855,1.857l-2.743,9.714l9.044,16.028l-3.708,3.706l-3.561-0.59l2.225,4.745l-0.745,11.419 l-4.608,6.008l1.159,8.042l-1.471,11.624h-29.054v31.89h13.648v64.835l19.438,11.419h4.75l-0.006,9.415L245.566,541.025z"/>
		<path class="utc-bar" data-name="Venezuelan Standard" data-utc="-04:30" d="M287.806,346.108l4.097,1.443l4.575-4.573l-1.927-5.538l6.143,2.049l4.697-4.699l-2.654-2.651 l2.646-2.65v-1.689l1.716-1.716l-2.871-2.049l0.521-1.693l-2.906-0.971l-2.672-3.015l-5.644,2.146l-8.173-0.573l-4.713-4.566 l-4.469,2.965l-1.103-0.396l-0.352-1.733l-3.558,6.678l2.812,6.235h5.343l2.378,2.818h5.334l-1.184,4.601l2.079,7.421 L287.806,346.108z"/>
		<path class="utc-bar" data-name="Eastern Standard" data-utc="-04:00" d="M274.718,316.198l3.269-1.186l-0.793-2.725l-1.878-16.563v-4.451h11.206v-78.862l2.074-2.085 l-2.447-2.446v-5.341l-2.449-1.261l1.854-1.855h6.975l10.533-4.451v-7.568l-1.042-3.266h-4.155l-1.261-1.261l-2.002,2.006 l-0.741-0.745l-4.007-0.892l-2.229-5.194l-1.335-4.451l2.938-2.928l2.699,2.705h4.974l0.964-0.963v-3.857l-1.931-1.925l1.558-5.418 l-1.854-1.854l0.744-2.078l-1.188-1.188v-2.375l-1.031-4.705l-7.276,2.332l0.737-7.115l-2.33-2.334l0.031-39.598l1.694-1.699 l-0.283-26.116l-17.949-7.121V54.921l36.347-24.058v-3.857l-18.395-4.304V8.963h40.591V27.3l-22.404,4.894l-20.033,13.64v6.338 l10.426,17.377l29.936,57.465l2.076,1.633v206.577l-4.594-2.412h-7.728l-2.523,4.888l4.006,6.389l5.046-1.485v1.927l7.414,8.756 v6.234l-2.67,5.335l2.223,4.603l-1.783,2.965l1.93,3.714l-1.561,1.56l6.31,0.821l-0.741,9.046l-7.414,12.761l1.627,4.152 l4.748,2.522v2.22l-7.418,7.27l-2.969,12.015l-3.191,3.188l-7.342-1.705l2.816-5.637l-14.098-9.945l-4.449,2.378l-4.898-2.818 l-2.75,2.749l-0.365,3.93l-3.412,1.93v6.983l-3.115,10.375l-2.227,3.859l2.377,6.826l-3.266,10.83l-2.525,14.989l0.893,15.284 l-3.264,12.019l-2.748,2.749l2.004,4.528h1.336l0.745,3.262l3.71,1.186l3.207,2.705l2.984,8.426l5.503,1.111h10.708v-7.34h-7.117 v-26.857h34.574v47.516l-40.446,0.018l0.006-9.415h-4.75l-19.438-11.419V455.37h-13.648v-31.89h29.054l1.471-11.624l-1.159-8.042 l4.608-6.008l0.745-11.419l-2.225-4.745l3.561,0.59l3.708-3.706l-9.044-16.028l2.743-9.714l-1.855-1.857v-5.787l7.271-1.188 l-0.117,2.157l4.097,1.443l4.575-4.573l-1.927-5.538l6.143,2.049l4.697-4.699l-2.654-2.651l2.646-2.65v-1.689l1.716-1.716 l-2.871-2.049l0.521-1.693l-2.906-0.971l-2.672-3.015l-5.644,2.146l-8.173-0.573l-4.713-4.566l-4.469,2.965l-1.103-0.396 l-0.355-1.723L274.718,316.198z"/>
		<path class="utc-bar" data-name="Atlantic Standard" data-utc="-03:00" d="M368.189,541.019v-13.399l-14.651,0.048l0.043-8.804h14.754V384.254l7.992-10.567l-2.574-9.728 l-3.665,0.141l-1.571-1.091l0.051-238.561l8.237-2.889l6.85-7.494l-0.683-3.842l2.686,2.731l12.409-1.476l12.185-7.812 l-9.338-1.566l-10.42,2.604l0.437-4.965l0.584-5.547l3.208-9.346l5.84-4.961l9.199,1.019l10.176-1.62l-4.78-3.096l1.473-0.582 l3.973-1.143l-1.821-0.662l-1.554,0.323l2.094-1.355l-0.48-2.563L409.59,71.6l-1.58-6.323l1.777-3.355l3.387-4.494l1.196-4.621 l5.95-4.561l3.428-3.684l5.729-4.309l10.101-5.821l-8.476-2.065l-6.145,0.462l-3.539,3.173l-4.928-1.835l-9.088,5.362l4.297-4.302 l-1.121-3.635l-1.219,0.038l-0.012-3.786l3.66-0.946l-15.604-1.955l3.413-3.938l-19.263-0.346l-13.045,1.106V8.963h-41.182V27.3 l-22.404,4.894l-20.033,13.64v6.338l10.426,17.377l29.936,57.465l2.076,1.633v206.577l-4.594-2.412h-7.728l-2.523,4.888 l4.006,6.389l5.046-1.485v1.927l7.414,8.756v6.234l-2.67,5.335l2.223,4.603l-1.783,2.965l1.93,3.714l-1.561,1.56l6.31,0.821 l-0.741,9.046l-7.414,12.761l1.627,4.152l4.748,2.522v2.22l-7.418,7.27l-2.969,12.015l-3.191,3.188l-7.342-1.705l2.816-5.637 l-14.098-9.945l-4.449,2.378l-4.898-2.818l-2.75,2.749l-0.365,3.93l-3.412,1.93v6.983l-3.115,10.375l-2.227,3.859l2.377,6.826 l-3.266,10.83l-2.525,14.989l0.893,15.284l-3.264,12.019l-2.748,2.749l2.004,4.528h1.336l0.745,3.262l3.71,1.186l3.207,2.705 l2.984,8.426l5.503,1.111h10.708v-7.34h-7.117v-26.857h34.574v47.516L368.189,541.019z"/>
		<path class="utc-bar" data-name="South Georgia" data-utc="-02:00" d="M409.35,26.517l-11.945-1.575l3.413-3.938l-19.263-0.346l-13.045,1.106V8.963h40.863 L409.35,26.517z M368.189,541.019v-13.399l-14.651,0.048l0.043-8.804h14.754V384.254l7.992-10.567l-2.574-9.728l-3.665,0.141 l-1.571-1.091l0.051-238.561l8.237-2.889l6.85-7.494l-0.699-3.936l2.702,2.825l12.409-1.476l10.942-7.027v14.41h-6.572v19.222 h7.134v85.989h-26.349v16.643h25.955v53.1h-12.48v15.056h12.874v232.154L368.189,541.019z"/>
		<path class="utc-bar" data-name="Cape Verde" data-utc="-01:00" d="M413.365,57.164l3.942-4.929l5.527-2.567h27.449V8.963h-40.91l-0.023,17.554l3.658,0.38 l-3.66,0.946l0.012,3.786l1.219-0.038l1.121,3.635l-4.297,4.302l9.088-5.362l4.928,1.835l3.539-3.173l6.145-0.462l8.476,2.065 l-10.101,5.821l-5.729,4.309l-3.428,3.684l-5.95,4.561L413.365,57.164L413.365,57.164z M409.014,118.862l41.27-0.045l-0.197-46.428 l-30.832,0.015l0.068,0.365l-2.094,1.355l1.554-0.323l1.821,0.662l-3.973,1.143l-1.473,0.582l4.78,3.096l-10.176,1.62l-9.199-1.019 l-5.84,4.961l-3.208,9.346l-0.584,5.547l-0.437,4.965l10.42-2.604l9.338,1.566l-1.242,0.785v14.41l0,0H409.014z M450.387,541.019 v-58.556h-20.569v-26.984h20.347v-80.074H428.27v-5.98h21.334v-32.04l-10.882-6.301l-3.147-6.584l-10.025-17.467l2.004-18.619 l-1.421-2.857l8.63-15.889h-14.227l-0.776-19.578l11.833-11.836v-61.273l13.273-6.412h5.311v-32.48h-40.59l-0.015-0.003l0,0v85.989 h-26.349v16.643h25.955v53.1h-12.48v15.056h12.874v232.154L450.387,541.019z"/>
		<path class="utc-bar" data-name="Greenwich Mean" data-utc="gmt" d="M450.176,138.087v32.48h-5.311l-13.273,6.412v61.273l-11.833,11.836l0.776,19.578h14.227 l-8.63,15.889l1.421,2.857l-2.004,18.619l10.025,17.467l3.147,6.584l10.882,6.301v32.04H428.27v5.98h21.895v80.074h-20.347v26.984 h20.569v58.556h40.716V355.543h-6.824v-2.788h8.457V342.27h-1.54v-5.005l-4.318-0.23l-5.209-5.587l-6.528,1.289l-0.673-12.104 l-1.876-0.963v-1.202l1.776-1.776l2.491-0.674v-2.019l-5.47-7.776l2.063,0.042l1.015-1.015l5.242-0.818l2.26-2.262v-8.368 l-34.711-25.092v-4.513l17.655-9.935l2.176-1.508l-0.119-1.633l-1.351-6.055l-1.078-1.773l-9.125-2.042l-0.921-0.947l-3.356-3.543 l1.892-15.241h-7.491l0.255-5.006l5.115-1.605l15.323,0.943l1.992-7.403l-4.353-6.882l-6.147-4.731l8.703-0.472l-1.169-3.277 l2.401,0.629l3.688-1.137l3.061-1.922l2.812-3.377l9.563-8.898l4.573-0.536v-19.064l-3.303-0.247l-2.473-6.162l0.963-8.081 l4.533-3.823l0.004-131.503h-40.799v40.705h-27.449l-5.527,2.567l-2.188,2.864l-5.332,6.822l-1.777,3.355l1.58,6.323l9.252-1.394 l0.412,2.199l30.832-0.015l0.197,46.428l-47.846,0.045v19.222L450.176,138.087z"/>
		<path class="utc-bar active" data-name="Central European" data-utc="+01:00" d="M491.082,8.963L532.05,8.96v29.39h31.758v12.754l-22.386,22.386h-9.372v19.783l24.995,5.801 l-2.105,6.334l-4.668,2.181l-3.771-3.774h-3.777l-2.346,5.596l-7.55,1.305l-3.252-3.259l-2.473,2.474l2.993,2.995l4.818,1.169 l1.158,10.455l-8.249,14.405l-4.098,35.27h10.934l1.036,15.101l-4.42,7.805l1.953,1.956l-6.122,7.419l4.035,4.034l1.818,1.819 v11.321h-4.553l-3.252,5.101h-2.969v16.244l-19.632,4.856l-5.38,9.981l1.304,16.139l11.19,7.025l5.203-2.86l21.081,12.235v11.192 l-2.07,2.081l-2.867,6.507l13.799,22.128l-11.19,1.563v2.604l-1.561,6.512l5.201,10.42h-7.028l-5.991,13.005l5.991,2.615 l1.042,10.676h4.937v5.458h-5.199v11.71l7.812,2.346l-3.251,3.259l-2.348-2.346h-4.814v12.358h-3.126v19.524l-6.559,1.253 l-1.897-1.889l-0.614,0.615l1.711,2.084l-0.255,6.717l1.488,7.469l4.213,5.767l7.27-3.112l1.154-1.149v89.26l-40.696-0.007V355.543 h-6.824v-2.788h8.457V342.27h-1.54v-5.005l-4.318-0.23l-5.209-5.587l-6.528,1.289l-0.673-9.8v-2.305l-1.876-0.963v-1.202 l1.776-1.776l2.491-0.674v-2.019l-5.47-7.776l2.063,0.042l1.015-1.015l5.242-0.818l2.26-2.262v-8.368l-34.711-25.092v-4.513 l17.655-9.935l2.176-1.508l-0.119-1.633l-1.351-6.055l-1.078-1.773l-9.125-2.042l-0.921-0.947l-3.356-3.543l1.892-15.241h-7.491 l0.255-5.006l5.115-1.605l15.323,0.943l1.992-7.403l-4.353-6.882l-6.147-4.731l8.703-0.472l-1.169-3.277l2.401,0.629l3.688-1.137 l3.061-1.922l2.812-3.377l9.563-8.898l4.573-0.536v-19.064l-3.303-0.247l-2.473-6.162l0.963-8.081l4.533-3.823L491.082,8.963z"/>
		<path class="utc-bar" data-name="Eastern European" data-utc="+02:00" d="M573.203,541.025V401.329l8.263-5.508l0.234-12.986l-1.354-2.631l-9.074,3.514l-5.93-0.82 l-1.028-4.708l-9.207-4.503c0,0-3.881-3.678-3.881-5.728c0-2.042,0.206-5.724,0.206-5.724l3.786-3.787l-1.335-5.833h-2.657 l1.637-6.343l2.867-2.867v-3.679l-4.504-3.678l-6.412-1.741l-11.19,1.563v2.604l-1.561,6.512l5.201,10.42h-7.028l-5.991,13.005 l5.991,2.615l1.042,10.676h4.937v5.458h-5.199v11.71l7.812,2.346l-3.251,3.259l-2.348-2.346h-4.814v12.358h-3.126v19.524 l-6.559,1.253l-1.897-1.889l-0.614,0.615l1.711,2.084l-0.255,6.717l1.488,7.469l4.213,5.767l7.27-3.112l1.154-1.149v89.26H573.203z  M532.05,8.96v29.39h31.758v12.754l-22.386,22.386h-9.372v19.783l24.995,5.801l0.021,0.008l15.864-24.943V8.963L532.05,8.96z  M535.96,292.402v-1.993h3.001v-5.525h22.092l1.545,1.539l6.385-5.392l-3.405-15.271l0.224-4.209h5.273l3.272-3.27l-2.854-2.857 l6.952-2.456l-1.23-3.889l6.35-3.276v-5.729l4.906-3.68l4.095,0.208v-8.186l-7.925-7.268l-5.049-6.881l-8.473-4.436l4.36-7.097 l3.378-3.378l1.224-6.137l-13.092-3.48v-1.836l-3.272-1.229l-1.028-3.48h-5.923v-3.48l3.28-1.021l-4.711-4.912l-1.027-5.932h-6.543 l-1.814-13.492l1.885-6.051l8.521-10.131l-3.472-3.476l-2.965-15.655l2.455-2.452l-3.581-3.581l1.479-5.425l-3.771-3.774h-3.777 l-2.346,5.596l-7.55,1.305l-3.252-3.259l-2.473,2.474l2.993,2.995l4.818,1.169l1.158,10.455l-8.249,14.405l-4.098,35.27h10.934 l1.036,15.101l-4.42,7.805l1.953,1.956l-6.122,7.419l4.035,4.034l1.818,1.819v11.321h-4.553l-3.252,5.101h-2.969v16.244 l-19.632,4.856l-5.38,9.981l1.304,16.139l11.19,7.025l5.203-2.86l21.081,12.235L535.96,292.402z"/>
		<path class="utc-bar" data-name="East Africa" data-utc="+03:00" d="M613.846,373.284h-20.254v8.383h3.07v3.475h6.134v-2.864h11.05v107.019h-9.62v7.367h9.413 v44.355l-40.436,0.007V401.329l8.263-5.508l0.234-12.986l-1.354-2.631l-9.074,3.514l-5.93-0.82l-1.028-4.708l-9.207-4.503 c0,0-3.881-3.678-3.881-5.728c0-2.042,0.206-5.724,0.206-5.724l3.786-3.787l-1.335-5.833h-2.657l1.637-6.343l2.867-2.867v-3.679 l-4.504-3.678l-6.412-1.741l-13.799-22.128l2.867-6.507l2.07-2.081l0.007-13.183h3.001v-5.525h22.092l1.545,1.539l6.385-5.392 l-3.405-15.271l0.224-4.209h5.273l3.272-3.27l-2.854-2.857l6.952-2.456l-1.23-3.889l6.35-3.276v-5.729l4.906-3.68l4.081,0.214 l3.74,4.928l-1.77,5.613l6.504,6.353l-0.653,3.458l2.849,2.852l-1.481,2.662l5.775,9.183l3.75,0.591l0.405,6.469l1.614,3.605h7.838 l1.478,3.256l-1.617,5.021l-8.277,3.692l3.195,7.182l-1.78,1.784v5.569h6.683v9.214h-6.958V373.284z M614.041,8.963l0.238,65.139 l-41.349,0.036V8.963H614.041z M603.218,259.812"/>
		<path class="utc-bar" data-name="Iran Standard" data-utc="+03:30" d="M637.603,242.377v-4.12l-11.47-5.279l-8.791,5.822l-12.351-3.956l-2.923-5.733h-1.678 l-3.738,2.316l-4.087-3.014l-0.014,8.195l3.74,4.928l-1.77,5.613l6.504,6.353l-0.653,3.458l2.849,2.852l4.562,0.308l11.244,10.698 l5.77-2.053l3.974,4.658l9.86,0.405l2.915-2.916h1.854v-2.399l-1.684-3.221l-4.688-4.701l2.77-4.564h-2.577l-1.682-7.598 L637.603,242.377z"/>
		<path class="utc-bar" data-name="Moscow Standard" data-utc="+04:00" d="M655.131,8.963v19.748h6.581v52.784l-13.707,17.391l0.459,9.317l3.108,1.591l-19.39,29.537 l-14.295,9.53l-2.325,8.626l-5.818-1.303l-1.025,10.021l4.005,1.818l-1.501,5.562h-3.734l-5.524,5.51l6.598,4.364l-1.804,6.706 l-6.357-1.586l5.225,20.481l11.71,29.745l-12.344-3.964l-2.923-5.733h-1.678l-3.738,2.316l-4.087-3.014l-7.925-7.264l-5.049-6.881 l-8.473-4.436l4.36-7.097l3.378-3.378l1.224-6.137l-13.092-3.48v-1.836l-3.272-1.229l-1.028-3.48h-5.923v-3.48l3.28-1.021 l-4.711-4.912l-1.027-5.932h-6.543l-1.814-13.492l1.885-6.051l8.521-10.131l-3.472-3.476l-2.965-15.655l2.455-2.452l-3.581-3.581 l1.503-5.422l4.665-2.176l2.105-6.334l15.864-24.943l41.349-0.036l-0.238-65.139H655.131z M603.218,259.812l4.565,0.308 l11.244,10.698l5.77-2.053l3.974,4.658l9.867,0.412l-0.007,57.65h16.615v209.533h-41.607v-44.355h-9.413v-7.367h9.62V382.277 h-11.05v2.864h-6.134v-3.475h-3.07v-8.383h20.254V318.04h6.958v-9.214h-6.683v-5.569l1.78-1.784l-3.195-7.182l8.277-3.692 l1.617-5.021l-1.478-3.256h-7.838l-1.614-3.605l-0.405-6.469l-3.75-0.591l-5.775-9.183l1.481-2.662"/>
		<path class="utc-bar" data-name="Afghanistan" data-utc="+04:30" d="M635.539,248.429l1.682,7.598h2.577l-2.77,4.564h14.477l1.553-4.567l6.951-3.092 l2.063-3.218v-2.574l2.447-1.035l1.287-11.713l-1.351-1.349l-5.218,4.056l-8.628-0.772l-9.274,6.952l-3.733-0.901L635.539,248.429z"/>
		<path class="utc-bar" data-name="Uzbekistan Standard" data-utc="+05:00" d="M695.683,541.028V345.79h-11.21v-16.993h-29.352l-0.13-46.87l2.018-2.279l8.028-1.715 l-4.699-8.312l2.511-2.279l3.992,0.157l9.783-14.165l-3.604-2.317l0.771-5.668l3.604,0.516l4.636-2.961l-3.992-3.994l-2.825-2.835 l-3.403-6.355l-11.227-0.737v-1.625l8.943-2.736l-4.951-4.947l-6.87,4.947l-1.699-1.701h-2.07l-2.812-2.811v-1.625l-3.248-3.251 h-8.28l-9.092-7.459l8.05-8.056l3.992,2.954l3.406-3.401l-4.434-4.433l0.588-3.253l-1.325-3.401l-4.879-3.401l1.624-8.865h3.251 l18.477-4.582h3.986l2.741-6.132l-2.881-2.882l0.439-5.175h1.916v2.217h8.135l4.434-4.433l2.069-2.069l1.179-5.614l14.561,1.847 l1.996-1.996h2.657l4.134-2.515l-3.102-1.92l2.808-4.726l-1.251-2.586l1.845-1.851v-3.842l-3.839-1.183l-6.871-13.667l2.144-2.145 l-0.74-4.139l-6.648-0.737l-1.996-2.586l3.175-3.181v-3.543l-3.175-1.551l1.856-1.859l-4.003-4.002v-8.551l-9.609,0.293V34.335 h20.854V8.963h-40.937v19.748h6.581v52.784l-13.707,17.391l0.459,9.317l3.108,1.591l-19.39,29.537l-14.295,9.53l-2.325,8.626 l-5.818-1.303l-1.025,10.021l4.005,1.818l-1.501,5.562h-3.734l-5.524,5.51l6.598,4.364l-1.804,6.706l-6.357-1.586l5.225,20.481 l11.71,29.745l8.798-5.83l11.47,5.279v4.12l3.733,0.901l9.274-6.952l8.628,0.772l5.218-4.056l1.351,1.349l-1.287,11.713 l-2.447,1.035v2.574l-2.063,3.218l-6.951,3.092l-1.553,4.567h-14.49l4.702,4.701l1.684,3.221v2.399h-1.854l-2.915,2.916v57.657 h16.615v209.533L695.683,541.028z"/>
		<path class="utc-bar" data-name="Indian Standard" data-utc="+05:30" d="M721.498,330.785 M713.784,285.927 M721.498,330.785l0.325-21.263h0.004h6.654v21.263 h-6.979H721.498z M715.833,272.22l0.207,2.664l7.49,1.126l-3.386,3.385h2.665l-2.107,4.567l1.471,2.475l2.773,4.715l2.514,2.974 l1.462,4.753l-1.099,4.595l3.15,0.538l5.082-3.062l4.481,15.858l1.679-1.019l-0.824-5.965l-2.344-3.63l1.428-3.772l-3.402-5.585 l0.685-4.835l7.836-5.738l-4.146-2.935c0,0-1.462-4.835-1.797-5.171c-0.34-0.336-2.812-1.463-2.812-1.463l3.141-3.479l-0.104-5.846 l-1.91-1.91l-2.584,0.451l-2.889-3.837l-2.171,1.265l-1.573-0.674l-7.519,4.596l-0.007,0.014l-4.713-1.583l-3.153,1.698 l-1.284-0.981h-6.398l-12.231-6.097l-7.998-7.482l1.315-6.037l-4.729-3.902l-4.636,2.975l-3.604-0.516l-0.771,5.668l3.604,2.317 l-9.783,14.165l-3.992-0.157l-2.511,2.279l4.699,8.312l-8.028,1.715l-2.018,2.279l0.13,46.87h29.352l29.322-42.87l-2.828-14.463 L715.833,272.22z"/>
		<path class="utc-bar" data-name="Bangladesh Standard" data-utc="+06:00" d="M684.473,328.797v16.993h11.21v195.238l40.54-0.014V349.931l-14.725-19.146l0.329-21.263 h6.654l-0.007,18.959l12.07-11.713l-4.489-15.82l-5.082,3.062l-3.15-0.538l1.099-4.595l-1.503-4.531l-5.246-7.91l1.687-1.685 l-1.05-5.357h-2.665l3.386-3.385l-7.49-1.126l-0.207-2.664l-4.866-0.756l2.828,14.463l-29.309,42.854 M689.653,82.567l23.89-22.402 V35.757h23.093V8.963h-40.568v25.372h-20.854V82.81L689.653,82.567z M700.486,147.098h-2.657l-1.996,1.996l-14.561-1.847 l-1.179,5.614l-2.069,2.069l-4.434,4.433h-8.135v-2.217h-1.916l-0.439,5.175l2.881,2.882l-2.741,6.132h-3.986l-18.477,4.582h-3.251 l-1.624,8.865l4.879,3.401l1.325,3.401l-0.588,3.253l4.434,4.433l-3.406,3.401l-3.992-2.954l-8.05,8.056l9.092,7.459h8.28 l3.248,3.251v1.625l2.812,2.811h2.07l1.699,1.701l6.87-4.947l4.951,4.947l-8.943,2.736v1.625l11.227,0.737l17.844-9.44 l-0.265-9.973l6.301-1.576l1.308-6.299h7.354l11.021-11.023l-13.648-22.833l9.966-2.364l2.094-4.988l-2.881-2.887l1.046-3.407 l-2.357-2.364h-7.611L700.486,147.098z"/>
		<path class="utc-bar" data-name="Western Indonesian" data-utc="+07:00" d="M777.861,35.868V8.974 M736.636,8.974v26.783l41.212,0.111V8.974H736.636z M736.223,541.015 V349.931l-14.725-19.146l7.039,0.067l-0.062-2.371l12.07-11.713l1.671-0.98l-0.828-5.965l-2.34-3.626l1.428-3.773l-3.402-5.588 l0.685-4.835l7.843-5.752l2.7,0.895l2.245-4.496l7.302-1.234l4.275,0.451v2.58l3.707,1.657v13.742l11.57,6.295v25.554h-27.523 l-1.468,1.468h-1.283l-2.756-2.748l-6.007,2.076l13.424,13.428h5.172V335.24h12.591v8.885l2.354,2.354l10.222-0.786l4.601,6.965 l-4.045,5.616l-1.351,7.644l6.965,3.819l-1.569,1.573l-3.479,0.783l0.763,3.321l-6.673,0.28v165.32H736.223z"/>
		<path class="utc-bar" data-name="China Standard" data-utc="+08:00" d="M800.285,182.739l-8.24,10.217l-8.539-2.439l-0.015,0.003l-12.665,4.116l-5.332-1.987v-6.1 l0.011-0.005l16.477-5.793l-0.913-3.051l8.542-3.051l-0.014-2.139l-3.205-1.675v-6.101h4.269v-2.289l0.301-3.51h4.73l-0.92-5.029 h-2.881l-6.56-3.967l-8.238,5.801l-6.259,1.217l-2.137-2.139l2.745-7.322l-1.679-10.068l-3.206-2.289l-0.56-2.62l-7.603-2.472 l3.272-3.279l-2.437-7.168l2.44-1.371l-0.763-10.98l16.704-9.382l-1.451-1.448l0.158-3.051l-4.417-7.168l3.112-3.107l-1.476-1.468 l9.645-4.575V59.966l14.817-0.01l20.59-14.034V8.96l-40.73,0.014v26.895l-64.318-0.111v24.408l-23.89,22.402l-4.831-0.051v8.551 l4.003,4.002l-1.856,1.859l3.175,1.551v3.543l-3.175,3.181l1.996,2.586l6.648,0.737l0.74,4.139l-2.144,2.145l6.871,13.667 l3.839,1.183v3.842l-1.845,1.851l1.251,2.586l-2.808,4.726l3.102,1.92l-4.134,2.515l1.494,5.466h7.611l2.357,2.364l-1.046,3.407 l2.881,2.887l-2.094,4.988l-9.966,2.364l13.648,22.833l-11.021,11.023h-7.354l-1.308,6.299l-6.301,1.576l0.265,9.973l-17.844,9.44 l3.403,6.355l2.825,2.835l3.992,3.994l4.729,3.889l-1.315,6.037l8.009,7.482l12.168,5.942h6.398l1.351,1.343l3.14-1.905l4.72,1.569 l7.532-4.606l1.569,0.673l2.697-1.35l2.353,3.934l2.584-0.451l1.91,1.91l0.104,5.846l-3.141,3.479c0,0,2.473,1.127,2.812,1.463 c0.335,0.336,1.797,5.171,1.797,5.171l4.153,2.921l2.7,0.895l2.245-4.496l7.302-1.234l4.275,0.451v2.58l3.707,1.657v13.742 l11.57,6.295v25.554h-27.523l-1.468,1.468h-1.283l-2.756-2.748l-6.007,2.076l13.424,13.428h5.172V335.24h12.591v8.885l2.354,2.354 l10.222-0.786l4.601,6.965l-4.045,5.616l-1.351,7.644l6.965,3.819l-1.569,1.573l-3.479,0.783l0.763,3.321l-6.673,0.28v165.32 h41.038l0.014-94.645l-5.399,0.824l-0.356-1.66l10.067-1.528v-63.599l-10.067-3.965l-1.293-1.293l1.146-1.154l-2.896-19.361 l9.154-11.896v-60.717h-13.734v-12.508h4.56v-41.219l17.721-10.627l1.046-7.014l4.886-0.764l5.027-11.744l-10.521,0.762 l-8.542-6.713l-6.406-12.506l-11.592-1.527L800.285,182.739z"/>
		<path class="utc-bar" data-name="Eastern Indonesian" data-utc="+09:00" d="M783.205,59.956h14.797l20.59-14.034V8.96l40.632,0.003v37.095L830.368,65.68V97.19 l3.081,9.27l-16.543,4.998v11.158l13.85,3.079v10.001l6.731,6.73l-7.311,7.312v27.51h8.269l-1.15,4.232l-7.695,4.23l-3.654,11.789 l-6.759-5.307l-6.406-12.506l-11.592-1.527l-0.917,4.578l-8.24,10.217l-8.54-2.437l-12.665,4.116l-5.332-1.987v-6.1l16.474-5.794 l-0.913-3.051l8.542-3.051v-2.143l-3.205-1.675v-6.101h4.269v-2.289l0.301-3.51h4.73l-0.92-5.029h-2.895l-6.56-3.967l-8.239,5.801 l-6.259,1.217l-2.136-2.139l2.752-7.322l-1.686-10.064l-3.207-2.289l-0.545-2.624l-7.592-2.472l3.276-3.279l-2.44-7.168l2.44-1.371 l-0.763-10.98l16.704-9.382l-1.448-1.448l0.154-3.051l-4.412-7.168l3.104-3.107l-1.465-1.468l9.641-4.575V59.966 M827.291,217.663 v1.443l16.974,0.326l11.008-13.088l13.388,2.676l1.344,9.373l-10.416,8.926v35.852h34.805v20.077h-48.345v11.455h-4.469v38.975 h17.706v15.913l-3.713,6.83l-0.633,23.365h-7.85l-24.376,0.628l-10.074-3.968l-1.286-1.29l1.146-1.147l-2.896-19.368l9.147-11.899 v-60.71h-13.728v-12.511h4.563v-41.227L827.291,217.663z M818.375,541.015l0.014-72.588h41.156v72.588H818.375z"/>
		<path class="utc-bar" data-name="Australian Central Standard" data-utc="+09:30" d="M859.545,468.427h-41.156l0.021-22.05l-5.41,0.817l-0.36-1.653l10.074-1.528 l-0.014-63.605l24.39-0.621v46.26h8.476v15.769h1.49v1.929h-1.49v21.354l1.091,1.356l2.893,0.777L859.545,468.427z"/>
		<path class="utc-bar" data-name="Australian Eastern" data-utc="+10:00" d="M859.588,227.319v35.852h34.805v20.077h-48.345v11.455h-4.469v38.975h17.706v15.913 l-3.713,6.83l-0.633,23.365h-7.85v46.26h8.476v15.769h1.49v1.929h-1.49v21.354l1.091,1.356l2.893,0.777l-0.004,73.783l41.013,0.004 V377.628l-6.766-6.773l6.836-4.168v-2.676h6.103v-4.317h-6.39v-9.818h-9.821v-29.449h9.821V194.138h-2.829L859.588,227.319z  M868.664,209.024l3.42-55.114v-2.009l-4.755-2.08l3.122-3.127l-1.636-4.168h-6.103l-10.413-3.271l1.566-16.884l-4.245-4.24v-1.787 l5.798-0.889l4.014-7.886l-5.042-5.038l12.019-12.021l-0.141-3.465h17.555V71.13h-12.2V58.788h28.567V8.96l-40.967,0.003v37.095 L830.368,65.68V97.19l3.081,9.27l-16.543,4.998v11.158l13.85,3.079v10.001l6.731,6.73l-7.311,7.312v27.51h8.269l-1.15,4.232 l-7.695,4.23l-3.654,11.789l1.783,1.406l10.521-0.762l-5.027,11.744l-4.886,0.764l-1.046,7.01v1.443l16.974,0.326l11.008-13.088 l13.388,2.676"/>
		<path class="utc-bar" data-name="New Caledonia" data-utc="+11:00" d="M900.558,541.019V377.628l-6.766-6.773l6.836-4.168v-2.676h6.103v-4.317h-6.39v-9.818 h-9.821v-29.449h9.821V194.138h-2.829l-27.515,24.245l-1.333-9.358l3.42-55.114v-2.009l-4.755-2.08l3.122-3.127l-1.636-4.168 h-6.103l-10.413-3.271l1.566-16.884l-4.245-4.24v-1.787l5.798-0.889l4.014-7.886l-5.042-5.038l12.019-12.021l-0.141-3.465h17.555 V71.13h-12.2V58.788h28.567V8.96l41.202,0.003v84.483h-33.625l0.096,11.681l6.006,0.662v6.848l-11.007,0.892l-1.64,3.277 l3.419,8.624l11.605,5.206l-2.434,12.451v3.021l-6.641,5.06h-6.846v9.611l-0.874,0.659l-4.103,10.038l2.084,16.902l2.857-3.178 v5.979h40.799v99.657h-34.064v36.297h11.008v11.454h-10.857v15.315h33.918v85.684l-20.376,32.274v47.751h20.681v21.41 L900.558,541.019z"/>
		<path class="utc-bar" data-name="New Zealand Standard" data-utc="+12:00" d="M960.648,541.019v-29.786l21.354-21.356v-96.163l-9.32-24.603v-16.579l-10.945,0.189 V198.733l-27.522-18.549l57.108-53.477v-12.689L961.61,76.673V8.963h-20.218v84.483h-33.625l0.096,11.681l6.006,0.662v6.848 l-11.007,0.892l-1.64,3.277l3.419,8.624l11.605,5.206l-2.434,12.451v3.021l-6.641,5.06h-6.846v9.611l-0.874,0.659l-4.103,10.038 l2.084,16.902l2.857-3.178v5.979h40.799v99.657h-34.064v36.297h11.008v11.454h-10.857v15.315h33.918v85.684l-20.376,32.274v47.751 h20.681v21.41L960.648,541.019z"/>
	</g>
</svg>