
<svg class="worldmap-timezones" viewBox="0 0 540 300" data-click="select-time-zone">

	<filter id="UTCDS" height="130%">
		<feGaussianBlur in="SourceAlpha" stdDeviation="1.25"/> 
		<feOffset dx="0" dy="1" result="offsetblur"/>
		<feComponentTransfer>
			<feFuncA type="linear" slope="0.35"/>
		</feComponentTransfer>
		<feMerge> 
			<feMergeNode/>
			<feMergeNode in="SourceGraphic"/> 
		</feMerge>
	</filter>

	<g transform="translate(0,1)">
		<polygon class="utc-bar" data-name="Samoa Standard" data-utc="-10:00" points="40.1,85 19.5,96.9 19.5,143.2 0,143.2 0,164.8 19.5,164.8 19.5,201.7 2,201.7 2,214 16.8,221.5 19.5,221.5  19.5,296.3 40.1,296.3 40.2,229.7 48.1,229.7 52.8,225 48.3,212 40.1,212 "/>
		<path class="utc-bar" data-name="Hawaii–Aleutian Standard" data-utc="-09:00" d="M40.2,296.3v-66.6h8l4.7-4.7l-4.6-13l-8.1,0V85L0,108.1V66.3h3.1V61l0.7-2.4l7.1-5.8l6.6-1.1h0l22.6-0.1V3.7h23v47.7 l-20.5,5.5v25.7l1.2,0.3l3,2l6.1,6l5,3.2l-6.1,0.9l11.4,12.4l0,188.9L40.2,296.3z"/>
		<path class="utc-bar" data-name="Alaska Standard" data-utc="-08:00" d="M84.8,296.3V176.5h6.1v-3.3h-6v-21h-6.9v-8.1h2.5l1.2,1.2h2.3l-2.8-7l0.2-7.5h1.2v-10h-4l-0.4-1.8h-1.9v-2.7l2.7-2.7h3.2 v-2.8l-2.2-2.2V106L69.7,92.5v-4.3h3.9v-6.5h-6l-1.4-1.4h-2.9l-0.1-1.9L52.3,64.7h-3v-7.5l14-4.4l5.8-16.5l6.4-4.2l9.3-3.3V3.7 l-21.6,0v47.7l-20.5,5.6v25.6l1.2,0.3l3,2l6.1,6l5,3.2l-6.1,0.9l11.4,12.4l0,188.9L84.8,296.3L84.8,296.3z"/>
		<path class="utc-bar" data-name="Pacific Standard" data-utc="-07:00" d="M84.8,296.3V176.5h6.1v-3.3h-6v-21h-6.9v-8.1h2.5l1.2,1.2h2.3l-2.8-7l0.2-7.5h1.2v-10h-4l-0.4-1.8h-1.9v-2.7l2.7-2.7h3.2 v-2.8l-2.2-2.2V106L69.7,92.5v-4.3h3.9v-6.5h-6l-1.4-1.4h-2.9l-0.1-1.9L52.3,64.7h-3v-7.5l14-4.4l5.8-16.5l6.4-4.2l9.3-3.3V3.7h22.5 v16.5h-6.9v61.8H88.7v24.3h8.8v2.5l4.3,0.6l1,3v6L99,129.8v8.7h-2.5v3.7l2.5,1.3l-1.3,1.3l0.3,2.7h-3.6l-2.3,3.8l3.2,3.9l-0.1,3.4 l2.8,2.6l9.4,4.3v66.2H87.2v6.7h20.1v57.8L84.8,296.3z"/>
		<path class="utc-bar" data-name="Mountain Standard" data-utc="-06:00" d="M129.9,296.3l0-139.1h-5.2v-4.2h5.3v-7.4l-0.4-1.8l-1.6-2.4l-0.7-0.1l-1.3,1.1l-1.1-9.6l1.3-1.3v-1.7l-3.6-3.6V122l1.4-1.4 h-0.6l0.8-7l-2.5-2h-1.8l-1.1-1.1l-0.2-3.6h-2.5v-1.2h2.3v-7.6l1.6-1.6l-1.4-1.4V91l1.5-1.5V76l4.9-8.7l0.8-0.8V14.8l4,1V3.7h-22.5 v16.5h-6.9v61.8H88.7v24.3h8.8v2.5l4.3,0.6l1,3v6L99,129.8v8.7h-2.5v3.7l2.5,1.3l-1.3,1.3l0.3,2.7h-3.6l-2.3,3.8l3.2,3.9l-0.1,3.4 l2.8,2.6l9.4,4.3v66.2H87.2v6.7h20.1v57.8L129.9,296.3z M444.9,256.4h22.6"/>
		<path class="utc-bar" data-name="Central Standard" data-utc="-05:00" d="M129.9,296.3l0-139.1h-5.2v-4.2h5.3v-7.4l-0.4-1.8l-1.6-2.4l-0.7-0.1l-1.3,1.1l-1.1-9.6l1.3-1.3v-1.7l-3.6-3.6V122l1.4-1.4 h-0.6l0.8-7l-2.5-2h-1.8l-1.1-1.1l-0.2-3.6h-2.5v-1.2h2.3v-7.6l1.6-1.6l-1.4-1.4V91l1.5-1.5V76l4.9-8.7l0.8-0.8V14.8l4,1V3.7h22.6 v7.6l10.1,2.4v2.1l-20,13.2v6.8l9.9,3.9l0.2,14.4l-0.9,0.9l0,21.8l1.3,1.3l-0.4,3.9l4-1.3l0.6,2.6v1.3l0.7,0.7l-0.4,1.1l1,1l-0.9,3 l1.1,1.1v2.1l-0.5,0.5h-2.7l-1.5-1.5l-1.6,1.6l0.7,2.4l1.2,2.9l2.2,0.5l0.4,0.4l1.1-1.1l0.7,0.7h2.3l0.6,1.8v4.2l-5.8,2.4h-3.8l-1,1 l1.3,0.7v2.9l1.3,1.3l-1.1,1.1v43.4h-6.2v2.4l1,9.1l0.4,1.5l-1.8,0.7l-2,3.7l1.5,3.4h2.9l1.3,1.5h2.9l-0.7,2.5l1.1,4.1l-4,0.7v3.2 l1,1l-1.5,5.3l5,8.8l-2,2l-2-0.3l1.2,2.6l-0.4,6.3l-2.5,3.3l0.6,4.4l-0.8,6.4h-16v17.5h7.5v35.7l10.7,6.3h2.6l0,5.2L129.9,296.3z"/>
		<path class="utc-bar" data-name="Venezuelan Standard" data-utc="-04:30" d="M153.1,189.1l2.3,0.8l2.5-2.5l-1.1-3l3.4,1.1l2.6-2.6l-1.5-1.5l1.5-1.5V179l0.9-0.9l-1.6-1.1l0.3-0.9l-1.6-0.5l-1.5-1.7 l-3.1,1.2l-4.5-0.3l-2.6-2.5l-2.5,1.6l-0.6-0.2l-0.2-1l-2,3.7l1.5,3.4h2.9l1.3,1.5h2.9l-0.7,2.5l1.1,4.1L153.1,189.1z"/>
		<path class="utc-bar" data-name="Eastern Standard" data-utc="-04:00" d="M145.9,172.7l1.8-0.7l-0.4-1.5l-1-9.1v-2.4h6.2v-43.4l1.1-1.1l-1.3-1.3v-2.9l-1.3-0.7l1-1h3.8l5.8-2.4v-4.2l-0.6-1.8h-2.3 l-0.7-0.7l-1.1,1.1l-0.4-0.4l-2.2-0.5l-1.2-2.9l-0.7-2.4l1.6-1.6l1.5,1.5h2.7l0.5-0.5v-2.1l-1.1-1.1l0.9-3l-1-1l0.4-1.1l-0.7-0.7 v-1.3l-0.6-2.6l-4,1.3l0.4-3.9l-1.3-1.3l0-21.8l0.9-0.9l-0.2-14.4l-9.9-3.9V29l20-13.2v-2.1l-10.1-2.4V3.7h22.3v10.1l-12.3,2.7 l-11,7.5v3.5l5.7,9.6l16.5,31.6l1.1,0.9v113.6l-2.5-1.3H168l-1.4,2.7l2.2,3.5l2.8-0.8v1.1l4.1,4.8v3.4l-1.5,2.9l1.2,2.5l-1,1.6 l1.1,2l-0.9,0.9l3.5,0.5l-0.4,5l-4.1,7l0.9,2.3l2.6,1.4v1.2l-4.1,4l-1.6,6.6l-1.8,1.8l-4-0.9l1.5-3.1l-7.8-5.5L157,228l-2.7-1.5 l-1.5,1.5l-0.2,2.2l-1.9,1.1v3.8l-1.7,5.7l-1.2,2.1l1.3,3.8l-1.8,6l-1.4,8.2l0.5,8.4l-1.8,6.6l-1.5,1.5l1.1,2.5h0.7l0.4,1.8l2,0.7 l1.8,1.5l1.6,4.6l3,0.6h5.9v-4h-3.9v-14.8h19v26.1l-22.2,0l0-5.2H150l-10.7-6.3v-35.7h-7.5v-17.5h16l0.8-6.4l-0.6-4.4l2.5-3.3 l0.4-6.3l-1.2-2.6l2,0.3l2-2l-5-8.8l1.5-5.3l-1-1v-3.2l4-0.7l-0.1,1.2l2.3,0.8l2.5-2.5l-1.1-3l3.4,1.1l2.6-2.6l-1.5-1.5l1.5-1.5V179 l0.9-0.9l-1.6-1.1l0.3-0.9l-1.6-0.5l-1.5-1.7l-3.1,1.2l-4.5-0.3l-2.6-2.5l-2.5,1.6l-0.6-0.2L145.9,172.7L145.9,172.7z"/>
		<path class="utc-bar" data-name="Atlantic Standard" data-utc="-03:00" d="M197.3,296.3v-7.4l-8.1,0l0-4.8h8.1v-74l4.4-5.8l-1.4-5.4l-2,0.1l-0.9-0.6l0-131.2l4.5-1.6l3.8-4.1l-0.4-2.1l1.5,1.5 l6.8-0.8l6.7-4.3l-5.1-0.9l-5.7,1.4l0.2-2.7l0.3-3.1l1.8-5.1l3.2-2.7l5.1,0.6l5.6-0.9l-2.6-1.7l0.8-0.3l2.2-0.6l-1-0.4l-0.9,0.2 l1.2-0.7l-0.3-1.4l-5.1,0.8l-0.9-3.5l1-1.8l1.9-2.5l0.7-2.5l3.3-2.5l1.9-2l3.2-2.4l5.6-3.2l-4.7-1.1l-3.4,0.3l-1.9,1.7l-2.7-1 l-5,2.9l2.4-2.4l-0.6-2l-0.7,0l0-2.1l2-0.5l-8.6-1.1l1.9-2.2l-10.6-0.2l-7.2,0.6v-7h-22.6v10.1l-12.3,2.7l-11,7.5v3.5l5.7,9.6 l16.5,31.6l1.1,0.9v113.6l-2.5-1.3H168l-1.4,2.7l2.2,3.5l2.8-0.8v1.1l4.1,4.8v3.4l-1.5,2.9l1.2,2.5l-1,1.6l1.1,2l-0.9,0.9l3.5,0.5 l-0.4,5l-4.1,7l0.9,2.3l2.6,1.4v1.2l-4.1,4l-1.6,6.6l-1.8,1.8l-4-0.9l1.5-3.1l-7.8-5.5L157,228l-2.7-1.5l-1.5,1.5l-0.2,2.2l-1.9,1.1 v3.8l-1.7,5.7l-1.2,2.1l1.3,3.8l-1.8,6l-1.4,8.2l0.5,8.4l-1.8,6.6l-1.5,1.5l1.1,2.5h0.7l0.4,1.8l2,0.7l1.8,1.5l1.6,4.6l3,0.6h5.9v-4 h-3.9v-14.8h19v26.1L197.3,296.3z"/>
		<path class="utc-bar" data-name="South Georgia" data-utc="-02:00" d="M219.9,13.3l-6.6-0.9l1.9-2.2l-10.6-0.2l-7.2,0.6v-7h22.5L219.9,13.3z M197.3,296.3v-7.4l-8.1,0l0-4.8h8.1v-74l4.4-5.8 l-1.4-5.4l-2,0.1l-0.9-0.6l0-131.2l4.5-1.6l3.8-4.1l-0.4-2.2l1.5,1.6l6.8-0.8l6-3.9v7.9h-3.6v10.6h3.9V122h-14.5v9.2h14.3v29.2H213 v8.3h7.1v127.7L197.3,296.3z"/>
		<path class="utc-bar" data-name="Cape Verde" data-utc="-01:00" d="M222.1,30.2l2.2-2.7l3-1.4h15.1V3.7h-22.5l0,9.7l2,0.2l-2,0.5l0,2.1l0.7,0l0.6,2l-2.4,2.4l5-2.9l2.7,1l1.9-1.7l3.4-0.3 l4.7,1.1l-5.6,3.2l-3.2,2.4l-1.9,2l-3.3,2.5L222.1,30.2L222.1,30.2z M219.7,64.1l22.7,0l-0.1-25.5l-17,0l0,0.2l-1.2,0.7l0.9-0.2 l1,0.4l-2.2,0.6l-0.8,0.3l2.6,1.7l-5.6,0.9l-5.1-0.6l-3.2,2.7l-1.8,5.1l-0.3,3.1l-0.2,2.7l5.7-1.4l5.1,0.9l-0.7,0.4L219.7,64.1 L219.7,64.1L219.7,64.1L219.7,64.1z M242.5,296.3v-32.2h-11.3v-14.8h11.2v-44h-12v-3.3h11.7v-17.6l-6-3.5l-1.7-3.6l-5.5-9.6 l1.1-10.2l-0.8-1.6l4.7-8.7h-7.8l-0.4-10.8l6.5-6.5V96.1l7.3-3.5h2.9V74.7h-22.3l0,0l0,0V122h-14.5v9.2h14.3v29.2H213v8.3h7.1v127.7 L242.5,296.3z"/>
		<path class="utc-bar" data-name="Greenwich Mean" data-utc="gmt"  d="M242.4,74.7v17.9h-2.9l-7.3,3.5v33.7l-6.5,6.5l0.4,10.8h7.8l-4.7,8.7l0.8,1.6l-1.1,10.2l5.5,9.6l1.7,3.6l6,3.5v17.6h-11.7 v3.3h12v44h-11.2v14.8h11.3v32.2h22.4v-102h-3.8v-1.5h4.7V187h-0.8v-2.8l-2.4-0.1l-2.9-3.1l-3.6,0.7l-0.4-6.7l-1-0.5v-0.7l1-1 l1.4-0.4v-1.1l-3-4.3l1.1,0l0.6-0.6l2.9-0.4l1.2-1.2v-4.6l-19.1-13.8v-2.5l9.7-5.5l1.2-0.8l-0.1-0.9l-0.7-3.3l-0.6-1l-5-1.1 l-0.5-0.5l-1.8-1.9l1-8.4h-4.1l0.1-2.8l2.8-0.9l8.4,0.5l1.1-4.1l-2.4-3.8l-3.4-2.6l4.8-0.3l-0.6-1.8l1.3,0.3l2-0.6l1.7-1.1l1.5-1.9 l5.3-4.9l2.5-0.3V86.1l-1.8-0.1l-1.4-3.4l0.5-4.4l2.5-2.1l0-72.3h-22.4v22.4h-15.1l-3,1.4l-1.2,1.6l-2.9,3.8l-1,1.8l0.9,3.5l5.1-0.8 l0.2,1.2l17,0l0.1,25.5l-26.3,0v10.6L242.4,74.7z"/>
		<path class="utc-bar" data-name="Central European" data-utc="+01:00" d="M264.9,3.7l22.5,0v16.2h17.5v7l-12.3,12.3h-5.2v10.9l13.7,3.2l-1.2,3.5l-2.6,1.2l-2.1-2.1h-2.1l-1.3,3.1l-4.2,0.7l-1.8-1.8 l-1.4,1.4l1.6,1.6l2.6,0.6l0.6,5.7l-4.5,7.9l-2.3,19.4h6l0.6,8.3l-2.4,4.3l1.1,1.1l-3.4,4.1l2.2,2.2l1,1v6.2h-2.5l-1.8,2.8H282v8.9 l-10.8,2.7l-3,5.5l0.7,8.9l6.2,3.9l2.9-1.6l11.6,6.7v6.2l-1.1,1.1l-1.6,3.6l7.6,12.2l-6.2,0.9v1.4l-0.9,3.6l2.9,5.7h-3.9l-3.3,7.2 l3.3,1.4l0.6,5.9h2.7v3h-2.9v6.4l4.3,1.3l-1.8,1.8l-1.3-1.3h-2.6v6.8h-1.7v10.7l-3.6,0.7l-1-1l-0.3,0.3l0.9,1.1l-0.1,3.7l0.8,4.1 l2.3,3.2l4-1.7l0.6-0.6v49.1l-22.4,0v-102h-3.8v-1.5h4.7V187h-0.8v-2.8l-2.4-0.1l-2.9-3.1l-3.6,0.7l-0.4-5.4v-1.3l-1-0.5v-0.7l1-1 l1.4-0.4v-1.1l-3-4.3l1.1,0l0.6-0.6l2.9-0.4l1.2-1.2v-4.6l-19.1-13.8v-2.5l9.7-5.5l1.2-0.8l-0.1-0.9l-0.7-3.3l-0.6-1l-5-1.1 l-0.5-0.5l-1.8-1.9l1-8.4h-4.1l0.1-2.8l2.8-0.9l8.4,0.5l1.1-4.1l-2.4-3.8l-3.4-2.6l4.8-0.3l-0.6-1.8l1.3,0.3l2-0.6l1.7-1.1l1.5-1.9 l5.3-4.9l2.5-0.3V86.1l-1.8-0.1l-1.4-3.4l0.5-4.4l2.5-2.1L264.9,3.7z"/>
		<path class="utc-bar" data-name="Eastern European" data-utc="+02:00" d="M310,296.3v-76.8l4.5-3l0.1-7.1l-0.7-1.4l-5,1.9l-3.3-0.5l-0.6-2.6l-5.1-2.5c0,0-2.1-2-2.1-3.2c0-1.1,0.1-3.1,0.1-3.1 l2.1-2.1l-0.7-3.2H298l0.9-3.5l1.6-1.6v-2l-2.5-2l-3.5-1l-6.2,0.9v1.4l-0.9,3.6l2.9,5.7h-3.9l-3.3,7.2l3.3,1.4l0.6,5.9h2.7v3h-2.9 v6.4l4.3,1.3l-1.8,1.8l-1.3-1.3h-2.6v6.8h-1.7v10.7l-3.6,0.7l-1-1l-0.3,0.3l0.9,1.1l-0.1,3.7l0.8,4.1l2.3,3.2l4-1.7l0.6-0.6v49.1 L310,296.3L310,296.3z M287.4,3.7v16.2h17.5v7l-12.3,12.3h-5.2v10.9l13.7,3.2l0,0l8.7-13.7V3.7L287.4,3.7z M289.6,159.6v-1.1h1.7v-3 h12.1l0.8,0.8l3.5-3l-1.9-8.4l0.1-2.3h2.9l1.8-1.8l-1.6-1.6l3.8-1.4l-0.7-2.1l3.5-1.8v-3.2l2.7-2l2.3,0.1v-4.5l-4.4-4l-2.8-3.8 l-4.7-2.4l2.4-3.9l1.9-1.9l0.7-3.4l-7.2-1.9v-1l-1.8-0.7l-0.6-1.9H301v-1.9l1.8-0.6l-2.6-2.7l-0.6-3.3h-3.6l-1-7.4l1-3.3l4.7-5.6 l-1.9-1.9l-1.6-8.6l1.4-1.3l-2-2l0.8-3l-2.1-2.1h-2.1l-1.3,3.1l-4.2,0.7l-1.8-1.8l-1.4,1.4l1.6,1.6l2.6,0.6l0.6,5.7l-4.5,7.9 l-2.3,19.4h6l0.6,8.3l-2.4,4.3l1.1,1.1l-3.4,4.1l2.2,2.2l1,1v6.2h-2.5l-1.8,2.8H282v8.9l-10.8,2.7l-3,5.5l0.7,8.9l6.2,3.9l2.9-1.6 L289.6,159.6L289.6,159.6z"/>
		<path class="utc-bar" data-name="East Africa" data-utc="+03:00" d="M332.4,204.1h-11.1v4.6h1.7v1.9h3.4V209h6.1v58.9h-5.3v4.1h5.2v24.4l-22.2,0v-76.8l4.5-3l0.1-7.1l-0.7-1.4l-5,1.9l-3.3-0.5 l-0.6-2.6l-5.1-2.5c0,0-2.1-2-2.1-3.2c0-1.1,0.1-3.1,0.1-3.1l2.1-2.1l-0.7-3.2H298l0.9-3.5l1.6-1.6v-2l-2.5-2l-3.5-1l-7.6-12.2 l1.6-3.6l1.1-1.1l0-7.3h1.7v-3h12.1l0.8,0.8l3.5-3l-1.9-8.4l0.1-2.3h2.9l1.8-1.8l-1.6-1.6l3.8-1.4l-0.7-2.1l3.5-1.8v-3.2l2.7-2 l2.2,0.1l2.1,2.7l-1,3.1l3.6,3.5l-0.4,1.9l1.6,1.6l-0.8,1.5l3.2,5.1l2.1,0.3l0.2,3.6l0.9,2h4.3l0.8,1.8l-0.9,2.8l-4.6,2l1.8,3.9 l-1,1v3.1h3.7v5.1h-3.8L332.4,204.1L332.4,204.1z M332.5,3.7l0.1,35.8l-22.7,0V3.7H332.5z"/>
		<path class="utc-bar" data-name="Iran Standard" data-utc="+03:30" d="M345.5,132.1v-2.3l-6.3-2.9l-4.8,3.2l-6.8-2.2l-1.6-3.2H325l-2.1,1.3l-2.2-1.7l0,4.5l2.1,2.7l-1,3.1l3.6,3.5l-0.4,1.9 l1.6,1.6l2.5,0.2l6.2,5.9l3.2-1.1l2.2,2.6l5.4,0.2l1.6-1.6h1v-1.3l-0.9-1.8l-2.6-2.6l1.5-2.5h-1.4l-0.9-4.2L345.5,132.1z"/>
		<path class="utc-bar" data-name="Moscow Standard" data-utc="+04:00" d="M355.1,3.7v10.9h3.6v29l-7.5,9.6l0.3,5.1l1.7,0.9l-10.7,16.2l-7.9,5.2l-1.3,4.7l-3.2-0.7l-0.6,5.5l2.2,1l-0.8,3.1h-2.1l-3,3 l3.6,2.4l-1,3.7l-3.5-0.9l2.9,11.3l6.4,16.4l-6.8-2.2l-1.6-3.2H325l-2.1,1.3l-2.2-1.7l-4.4-4l-2.8-3.8l-4.7-2.4l2.4-3.9l1.9-1.9 l0.7-3.4l-7.2-1.9v-1l-1.8-0.7l-0.6-1.9H301v-1.9l1.8-0.6l-2.6-2.7l-0.6-3.3h-3.6l-1-7.4l1-3.3l4.7-5.6l-1.9-1.9l-1.6-8.6l1.4-1.3 l-2-2l0.8-3l2.6-1.2l1.2-3.5l8.7-13.7l22.7,0l-0.1-35.8L355.1,3.7L355.1,3.7z M326.6,141.6l2.5,0.2l6.2,5.9l3.2-1.1l2.2,2.6l5.4,0.2 l0,31.7h9.1v115.2h-22.9v-24.4h-5.2v-4.1h5.3V209h-6.1v1.6h-3.4v-1.9h-1.7v-4.6h11.1v-30.4h3.8v-5.1h-3.7v-3.1l1-1l-1.8-3.9l4.6-2 l0.9-2.8l-0.8-1.8h-4.3l-0.9-2l-0.2-3.6l-2.1-0.3l-3.2-5.1L326.6,141.6"/>
		<path class="utc-bar" data-name="Afghanistan" data-utc="+04:30" d="M344.3,135.4l0.9,4.2h1.4l-1.5,2.5h8l0.9-2.5l3.8-1.7l1.1-1.8v-1.4l1.3-0.6l0.7-6.4l-0.7-0.7l-2.9,2.2l-4.7-0.4l-5.1,3.8 l-2.1-0.5L344.3,135.4z"/>
		<path class="utc-bar" data-name="Uzbekistan Standard" data-utc="+05:00" d="M377.4,296.3V188.9h-6.2v-9.3h-16.1l-0.1-25.8l1.1-1.3l4.4-0.9L358,147l1.4-1.3l2.2,0.1l5.4-7.8l-2-1.3l0.4-3.1l2,0.3 l2.5-1.6l-2.2-2.2l-1.6-1.6l-1.9-3.5l-6.2-0.4v-0.9l4.9-1.5l-2.7-2.7l-3.8,2.7l-0.9-0.9h-1.1l-1.5-1.5v-0.9l-1.8-1.8h-4.6l-5-4.1 l4.4-4.4l2.2,1.6l1.9-1.9l-2.4-2.4l0.3-1.8l-0.7-1.9l-2.7-1.9l0.9-4.9h1.8l10.2-2.5h2.2l1.5-3.4l-1.6-1.6l0.2-2.8h1.1v1.2h4.5 l2.4-2.4l1.1-1.1l0.6-3.1l8,1l1.1-1.1h1.5l2.3-1.4l-1.7-1.1l1.5-2.6l-0.7-1.4l1-1v-2.1l-2.1-0.7l-3.8-7.5l1.2-1.2l-0.4-2.3l-3.7-0.4 l-1.1-1.4l1.7-1.7v-1.9l-1.7-0.9l1-1l-2.2-2.2v-4.7l-5.3,0.2V17.6h11.5v-14h-22.5v10.9h3.6v29l-7.5,9.6l0.3,5.1l1.7,0.9l-10.7,16.2 l-7.9,5.2l-1.3,4.7l-3.2-0.7l-0.6,5.5l2.2,1l-0.8,3.1h-2.1l-3,3l3.6,2.4l-1,3.7l-3.5-0.9l2.9,11.3l6.4,16.4l4.8-3.2l6.3,2.9v2.3 l2.1,0.5l5.1-3.8l4.7,0.4l2.9-2.2l0.7,0.7l-0.7,6.4l-1.3,0.6v1.4l-1.1,1.8l-3.8,1.7l-0.9,2.5h-8l2.6,2.6l0.9,1.8v1.3h-1l-1.6,1.6 v31.7h9.1v115.2L377.4,296.3z"/>
		<path class="utc-bar" data-name="Indian Standard" data-utc="+05:30" d="M391.6,180.7l0.2-11.7h0h3.7v11.7H391.6L391.6,180.7z M388.5,148.5l0.1,1.5l4.1,0.6l-1.9,1.9h1.5l-1.2,2.5l0.8,1.4l1.5,2.6 l1.4,1.6l0.8,2.6l-0.6,2.5l1.7,0.3l2.8-1.7l2.5,8.7l0.9-0.6l-0.5-3.3l-1.3-2l0.8-2.1l-1.9-3.1l0.4-2.7l4.3-3.2l-2.3-1.6 c0,0-0.8-2.7-1-2.8c-0.2-0.2-1.5-0.8-1.5-0.8l1.7-1.9l-0.1-3.2l-1.1-1.1l-1.4,0.2l-1.6-2.1l-1.2,0.7l-0.9-0.4l-4.1,2.5l0,0l-2.6-0.9 l-1.7,0.9l-0.7-0.5h-3.5l-6.7-3.4l-4.4-4.1l0.7-3.3l-2.6-2.1l-2.5,1.6l-2-0.3l-0.4,3.1l2,1.3l-5.4,7.8l-2.2-0.1L358,147l2.6,4.6 l-4.4,0.9l-1.1,1.3l0.1,25.8h16.1l16.1-23.6l-1.6-8L388.5,148.5z"/>
		<path class="utc-bar" data-name="Bangladesh Standard" data-utc="+06:00" d="M371.2,179.6v9.3h6.2v107.4l22.3,0V191.2l-8.1-10.5l0.2-11.7h3.7l0,10.4l6.6-6.4l-2.5-8.7l-2.8,1.7l-1.7-0.3l0.6-2.5 l-0.8-2.5l-2.9-4.4l0.9-0.9l-0.6-2.9h-1.5l1.9-1.9l-4.1-0.6l-0.1-1.5l-2.7-0.4l1.6,8L371.2,179.6 M374.1,44.2l13.1-12.3V18.4h12.7 V3.7h-22.3v14h-11.5v26.7L374.1,44.2z M380,79.7h-1.5l-1.1,1.1l-8-1l-0.6,3.1l-1.1,1.1l-2.4,2.4h-4.5v-1.2h-1.1l-0.2,2.8l1.6,1.6 l-1.5,3.4h-2.2l-10.2,2.5h-1.8l-0.9,4.9l2.7,1.9l0.7,1.9l-0.3,1.8l2.4,2.4l-1.9,1.9l-2.2-1.6l-4.4,4.4l5,4.1h4.6l1.8,1.8v0.9 l1.5,1.5h1.1l0.9,0.9l3.8-2.7l2.7,2.7l-4.9,1.5v0.9l6.2,0.4l9.8-5.2l-0.1-5.5l3.5-0.9l0.7-3.5h4l6.1-6.1l-7.5-12.6l5.5-1.3l1.2-2.7 l-1.6-1.6l0.6-1.9l-1.3-1.3h-4.2L380,79.7z"/>
		<path class="utc-bar" data-name="Western Indonesian" data-utc="+07:00" d="M422.6,18.5V3.7 M399.9,3.7v14.7l22.7,0.1V3.7H399.9z M399.7,296.3V191.2l-8.1-10.5l3.9,0l0-1.3l6.6-6.4l0.9-0.5l-0.5-3.3 l-1.3-2l0.8-2.1l-1.9-3.1l0.4-2.7l4.3-3.2l1.5,0.5l1.2-2.5l4-0.7l2.4,0.2v1.4l2,0.9v7.6l6.4,3.5v14.1h-15.1l-0.8,0.8h-0.7l-1.5-1.5 l-3.3,1.1l7.4,7.4h2.8v-5.9h6.9v4.9l1.3,1.3l5.6-0.4l2.5,3.8l-2.2,3.1l-0.7,4.2l3.8,2.1l-0.9,0.9l-1.9,0.4l0.4,1.8l-3.7,0.2v90.9 L399.7,296.3L399.7,296.3z"/>
		<path class="utc-bar" data-name="China Standard" data-utc="+08:00" d="M434.9,99.3l-4.5,5.6l-4.7-1.3l0,0l-7,2.3l-2.9-1.1v-3.4l0,0l9.1-3.2l-0.5-1.7l4.7-1.7l0-1.2l-1.8-0.9v-3.4h2.3v-1.3 l0.2-1.9h2.6l-0.5-2.8h-1.6l-3.6-2.2l-4.5,3.2l-3.4,0.7l-1.2-1.2l1.5-4l-0.9-5.5l-1.8-1.3l-0.3-1.4l-4.2-1.4l1.8-1.8l-1.3-3.9 l1.3-0.8l-0.4-6l9.2-5.2l-0.8-0.8l0.1-1.7l-2.4-3.9l1.7-1.7l-0.8-0.8l5.3-2.5v-9.4l8.1,0L445,24V3.7l-22.4,0v14.8l-35.4-0.1v13.4 l-13.1,12.3l-2.7,0v4.7l2.2,2.2l-1,1l1.7,0.9v1.9l-1.7,1.7l1.1,1.4l3.7,0.4l0.4,2.3l-1.2,1.2l3.8,7.5l2.1,0.7v2.1l-1,1l0.7,1.4 l-1.5,2.6l1.7,1.1l-2.3,1.4l0.8,3h4.2l1.3,1.3l-0.6,1.9l1.6,1.6l-1.2,2.7l-5.5,1.3l7.5,12.6l-6.1,6.1h-4l-0.7,3.5l-3.5,0.9l0.1,5.5 l-9.8,5.2l1.9,3.5l1.6,1.6l2.2,2.2l2.6,2.1l-0.7,3.3l4.4,4.1l6.7,3.3h3.5l0.7,0.7l1.7-1l2.6,0.9l4.1-2.5l0.9,0.4l1.5-0.7l1.3,2.2 l1.4-0.2l1.1,1.1l0.1,3.2l-1.7,1.9c0,0,1.4,0.6,1.5,0.8c0.2,0.2,1,2.8,1,2.8l2.3,1.6l1.5,0.5l1.2-2.5l4-0.7l2.4,0.2v1.4l2,0.9v7.6 l6.4,3.5v14.1h-15.1l-0.8,0.8h-0.7l-1.5-1.5l-3.3,1.1l7.4,7.4h2.8v-5.9h6.9v4.9l1.3,1.3l5.6-0.4l2.5,3.8l-2.2,3.1l-0.7,4.2l3.8,2.1 l-0.9,0.9l-1.9,0.4l0.4,1.8l-3.7,0.2v90.9h22.6l0-52.1l-3,0.5l-0.2-0.9l5.5-0.8v-35l-5.5-2.2l-0.7-0.7l0.6-0.6l-1.6-10.6l5-6.5 v-33.4h-7.6V147h2.5v-22.7l9.7-5.8l0.6-3.9l2.7-0.4l2.8-6.5l-5.8,0.4l-4.7-3.7l-3.5-6.9l-6.4-0.8L434.9,99.3z"/>
		<path class="utc-bar" data-name="Eastern Indonesian" data-utc="+09:00" d="M425.5,31.7h8.1L445,24V3.7l22.3,0v20.4l-15.9,10.8v17.3l1.7,5.1l-9.1,2.7v6.1l7.6,1.7v5.5l3.7,3.7l-4,4v15.1h4.5l-0.6,2.3 l-4.2,2.3l-2,6.5l-3.7-2.9l-3.5-6.9l-6.4-0.8l-0.5,2.5l-4.5,5.6l-4.7-1.3l-7,2.3l-2.9-1.1v-3.4l9.1-3.2l-0.5-1.7l4.7-1.7v-1.2 l-1.8-0.9v-3.4h2.3v-1.3l0.2-1.9h2.6l-0.5-2.8h-1.6l-3.6-2.2l-4.5,3.2l-3.4,0.7l-1.2-1.2l1.5-4l-0.9-5.5l-1.8-1.3l-0.3-1.4l-4.2-1.4 l1.8-1.8l-1.3-3.9l1.3-0.8l-0.4-6l9.2-5.2l-0.8-0.8l0.1-1.7l-2.4-3.9l1.7-1.7l-0.8-0.8l5.3-2.5L425.5,31.7 M449.8,118.5v0.8l9.3,0.2 l6.1-7.2l7.4,1.5l0.7,5.2l-5.7,4.9v19.7h19.1v11h-26.6v6.3h-2.5v21.4h9.7v8.8l-2,3.8l-0.3,12.9h-4.3l-13.4,0.3l-5.5-2.2l-0.7-0.7 l0.6-0.6l-1.6-10.7l5-6.5v-33.4h-7.6V147h2.5v-22.7L449.8,118.5z M444.9,296.3l0-39.9h22.6v39.9H444.9z"/>
		<path class="utc-bar" data-name="Australian Central Standard" data-utc="+09:30" d="M467.5,256.4h-22.6l0-12.1l-3,0.4l-0.2-0.9l5.5-0.8l0-35l13.4-0.3v25.4h4.7v8.7h0.8v1.1h-0.8v11.7l0.6,0.7l1.6,0.4 L467.5,256.4z"/>
		<path class="utc-bar" data-name="Australian Eastern" data-utc="+10:00" d="M467.5,123.8v19.7h19.1v11h-26.6v6.3h-2.5v21.4h9.7v8.8l-2,3.8l-0.3,12.9h-4.3v25.4h4.7v8.7h0.8v1.1h-0.8v11.7l0.6,0.7 l1.6,0.4l0,40.6l22.6,0v-89.9l-3.7-3.7l3.8-2.3V199h3.4v-2.4H490v-5.4h-5.4V175h5.4v-69.5h-1.6L467.5,123.8z M472.5,113.7l1.9-30.3 v-1.1l-2.6-1.1l1.7-1.7l-0.9-2.3h-3.4l-5.7-1.8l0.9-9.3l-2.3-2.3v-1l3.2-0.5l2.2-4.3l-2.8-2.8l6.6-6.6l-0.1-1.9h9.7v-8.8h-6.7v-6.8 h15.7V3.7l-22.5,0v20.4l-15.9,10.8v17.3l1.7,5.1l-9.1,2.7v6.1l7.6,1.7v5.5l3.7,3.7l-4,4v15.1h4.5l-0.6,2.3l-4.2,2.3l-2,6.5l1,0.8 l5.8-0.4l-2.8,6.5l-2.7,0.4l-0.6,3.9v0.8l9.3,0.2l6.1-7.2L472.5,113.7"/>
		<path class="utc-bar" data-name="New Caledonia" data-utc="+11:00" d="M490.1,296.3v-89.9l-3.7-3.7l3.8-2.3V199h3.4v-2.4H490v-5.4h-5.4V175h5.4v-69.5h-1.6l-15.1,13.3l-0.7-5.1l1.9-30.3v-1.1 l-2.6-1.1l1.7-1.7l-0.9-2.3h-3.4l-5.7-1.8l0.9-9.3l-2.3-2.3v-1l3.2-0.5l2.2-4.3l-2.8-2.8l6.6-6.6l-0.1-1.9h9.7v-8.8h-6.7v-6.8h15.7 V3.7l22.7,0v46.5H494l0.1,6.4l3.3,0.4v3.8l-6.1,0.5l-0.9,1.8l1.9,4.7l6.4,2.9l-1.3,6.8v1.7l-3.7,2.8H490v5.3l-0.5,0.4l-2.3,5.5 l1.1,9.3l1.6-1.7v3.3h22.4v54.8h-18.7v20h6.1v6.3h-6v8.4h18.7v47.1l-11.2,17.7v26.3h11.4v11.8L490.1,296.3z"/>
		<path class="utc-bar" data-name="New Zealand Standard" data-utc="+12:00" d="M523.1,296.3v-16.4l11.7-11.7v-52.9l-5.1-13.5v-9.1l-6,0.1v-84.7l-15.1-10.2L540,68.4v-7l-16.3-20.5V3.7h-11.1v46.5H494 l0.1,6.4l3.3,0.4v3.8l-6.1,0.5l-0.9,1.8l1.9,4.7l6.4,2.9l-1.3,6.8v1.7l-3.7,2.8H490v5.3l-0.5,0.4l-2.3,5.5l1.1,9.3l1.6-1.7v3.3h22.4 v54.8h-18.7v20h6.1v6.3h-6v8.4h18.7v47.1l-11.2,17.7v26.3h11.4v11.8L523.1,296.3z"/>
	</g>
</svg>
